<svg id="Icon" xmlns="http://www.w3.org/2000/svg" viewBox="0 0 32 32"><defs><style>.cls-1{fill:#f6a433;}.cls-2{fill:#f8f1f1;}</style></defs><rect id="Bg" class="cls-1" width="32" height="32" rx="5.24"/><path id="Icon-2" data-name="Icon" class="cls-2" d="M25.1,10.22a8.92,8.92,0,0,1-3.7,1.52,9.17,9.17,0,0,1-1.38.11,8.71,8.71,0,0,1-3.41-.7l-.46-.2-.45.2a8.66,8.66,0,0,1-3.41.69A8.76,8.76,0,0,1,6.91,10L3.61,7.46,5,11.54a15,15,0,0,0,7.27,7.89c1.07,1.43,1.6,4,3.12,4.81l.56.3.55-.3c1.5-.81,2.1-3.34,3.14-4.75a14.78,14.78,0,0,0,7.23-7.67l1.48-3.93ZM19,15.32a7.35,7.35,0,0,1-1.87.1c0,.89-.14,1.85-.28,2.85a35,35,0,0,1-.71,3.78c-.27-1.14-.52-2.41-.71-3.78-.14-1-.22-2-.28-2.85a7,7,0,0,1-5.24-1.76,23.69,23.69,0,0,0,2.8.31,23.22,23.22,0,0,0,3.54-.11,20.48,20.48,0,0,0,3.32.11,23.22,23.22,0,0,0,2.8-.31A7.26,7.26,0,0,1,19,15.32Z"/></svg>