<svg width="17" height="23" viewBox="0 0 17 23" fill="none" xmlns="http://www.w3.org/2000/svg">
<path fill-rule="evenodd" clip-rule="evenodd" d="M8.16704 22.6864H8.16716C8.49045 22.6864 8.77346 22.5168 8.9342 22.2623C8.93529 22.2623 15.0804 12.5174 15.0804 12.5174C15.8742 11.2578 16.3343 9.76628 16.3343 8.1671C16.3343 3.65656 12.6777 0 8.16716 0H8.1671C3.6565 0 0 3.65656 0 8.1671C0 9.76628 0.460019 11.2579 1.25441 12.5174C1.2538 12.5174 7.39891 22.2623 7.39891 22.2623C7.56074 22.5168 7.8438 22.6864 8.16704 22.6864ZM12.6996 8.16704C12.6996 10.6729 10.6681 12.7043 8.16228 12.7043C5.65641 12.7043 3.625 10.6729 3.625 8.16704C3.625 5.66117 5.65641 3.62976 8.16228 3.62976C10.6681 3.62976 12.6996 5.66117 12.6996 8.16704Z" fill="#FFA62B"/>
<path fill-rule="evenodd" clip-rule="evenodd" d="M8.1634 5.44482C6.66004 5.44502 5.44141 6.66378 5.44141 8.16719C5.44141 9.6706 6.66004 10.8894 8.1634 10.8896C8.16353 10.8896 8.16365 10.8896 8.16377 10.8896C8.16426 10.8896 8.16475 10.8896 8.16524 10.8896C9.66793 10.8886 10.8858 9.67011 10.8858 8.16719C10.8858 6.66366 9.66694 5.44482 8.1634 5.44482Z" fill="#FFA62B"/>
</svg>
