<svg width="133" height="133" viewBox="0 0 133 133" fill="none" xmlns="http://www.w3.org/2000/svg">
<circle cx="66.4368" cy="66.437" r="52.5245" transform="rotate(18.4319 66.4368 66.437)" fill="#F8F1F1"/>
<path d="M84.1885 44.6704L63.5114 37.7793C62.8471 37.5579 62.1291 37.9169 61.9077 38.5813L55.0166 59.2582C54.7952 59.9226 55.1543 60.6405 55.8186 60.8619L67.4631 64.7427L74.9754 58.1952C75.1916 58.0068 75.4426 57.8586 75.7185 57.7803C76.4537 57.5715 77.2089 57.814 77.6831 58.358L80.056 61.0804L84.9906 46.2742C85.2119 45.6098 84.8528 44.8918 84.1885 44.6704Z" fill="#161616"/>
<path d="M91.2192 79.6766L76.0654 62.2906L70.2833 67.3303C70.2687 67.4608 70.241 67.5917 70.1978 67.7212L64.2026 85.7102L72.8776 95.6632C73.3378 96.191 74.1386 96.246 74.6664 95.7858L91.0966 81.4653C91.6243 81.0054 91.6792 80.2045 91.2192 79.6766Z" fill="#161616"/>
<path d="M64.7851 67.9223L44.1081 61.0312C43.4438 60.8098 42.7258 61.1689 42.5044 61.8332L35.6133 82.5101C35.3919 83.1744 35.751 83.8923 36.4153 84.1137L57.0923 91.0048C57.7566 91.2262 58.4746 90.8672 58.696 90.2029L65.5871 69.5259C65.8084 68.8617 65.4494 68.1437 64.7851 67.9223Z" fill="#161616"/>
</svg>
