<svg width="92" height="92" viewBox="0 0 92 92" fill="none" xmlns="http://www.w3.org/2000/svg">
<path d="M57.0732 79.5347C75.6736 73.3393 85.7298 53.2384 79.5345 34.6381C73.3391 16.0377 53.2382 5.98151 34.6379 12.1769C16.0375 18.3722 5.98131 38.4731 12.1767 57.0734C18.372 75.6738 38.4729 85.73 57.0732 79.5347Z" fill="#529696"/>
<path d="M58.2487 56.6535C56.9435 58.6492 53.8954 60.9023 51.2285 61.9156C48.6459 62.9054 46.9498 63.3313 44.9846 62.7888C43.0615 62.2345 41.873 61.3854 41.1546 59.4531C40.483 57.6892 40.7332 56.3042 41.58 54.6174C42.4267 52.9306 43.9401 51.1946 46.9508 49.1333C50.6071 46.6204 53.1896 43.9976 54.6866 41.2229C56.2257 38.4365 56.7003 35.084 55.6286 32.2066C54.4679 29.1724 51.7352 26.8473 48.5675 25.7316C45.3577 24.6277 41.8626 24.7825 37.998 26.2192C35.4995 27.1857 33.3591 28.4608 31.6842 30.1056L33.2404 35.7061C34.5855 34.0169 37.1142 32.1802 39.8653 31.1436C42.4059 30.1655 44.5979 30.0553 46.4064 30.6868C48.2265 31.3604 49.3425 32.275 50.0609 34.2073C50.7091 35.887 50.3513 37.2111 49.3244 38.9026C48.2975 40.5942 46.2367 42.4823 43.2494 44.6278C39.6469 47.1711 37.3077 50.1799 35.9909 52.9499C34.674 55.7199 34.5573 58.5647 35.6408 61.4842C36.8365 64.6447 39.0311 66.6658 42.2479 67.6317C45.4647 68.5976 49.1049 68.3118 53.1262 66.7861C55.8352 65.7612 58.0131 64.2942 59.8822 62.3686L58.2908 56.6418L58.2487 56.6535Z" fill="white"/>
<path d="M58.8761 34.7515L28.5156 43.188L30.0836 48.8306L60.4441 40.3941L58.8761 34.7515Z" fill="white"/>
<path d="M61.7316 45.0259L31.3711 53.4624L32.939 59.105L63.2996 50.6685L61.7316 45.0259Z" fill="white"/>
</svg>
