<svg width="111" height="111" viewBox="0 0 111 111" fill="none" xmlns="http://www.w3.org/2000/svg">
<circle cx="55.1947" cy="55.1949" r="46.8713" transform="rotate(-11.3746 55.1947 55.1949)" fill="#FDD137"/>
<path d="M64.6094 51.1853L64.6487 51.1774C69.0102 50.2787 71.8393 46.0072 70.96 41.6362C70.4772 39.2364 68.7824 37.5256 66.7801 35.6978L60.3963 30.2429L56.6184 37.7421C55.4788 40.2018 54.5772 42.4348 55.06 44.8348C55.9419 49.2183 60.2257 52.0672 64.6094 51.1853Z" fill="white"/>
<path d="M65.1529 53.8778L65.1052 53.8872C59.2532 55.0386 53.5458 51.2295 52.3684 45.3767C52.0767 43.9264 52.1437 42.564 52.4236 41.2476L48.7136 38.0772L40.9791 53.4307L40.9597 53.4709C39.0355 57.6211 37.3862 61.7333 38.3265 66.4071C40.0374 74.9119 48.3326 80.4462 56.8365 78.7697L56.8996 78.7573C65.4236 77.0425 70.9632 68.7118 69.2482 60.1867C68.7344 57.633 67.5719 55.5331 66.0722 53.6504C65.7717 53.7384 65.4654 53.815 65.1529 53.8778Z" fill="white"/>
</svg>
