<svg width="290" height="214" viewBox="0 0 290 214" fill="none" xmlns="http://www.w3.org/2000/svg">
<circle cx="81.4308" cy="139.658" r="24.1667" fill="#00AAE4"/>
<path d="M92.3996 144.377C92.237 144.077 92.0744 143.777 91.8305 143.476C90.4079 141.546 88.091 140.817 86.0181 141.375C85.4084 141.546 84.758 141.332 84.3516 140.86C83.9451 140.388 83.8232 139.745 84.0264 139.144C84.2296 138.501 84.758 138.072 85.3677 137.986C87.6033 137.6 89.5137 135.799 90.0014 133.226C90.3266 131.424 89.8388 129.58 88.7414 128.207C88.213 127.564 87.5626 127.049 86.831 126.663C85.4897 126.02 84.0671 125.977 82.807 126.406C81.1812 126.921 79.7992 128.25 79.1895 130.009C79.1488 130.094 79.1488 130.137 79.1082 130.223C78.6611 131.596 78.7424 133.054 79.2301 134.298C79.5147 135.027 79.9211 135.713 80.4089 136.271C80.4495 136.314 80.4902 136.399 80.5308 136.442C80.856 136.914 80.9779 137.515 80.8153 138.072C80.6121 138.673 80.165 139.102 79.5959 139.23C79.0675 139.359 78.5798 139.187 78.1733 138.844C78.092 138.758 78.0107 138.673 77.9295 138.587C77.4823 138.029 76.9539 137.557 76.3442 137.171C75.2874 136.528 74.0274 136.271 72.7674 136.442C72.5235 136.485 72.3202 136.528 72.0764 136.571C69.9628 137.171 68.4588 139.016 68.0117 141.16C67.8898 141.847 67.8492 142.533 67.9711 143.262C68.0524 143.905 68.2556 144.463 68.4995 145.02C68.8653 145.793 69.3937 146.436 70.0034 146.993C71.2634 148.066 72.9706 148.58 74.7184 148.194C76.8726 147.723 78.4579 146.05 79.0269 143.991C79.1895 143.348 79.6772 142.876 80.2869 142.747C80.856 142.619 81.4657 142.833 81.8722 143.305C82.2786 143.82 82.4005 144.506 82.1567 145.106C81.425 147.122 81.7502 149.481 83.2135 151.197C83.62 151.669 84.0671 152.055 84.5548 152.355C86.3026 153.47 88.5382 153.47 90.3266 152.355C90.7331 152.097 91.0989 151.84 91.4241 151.497C91.7086 151.197 91.9525 150.854 92.1557 150.511C93.2125 148.666 93.3344 146.307 92.3996 144.377Z" fill="white"/>
<circle cx="220.445" cy="185.866" r="18.8246" transform="rotate(-20.0076 220.445 185.866)" fill="#FFC700"/>
<path d="M222.998 177.472L219.252 178.836L218.174 175.875L216.135 176.617L217.213 179.578L213.446 180.95L214.354 183.444L220.116 181.345L217.466 191.992L218.382 194.508L222.15 193.136L223.22 196.075L225.259 195.332L224.189 192.394L227.934 191.03L227.018 188.514L221.256 190.612L223.905 179.966L222.998 177.472Z" fill="#444444"/>
<circle cx="104.756" cy="189.668" r="17.807" transform="rotate(22.7001 104.756 189.668)" fill="#26A17B"/>
<path d="M110.764 183.688L105.526 181.523L102.359 185.895L105.353 187.148L106.236 185.916L109.252 187.177L104.375 193.879L101.358 192.618L102.241 191.386L99.247 190.133L96.0793 194.505L102.929 197.397C104.203 197.93 105.741 197.391 106.702 196.035L111.649 189.23C113.079 187.255 112.641 184.473 110.764 183.688Z" fill="white"/>
<path d="M100.674 186.346L98.8669 188.845L104.453 191.182L106.282 188.692L100.674 186.346Z" fill="white"/>
<circle cx="165.386" cy="162.719" r="21.8772" transform="rotate(-4.13466 165.386 162.719)" fill="#79B716"/>
<path d="M169.935 157.196L163.567 161.238L163.41 159.059L170.911 154.195L169.52 151.453L163.165 155.672L162.91 152.138L160.256 152.449L161.802 173.827L164.472 173.753L163.812 164.624L171.326 159.937L169.935 157.196Z" fill="white"/>
<circle cx="237.999" cy="120.947" r="25.9995" fill="#F7931A"/>
<path d="M244.218 123.718C243.626 122.619 242.742 121.854 241.485 121.447C244.128 121.056 245.615 119.661 246.023 117.277C246.298 115.674 245.952 114.273 244.987 113.072C244.924 112.984 244.855 112.934 244.829 112.853C244.306 112.265 243.687 111.776 242.929 111.416C242.639 111.289 242.348 111.163 242.02 111.03L242.473 108.384L242.562 107.863L239.946 107.415L239.442 110.359L239.423 110.47L239.309 110.451L238.058 110.237L238.588 107.144L235.972 106.696L235.442 109.789L232.523 109.289L231.439 115.624L230.795 119.387L230.278 122.406L228.932 130.268L231.851 130.768L231.322 133.861L233.938 134.308L234.467 131.216L235.832 131.449L235.322 134.43L235.309 134.505L237.925 134.952L238.359 132.419L238.461 131.822C238.732 131.831 238.96 131.869 239.2 131.834C240.445 131.855 241.507 131.577 242.425 131.005C243.386 130.403 244.083 129.525 244.476 128.365C244.61 128.042 244.674 127.67 244.737 127.297C244.992 126.037 244.811 124.817 244.218 123.718ZM235.663 118.533L236.109 115.925L236.434 114.024L238.482 114.375L239.429 114.537C240.074 114.647 240.573 114.924 240.92 115.406C240.92 115.406 240.913 115.443 240.951 115.449C241.266 115.887 241.36 116.478 241.233 117.224C241.105 117.969 240.82 118.495 240.339 118.797C239.858 119.098 239.296 119.193 238.651 119.083L236.073 118.642L235.656 118.57L235.663 118.533ZM239.333 127.408C238.846 127.746 238.277 127.879 237.671 127.775L234.221 127.184L235.037 122.415L238.563 123.018C239.207 123.129 239.662 123.437 239.965 123.949C240.267 124.461 240.399 125.059 240.271 125.804C240.112 126.505 239.827 127.032 239.333 127.408Z" fill="white"/>
<circle cx="39.4166" cy="187.294" r="18.8246" transform="rotate(-12.4962 39.4166 187.294)" fill="#627EEA"/>
<path d="M40.03 190.349L45.3638 185.125L40.7268 179.539L39.5894 178.138L38.128 176.379L36.5046 174.442L34.6393 181.501L32.9884 187.868L34.684 188.472L40.03 190.349Z" fill="white"/>
<path d="M33.8371 189.762L33.7916 189.834L40.4506 197.911L42.1583 199.952L44.1146 192.476L45.5217 187.081L40.4117 192.071L33.8371 189.762Z" fill="white"/>
</svg>
