<svg width="290" height="214" viewBox="0 0 290 214" fill="none" xmlns="http://www.w3.org/2000/svg">
<circle cx="232.097" cy="171.535" r="31.2895" fill="#010202"/>
<path d="M213.858 174.852C214.035 175.321 214.28 175.722 214.594 176.055C214.907 176.388 215.278 176.643 215.708 176.82C216.137 176.997 216.604 177.085 217.108 177.085C217.599 177.085 218.059 176.993 218.488 176.81C218.917 176.626 219.292 176.368 219.612 176.035C219.933 175.702 220.181 175.304 220.359 174.842C220.536 174.38 220.624 173.863 220.624 173.292V164.483H222.771V178.757H220.645V177.431C220.168 177.934 219.605 178.322 218.958 178.594C218.311 178.866 217.612 179.002 216.863 179.002C216.099 179.002 215.387 178.869 214.726 178.604C214.065 178.339 213.493 177.962 213.009 177.472C212.525 176.983 212.144 176.395 211.864 175.708C211.585 175.022 211.445 174.257 211.445 173.414V164.483H213.592V173.292C213.592 173.863 213.68 174.383 213.858 174.852Z" fill="white"/>
<path d="M226.471 164.483V169.683C226.948 169.207 227.5 168.83 228.127 168.551C228.754 168.273 229.436 168.133 230.172 168.133C230.935 168.133 231.65 168.276 232.318 168.562C232.986 168.847 233.565 169.234 234.056 169.724C234.546 170.213 234.935 170.791 235.221 171.457C235.507 172.123 235.65 172.83 235.65 173.578C235.65 174.325 235.507 175.029 235.221 175.688C234.935 176.348 234.546 176.922 234.056 177.411C233.565 177.901 232.986 178.288 232.318 178.574C231.65 178.859 230.935 179.002 230.172 179.002C229.436 179.002 228.751 178.862 228.117 178.584C227.483 178.305 226.928 177.928 226.451 177.452V178.757H224.407V164.483H226.471ZM226.707 174.985C226.891 175.42 227.146 175.8 227.473 176.127C227.8 176.453 228.182 176.711 228.618 176.902C229.054 177.092 229.524 177.187 230.029 177.187C230.519 177.187 230.983 177.092 231.419 176.902C231.855 176.711 232.233 176.453 232.553 176.127C232.874 175.801 233.129 175.42 233.32 174.985C233.511 174.55 233.606 174.081 233.606 173.578C233.606 173.075 233.511 172.602 233.32 172.161C233.129 171.719 232.874 171.335 232.553 171.009C232.233 170.682 231.855 170.427 231.419 170.244C230.983 170.06 230.519 169.969 230.029 169.969C229.538 169.969 229.075 170.06 228.638 170.244C228.202 170.427 227.821 170.682 227.494 171.009C227.167 171.335 226.908 171.719 226.717 172.161C226.526 172.602 226.431 173.075 226.431 173.578C226.431 174.081 226.523 174.55 226.707 174.985Z" fill="white"/>
<path d="M236.815 171.477C237.088 170.825 237.462 170.251 237.939 169.754C238.416 169.258 238.982 168.867 239.636 168.582C240.29 168.297 240.999 168.154 241.762 168.154C242.512 168.154 243.207 168.29 243.847 168.562C244.488 168.833 245.04 169.211 245.503 169.693C245.967 170.176 246.328 170.747 246.587 171.406C246.846 172.065 246.975 172.783 246.975 173.557V174.23H238.491C238.56 174.652 238.696 175.043 238.9 175.403C239.105 175.763 239.36 176.076 239.667 176.341C239.973 176.606 240.321 176.813 240.709 176.963C241.098 177.112 241.51 177.187 241.946 177.187C243.187 177.187 244.188 176.677 244.951 175.658L246.444 176.759C245.926 177.452 245.285 177.996 244.522 178.39C243.759 178.784 242.9 178.981 241.946 178.981C241.169 178.981 240.444 178.845 239.769 178.574C239.094 178.302 238.508 177.921 238.011 177.432C237.514 176.942 237.122 176.368 236.836 175.709C236.549 175.049 236.406 174.332 236.406 173.557C236.406 172.823 236.542 172.13 236.815 171.477ZM239.687 170.672C239.108 171.155 238.723 171.797 238.532 172.599H244.89C244.713 171.797 244.335 171.155 243.755 170.672C243.176 170.189 242.498 169.948 241.721 169.948C240.945 169.948 240.267 170.189 239.687 170.672Z" fill="white"/>
<path d="M250.839 170.907C250.402 171.382 250.184 172.028 250.184 172.844V178.757H248.12V168.358H250.164V169.642C250.423 169.221 250.76 168.888 251.176 168.643C251.592 168.398 252.086 168.276 252.658 168.276H253.373V170.193H252.515C251.833 170.193 251.275 170.431 250.839 170.907Z" fill="white"/>
<circle cx="45.7459" cy="181.886" r="20.6053" fill="#FF9900"/>
<path d="M53.7773 189.078C44.4871 193.449 38.7215 189.792 35.0307 187.57C34.8023 187.43 34.4142 187.603 34.751 187.986C35.9805 189.46 40.0101 193.012 45.2698 193.012C50.5332 193.012 53.6644 190.173 54.0561 189.678C54.4452 189.187 54.1704 188.916 53.7772 189.078H53.7773ZM56.3864 187.653C56.1369 187.332 54.8694 187.272 54.0717 187.369C53.2727 187.463 52.0735 187.946 52.1778 188.236C52.2313 188.344 52.3405 188.296 52.8893 188.247C53.4397 188.193 54.9814 188 55.3027 188.415C55.6254 188.834 54.8109 190.825 54.6622 191.146C54.5185 191.467 54.7171 191.55 54.9871 191.336C55.2533 191.123 55.7353 190.569 56.0588 189.785C56.38 188.997 56.5759 187.898 56.3863 187.653H56.3864Z" fill="white"/>
<path fill-rule="evenodd" clip-rule="evenodd" d="M47.5306 180.158C47.5306 181.305 47.5599 182.262 46.9735 183.28C46.5003 184.109 45.7506 184.618 44.913 184.618C43.7696 184.618 43.1037 183.757 43.1037 182.485C43.1037 179.976 45.3778 179.521 47.5306 179.521V180.158ZM50.5335 187.334C50.3366 187.508 50.0518 187.521 49.8299 187.405C48.8415 186.593 48.6655 186.216 48.1211 185.442C46.4877 187.09 45.3318 187.583 43.2126 187.583C40.7081 187.583 38.7563 186.055 38.7563 182.995C38.7563 180.606 40.0673 178.978 41.9309 178.183C43.5476 177.479 45.8051 177.355 47.5306 177.16V176.779C47.5306 176.08 47.585 175.252 47.1704 174.647C46.806 174.105 46.1108 173.881 45.4992 173.881C44.3643 173.881 43.3508 174.456 43.1037 175.649C43.0533 175.914 42.8566 176.175 42.5885 176.187L39.6987 175.881C39.4558 175.827 39.1878 175.632 39.2548 175.264C39.9207 171.802 43.0826 170.759 45.9138 170.759C47.3629 170.759 49.256 171.14 50.3994 172.225C51.8485 173.562 51.7103 175.347 51.7103 177.289V181.877C51.7103 183.256 52.2882 183.86 52.8327 184.605C53.0253 184.87 53.0672 185.189 52.8243 185.388C52.217 185.889 51.1364 186.821 50.5418 187.343L50.5334 187.334" fill="white"/>
<path d="M53.7773 189.078C44.4871 193.449 38.7215 189.792 35.0307 187.57C34.8023 187.43 34.4142 187.603 34.751 187.986C35.9805 189.46 40.0101 193.012 45.2698 193.012C50.5332 193.012 53.6644 190.173 54.0561 189.678C54.4452 189.187 54.1704 188.916 53.7772 189.078H53.7773ZM56.3864 187.653C56.1369 187.332 54.8694 187.272 54.0717 187.369C53.2727 187.463 52.0735 187.946 52.1778 188.236C52.2313 188.344 52.3405 188.296 52.8893 188.247C53.4397 188.193 54.9814 188 55.3027 188.415C55.6254 188.834 54.8109 190.825 54.6622 191.146C54.5185 191.467 54.7171 191.55 54.9871 191.336C55.2533 191.123 55.7353 190.569 56.0588 189.785C56.38 188.997 56.5759 187.898 56.3863 187.653H56.3864Z" fill="white"/>
<path fill-rule="evenodd" clip-rule="evenodd" d="M47.5306 180.158C47.5306 181.305 47.5599 182.262 46.9735 183.28C46.5003 184.109 45.7506 184.618 44.913 184.618C43.7696 184.618 43.1037 183.757 43.1037 182.485C43.1037 179.976 45.3778 179.521 47.5306 179.521V180.158ZM50.5335 187.334C50.3366 187.508 50.0518 187.521 49.8299 187.405C48.8415 186.593 48.6655 186.216 48.1211 185.442C46.4877 187.09 45.3318 187.583 43.2126 187.583C40.7081 187.583 38.7563 186.055 38.7563 182.995C38.7563 180.606 40.0673 178.978 41.9309 178.183C43.5476 177.479 45.8051 177.355 47.5306 177.16V176.779C47.5306 176.08 47.585 175.252 47.1704 174.647C46.806 174.105 46.1108 173.881 45.4992 173.881C44.3643 173.881 43.3508 174.456 43.1037 175.649C43.0533 175.914 42.8566 176.175 42.5885 176.187L39.6987 175.881C39.4558 175.827 39.1878 175.632 39.2548 175.264C39.9207 171.802 43.0826 170.759 45.9138 170.759C47.3629 170.759 49.256 171.14 50.3994 172.225C51.8485 173.562 51.7103 175.347 51.7103 177.289V181.877C51.7103 183.256 52.2882 183.86 52.8327 184.605C53.0253 184.87 53.0672 185.189 52.8243 185.388C52.217 185.889 51.1364 186.821 50.5418 187.343L50.5334 187.334" fill="white"/>
<circle cx="233.728" cy="108.886" r="26.2018" fill="white"/>
<path d="M244.514 106.417H243.606V106.371H233.466V110.877H239.833C238.904 113.501 236.408 115.384 233.466 115.384C229.733 115.384 226.706 112.357 226.706 108.624C226.706 104.891 229.733 101.864 233.466 101.864C235.189 101.864 236.757 102.514 237.951 103.576L241.138 100.389C239.125 98.5137 236.434 97.3572 233.466 97.3572C227.244 97.3572 222.199 102.402 222.199 108.624C222.199 114.846 227.244 119.891 233.466 119.891C239.688 119.891 244.733 114.846 244.733 108.624C244.733 107.868 244.655 107.131 244.514 106.417Z" fill="#FBC02D"/>
<path d="M223.498 103.38L227.2 106.095C228.201 103.615 230.627 101.864 233.466 101.864C235.189 101.864 236.757 102.514 237.95 103.576L241.137 100.389C239.125 98.514 236.433 97.3574 233.466 97.3574C229.138 97.3574 225.385 99.8006 223.498 103.38Z" fill="#E53935"/>
<path d="M233.466 119.891C236.376 119.891 239.02 118.777 241.02 116.966L237.533 114.015C236.401 114.872 234.995 115.384 233.466 115.384C230.535 115.384 228.047 113.516 227.11 110.908L223.436 113.739C225.3 117.387 229.087 119.891 233.466 119.891Z" fill="#4CAF50"/>
<path d="M244.513 106.417L244.504 106.371H243.606H233.466V110.877H239.833C239.387 112.137 238.576 113.224 237.531 114.016C237.531 114.015 237.532 114.015 237.533 114.015L241.02 116.965C240.773 117.19 244.733 114.257 244.733 108.624C244.733 107.869 244.655 107.131 244.513 106.417Z" fill="#1565C0"/>
<circle cx="103.36" cy="159.5" r="35.3596" fill="#FCFCFC"/>
<path d="M114.304 175.642C112.258 177.653 109.999 177.339 107.847 176.391C105.558 175.424 103.466 175.363 101.05 176.391C98.04 177.706 96.4427 177.324 94.6301 175.642C84.3965 164.98 85.907 148.737 97.5378 148.126C100.359 148.279 102.334 149.704 103.995 149.823C106.465 149.314 108.829 147.858 111.472 148.049C114.648 148.309 117.023 149.578 118.609 151.86C112.076 155.834 113.625 164.548 119.625 166.994C118.424 170.185 116.883 173.338 114.3 175.669L114.304 175.642ZM103.769 148.011C103.463 143.272 107.258 139.374 111.623 138.992C112.224 144.457 106.714 148.546 103.769 148.011Z" fill="black"/>
<circle cx="175.053" cy="129.544" r="32.0526" fill="#E82127"/>
<path d="M174.734 146.211L179.487 119.365C184.018 119.365 185.447 119.864 185.653 121.9C185.653 121.9 188.692 120.762 190.225 118.451C184.243 115.667 178.233 115.541 178.233 115.541L174.726 119.831L174.734 119.831L171.227 115.541C171.227 115.541 165.216 115.666 159.235 118.45C160.767 120.762 163.807 121.9 163.807 121.9C164.015 119.863 165.442 119.364 169.942 119.361L174.734 146.211Z" fill="white"/>
<path d="M174.732 114.302C179.567 114.265 185.102 115.053 190.768 117.533C191.525 116.165 191.72 115.56 191.72 115.56C185.526 113.099 179.726 112.256 174.731 112.235C169.737 112.256 163.937 113.099 157.744 115.56C157.744 115.56 158.02 116.305 158.695 117.533C164.36 115.053 169.896 114.265 174.731 114.302H174.732Z" fill="white"/>
</svg>
