<svg width="103" height="103" viewBox="0 0 103 103" fill="none" xmlns="http://www.w3.org/2000/svg">
<circle cx="51.1024" cy="51.1024" r="51.1024" fill="#F7931A"/>
<path d="M63.325 56.549C62.1607 54.3897 60.4239 52.8862 57.9531 52.0864C63.1469 51.3169 66.0704 48.5757 66.8727 43.8883C67.4118 40.739 66.7329 37.9843 64.8359 35.6242C64.712 35.4522 64.5755 35.3534 64.5261 35.1942C63.4968 34.038 62.2809 33.076 60.7914 32.3687C60.2203 32.1202 59.6493 31.8717 59.0037 31.6104L59.8938 26.4104L60.0693 25.385L54.9279 24.5049L53.9375 30.2909L53.8999 30.5106L53.6763 30.4724L51.2174 30.0515L52.2579 23.9725L47.1165 23.0925L46.0759 29.1714L40.3384 28.1893L38.2071 40.6401L36.941 48.0374L35.9255 53.9698L33.2803 69.4235L39.0178 70.4056L37.9773 76.4845L43.1188 77.3646L44.1593 71.2856L46.8418 71.7448L45.8389 77.604L45.8138 77.7505L50.9552 78.6306L51.8077 73.6502L52.0083 72.4784C52.5424 72.4944 52.9895 72.571 53.4617 72.501C55.9088 72.5429 57.9966 71.9957 59.7996 70.872C61.6896 69.6878 63.0588 67.9621 63.8325 65.6822C64.0944 65.0485 64.2197 64.3161 64.3451 63.5837C64.8459 61.1063 64.4893 58.7083 63.325 56.549ZM46.5087 46.3581L47.3863 41.2313L48.0257 37.496L52.0494 38.1848L53.9123 38.5037C55.179 38.7205 56.1595 39.2653 56.8413 40.2112C56.8413 40.2112 56.8287 40.2844 56.9032 40.2972C57.523 41.1571 57.7075 42.3195 57.4568 43.7843C57.206 45.2491 56.6454 46.2839 55.7004 46.876C54.7554 47.4681 53.6495 47.6558 52.3828 47.4389L47.3158 46.5716L46.4962 46.4313L46.5087 46.3581ZM53.7237 63.8011C52.7661 64.4664 51.6477 64.7273 50.4555 64.5232L43.6748 63.3626L45.2794 53.9878L52.2092 55.174C53.476 55.3908 54.3694 55.9961 54.9641 57.0025C55.5588 58.0089 55.8179 59.1841 55.5671 60.6489C55.2544 62.0277 54.6938 63.0625 53.7237 63.8011Z" fill="white"/>
</svg>
