<svg width="96" height="96" viewBox="0 0 96 96" fill="none" xmlns="http://www.w3.org/2000/svg">
<path d="M77.2785 54.2352C80.8208 37.8877 70.4401 21.7638 54.0925 18.2216C37.745 14.6793 21.6212 25.06 18.0789 41.4075C14.5366 57.755 24.9173 73.8789 41.2648 77.4212C57.6124 80.9634 73.7362 70.5827 77.2785 54.2352Z" fill="#161616"/>
<path d="M54.0909 46.9901C55.3293 45.9138 55.6834 45.3291 56.2134 43.9586C56.9033 42.2143 56.9275 40.5412 56.627 39.1064C56.0192 36.2041 54.616 34.2173 52.4242 33.1785C50.2323 32.1397 47.7599 31.8745 44.4011 32.5778L36.8682 34.1553L43.3964 65.3305L48.1901 64.3267L47.3365 60.2505L45.2059 50.0761C45.2059 50.0761 48.0104 49.4888 49.804 49.1133C50.8475 48.8947 52.4575 48.4555 54.0909 46.9901ZM42.2235 37.4591L45.2888 36.8172C47.2128 36.4143 48.7554 36.4657 49.9165 36.9714C51.0777 37.4772 51.8316 38.4766 52.1389 39.9441C52.4189 41.2811 52.1483 42.4271 51.3922 43.3683C50.6036 44.3164 49.4464 44.9672 47.9463 45.2813L44.0331 46.1007L42.2235 37.4591Z" fill="white"/>
<path d="M58.7372 34.7162L34.9971 39.6875L35.6185 42.655L59.3586 37.6837L58.7372 34.7162Z" fill="white"/>
<path d="M59.6591 39.1181L35.9189 44.0894L36.5404 47.0569L60.2805 42.0856L59.6591 39.1181Z" fill="white"/>
</svg>
