<svg width="61" height="61" viewBox="0 0 61 61" fill="none" xmlns="http://www.w3.org/2000/svg">
<path d="M58.053 32.968C56.6071 48.2891 43.0201 59.5329 27.699 58.087C12.3779 56.6411 1.1719 43.0576 2.61779 27.7365C4.06368 12.4154 17.6507 1.17167 32.9718 2.61756C48.2929 4.06345 59.4989 17.6469 58.053 32.968Z" fill="#FFA62B"/>
<path d="M38.507 32.0998C40.1942 31.3264 40.7423 30.8401 41.7976 29.5407C43.0997 27.9059 43.6975 26.1329 43.8518 24.4974C44.1639 21.1909 43.3288 18.637 41.3177 16.7613C39.3032 14.9211 36.7883 13.8229 32.9484 13.4605L24.3799 12.6519L21.0313 48.1349L26.5066 48.6516L26.9461 43.994L28.04 32.4034C28.04 32.4034 31.2043 32.702 33.2664 32.8966C34.4008 33.0395 36.2597 33.1073 38.507 32.0998ZM29.0078 17.967L32.4921 18.2959C34.6609 18.5005 36.2917 19.0849 37.3878 20.0134C38.4839 20.9418 38.9353 22.2399 38.7776 23.911C38.6334 25.4398 37.9893 26.5627 36.8388 27.3509C35.6917 28.1036 34.2292 28.396 32.5226 28.235L28.0784 27.8155L29.0078 17.967Z" fill="white"/>
<path d="M33.198 28.2991L20.043 27.0576L19.6135 31.6085L32.7685 32.85L33.198 28.2991Z" fill="white"/>
<path d="M37.0893 35.338L19.4189 33.6704L18.9895 38.2213L36.6599 39.8889L37.0893 35.338Z" fill="white"/>
</svg>
