<svg width="123" height="123" viewBox="0 0 123 123" fill="none" xmlns="http://www.w3.org/2000/svg">
<circle cx="61.5" cy="61.5" r="61.5" fill="#010202"/>
<path d="M25.6505 68.0194C25.9988 68.9412 26.481 69.7294 27.0971 70.384C27.7132 71.0387 28.4432 71.5396 29.2869 71.887C30.1308 72.2344 31.0482 72.408 32.0394 72.408C33.0038 72.408 33.9078 72.2276 34.7517 71.8669C35.5955 71.5061 36.3321 70.9985 36.9616 70.3439C37.5911 69.6893 38.08 68.9078 38.4282 67.9993C38.7765 67.0908 38.9506 66.0756 38.9506 64.9533V47.6392H43.1696V75.6945H38.9908V73.0893C38.0532 74.0778 36.9482 74.8394 35.6758 75.3739C34.4033 75.9082 33.0306 76.1754 31.5572 76.1754C30.0571 76.1754 28.6575 75.9148 27.3582 75.3938C26.0591 74.8728 24.9339 74.1314 23.983 73.1695C23.0322 72.2075 22.282 71.0521 21.7329 69.7027C21.1837 68.3533 20.9092 66.8504 20.9092 65.1937V47.6392H25.1282V64.9533C25.1282 66.0756 25.3023 67.0975 25.6505 68.0194Z" fill="white"/>
<path d="M50.443 47.6392V57.8593C51.3806 56.9241 52.4655 56.1827 53.6977 55.6349C54.9299 55.0871 56.2694 54.8133 57.7158 54.8133C59.216 54.8133 60.6222 55.0938 61.9348 55.6549C63.2474 56.216 64.3858 56.9775 65.3502 57.9395C66.3146 58.9014 67.0781 60.0369 67.6406 61.3461C68.2031 62.6554 68.4843 64.0448 68.4843 65.5144C68.4843 66.9839 68.2031 68.3666 67.6406 69.6625C67.0781 70.9584 66.3146 72.0874 65.3502 73.0491C64.3858 74.0111 63.2474 74.7726 61.9348 75.3337C60.6222 75.8948 59.2159 76.1753 57.7158 76.1753C56.2693 76.1753 54.9233 75.9014 53.6776 75.3536C52.432 74.8059 51.3404 74.0645 50.4028 73.1293V75.6944H46.3848V47.6392H50.443ZM50.9051 68.2798C51.2667 69.1349 51.769 69.883 52.4119 70.5243C53.0548 71.1656 53.8049 71.6733 54.6621 72.0474C55.5193 72.4214 56.4434 72.6085 57.4346 72.6085C58.399 72.6085 59.3097 72.4214 60.1669 72.0474C61.0241 71.6733 61.7673 71.1657 62.397 70.5243C63.0265 69.8831 63.5287 69.1349 63.9037 68.2798C64.2788 67.4248 64.4663 66.5031 64.4663 65.5144C64.4663 64.5258 64.2788 63.5973 63.9037 62.7289C63.5287 61.8605 63.0265 61.1057 62.397 60.4644C61.7674 59.8233 61.0241 59.3222 60.1669 58.9615C59.3096 58.6009 58.3989 58.4204 57.4346 58.4204C56.4703 58.4204 55.5595 58.6008 54.7023 58.9615C53.8452 59.3223 53.0951 59.8233 52.4521 60.4644C51.8093 61.1057 51.3003 61.8605 50.9253 62.7289C50.5503 63.5973 50.3627 64.5258 50.3627 65.5144C50.3627 66.5031 50.5435 67.4248 50.9051 68.2798Z" fill="white"/>
<path d="M70.7732 61.3863C71.3089 60.1037 72.0457 58.9749 72.9831 57.9996C73.9206 57.0244 75.0324 56.2562 76.3182 55.6951C77.604 55.134 78.997 54.8535 80.497 54.8535C81.9704 54.8535 83.3365 55.1207 84.5956 55.655C85.8545 56.1894 86.9394 56.9309 87.8502 57.8795C88.761 58.8279 89.4709 59.9502 89.9798 61.2461C90.4888 62.542 90.7432 63.9514 90.7432 65.4745V66.7971H74.0681C74.2021 67.6254 74.47 68.3936 74.8717 69.1015C75.2736 69.8096 75.7758 70.4242 76.3785 70.9452C76.9812 71.4663 77.6643 71.8738 78.4278 72.1676C79.1912 72.4615 80.0015 72.6085 80.8587 72.6085C83.2964 72.6085 85.2653 71.6065 86.7654 69.6025L89.6986 71.7667C88.6807 73.1294 87.4218 74.1983 85.9217 74.9731C84.4215 75.7479 82.7339 76.1354 80.8588 76.1354C79.3319 76.1354 77.9055 75.8681 76.5795 75.3338C75.2535 74.7994 74.1017 74.0512 73.124 73.0893C72.1462 72.1273 71.3761 70.9985 70.8136 69.7026C70.251 68.4068 69.9697 66.9973 69.9697 65.4743C69.9695 64.0315 70.2375 62.6688 70.7732 61.3863ZM76.4187 59.8031C75.2802 60.7517 74.5235 62.0142 74.1485 63.5906H86.6449C86.2966 62.0142 85.5532 60.7517 84.4147 59.8031C83.2763 58.8546 81.9436 58.3804 80.4168 58.3804C78.8898 58.3804 77.5572 58.8546 76.4187 59.8031Z" fill="white"/>
<path d="M98.3373 60.264C97.4802 61.1991 97.0515 62.4683 97.0515 64.0715V75.6945H92.9932V55.2542H97.0112V57.7792C97.5203 56.9509 98.1833 56.2962 99.0002 55.8153C99.8172 55.3343 100.788 55.0938 101.913 55.0938H103.32V58.8612H101.632C100.293 58.8613 99.1945 59.3288 98.3373 60.264Z" fill="white"/>
</svg>
