<svg width="81" height="81" viewBox="0 0 81 81" fill="none" xmlns="http://www.w3.org/2000/svg">
<path d="M81 40.5C81 62.8714 62.8714 81 40.5 81C18.1286 81 0 62.8714 0 40.5C0 18.1286 18.1286 0 40.5 0C62.8714 0 81 18.1837 81 40.5Z" fill="#529696"/>
<path d="M52.4117 53.3596C49.7232 56.5134 46.0524 58.4263 42.0197 58.4263C33.8509 58.4263 28.629 50.516 28.629 40.7445C28.629 30.9729 33.8509 23.0626 42.0197 23.0626C46.0524 23.0626 49.7232 24.9755 52.4117 28.1293L56.858 23.683C53.0838 18.9265 47.7586 15.9795 41.8129 15.9795C30.3869 15.9795 22.4766 27.0436 22.4766 40.6928C22.4766 54.3419 30.3869 65.406 41.8129 65.406C47.7069 65.406 53.0321 62.459 56.858 57.7025L52.4117 53.3596Z" fill="white"/>
<path d="M47.7062 33.6616H16.5303V39.4522H47.7062V33.6616Z" fill="white"/>
<path d="M47.7062 42.0889H16.5303V47.8794H47.7062V42.0889Z" fill="white"/>
</svg>
