<svg width="290" height="216" viewBox="0 0 290 216" fill="none" xmlns="http://www.w3.org/2000/svg">
<circle cx="125.433" cy="181.854" r="26.723" transform="rotate(18.4319 125.433 181.854)" fill="#F8F1F1"/>
<path d="M134.464 170.78L123.944 167.274C123.606 167.161 123.241 167.344 123.129 167.682L119.623 178.201C119.51 178.539 119.693 178.905 120.031 179.017L125.955 180.992L129.777 177.661C129.887 177.565 130.015 177.489 130.155 177.45C130.529 177.343 130.913 177.467 131.155 177.743L132.362 179.128L134.872 171.595C134.985 171.257 134.802 170.892 134.464 170.78Z" fill="#161616"/>
<path d="M138.041 188.59L130.331 179.744L127.389 182.308C127.382 182.375 127.368 182.441 127.346 182.507L124.296 191.659L128.709 196.723C128.943 196.992 129.351 197.02 129.619 196.786L137.979 189.5C138.247 189.266 138.275 188.858 138.041 188.59Z" fill="#161616"/>
<path d="M124.592 182.609L114.072 179.103C113.734 178.991 113.369 179.174 113.256 179.512L109.751 190.031C109.638 190.369 109.821 190.735 110.159 190.847L120.678 194.353C121.016 194.466 121.382 194.283 121.494 193.945L125 183.425C125.113 183.087 124.93 182.722 124.592 182.609Z" fill="#161616"/>
<circle cx="249.623" cy="149.36" r="16.2152" transform="rotate(6.18764 249.623 149.36)" fill="#161616"/>
<path d="M256.723 146.31L243.276 144.852C243.09 144.832 242.923 144.966 242.903 145.152L242.727 146.775C242.707 146.961 242.841 147.128 243.027 147.148L243.375 147.186L243.809 152.844C243.145 153.154 242.654 153.793 242.569 154.573C242.44 155.76 243.301 156.829 244.487 156.958C245.674 157.087 246.744 156.226 246.872 155.04C246.879 154.979 246.882 154.918 246.884 154.858L251.055 155.31C251.043 155.369 251.033 155.429 251.027 155.49C250.898 156.676 251.759 157.746 252.945 157.875C254.132 158.004 255.201 157.143 255.33 155.957C255.415 155.177 255.072 154.447 254.49 154.002L256.126 148.568L256.474 148.606C256.66 148.626 256.827 148.492 256.847 148.306L257.023 146.683C257.043 146.497 256.909 146.33 256.723 146.31ZM244.633 155.613C244.188 155.565 243.866 155.164 243.914 154.719C243.962 154.274 244.363 153.951 244.808 153.999C245.253 154.048 245.576 154.449 245.528 154.894C245.479 155.339 245.078 155.661 244.633 155.613ZM253.091 156.53C252.646 156.482 252.323 156.081 252.372 155.636C252.42 155.191 252.821 154.868 253.266 154.916C253.711 154.965 254.033 155.366 253.985 155.811C253.937 156.256 253.536 156.578 253.091 156.53Z" fill="white"/>
<path d="M255.224 143.727C255.218 143.713 255.208 143.7 255.196 143.69L254.444 143.094C254.41 143.067 254.361 143.069 254.328 143.098L254.126 143.277L254.013 142.653C254.01 142.634 254 142.617 253.986 142.603L253.05 141.72C253.027 141.697 252.993 141.689 252.962 141.699L251.98 142L250.894 142.057L250.02 141.506C250.016 141.504 250.012 141.502 250.009 141.5L249.273 141.171C249.247 141.159 249.216 141.161 249.191 141.176L248.467 141.6L247.605 141.477C247.586 141.475 247.566 141.478 247.549 141.488L246.537 142.043C246.511 142.057 246.493 142.083 246.49 142.112L246.458 142.406L245.785 142.85C245.783 142.852 245.78 142.854 245.778 142.856L244.373 144.027L255.842 145.276L255.224 143.727Z" fill="white"/>
<circle cx="191.97" cy="127.461" r="24.1012" transform="rotate(-18.407 191.97 127.461)" fill="#F9EA9B"/>
<path d="M192.976 119.466C192.79 119.245 192.488 119.16 192.214 119.251L186.854 121.035C186.58 121.126 186.389 121.375 186.372 121.663L186.012 127.737C185.982 128.234 186.466 128.606 186.94 128.448L196.587 125.238C197.061 125.08 197.226 124.493 196.904 124.112L192.976 119.466Z" fill="#161616"/>
<path d="M189.712 129.482C189.526 129.261 189.224 129.177 188.95 129.268L183.59 131.052C183.317 131.143 183.126 131.391 183.108 131.68L182.748 137.753C182.719 138.251 183.202 138.622 183.676 138.465L193.324 135.254C193.797 135.097 193.962 134.51 193.64 134.128L189.712 129.482Z" fill="#161616"/>
<path d="M201.591 125.529C201.405 125.308 201.103 125.223 200.829 125.315L195.469 127.098C195.196 127.189 195.004 127.438 194.987 127.726L194.627 133.8C194.598 134.297 195.081 134.669 195.555 134.511L205.203 131.301C205.676 131.143 205.841 130.556 205.519 130.175L201.591 125.529Z" fill="#161616"/>
<circle cx="86.3271" cy="124.748" r="23.8468" transform="rotate(-11.3746 86.3271 124.748)" fill="#FDD137"/>
<path d="M91.1169 122.708L91.1369 122.704C93.356 122.247 94.7953 120.074 94.348 117.85C94.1023 116.629 93.2401 115.758 92.2213 114.829L88.9735 112.053L87.0514 115.869C86.4715 117.12 86.0129 118.256 86.2585 119.477C86.7072 121.707 88.8867 123.157 91.1169 122.708Z" fill="white"/>
<path d="M91.3934 124.078L91.3691 124.083C88.3918 124.668 85.488 122.731 84.889 119.753C84.7406 119.015 84.7746 118.322 84.9171 117.652L83.0295 116.039L79.0944 123.85L79.0846 123.871C78.1056 125.982 77.2665 128.075 77.7448 130.452C78.6153 134.779 82.8357 137.595 87.1623 136.742L87.1943 136.736C91.5311 135.863 94.3495 131.625 93.4769 127.288C93.2156 125.988 92.6241 124.92 91.8611 123.962C91.7082 124.007 91.5524 124.046 91.3934 124.078Z" fill="white"/>
<circle cx="204.816" cy="186.974" r="18.5702" fill="#FFE600"/>
<path d="M211.011 177.731C210.465 177.831 209.928 177.959 209.4 178.114L210.403 179.117C210.865 178.825 211.275 178.601 211.628 178.448C211.921 178.321 212.811 177.934 213.333 178.457C212.725 177.849 211.857 177.577 211.011 177.731Z" fill="#161616"/>
<path d="M213.334 178.457C213.856 178.98 213.469 179.87 213.342 180.162C213.189 180.515 212.965 180.925 212.673 181.387L213.676 182.39C213.831 181.863 213.96 181.325 214.059 180.779C214.213 179.933 213.942 179.065 213.334 178.457Z" fill="#161616"/>
<path d="M209.753 180.887C209.537 181.046 209.315 181.216 209.089 181.393L210.397 182.701C210.574 182.475 210.743 182.253 210.903 182.037C211.037 181.856 211.16 181.686 211.273 181.525L210.265 180.517C210.104 180.63 209.934 180.753 209.753 180.887Z" fill="#161616"/>
<path d="M212.045 182.318C211.78 182.688 211.488 183.076 211.172 183.476L212.659 184.963C212.893 184.5 213.102 184.026 213.288 183.54L212.053 182.306C212.051 182.31 212.048 182.314 212.045 182.318Z" fill="#161616"/>
<path d="M209.535 185.43L211.29 187.185C211.584 186.788 211.859 186.378 212.112 185.955L210.483 184.326C210.182 184.687 209.865 185.055 209.535 185.43Z" fill="#161616"/>
<path d="M212.493 179.297C212.298 179.341 211.903 179.479 211.194 179.907L211.883 180.597C212.312 179.888 212.45 179.492 212.493 179.297Z" fill="#161616"/>
<path d="M207.464 181.307L205.835 179.678C205.412 179.931 205.002 180.206 204.605 180.5L206.36 182.255C206.734 181.924 207.103 181.608 207.464 181.307Z" fill="#161616"/>
<path d="M209.472 179.746C209.476 179.743 209.48 179.74 209.484 179.737L208.25 178.503C207.764 178.688 207.29 178.898 206.827 179.131L208.314 180.618C208.714 180.302 209.102 180.01 209.472 179.746Z" fill="#161616"/>
<path d="M209.71 183.553L208.237 182.08C207.876 182.38 207.507 182.696 207.131 183.027L208.763 184.658C209.094 184.283 209.41 183.914 209.71 183.553Z" fill="#161616"/>
<path d="M208.035 185.469L206.322 183.755C205.971 184.077 205.618 184.409 205.264 184.749L207.041 186.527C207.382 186.172 207.714 185.819 208.035 185.469Z" fill="#161616"/>
<path d="M209.289 190.017C207.37 188.176 204.317 188.243 202.436 190.124L197.473 195.086C199.537 196.764 202.586 196.642 204.506 194.722L206.06 193.168C206.776 192.452 207.75 192.076 208.763 192.06C209.195 192.053 209.579 191.79 209.741 191.386C209.902 190.983 209.794 190.521 209.487 190.213C209.487 190.213 209.319 190.046 209.289 190.017Z" fill="#161616"/>
<path d="M207.811 187.296L208.873 188.359C209.181 188.534 209.473 188.737 209.747 188.967L209.791 188.923C210.076 188.639 210.348 188.345 210.607 188.041L208.805 186.239C208.484 186.589 208.152 186.942 207.811 187.296Z" fill="#161616"/>
<path d="M204.204 185.792C204.205 185.848 204.205 185.905 204.204 185.961C204.192 186.655 204.062 187.33 203.827 187.963C204.492 187.715 205.204 187.586 205.935 187.586C205.956 187.586 205.977 187.586 205.998 187.586C206.049 187.535 206.238 187.348 206.28 187.305L204.486 185.51C204.443 185.552 204.255 185.741 204.204 185.792Z" fill="#161616"/>
<path d="M204.494 183.979C204.848 183.638 205.201 183.306 205.551 182.985L203.749 181.182C203.446 181.442 203.151 181.714 202.867 181.999L202.823 182.042C203.054 182.318 203.258 182.611 203.433 182.919L204.494 183.979Z" fill="#161616"/>
<path d="M201.773 182.501C201.744 182.471 201.577 182.303 201.577 182.303C201.27 181.996 200.807 181.888 200.404 182.05C200 182.211 199.737 182.595 199.731 183.027C199.715 184.04 199.338 185.014 198.622 185.73L197.069 187.284C195.148 189.205 195.026 192.253 196.704 194.317L201.666 189.354C203.547 187.474 203.614 184.42 201.773 182.501Z" fill="#161616"/>
<circle cx="41.5347" cy="182.904" r="16.5351" transform="rotate(-18.5753 41.5347 182.904)" fill="#0F2DCA"/>
<path d="M38.7903 175.104C38.7903 175.104 39.6796 178.586 38.1254 181.791C36.5996 184.207 36.5687 185.229 36.8717 186.563C37.1758 187.902 38.16 190.359 41.0993 191.272C41.0993 191.272 39.5502 189.479 41.0713 187.068C42.5218 184.768 41.8865 183.694 41.8203 183.598C41.8754 183.68 42.9201 185.221 44.2815 185.839C45.6777 186.473 46.1109 188.279 45.6516 190.242C45.6516 190.242 48.2108 187.029 47.5485 184.098C46.4666 179.326 40.5634 175.342 38.7903 175.104Z" fill="white"/>
</svg>
