<svg width="103" height="103" viewBox="0 0 103 103" fill="none" xmlns="http://www.w3.org/2000/svg">
<circle cx="51.5" cy="51.5" r="51.5" fill="white"/>
<path d="M72.6991 46.6477H70.9153V46.5558H50.9848V55.4138H63.5001C61.6742 60.5703 56.768 64.2718 50.9848 64.2718C43.6471 64.2718 37.6978 58.3226 37.6978 50.9848C37.6978 43.6471 43.6471 37.6978 50.9848 37.6978C54.3719 37.6978 57.4534 38.9756 59.7997 41.0628L66.0634 34.7991C62.1083 31.113 56.8178 28.8398 50.9848 28.8398C38.7553 28.8398 28.8398 38.7553 28.8398 50.9848C28.8398 63.2144 38.7553 73.1298 50.9848 73.1298C63.2144 73.1298 73.1298 63.2144 73.1298 50.9848C73.1298 49.5 72.977 48.0506 72.6991 46.6477Z" fill="#FBC02D"/>
<path d="M31.3926 40.6775L38.6683 46.0133C40.637 41.1392 45.4048 37.6978 50.9843 37.6978C54.3713 37.6978 57.4528 38.9756 59.7991 41.0628L66.0628 34.7991C62.1077 31.113 56.8173 28.8398 50.9843 28.8398C42.4784 28.8398 35.1019 33.642 31.3926 40.6775Z" fill="#E53935"/>
<path d="M50.9841 73.1298C56.7042 73.1298 61.9016 70.9408 65.8312 67.381L58.9774 61.5812C56.754 63.2653 53.9903 64.2718 50.9841 64.2718C45.2242 64.2718 40.3335 60.5991 38.491 55.4736L31.2695 61.0376C34.9345 68.2092 42.3775 73.1298 50.9841 73.1298Z" fill="#4CAF50"/>
<path d="M72.6987 46.6476L72.6809 46.5557H70.9149H50.9844V55.4137H63.4996C62.6227 57.8906 61.0293 60.0265 58.9743 61.5822C58.9754 61.581 58.9765 61.581 58.9776 61.5799L65.8315 67.3797C65.3465 67.8204 73.1294 62.0572 73.1294 50.9847C73.1294 49.4998 72.9766 48.0505 72.6987 46.6476Z" fill="#1565C0"/>
</svg>
