<svg width="113" height="113" viewBox="0 0 113 113" fill="none" xmlns="http://www.w3.org/2000/svg">
<path d="M96.4369 70.1593C104.134 47.9497 92.3699 23.7053 70.1603 16.0078C47.9506 8.31037 23.7062 20.0748 16.0087 42.2844C8.3113 64.4941 20.0757 88.7385 42.2854 96.436C64.495 104.133 88.7395 92.369 96.4369 70.1593Z" fill="#FFA62B"/>
<path d="M61.8735 68.311C62.3054 66.4136 61.9403 65.0949 61.0084 63.5523C60.0313 61.9994 58.471 60.5037 55.5039 58.9255C51.9003 57.0123 49.2681 54.7975 47.5623 52.2709C45.8565 49.7442 45.0792 46.4786 45.7785 43.4064C46.5087 40.1988 48.7543 37.4311 51.5869 35.8425C54.3846 34.1984 57.6584 33.8031 61.3178 34.636C65.2935 35.541 68.5398 37.5629 70.3234 40.5825C72.1071 43.602 72.0896 47.0194 71.2588 50.2517L71.1725 50.4221L66.1125 49.2704C66.6575 46.8759 66.3871 44.7235 65.326 42.9139C64.2648 41.1042 62.7206 40.3725 60.1003 39.7761C57.6607 39.2208 55.6644 39.4317 54.0663 40.3984C52.4682 41.3652 51.558 42.441 51.0952 44.4741C50.6839 46.2812 51.16 47.53 52.2828 49.0686C53.4057 50.6072 55.4733 52.1708 58.4301 53.7942C61.9783 55.7423 64.4624 58.3986 65.9772 60.9293C67.492 63.46 67.8895 66.3066 67.1902 69.3787C66.4292 72.7219 64.6478 75.12 61.8009 76.5629C58.9437 78.0509 55.6002 78.3352 51.76 77.4611C48.1457 76.6384 45.1951 74.7788 42.9432 71.9378C40.6563 69.0413 40.0248 65.7613 40.9132 62.067L40.9996 61.8965L46.0595 63.0483C45.4528 65.7138 45.6372 66.9913 47.0352 68.7826C48.4332 70.5739 50.4023 71.7349 52.8871 72.3005C55.372 72.8661 56.9491 73.035 58.6622 72.1895C60.4102 71.3993 61.4107 70.3441 61.8735 68.311Z" fill="white"/>
<path d="M64.6811 31.5523L59.4404 30.3594L47.9126 81.0043L53.1533 82.1972L64.6811 31.5523Z" fill="white"/>
</svg>
