<svg width="71" height="71" viewBox="0 0 71 71" fill="none" xmlns="http://www.w3.org/2000/svg">
<circle cx="35.1215" cy="35.1209" r="31.8713" transform="rotate(6.18764 35.1215 35.1209)" fill="#161616"/>
<path d="M49.0769 29.1262L22.6451 26.2606C22.2803 26.221 21.9523 26.4847 21.9127 26.8497L21.5668 30.0405C21.5272 30.4054 21.7911 30.7334 22.1559 30.7729L22.8405 30.8471L23.6926 41.9697C22.3882 42.5788 21.4226 43.8347 21.2565 45.3676C21.0036 47.6995 22.6951 49.8023 25.027 50.0551C27.3589 50.3079 29.4618 48.6165 29.7147 46.2846C29.7277 46.1648 29.7341 46.0458 29.7371 45.9275L37.9348 46.8162C37.9123 46.9325 37.8932 47.0501 37.8802 47.1698C37.6274 49.5018 39.3188 51.6046 41.6507 51.8574C43.9826 52.1102 46.0854 50.4188 46.3382 48.0868C46.5044 46.554 45.8303 45.1203 44.6868 44.2459L47.903 33.5643L48.5875 33.6385C48.9523 33.6781 49.2803 33.4143 49.3199 33.0493L49.6658 29.8586C49.7055 29.4936 49.4416 29.1658 49.0769 29.1262ZM25.3135 47.412C24.4392 47.3172 23.8048 46.5287 23.8996 45.6541C23.9944 44.7797 24.7831 44.1454 25.6574 44.2402C26.5319 44.335 27.1662 45.1236 27.0714 45.998C26.9767 46.8725 26.1881 47.5068 25.3135 47.412ZM41.9373 49.2143C41.0628 49.1194 40.4285 48.3309 40.5233 47.4564C40.6181 46.5819 41.4067 45.9476 42.2811 46.0424C43.1555 46.1372 43.7899 46.9259 43.6951 47.8003C43.6003 48.6748 42.8117 49.3091 41.9373 49.2143Z" fill="white"/>
<path d="M46.1301 24.0499C46.1187 24.0212 46.0998 23.9959 46.0756 23.9767L44.5977 22.8062C44.5302 22.7527 44.4345 22.7556 44.3701 22.8127L43.973 23.1658L43.7505 21.9381C43.7435 21.9009 43.7251 21.8668 43.6976 21.8409L41.8579 20.1038C41.8117 20.06 41.7455 20.0445 41.6842 20.0631L39.7536 20.6549L37.6197 20.7675L35.9013 19.6849C35.8942 19.6805 35.887 19.6766 35.8794 19.6731L34.434 19.0261C34.3819 19.0028 34.3214 19.006 34.2721 19.035L32.8498 19.8689L31.1553 19.6278C31.1176 19.6226 31.0788 19.6294 31.0452 19.6478L29.0549 20.7394C29.004 20.7673 28.97 20.8182 28.9638 20.8757L28.9011 21.4536L27.5787 22.3265C27.5736 22.33 27.5685 22.3336 27.5636 22.3376L24.8033 24.6389L47.3451 27.0936L46.1301 24.0499Z" fill="white"/>
</svg>
