<svg width="74" height="74" viewBox="0 0 74 74" fill="none" xmlns="http://www.w3.org/2000/svg">
<path d="M65.2365 44.8262C60.7409 60.596 44.3188 69.7321 28.5489 65.2364C12.7791 60.7408 3.64307 44.3188 8.1387 28.5489C12.6343 12.779 29.0564 3.64301 44.8262 8.13865C60.5961 12.6343 69.721 29.0952 65.2365 44.8262Z" fill="#161616"/>
<path d="M23.6005 48.8602L31.9561 19.5503L41.5349 22.281C44.6042 23.156 46.8066 24.5132 48.1517 26.319C49.4969 28.1248 49.8065 30.3647 49.0565 32.9955C48.6815 34.3109 47.9499 35.3423 46.8086 36.1475C45.6769 36.919 44.3765 37.3871 42.8831 37.5084C44.565 38.389 45.6978 39.6601 46.3251 41.2977C46.9523 42.9353 47.0063 44.6648 46.4967 46.4524C45.7275 49.1506 44.2736 50.9243 42.1497 51.8505C39.992 52.7671 37.4628 52.812 34.461 51.9562L23.6005 48.8602ZM32.9947 32.5377L38.9646 34.2396C40.3474 34.6338 41.5566 34.6138 42.5921 34.1796C43.6613 33.7551 44.3449 32.8923 44.6911 31.6781C45.0757 30.329 44.8823 29.2162 44.164 28.2821C43.4119 27.3383 42.183 26.6597 40.4291 26.1598L35.235 24.679L32.9947 32.5377ZM32.029 37.0764L29.3464 46.4866L35.4175 48.2173C37.0027 48.6692 38.366 48.6202 39.4978 48.1041C40.5959 47.5783 41.3854 46.5999 41.7989 45.1496C42.2315 43.6318 42.1971 42.3456 41.705 41.2571C41.213 40.1686 40.1816 39.437 38.6301 38.9947L32.0194 37.1101L32.029 37.0764Z" fill="white"/>
<path d="M43.8505 19.914L39.9043 18.7891L29.9718 53.6304L33.918 54.7553L43.8505 19.914Z" fill="white"/>
</svg>
