<svg width="81" height="81" viewBox="0 0 81 81" fill="none" xmlns="http://www.w3.org/2000/svg">
<circle cx="40.5" cy="40.5" r="40.5" fill="#FF9900"/>
<path d="M56.2855 54.6364C38.0255 63.2282 26.6931 56.0397 19.4388 51.6736C18.99 51.3984 18.227 51.7379 18.889 52.4896C21.3057 55.3868 29.2259 62.3698 39.564 62.3698C49.9093 62.3698 56.0638 56.7889 56.8337 55.8153C57.5983 54.85 57.0582 54.3175 56.2853 54.6364H56.2855ZM61.4138 51.8364C60.9235 51.2051 58.4321 51.0874 56.8642 51.2778C55.2939 51.4627 52.9368 52.4116 53.1417 52.9813C53.2469 53.1947 53.4615 53.099 54.5403 53.0031C55.622 52.8964 58.6523 52.5183 59.2837 53.3344C59.9181 54.1561 58.3172 58.0705 58.0248 58.7019C57.7424 59.3332 58.1328 59.496 58.6634 59.0755C59.1867 58.6552 60.1341 57.5667 60.7699 56.0263C61.4013 54.4776 61.7864 52.3171 61.4136 51.8364H61.4138Z" fill="white"/>
<path fill-rule="evenodd" clip-rule="evenodd" d="M44.0077 37.1048C44.0077 39.3592 44.0653 41.2392 42.9128 43.2412C41.9825 44.8691 40.509 45.8701 38.8627 45.8701C36.6153 45.8701 35.3064 44.1772 35.3064 41.6787C35.3064 36.7466 39.7762 35.8514 44.0077 35.8514V37.1048ZM49.9099 51.2092C49.5229 51.5509 48.9631 51.5755 48.5269 51.3475C46.5842 49.7524 46.2384 49.0118 45.1683 47.4898C41.9579 50.729 39.6858 51.6975 35.5205 51.6975C30.5978 51.6975 26.7617 48.6942 26.7617 42.6798C26.7617 37.9838 29.3385 34.7852 33.0014 33.2227C36.179 31.839 40.6161 31.5948 44.0077 31.2125V30.4636C44.0077 29.0881 44.1145 27.4604 43.2997 26.2722C42.5834 25.206 41.217 24.7665 40.015 24.7665C37.7843 24.7665 35.7921 25.8977 35.3064 28.2417C35.2075 28.7627 34.8208 29.2754 34.294 29.2998L28.6138 28.6977C28.1365 28.5916 27.6097 28.2092 27.7414 27.4848C29.0502 20.681 35.2651 18.6299 40.8298 18.6299C43.6781 18.6299 47.3989 19.3787 49.6463 21.5111C52.4946 24.1398 52.2229 27.6476 52.2229 31.4646V40.4823C52.2229 43.1925 53.3589 44.3807 54.429 45.8458C54.8076 46.3666 54.89 46.9935 54.4125 47.3839C53.2188 48.3686 51.095 50.2 49.9262 51.2255L49.9097 51.2092" fill="white"/>
<path d="M56.2855 54.6364C38.0255 63.2282 26.6931 56.0397 19.4388 51.6736C18.99 51.3984 18.227 51.7379 18.889 52.4896C21.3057 55.3868 29.2259 62.3698 39.564 62.3698C49.9093 62.3698 56.0638 56.7889 56.8337 55.8153C57.5983 54.85 57.0582 54.3175 56.2853 54.6364H56.2855ZM61.4138 51.8364C60.9235 51.2051 58.4321 51.0874 56.8642 51.2778C55.2939 51.4627 52.9368 52.4116 53.1417 52.9813C53.2469 53.1947 53.4615 53.099 54.5403 53.0031C55.622 52.8964 58.6523 52.5183 59.2837 53.3344C59.9181 54.1561 58.3172 58.0705 58.0248 58.7019C57.7424 59.3332 58.1328 59.496 58.6634 59.0755C59.1867 58.6552 60.1341 57.5667 60.7699 56.0263C61.4013 54.4776 61.7864 52.3171 61.4136 51.8364H61.4138Z" fill="white"/>
<path fill-rule="evenodd" clip-rule="evenodd" d="M44.0077 37.1048C44.0077 39.3592 44.0653 41.2392 42.9128 43.2412C41.9825 44.8691 40.509 45.8701 38.8627 45.8701C36.6153 45.8701 35.3064 44.1772 35.3064 41.6787C35.3064 36.7466 39.7762 35.8514 44.0077 35.8514V37.1048ZM49.9099 51.2092C49.5229 51.5509 48.9631 51.5755 48.5269 51.3475C46.5842 49.7524 46.2384 49.0118 45.1683 47.4898C41.9579 50.729 39.6858 51.6975 35.5205 51.6975C30.5978 51.6975 26.7617 48.6942 26.7617 42.6798C26.7617 37.9838 29.3385 34.7852 33.0014 33.2227C36.179 31.839 40.6161 31.5948 44.0077 31.2125V30.4636C44.0077 29.0881 44.1145 27.4604 43.2997 26.2722C42.5834 25.206 41.217 24.7665 40.015 24.7665C37.7843 24.7665 35.7921 25.8977 35.3064 28.2417C35.2075 28.7627 34.8208 29.2754 34.294 29.2998L28.6138 28.6977C28.1365 28.5916 27.6097 28.2092 27.7414 27.4848C29.0502 20.681 35.2651 18.6299 40.8298 18.6299C43.6781 18.6299 47.3989 19.3787 49.6463 21.5111C52.4946 24.1398 52.2229 27.6476 52.2229 31.4646V40.4823C52.2229 43.1925 53.3589 44.3807 54.429 45.8458C54.8076 46.3666 54.89 46.9935 54.4125 47.3839C53.2188 48.3686 51.095 50.2 49.9262 51.2255L49.9097 51.2092" fill="white"/>
</svg>
