<svg width="290" height="214" viewBox="0 0 290 214" fill="none" xmlns="http://www.w3.org/2000/svg">
<path d="M272.081 191.888C275.998 180.589 270.012 168.254 258.713 164.337C247.413 160.421 235.078 166.407 231.162 177.706C227.246 189.006 233.231 201.341 244.531 205.257C255.83 209.173 268.165 203.188 272.081 191.888Z" fill="#FFA62B"/>
<path d="M254.497 190.948C254.716 189.983 254.531 189.312 254.057 188.527C253.559 187.737 252.766 186.976 251.256 186.173C249.423 185.2 248.083 184.073 247.216 182.787C246.348 181.502 245.952 179.84 246.308 178.277C246.68 176.645 247.822 175.237 249.263 174.429C250.687 173.592 252.352 173.391 254.214 173.815C256.237 174.276 257.888 175.304 258.796 176.841C259.703 178.377 259.694 180.115 259.272 181.76L259.228 181.847L256.653 181.261C256.931 180.042 256.793 178.947 256.253 178.027C255.713 177.106 254.928 176.734 253.595 176.43C252.353 176.148 251.338 176.255 250.525 176.747C249.712 177.239 249.249 177.786 249.013 178.82C248.804 179.74 249.046 180.375 249.617 181.158C250.189 181.941 251.24 182.736 252.745 183.562C254.55 184.553 255.814 185.905 256.585 187.192C257.355 188.48 257.558 189.928 257.202 191.491C256.815 193.192 255.908 194.412 254.46 195.146C253.006 195.903 251.305 196.048 249.351 195.603C247.512 195.185 246.011 194.239 244.866 192.793C243.702 191.32 243.381 189.651 243.833 187.771L243.877 187.684L246.451 188.27C246.142 189.627 246.236 190.277 246.947 191.188C247.659 192.099 248.661 192.69 249.925 192.978C251.189 193.265 251.991 193.351 252.863 192.921C253.752 192.519 254.261 191.982 254.497 190.948Z" fill="white"/>
<path d="M255.925 172.246L253.259 171.639L247.394 197.406L250.06 198.013L255.925 172.246Z" fill="white"/>
<path d="M113.842 186.974C113.842 198.356 104.619 207.579 93.2371 207.579C81.8551 207.579 72.6318 198.356 72.6318 186.974C72.6318 175.592 81.8551 166.368 93.2371 166.368C104.619 166.368 113.842 175.62 113.842 186.974Z" fill="#529696"/>
<path d="M99.297 193.516C97.9292 195.12 96.0616 196.094 94.0099 196.094C89.8538 196.094 87.1971 192.069 87.1971 187.098C87.1971 182.126 89.8538 178.102 94.0099 178.102C96.0616 178.102 97.9292 179.075 99.297 180.679L101.559 178.417C99.639 175.997 96.9297 174.498 93.9047 174.498C88.0914 174.498 84.0669 180.127 84.0669 187.071C84.0669 194.016 88.0914 199.645 93.9047 199.645C96.9034 199.645 99.6127 198.145 101.559 195.725L99.297 193.516Z" fill="white"/>
<path d="M96.9039 183.494H81.0425V186.44H96.9039V183.494Z" fill="white"/>
<path d="M96.9034 187.782H81.042V190.728H96.9034V187.782Z" fill="white"/>
<path d="M217.636 122.621C217.571 110.799 207.935 101.267 196.113 101.332C184.291 101.396 174.759 111.032 174.823 122.854C174.888 134.677 184.524 144.208 196.346 144.144C208.168 144.08 217.7 134.444 217.636 122.621Z" fill="#A3D2CA"/>
<path d="M198.57 122.413L194.019 123.222L196.278 135.945L200.829 135.136L198.57 122.413Z" fill="white"/>
<path d="M198.617 122.535L194.041 123.347L184.217 111.553L189.019 110.7L198.617 122.535Z" fill="white"/>
<path d="M194.041 123.347L198.617 122.535L203.779 108.078L198.952 108.936L194.041 123.347Z" fill="white"/>
<path d="M201.672 121.914L190.935 123.821L191.533 127.191L202.27 125.284L201.672 121.914Z" fill="white"/>
<path d="M202.582 127.044L191.846 128.951L192.444 132.32L203.181 130.413L202.582 127.044Z" fill="white"/>
<path d="M168.559 198.841C166.272 206.865 157.917 211.513 149.893 209.226C141.87 206.938 137.222 198.583 139.509 190.56C141.796 182.537 150.152 177.889 158.175 180.176C166.198 182.463 170.841 190.838 168.559 198.841Z" fill="#161616"/>
<path d="M147.375 200.894L151.626 185.982L156.499 187.371C158.061 187.816 159.181 188.507 159.866 189.426C160.55 190.344 160.708 191.484 160.326 192.822C160.135 193.492 159.763 194.016 159.183 194.426C158.607 194.819 157.945 195.057 157.185 195.118C158.041 195.567 158.617 196.213 158.937 197.046C159.256 197.88 159.283 198.759 159.024 199.669C158.633 201.042 157.893 201.944 156.812 202.415C155.714 202.882 154.428 202.905 152.9 202.469L147.375 200.894ZM152.154 192.59L155.192 193.455C155.895 193.656 156.51 193.646 157.037 193.425C157.581 193.209 157.929 192.77 158.105 192.152C158.301 191.466 158.202 190.9 157.837 190.424C157.454 189.944 156.829 189.599 155.937 189.345L153.294 188.591L152.154 192.59ZM151.663 194.899L150.298 199.686L153.387 200.567C154.194 200.797 154.887 200.772 155.463 200.509C156.022 200.242 156.423 199.744 156.634 199.006C156.854 198.234 156.836 197.58 156.586 197.026C156.336 196.472 155.811 196.1 155.022 195.875L151.658 194.916L151.663 194.899Z" fill="white"/>
<path d="M157.678 186.167L155.67 185.595L150.617 203.321L152.625 203.893L157.678 186.167Z" fill="white"/>
<path d="M161.353 164.868C170.816 161.716 175.932 151.49 172.78 142.026C169.628 132.563 159.401 127.447 149.938 130.599C140.475 133.751 135.358 143.977 138.51 153.441C141.662 162.904 151.889 168.02 161.353 164.868Z" fill="#529696"/>
<path d="M161.951 153.227C161.287 154.242 159.736 155.389 158.379 155.904C157.065 156.408 156.202 156.624 155.202 156.348C154.224 156.066 153.619 155.634 153.254 154.651C152.912 153.754 153.039 153.049 153.47 152.191C153.901 151.333 154.671 150.45 156.203 149.401C158.063 148.122 159.377 146.788 160.139 145.376C160.922 143.959 161.163 142.253 160.618 140.789C160.027 139.245 158.637 138.062 157.025 137.495C155.392 136.933 153.614 137.012 151.648 137.743C150.377 138.235 149.288 138.883 148.436 139.72L149.227 142.57C149.912 141.71 151.198 140.776 152.598 140.248C153.89 139.751 155.006 139.695 155.926 140.016C156.852 140.359 157.42 140.824 157.785 141.807C158.115 142.662 157.933 143.335 157.41 144.196C156.888 145.056 155.839 146.017 154.32 147.109C152.487 148.403 151.297 149.933 150.627 151.343C149.957 152.752 149.897 154.199 150.449 155.685C151.057 157.293 152.173 158.321 153.81 158.812C155.447 159.304 157.299 159.158 159.345 158.382C160.723 157.861 161.831 157.114 162.782 156.135L161.972 153.221L161.951 153.227Z" fill="white"/>
<path d="M162.27 142.084L146.823 146.376L147.621 149.247L163.068 144.955L162.27 142.084Z" fill="white"/>
<path d="M163.722 147.311L148.276 151.603L149.074 154.474L164.52 150.182L163.722 147.311Z" fill="white"/>
<path d="M220.918 174.324C222.152 186.539 213.253 197.438 201.038 198.672C188.822 199.906 177.924 191.007 176.69 178.792C175.456 166.577 184.355 155.678 196.57 154.444C208.785 153.21 219.684 162.109 220.918 174.324Z" fill="#A3D2CA"/>
<path d="M203.772 164.324L191.768 165.536L192.131 169.13L204.135 167.918L203.772 164.324Z" fill="white"/>
<path d="M208.061 169.588L188.644 171.55L189.007 175.144L208.424 173.182L208.061 169.588Z" fill="white"/>
<path d="M195.31 173.398L191.849 174.075C192.491 175.195 192.611 177.881 192.329 179.573C192.048 181.291 191.331 182.674 190.196 183.672C189.525 184.269 188.927 184.581 188.178 184.657L188.506 187.901C189.973 187.703 191.273 187.092 192.452 186.04C194.303 184.391 195.185 182.638 195.589 180.152C195.984 177.818 195.891 177.65 195.31 173.398Z" fill="white"/>
<path d="M210.149 183.018C208.956 183.441 207.72 183.439 206.786 182.929C205.852 182.418 205.157 181.278 205.004 179.755L204.277 172.568L201.382 172.86L202.108 180.048C202.363 182.569 203.775 184.569 205.296 185.399C206.842 186.226 209.458 186.163 211.107 185.518L211.149 185.186L210.149 183.018Z" fill="white"/>
<path d="M251.475 145.032C253.277 136.715 247.996 128.511 239.679 126.709C231.362 124.907 223.158 130.188 221.356 138.506C219.554 146.823 224.835 155.026 233.152 156.828C241.469 158.631 249.673 153.349 251.475 145.032Z" fill="#161616"/>
<path d="M239.678 141.346C240.308 140.798 240.488 140.501 240.758 139.804C241.109 138.916 241.121 138.065 240.968 137.335C240.659 135.858 239.945 134.847 238.83 134.319C237.715 133.79 236.457 133.656 234.748 134.013L230.916 134.816L234.237 150.677L236.676 150.166L236.242 148.092L235.158 142.916C235.158 142.916 236.584 142.617 237.497 142.426C238.028 142.315 238.847 142.091 239.678 141.346ZM233.64 136.497L235.2 136.17C236.179 135.965 236.963 135.991 237.554 136.249C238.145 136.506 238.529 137.015 238.685 137.761C238.827 138.441 238.69 139.024 238.305 139.503C237.904 139.986 237.315 140.317 236.552 140.477L234.561 140.893L233.64 136.497Z" fill="white"/>
<path d="M242.042 135.101L229.964 137.631L230.28 139.14L242.358 136.611L242.042 135.101Z" fill="white"/>
<path d="M242.511 137.341L230.433 139.87L230.749 141.38L242.827 138.851L242.511 137.341Z" fill="white"/>
<path d="M56.5533 192.3C55.8177 200.095 48.905 205.815 41.11 205.079C33.3151 204.344 27.6138 197.433 28.3494 189.638C29.085 181.843 35.9977 176.122 43.7927 176.858C51.5876 177.594 57.2889 184.505 56.5533 192.3Z" fill="#FFA62B"/>
<path d="M46.6084 191.858C47.4668 191.464 47.7456 191.217 48.2825 190.556C48.945 189.724 49.2491 188.822 49.3277 187.99C49.4864 186.308 49.0616 185.008 48.0384 184.054C47.0135 183.118 45.7339 182.559 43.7803 182.375L39.4209 181.963L37.7172 200.016L40.5029 200.279L40.7265 197.909L41.2831 192.012C41.2831 192.012 42.893 192.164 43.9421 192.263C44.5193 192.336 45.465 192.37 46.6084 191.858ZM41.7755 184.667L43.5482 184.835C44.6516 184.939 45.4813 185.236 46.039 185.708C46.5966 186.181 46.8263 186.841 46.7461 187.691C46.6727 188.469 46.345 189.041 45.7597 189.442C45.176 189.825 44.432 189.973 43.5637 189.891L41.3026 189.678L41.7755 184.667Z" fill="white"/>
<path d="M43.9073 189.924L37.2144 189.292L36.9958 191.608L43.6888 192.239L43.9073 189.924Z" fill="white"/>
<path d="M45.8872 193.505L36.897 192.657L36.6785 194.972L45.6687 195.821L45.8872 193.505Z" fill="white"/>
</svg>
