<svg width="126" height="126" viewBox="0 0 126 126" fill="none" xmlns="http://www.w3.org/2000/svg">
<circle cx="63" cy="63" r="63" fill="#E82127"/>
<path d="M62.3738 95.7601L71.7162 42.9926C80.6212 42.9926 83.43 43.9733 83.8356 47.9761C83.8356 47.9761 89.8093 45.7392 92.8222 41.1961C81.0649 35.7246 69.2516 35.4779 69.2516 35.4779L62.3583 43.9098L62.3738 43.9088L55.4805 35.4766C55.4805 35.4766 43.6668 35.7236 31.9111 41.195C34.9214 45.7381 40.8975 47.975 40.8975 47.975C41.3054 43.972 44.1108 42.9913 52.9561 42.985L62.3738 95.7601Z" fill="white"/>
<path d="M62.3705 33.0423C71.8746 32.9693 82.7531 34.5188 93.8894 39.3933C95.3778 36.7029 95.7605 35.5138 95.7605 35.5138C83.5868 30.6768 72.1864 29.0215 62.3692 28.98C52.5525 29.0215 41.1525 30.6771 28.9805 35.5138C28.9805 35.5138 29.5235 36.9784 30.8502 39.3933C41.9844 34.5188 52.8648 32.9693 62.3692 33.0423H62.3705Z" fill="white"/>
</svg>
