<svg width="120" height="120" viewBox="0 0 120 120" fill="none" xmlns="http://www.w3.org/2000/svg">
<circle cx="59.9059" cy="59.9059" r="47.3713" transform="rotate(-18.407 59.9059 59.9059)" fill="#F9EA9B"/>
<path d="M61.8854 44.1907C61.5187 43.7569 60.9252 43.5907 60.387 43.7698L49.8524 47.2757C49.3143 47.4548 48.9386 47.9435 48.905 48.5105L48.1969 60.4474C48.1388 61.4259 49.0891 62.1563 50.0205 61.8464L68.9835 55.5356C69.9136 55.2261 70.2388 54.0725 69.6051 53.3229L61.8854 44.1907Z" fill="#161616"/>
<path d="M55.4694 63.8782C55.1027 63.4444 54.5091 63.2782 53.971 63.4573L43.4364 66.9632C42.8982 67.1423 42.5226 67.631 42.489 68.198L41.7809 80.1349C41.7228 81.1134 42.6732 81.8438 43.6045 81.5339L62.5675 75.2231C63.4976 74.9136 63.8228 73.76 63.1891 73.0104L55.4694 63.8782Z" fill="#161616"/>
<path d="M78.818 56.1077C78.4513 55.6739 77.8578 55.5077 77.3196 55.6868L66.785 59.1927C66.2469 59.3717 65.8713 59.8605 65.8376 60.4275L65.1295 72.3643C65.0714 73.3429 66.0218 74.0733 66.9531 73.7634L85.9161 67.4526C86.8462 67.1431 87.1714 65.9895 86.5378 65.2398L78.818 56.1077Z" fill="#161616"/>
</svg>
