<svg width="83" height="83" viewBox="0 0 83 83" fill="none" xmlns="http://www.w3.org/2000/svg">
<circle cx="41.4997" cy="41.5" r="32.5" transform="rotate(-18.5753 41.4997 41.5)" fill="#0F2DCA"/>
<path d="M36.1057 26.1696C36.1057 26.1696 37.8536 33.0132 34.7989 39.3128C31.7999 44.062 31.7391 46.0709 32.3348 48.6923C32.9323 51.3254 34.8668 56.153 40.6441 57.9487C40.6441 57.9487 37.5994 54.4244 40.5891 49.6845C43.44 45.1649 42.1913 43.0545 42.0614 42.8646C42.1696 43.0267 44.2229 46.0552 46.8989 47.2705C49.6431 48.5167 50.4944 52.0649 49.5918 55.9236C49.5918 55.9236 54.6218 49.6092 53.3202 43.8476C51.1936 34.4688 39.5909 26.6375 36.1057 26.1696Z" fill="white"/>
</svg>
