<svg width="113" height="113" viewBox="0 0 113 113" fill="none" xmlns="http://www.w3.org/2000/svg">
<path d="M98.421 56.1178C98.2945 32.8809 79.3548 14.1463 56.1179 14.2728C32.8811 14.3993 14.1464 33.339 14.2729 56.5759C14.3994 79.8127 33.3391 98.5474 56.576 98.4209C79.8128 98.2944 98.5475 79.3546 98.421 56.1178Z" fill="#A3D2CA"/>
<path d="M60.9473 55.7091L52.002 57.2979L56.4434 82.3053L65.3888 80.7166L60.9473 55.7091Z" fill="white"/>
<path d="M61.0407 55.9473L52.0459 57.5448L32.7363 34.3623L42.1759 32.6858L61.0407 55.9473Z" fill="white"/>
<path d="M52.0457 57.5448L61.0405 55.9473L71.1864 27.5334L61.6974 29.2187L52.0457 57.5448Z" fill="white"/>
<path d="M67.0446 54.7281L45.9414 58.4761L47.1176 65.0986L68.2208 61.3506L67.0446 54.7281Z" fill="white"/>
<path d="M68.8346 64.8101L47.7314 68.5581L48.9076 75.1806L70.0108 71.4326L68.8346 64.8101Z" fill="white"/>
</svg>
