<svg width="96" height="96" viewBox="0 0 96 96" fill="none" xmlns="http://www.w3.org/2000/svg">
<path d="M91.321 43.4648C93.7464 67.4741 76.256 88.8953 52.2467 91.3207C28.2374 93.746 6.81618 76.2556 4.39079 52.2463C1.9654 28.2371 19.4558 6.81585 43.4651 4.39046C67.4744 1.96507 88.8956 19.4555 91.321 43.4648Z" fill="#A3D2CA"/>
<path d="M57.6226 23.8088L34.0273 26.1924L34.7409 33.2562L58.3362 30.8727L57.6226 23.8088Z" fill="white"/>
<path d="M66.0512 34.1569L27.8867 38.0122L28.6003 45.0761L66.7647 41.2207L66.0512 34.1569Z" fill="white"/>
<path d="M40.9893 41.6442L34.1861 42.9756C35.4491 45.1771 35.685 50.4557 35.1291 53.7825C34.5782 57.1583 33.168 59.8777 30.9377 61.8374C29.6192 63.0112 28.4424 63.6257 26.9708 63.7743L27.615 70.1514C30.4993 69.7609 33.0541 68.5613 35.3725 66.4936C39.0095 63.252 40.7427 59.8062 41.5375 54.9191C42.3129 50.3313 42.131 50.0027 40.9893 41.6442Z" fill="white"/>
<path d="M70.155 60.552C67.8108 61.3835 65.3824 61.381 63.5465 60.3771C61.7107 59.3733 60.3446 57.1326 60.0423 54.1403L58.6151 40.0126L52.9248 40.5874L54.352 54.7151C54.8525 59.6696 57.6283 63.6014 60.6177 65.2321C63.6561 66.8578 68.7974 66.7349 72.039 65.4658L72.1217 64.8133L70.155 60.552Z" fill="white"/>
</svg>
