<svg width="96" height="95" viewBox="0 0 96 95" fill="none" xmlns="http://www.w3.org/2000/svg">
<circle cx="48.2949" cy="47.5" r="47.5" fill="#00AAE4"/>
<path d="M69.8536 56.7757C69.5341 56.1856 69.2145 55.5955 68.7352 55.0054C65.939 51.2118 61.3852 49.7786 57.3107 50.8745C56.1123 51.2117 54.8341 50.7902 54.0352 49.8629C53.2363 48.9356 52.9966 47.671 53.3961 46.4908C53.7955 45.2263 54.8341 44.3832 56.0325 44.2146C60.4265 43.4559 64.1814 39.9152 65.1401 34.857C65.7792 31.3163 64.8205 27.6913 62.6634 24.9936C61.6248 23.7291 60.3466 22.7175 58.9085 21.9587C56.2721 20.6942 53.476 20.6099 50.9993 21.4529C47.8037 22.4645 45.0874 25.0779 43.889 28.5343C43.8091 28.7029 43.8091 28.7872 43.7292 28.9558C42.8504 31.6535 43.0102 34.5198 43.9689 36.9646C44.5282 38.3977 45.327 39.7466 46.2857 40.8425C46.3656 40.9268 46.4455 41.0954 46.5254 41.1797C47.1645 42.107 47.4042 43.2873 47.0847 44.3832C46.6852 45.5635 45.8064 46.4065 44.6879 46.6594C43.6493 46.9123 42.6906 46.5751 41.8917 45.9007C41.7319 45.7321 41.5722 45.5635 41.4124 45.3948C40.5336 44.2989 39.495 43.3716 38.2966 42.6129C36.2195 41.3483 33.7428 40.8425 31.2662 41.1797C30.7869 41.264 30.3874 41.3483 29.908 41.4326C25.7537 42.6129 22.7977 46.2379 21.9189 50.453C21.6793 51.8018 21.5994 53.1507 21.8391 54.5839C21.9988 55.8484 22.3983 56.9443 22.8776 58.0402C23.5967 59.5577 24.6352 60.8222 25.8336 61.9182C28.3102 64.0257 31.6657 65.0374 35.101 64.2787C39.3352 63.3513 42.451 60.0635 43.5695 56.017C43.889 54.7524 44.8477 53.8251 46.0461 53.5722C47.1646 53.3193 48.3629 53.7408 49.1619 54.6681C49.9608 55.6798 50.2004 57.0286 49.7211 58.2089C48.283 62.1711 48.9222 66.8077 51.7983 70.1798C52.5972 71.1072 53.476 71.8659 54.4347 72.456C57.87 74.6479 62.264 74.6479 65.7792 72.456C66.5781 71.9502 67.2972 71.4444 67.9363 70.7699C68.4955 70.1798 68.9749 69.5054 69.3743 68.831C71.4515 65.206 71.6911 60.5693 69.8536 56.7757Z" fill="white"/>
</svg>
