<svg width="73" height="73" viewBox="0 0 73 73" fill="none" xmlns="http://www.w3.org/2000/svg">
<circle cx="36.5" cy="36.5" r="36.5" fill="#FFE600"/>
<path d="M48.6773 18.3331C47.6032 18.5285 46.5469 18.7805 45.5107 19.0855L47.4817 21.0565C48.3893 20.4838 49.1952 20.0433 49.8893 19.7415C50.4642 19.4916 52.2136 18.7312 53.2412 19.7588C52.0462 18.5638 50.3401 18.0308 48.6773 18.3331Z" fill="#161616"/>
<path d="M53.2411 19.7593C54.2687 20.7868 53.5082 22.5363 53.2584 23.1111C52.9567 23.8053 52.5161 24.6112 51.9434 25.5187L53.9144 27.4897C54.2193 26.4535 54.4715 25.3972 54.6668 24.3231C54.9691 22.6605 54.4361 20.9543 53.2411 19.7593Z" fill="#161616"/>
<path d="M46.2034 24.5354C45.7792 24.8494 45.3434 25.182 44.8984 25.5304L47.4697 28.1016C47.8181 27.6566 48.1506 27.2208 48.4647 26.7966C48.7282 26.4406 48.9695 26.1057 49.191 25.7901L47.21 23.8091C46.8942 24.0306 46.5593 24.2719 46.2034 24.5354Z" fill="#161616"/>
<path d="M50.7081 27.348C50.1883 28.0757 49.6142 28.8374 48.9932 29.6252L51.9157 32.5478C52.3743 31.6381 52.7865 30.7047 53.1512 29.7505L50.7249 27.3242C50.7192 27.3322 50.7138 27.34 50.7081 27.348Z" fill="#161616"/>
<path d="M45.7754 33.4647L49.2254 36.9147C49.8038 36.1338 50.3431 35.3276 50.8414 34.498L47.6388 31.2954C47.0482 32.0045 46.4256 32.7291 45.7754 33.4647Z" fill="#161616"/>
<path d="M51.5886 21.4116C51.2054 21.4967 50.4284 21.7676 49.0352 22.6099L50.3904 23.9651C51.2326 22.5718 51.5035 21.7948 51.5886 21.4116Z" fill="#161616"/>
<path d="M41.7043 25.3618L38.5017 22.1592C37.6721 22.6576 36.8659 23.1969 36.085 23.7752L39.535 27.2252C40.2706 26.5749 40.9952 25.9524 41.7043 25.3618Z" fill="#161616"/>
<path d="M45.652 22.2923C45.66 22.2866 45.6677 22.2811 45.6757 22.2754L43.2494 19.8491C42.2953 20.2138 41.3619 20.6261 40.4521 21.0846L43.3747 24.0072C44.1625 23.3861 44.9242 22.812 45.652 22.2923Z" fill="#161616"/>
<path d="M46.1192 29.776L43.2245 26.8813C42.5155 27.4694 41.7894 28.0909 41.0518 28.7413L44.2593 31.9488C44.9096 31.2111 45.5311 30.4851 46.1192 29.776Z" fill="#161616"/>
<path d="M42.827 33.541L39.4594 30.1733C38.7706 30.805 38.0759 31.4573 37.3799 32.1265L40.8738 35.6205C41.5431 34.9245 42.1955 34.2298 42.827 33.541Z" fill="#161616"/>
<path d="M45.2925 42.4806C41.5202 38.8618 35.5192 38.994 31.8228 42.6904L22.0684 52.4448C26.1243 55.7416 32.1168 55.5027 35.8919 51.7276L38.9454 48.6741C40.3533 47.2662 42.2672 46.527 44.2581 46.4956C45.1077 46.4822 45.8623 45.9651 46.1801 45.1726C46.4982 44.3793 46.2859 43.4705 45.6816 42.8661C45.6816 42.8661 45.3521 42.5376 45.2925 42.4806Z" fill="#161616"/>
<path d="M42.3867 37.133L44.4756 39.2219C45.0794 39.5658 45.6542 39.9652 46.1933 40.4176L46.2794 40.3315C46.8388 39.7721 47.3737 39.1936 47.8841 38.5977L44.3415 35.0552C43.7097 35.7428 43.0569 36.4367 42.3867 37.133Z" fill="#161616"/>
<path d="M35.2976 34.1767C35.2987 34.2873 35.2987 34.3981 35.2967 34.5093C35.2728 35.872 35.019 37.1988 34.5557 38.4439C35.864 37.957 37.2622 37.7022 38.6996 37.7022C38.7409 37.7022 38.7821 37.7032 38.8235 37.7037C38.9246 37.6031 39.295 37.2339 39.3786 37.1497L35.851 33.6221C35.7668 33.7057 35.3979 34.0756 35.2976 34.1767Z" fill="#161616"/>
<path d="M35.8666 30.6136C36.5629 29.9434 37.2568 29.2906 37.9445 28.6588L34.4019 25.1162C33.8061 25.6267 33.2276 26.1616 32.6681 26.7209L32.582 26.807C33.0364 27.3481 33.4376 27.9241 33.782 28.529L35.8666 30.6136Z" fill="#161616"/>
<path d="M30.5197 27.7085C30.4627 27.6491 30.1342 27.3194 30.1342 27.3194C29.5298 26.7151 28.621 26.5028 27.8277 26.8209C27.0353 27.1387 26.5182 27.8933 26.5047 28.7429C26.4733 30.7339 25.7341 32.6478 24.326 34.0558L21.2727 37.1092C17.4976 40.8842 17.2587 46.8767 20.5555 50.9327L30.3099 41.1783C34.0063 37.4819 34.1385 31.4809 30.5197 27.7085Z" fill="#161616"/>
</svg>
