<svg width="139" height="139" viewBox="0 0 139 139" fill="none" xmlns="http://www.w3.org/2000/svg">
<circle cx="69.5" cy="69.5" r="69.5" fill="#FCFCFC"/>
<path d="M91.012 101.227C86.9891 105.178 82.5506 104.562 78.3199 102.7C73.822 100.799 69.7101 100.679 64.9599 102.7C59.0443 105.284 55.9047 104.532 52.342 101.227C32.2277 80.2696 35.1966 48.3448 58.0572 47.1429C63.6016 47.4434 67.4834 50.2453 70.7492 50.4781C75.6034 49.4791 80.2497 46.6171 85.4453 46.9927C91.6874 47.5035 96.356 49.9974 99.4733 54.4819C86.6328 62.2941 89.676 79.4208 101.47 84.2283C99.1096 90.5006 96.0814 96.6977 91.0045 101.28L91.012 101.227ZM70.3039 46.9176C69.7027 37.6031 77.162 29.9411 85.7422 29.1899C86.9223 39.9317 76.0932 47.9692 70.3039 46.9176Z" fill="black"/>
</svg>
