<svg width="30" height="30" viewBox="0 0 30 30" fill="none" xmlns="http://www.w3.org/2000/svg">
<g clip-path="url(#clip0)">
<path d="M27.6316 19.7526C25.8037 19.7562 23.9871 19.4673 22.2505 18.8968C21.4386 18.6129 20.5362 18.804 19.909 19.3926L16.5016 21.9632C12.8423 20.126 9.87322 17.1574 8.03532 13.4985L10.5379 10.1732C11.1698 9.5409 11.3957 8.60885 11.1237 7.7574C10.5512 6.01846 10.2607 4.19914 10.2632 2.36842C10.2632 1.06039 9.2028 0 7.89477 0H2.36842C1.06039 0 0 1.06039 0 2.36842C0.0173931 17.6217 12.3783 29.9826 27.6316 30C28.9396 30 30 28.9396 30 27.6316V22.1211C30 20.813 28.9396 19.7526 27.6316 19.7526Z" fill="#FFA62B"/>
<path d="M29.2113 12.6316C28.7753 12.6316 28.4218 12.2781 28.4218 11.8421C28.4149 6.17677 23.824 1.58588 18.1586 1.57892C17.7226 1.57892 17.3691 1.22544 17.3691 0.789425C17.3691 0.353413 17.7226 0 18.1586 0C24.696 0.00695724 29.9938 5.30475 30.0008 11.8421C30.0008 12.2781 29.6473 12.6316 29.2113 12.6316Z" fill="#529696"/>
<path d="M22.8955 12.6315C22.4595 12.6315 22.106 12.278 22.106 11.842C22.106 9.66196 20.3387 7.89467 18.1586 7.89467C17.7226 7.89467 17.3691 7.54119 17.3691 7.10517C17.3691 6.66916 17.7226 6.31567 18.1586 6.31567C21.2108 6.31567 23.685 8.78994 23.685 11.842C23.685 12.278 23.3315 12.6315 22.8955 12.6315Z" fill="#529696"/>
</g>
<defs>
<clipPath id="clip0">
<rect width="30" height="30" fill="white"/>
</clipPath>
</defs>
</svg>
