<svg width="30" height="30" viewBox="0 0 30 30" fill="none" xmlns="http://www.w3.org/2000/svg">
<path d="M0.143871 9.54842C0.143871 4.27494 4.45547 0 9.77406 0C15.0926 0 19.4042 4.27494 19.4042 9.54842V19.2989H0.0820312L0.143871 9.54842Z" fill="#FFA62B"/>
<path d="M9.77271 0C9.29562 0 8.82669 0.0344232 8.36816 0.10082C13.0211 0.77493 16.5938 4.74795 16.5938 9.54842V19.2989H19.4028V9.54842C19.4029 4.27494 15.0914 0 9.77271 0V0Z" fill="#FFA62B"/>
<path d="M0 29.4733V28.0065C0 22.654 4.37623 18.3149 9.77455 18.3149C15.1729 18.3149 19.5491 22.654 19.5491 28.0065V29.4733H0Z" fill="#FFA62B"/>
<path d="M9.78352 20.1506C9.49263 20.1506 9.25684 20.3864 9.25684 20.6773V29.4734C9.25684 29.7643 9.49263 30.0001 9.78352 30.0001C10.0744 30.0001 10.3102 29.7643 10.3102 29.4734V20.6773C10.3102 20.3864 10.0744 20.1506 9.78352 20.1506Z" fill="#529696"/>
<path d="M6.2397 18.3149L3.10645 20.9178L7.14954 23.6836L9.7823 20.6772L6.2397 18.3149Z" fill="#A3D2CA"/>
<path d="M13.3297 18.3149L16.463 20.9178L12.4199 23.6836L9.78711 20.6772L13.3297 18.3149Z" fill="#A3D2CA"/>
<path d="M3.46984 11.9099C3.2367 12.5837 3.1084 13.3057 3.1084 14.0579C3.1084 17.7136 6.0973 20.677 9.78425 20.677C13.4712 20.677 16.4601 17.7136 16.4601 14.0579C16.4601 13.3058 16.0987 11.9099 16.0987 11.9099C12.6632 11.1092 11.4251 7.56567 11.4251 7.56567C9.4641 12.7526 3.46984 11.9099 3.46984 11.9099Z" fill="#FFDBD3"/>
<path d="M12.6682 18.2264H9.87825C9.58735 18.2264 9.35156 17.9906 9.35156 17.6997C9.35156 17.4088 9.58735 17.173 9.87825 17.173H12.6682C14.7587 17.173 16.4595 15.4888 16.4595 13.4185C16.4595 13.1276 16.6953 12.8918 16.9862 12.8918C17.2771 12.8918 17.5128 13.1276 17.5128 13.4185C17.5128 16.0697 15.3395 18.2264 12.6682 18.2264Z" fill="#F8F1F1"/>
<path d="M16.9643 12.3384C16.6734 12.3384 16.4376 12.1026 16.4376 11.8117V9.75183C16.4376 6.09426 13.4344 3.11856 9.74305 3.11856C6.05168 3.11856 3.04849 6.09426 3.04849 9.75183V11.8117C3.04849 12.1026 2.8127 12.3384 2.52181 12.3384C2.23091 12.3384 1.99512 12.1026 1.99512 11.8117V9.75183C1.99512 5.51335 5.47084 2.06519 9.74305 2.06519C14.0153 2.06519 17.491 5.51335 17.491 9.75183V11.8117C17.491 12.1027 17.2552 12.3384 16.9643 12.3384Z" fill="#F8F1F1"/>
<path d="M2.52863 15.5591H2.51693C1.76275 15.5591 1.15137 14.9478 1.15137 14.1936V12.4749C1.15137 11.7208 1.76275 11.1094 2.51693 11.1094H2.52863C3.28281 11.1094 3.8942 11.7208 3.8942 12.4749V14.1936C3.8942 14.9478 3.28281 15.5591 2.52863 15.5591Z" fill="#529696"/>
<path d="M16.9691 15.5591H16.9574C16.2032 15.5591 15.5918 14.9478 15.5918 14.1936V12.4749C15.5918 11.7208 16.2032 11.1094 16.9574 11.1094H16.9691C17.7232 11.1094 18.3346 11.7208 18.3346 12.4749V14.1936C18.3346 14.9478 17.7232 15.5591 16.9691 15.5591Z" fill="#529696"/>
<path d="M9.95621 18.883C10.6504 18.883 11.2132 18.325 11.2132 17.6367C11.2132 16.9484 10.6504 16.3904 9.95621 16.3904C9.26199 16.3904 8.69922 16.9484 8.69922 17.6367C8.69922 18.325 9.26199 18.883 9.95621 18.883Z" fill="#529696"/>
<path d="M2.90234 27.2393H6.93387V29.2587H2.90234V27.2393Z" fill="#529696"/>
<path d="M23.5 0C19.9102 0 17 2.91018 17 6.50003C17 8.39291 17.8093 10.0965 19.1005 11.2844V12.9983L20.6504 12.3433C21.5109 12.7638 22.4778 13 23.5 13C27.0898 13 30 10.0898 30 6.49996C30 2.91018 27.0898 0 23.5 0Z" fill="#529696"/>
<path d="M23.4816 9.02149C23.1842 9.02149 22.9432 8.78046 22.9432 8.48311V6.71666C22.9432 6.4193 23.1842 6.17828 23.4816 6.17828C23.8 6.17828 24.0964 6.05081 24.3161 5.81952C24.5356 5.58823 24.6474 5.28497 24.6308 4.9655C24.5997 4.36711 24.1054 3.88889 23.5055 3.87679C22.9209 3.86802 22.4221 4.29034 22.3417 4.86627C22.3343 4.91905 22.3307 4.97329 22.3307 5.02746C22.3307 5.32482 22.0896 5.56584 21.7923 5.56584C21.4949 5.56584 21.2539 5.32482 21.2539 5.02746C21.2539 4.92378 21.2611 4.81954 21.2753 4.71752C21.431 3.60162 22.3985 2.77646 23.5272 2.80031C24.6888 2.82367 25.6459 3.75022 25.7061 4.90966C25.7382 5.52697 25.5219 6.1134 25.097 6.56089C24.8039 6.86958 24.4276 7.08612 24.0199 7.18828V8.48304C24.0199 8.78046 23.7789 9.02149 23.4816 9.02149Z" fill="#F8F1F1"/>
<path d="M23.4781 10.6727C24.1709 10.6727 24.1721 9.59595 23.4781 9.59595C22.7852 9.59595 22.7841 10.6727 23.4781 10.6727Z" fill="#F8F1F1"/>
</svg>
