<svg width="30" height="30" viewBox="0 0 30 30" fill="none" xmlns="http://www.w3.org/2000/svg">
<g clip-path="url(#clip0)">
<path d="M27.3905 25.1299C29.0778 23.3196 29.9977 21.0815 29.9977 18.7497C29.9977 15.8321 28.5564 13.1898 26.248 11.3149C26.1953 17.9998 19.9088 23.4368 12.187 23.4368H6.96094C8.98222 26.7704 13.0892 29.0612 17.8114 29.0612H29.0603C29.4411 29.0612 29.7809 28.8327 29.9274 28.4812C30.0738 28.1296 29.9918 27.7254 29.7223 27.4617L27.3905 25.1299Z" fill="#529696"/>
<path d="M12.1878 0.938965C5.46777 0.938965 0.00152486 5.56154 0.00152486 11.2504C0.00152486 13.5822 0.921353 15.8144 2.60868 17.6306L0.276888 19.9624C0.00738365 20.2319 -0.0746393 20.6362 0.0718302 20.9819C0.2183 21.3334 0.558109 21.5619 0.93893 21.5619H12.1878C18.9078 21.5619 24.3741 16.9393 24.3741 11.2504C24.3741 5.56154 18.9078 0.938965 12.1878 0.938965Z" fill="#FFA62B"/>
<path d="M17.8113 8.43823H6.5624C6.04683 8.43823 5.625 8.86006 5.625 9.37564C5.625 9.89121 6.04683 10.313 6.5624 10.313H17.8113C18.3268 10.313 18.7487 9.89121 18.7487 9.37564C18.7487 8.86006 18.3268 8.43823 17.8113 8.43823Z" fill="#FAFAFA"/>
<path d="M14.0616 12.1877H6.5624C6.04683 12.1877 5.625 12.6096 5.625 13.1251C5.625 13.6407 6.04683 14.0626 6.5624 14.0626H14.0616C14.5772 14.0626 14.999 13.6407 14.999 13.1251C14.999 12.6096 14.5772 12.1877 14.0616 12.1877Z" fill="#FAFAFA"/>
</g>
<defs>
<clipPath id="clip0">
<rect width="30" height="30" fill="white"/>
</clipPath>
</defs>
</svg>
