<svg width="290" height="51" viewBox="0 0 290 51" fill="none" xmlns="http://www.w3.org/2000/svg">
<path d="M106.809 44.8529C105.55 45.402 104.096 45.8864 102.481 46.3386C100.866 46.7908 99.2193 47.0168 97.6044 47.0168C96.474 47.0168 95.3759 46.8877 94.3746 46.597C93.3734 46.3063 92.4691 45.8541 91.7262 45.2405C90.9511 44.6268 90.3697 43.7871 89.9176 42.7536C89.4654 41.72 89.2716 40.4927 89.2716 39.0394V23.3751H85.4282V16.4634H89.2716V6.90332H98.4118V16.4634H104.516V23.3751H98.4118V35.9065C98.4118 36.9077 98.6702 37.6183 99.1547 38.0381C99.6391 38.4903 100.285 38.6841 101.028 38.6841C101.706 38.6841 102.417 38.5549 103.16 38.3288C103.87 38.1027 104.516 37.8443 105.033 37.586L106.809 44.8529Z" fill="#161616"/>
<path d="M129.386 24.2472C127.189 24.2795 125.187 24.6348 123.378 25.3454C121.57 26.0236 120.278 27.0571 119.502 28.4459V46.4679H110.362V16.4312H118.76V22.4709C119.793 20.4361 121.117 18.8536 122.732 17.7231C124.347 16.5927 126.091 15.9791 127.9 15.9468C128.32 15.9468 128.61 15.9468 128.804 15.9468C128.998 15.9468 129.192 15.9791 129.386 16.0114V24.2472Z" fill="#161616"/>
<path d="M146.083 47.016C143.564 47.016 141.303 46.5961 139.3 45.7887C137.298 44.9812 135.586 43.8508 134.197 42.4297C132.809 41.0086 131.743 39.3938 131.032 37.5528C130.322 35.7119 129.934 33.774 129.934 31.7393C129.934 29.5753 130.289 27.5083 131.032 25.6027C131.743 23.6649 132.809 21.9854 134.165 20.532C135.522 19.0786 137.233 17.9482 139.236 17.1085C141.238 16.2687 143.531 15.8489 146.083 15.8489C148.634 15.8489 150.895 16.2687 152.898 17.1085C154.868 17.9482 156.547 19.0786 157.936 20.4997C159.293 21.9208 160.358 23.568 161.069 25.4412C161.779 27.3145 162.135 29.2846 162.135 31.3194C162.135 31.8684 162.102 32.3852 162.07 32.902C162.038 33.4187 161.973 33.8709 161.909 34.2585H139.72C139.882 36.2932 140.592 37.8112 141.916 38.877C143.241 39.9105 144.726 40.4596 146.406 40.4596C147.73 40.4596 149.022 40.1366 150.282 39.4907C151.509 38.8447 152.349 37.9727 152.768 36.8746L160.552 39.0385C159.357 41.3962 157.548 43.3341 155.062 44.8198C152.542 46.2731 149.571 47.016 146.083 47.016ZM152.445 28.6064C152.252 26.7008 151.573 25.1829 150.378 24.0847C149.183 22.9866 147.73 22.4376 145.986 22.4376C144.177 22.4376 142.724 22.9866 141.561 24.117C140.398 25.2475 139.72 26.7331 139.526 28.6064H152.445Z" fill="#161616"/>
<path d="M178.767 47.0163C176.7 47.0163 174.827 46.6287 173.083 45.8536C171.339 45.0785 169.853 43.9803 168.594 42.5592C167.334 41.1382 166.365 39.491 165.655 37.6177C164.944 35.7445 164.589 33.6774 164.589 31.4166C164.589 29.2527 164.912 27.2179 165.558 25.3124C166.204 23.4068 167.108 21.7596 168.303 20.3708C169.498 18.982 170.887 17.8839 172.502 17.0765C174.117 16.2691 175.893 15.8815 177.863 15.8815C179.962 15.8815 181.868 16.366 183.548 17.3672C185.259 18.3684 186.551 19.6926 187.456 21.3721V4.70654H196.596V36.1643C196.596 37.0687 196.725 37.7146 197.016 38.0699C197.306 38.4252 197.791 38.6512 198.534 38.7158V46.4349C197.694 46.6287 196.983 46.7579 196.37 46.8225C195.756 46.8871 195.175 46.9194 194.658 46.9194C193.043 46.9194 191.751 46.5964 190.782 45.9182C189.781 45.2399 189.232 44.3033 189.07 43.0437L188.909 41.4934C187.843 43.3667 186.39 44.7555 184.581 45.6598C182.74 46.5641 180.802 47.0163 178.767 47.0163ZM181.222 39.2972C182.482 39.2972 183.677 38.9096 184.839 38.1668C186.002 37.4239 186.874 36.3904 187.488 35.0985V28.8005C186.906 27.2825 186.002 26.0229 184.71 25.054C183.418 24.0851 182.094 23.6006 180.738 23.6006C179.736 23.6006 178.832 23.8267 178.025 24.2465C177.217 24.6987 176.474 25.2801 175.893 25.9906C175.279 26.7012 174.827 27.5409 174.504 28.5098C174.181 29.4787 174.02 30.48 174.02 31.5458C174.02 32.6439 174.214 33.6774 174.569 34.6463C174.924 35.6153 175.441 36.4227 176.054 37.101C176.668 37.7792 177.443 38.3283 178.348 38.7158C179.22 39.1034 180.189 39.2972 181.222 39.2972Z" fill="#161616"/>
<path d="M218.041 47.016C215.522 47.016 213.261 46.5961 211.259 45.7887C209.256 44.9812 207.545 43.8508 206.156 42.4297C204.767 41.0086 203.701 39.3938 202.991 37.5528C202.28 35.7119 201.893 33.774 201.893 31.7393C201.893 29.5753 202.248 27.5083 202.991 25.6027C203.701 23.6649 204.767 21.9854 206.124 20.532C207.48 19.0786 209.192 17.9482 211.194 17.1085C213.197 16.2687 215.49 15.8489 218.041 15.8489C220.593 15.8489 222.854 16.2687 224.856 17.1085C226.826 17.9482 228.506 19.0786 229.895 20.4997C231.251 21.9208 232.317 23.568 233.027 25.4412C233.738 27.3145 234.093 29.2846 234.093 31.3194C234.093 31.8684 234.061 32.3852 234.029 32.902C233.996 33.4187 233.932 33.8709 233.867 34.2585H211.679C211.84 36.2932 212.551 37.8112 213.875 38.877C215.199 39.9105 216.685 40.4596 218.364 40.4596C219.689 40.4596 220.98 40.1366 222.24 39.4907C223.467 38.8447 224.307 37.9727 224.727 36.8746L232.511 39.0385C231.316 41.3962 229.507 43.3341 227.02 44.8198C224.501 46.2731 221.529 47.016 218.041 47.016ZM224.404 28.6064C224.21 26.7008 223.532 25.1829 222.337 24.0847C221.142 22.9866 219.689 22.4376 217.944 22.4376C216.136 22.4376 214.682 22.9866 213.52 24.117C212.357 25.2475 211.679 26.7331 211.485 28.6064H224.404Z" fill="#161616"/>
<path d="M257.284 24.2472C255.087 24.2795 253.085 24.6348 251.276 25.3454C249.468 26.0236 248.176 27.0571 247.4 28.4459V46.4679H238.26V16.4312H246.658V22.4709C247.691 20.4361 249.015 18.8536 250.63 17.7231C252.245 16.5927 253.989 15.9791 255.798 15.9468C256.218 15.9468 256.508 15.9468 256.702 15.9468C256.896 15.9468 257.09 15.9791 257.284 16.0114V24.2472Z" fill="#161616"/>
<path d="M273.916 47.0162C271.364 47.0162 269.071 46.5963 267.069 45.7565C265.066 44.9168 263.387 43.7864 261.998 42.3653C260.609 40.9442 259.576 39.2648 258.865 37.3915C258.155 35.5182 257.799 33.5158 257.799 31.481C257.799 29.414 258.155 27.4439 258.865 25.5706C259.576 23.6973 260.609 22.0179 261.998 20.5968C263.354 19.1757 265.066 18.013 267.069 17.1732C269.071 16.3335 271.364 15.8813 273.916 15.8813C276.467 15.8813 278.728 16.3012 280.731 17.1732C282.701 18.0453 284.38 19.1757 285.769 20.5968C287.158 22.0179 288.191 23.6973 288.902 25.5706C289.612 27.4439 290 29.4463 290 31.481C290 33.5481 289.645 35.5182 288.934 37.3915C288.224 39.2648 287.19 40.9442 285.801 42.3653C284.412 43.7864 282.733 44.9168 280.731 45.7565C278.728 46.5963 276.5 47.0162 273.916 47.0162ZM267.23 31.481C267.23 33.8388 267.844 35.7443 269.103 37.1654C270.363 38.5865 271.978 39.297 273.916 39.297C274.852 39.297 275.757 39.1033 276.532 38.7157C277.339 38.3281 278.018 37.8114 278.631 37.1008C279.213 36.4226 279.697 35.5828 280.02 34.6139C280.343 33.645 280.537 32.5792 280.537 31.4487C280.537 29.091 279.923 27.1855 278.664 25.7644C277.404 24.3433 275.821 23.6328 273.916 23.6328C272.947 23.6328 272.075 23.8265 271.267 24.2141C270.46 24.6017 269.749 25.1184 269.136 25.829C268.554 26.5072 268.07 27.347 267.747 28.3159C267.424 29.2525 267.23 30.3183 267.23 31.481Z" fill="#161616"/>
<path d="M62.8187 8.71103C59.6212 11.0042 55.907 12.5221 51.999 13.1681C50.6748 13.3942 49.3183 13.4911 47.9618 13.4911C44.5383 13.4911 41.147 12.7805 38.0142 11.4563L36.6577 10.875L35.3335 11.424C32.2006 12.7805 28.8094 13.4588 25.3859 13.4588C23.7064 13.4588 22.0592 13.2973 20.412 12.9743C16.4717 12.1992 12.7898 10.4874 9.62466 8.03278L0 0.668945L4.16638 12.5867C7.49302 22.1145 16.7301 31.7392 25.4504 35.6472C28.551 39.8458 30.1336 47.3066 34.5583 49.7289L36.1732 50.6009L37.7881 49.7289C42.1483 47.3712 43.9246 39.9427 46.9929 35.841C55.6163 32.0944 64.6596 22.6959 68.1155 13.4265L72.411 1.92855L62.8187 8.71103ZM44.8613 23.6325C42.7619 24.0201 40.8887 24.0524 39.403 23.9232C39.2415 26.5393 38.9831 29.3491 38.5955 32.2882C38.0465 36.2931 37.3359 40.0073 36.5285 43.334C35.7211 40.0073 35.0105 36.3254 34.4615 32.2882C34.0739 29.3491 33.8155 26.5716 33.654 23.9232C32.1683 24.0524 30.2951 24.0201 28.1957 23.6325C23.3511 22.6959 20.0245 20.2412 18.345 18.7879C20.7673 19.2077 23.5126 19.563 26.5163 19.6922C30.392 19.886 33.8801 19.6922 36.8515 19.3692C39.6614 19.6922 42.9234 19.8537 46.573 19.6922C49.609 19.563 52.3543 19.2077 54.7443 18.7879C53.0325 20.2412 49.6736 22.7282 44.8613 23.6325Z" fill="#F6A433"/>
</svg>
