<svg width="173" height="171" viewBox="0 0 173 171" fill="none" xmlns="http://www.w3.org/2000/svg">
<path d="M133.565 88.7405C139.385 101.803 138.96 113.147 133.65 120.992C133.559 121.228 124.569 134.431 124.406 134.504C118.623 142.169 119.229 130.353 104.654 128.824C75.2667 125.675 41.7762 101.459 29.845 74.6809C23.9522 61.4554 11.6336 66.7484 17.1801 58.9933C17.2706 58.7573 27.6572 44.7361 27.7477 44.5001C33.603 36.9988 44.3438 32.9959 58.7561 34.5977C88.0704 37.5831 121.634 61.9629 133.565 88.7405Z" fill="url(#paint0_linear)"/>
<path d="M123.396 103.252C135.327 130.03 121.261 149.408 91.8743 146.26C62.4872 143.111 28.9967 118.895 17.0655 92.117C5.13435 65.3394 19.2003 45.9606 48.5874 49.1093C77.9018 52.0947 111.392 76.3112 123.396 103.252Z" fill="url(#paint1_linear)"/>
<path d="M109.62 101.757C118.496 121.677 108.019 135.934 86.2006 133.523C64.4553 131.274 39.6462 113.366 30.7706 93.4456C21.895 73.5257 32.372 59.2685 54.1901 61.6801C75.9354 63.9285 100.745 81.8371 109.62 101.757Z" fill="url(#paint2_linear)"/>
<path d="M87.9028 129.437C66.1574 127.189 41.3483 109.28 32.4727 89.3604C29.2717 82.1762 28.5942 75.8244 30.0232 70.6868C26.7254 76.4614 26.6964 84.302 30.7705 93.4456C39.6461 113.366 64.4552 131.274 86.2005 133.523C100.141 134.943 109.501 129.599 111.997 120.267C108.01 127.132 99.6104 130.679 87.9028 129.437Z" fill="url(#paint3_linear)"/>
<path d="M59.7925 34.7219C59.3932 34.7041 58.9938 34.6864 58.5218 34.5053C58.1225 34.4876 57.8864 34.397 57.4871 34.3792L47.0828 48.7997C47.4821 48.8175 47.8814 48.8353 48.444 48.7803C48.8433 48.7981 49.0793 48.8886 49.3153 48.9791L59.7925 34.7219Z" fill="#FDD65B"/>
<path d="M41.825 35.6837L31.2574 50.1769C32.1465 49.9765 33.199 49.7032 34.0881 49.5028L44.6558 35.0095C43.7666 35.21 42.8775 35.4104 41.825 35.6837Z" fill="#FDD65B"/>
<path d="M70.8098 37.0542L60.4054 51.4747C61.0408 51.583 61.7488 51.8546 62.4569 52.1262L72.8613 37.7056C72.1532 37.4341 71.4451 37.1625 70.8098 37.0542Z" fill="#FDD65B"/>
<path d="M93.5818 46.8693L83.1047 61.1265C83.6495 61.4708 84.1944 61.8151 84.7392 62.1595L95.2163 47.9023C94.6715 47.5579 94.1267 47.2136 93.5818 46.8693Z" fill="#FDD65B"/>
<path d="M82.7028 41.3443L72.2257 55.6015C72.7705 55.9459 73.4786 56.2175 73.9506 56.3985L84.4277 42.1413C83.8829 41.797 83.3381 41.4526 82.7028 41.3443Z" fill="#FDD65B"/>
<path d="M103.768 53.4851L93.4537 67.6696C93.9986 68.0139 94.3801 68.431 94.9977 68.9386L105.311 54.7541C104.767 54.4098 104.149 53.9022 103.768 53.4851Z" fill="#FDD65B"/>
<path d="M137.662 104.527L127.512 118.638C127.622 119.764 127.659 120.726 127.533 121.76L137.756 107.812C137.882 106.777 137.772 105.652 137.662 104.527Z" fill="#FDD65B"/>
<path d="M123.835 104.231C124.126 104.884 124.489 105.7 124.617 106.426L134.931 92.2416C134.64 91.5885 134.349 90.9354 134.148 90.0463L123.835 104.231Z" fill="#FDD65B"/>
<path d="M129.202 80.7036C128.748 80.1232 128.457 79.4701 128.166 78.817L117.852 93.0015C118.306 93.5818 118.597 94.235 119.052 94.8153L129.202 80.7036Z" fill="#FDD65B"/>
<path d="M110.509 83.5525C110.963 84.1329 111.345 84.55 111.799 85.1303L122.113 70.9458C121.658 70.3655 121.277 69.9484 120.823 69.368L110.509 83.5525Z" fill="#FDD65B"/>
<path d="M114.249 62.5133C113.867 62.0962 113.25 61.5886 112.868 61.1715L102.555 75.356C102.936 75.773 103.554 76.2807 103.935 76.6977L114.249 62.5133Z" fill="#FDD65B"/>
<g style="mix-blend-mode:color-dodge">
<path d="M126.328 63.963C141.769 80.376 146.762 100.812 137.506 109.453C128.255 118.272 108.067 111.994 92.6316 95.7598C77.1914 79.3467 72.1981 58.9112 81.4539 50.2702C90.8838 41.4459 110.888 47.5499 126.328 63.963Z" fill="url(#paint4_radial)"/>
</g>
<path d="M58.7552 34.5981C44.3429 32.9962 33.6021 36.9992 27.7468 44.5005C27.7468 44.5005 27.1487 45.354 26.224 46.3531C32.3525 39.9043 42.4224 36.5917 55.8001 38.0674C85.1872 41.2161 118.678 65.4326 130.609 92.2102C136.429 105.272 136.004 116.616 130.693 124.462C130.603 124.698 133.395 121.301 133.485 121.065C138.796 113.22 139.294 102.039 133.401 88.8136C121.633 61.9632 88.0695 37.5835 58.7552 34.5981Z" fill="url(#paint5_linear)"/>
<g style="mix-blend-mode:color-dodge">
<path d="M49.8009 47.0025C35.6247 45.4912 25.3737 49.2759 19.5362 56.3779C25.6841 51.2902 35.1559 48.8312 47.0996 50.1631C76.4867 53.3118 109.977 77.5283 121.908 104.306C128.165 118.348 127.232 130.309 120.887 138.029C129.864 130.506 131.739 117.147 124.61 101.145C112.842 74.295 79.3513 50.0785 49.8009 47.0025Z" fill="url(#paint6_radial)"/>
</g>
<path d="M51.9143 75.2843C52.1358 75.4233 52.3354 75.5856 52.5005 75.761L68.662 92.1051C68.6924 92.1373 68.7266 92.1682 68.7638 92.1971C68.7919 92.2174 68.8215 92.2362 68.8523 92.2532L70.8852 93.2991C70.8455 93.2783 70.8073 93.2547 70.7713 93.229C70.7355 93.1993 70.7015 93.1686 70.6696 93.137L54.5059 76.7893C54.3445 76.6146 54.1466 76.4532 53.9261 76.3161C53.1895 75.9061 52.4398 75.5208 51.6807 75.1622C51.7579 75.1987 51.8329 75.241 51.9039 75.2881C51.9818 75.3264 51.9121 75.2807 51.9143 75.2843Z" fill="url(#paint7_linear)"/>
<path d="M52.9349 95.997L62.3374 96.6372C62.6323 96.6544 62.9576 96.7484 63.2658 96.9055L61.2329 95.8596C60.9244 95.7054 60.6004 95.6118 60.3045 95.5914L50.9315 94.9651C50.767 94.9514 50.588 94.8981 50.418 94.812L51.7774 95.5092C52.1121 95.6872 52.553 95.9715 52.9349 95.997Z" fill="url(#paint8_linear)"/>
<path d="M70.6879 107.562L68.655 106.516C68.2906 106.318 67.9036 106.18 67.5324 106.114L54.5925 105.246C54.345 105.249 54.0665 105.19 53.791 105.077L55.8239 106.122C56.0997 106.237 56.3789 106.297 56.6275 106.295L69.5675 107.163C69.9371 107.225 70.3244 107.363 70.6879 107.562Z" fill="url(#paint9_linear)"/>
<path d="M84.6713 78.4688C84.5272 78.2296 84.2396 78.1157 83.9492 77.9694L82.2658 77.1121C82.4245 77.1979 82.5597 77.3151 82.645 77.4409C82.7402 77.5773 82.776 77.714 82.7459 77.8254L78.6153 91.2592C78.6109 91.4451 78.6686 91.65 78.7839 91.8586C78.8993 92.0672 79.0695 92.2741 79.2816 92.4637C79.3301 92.5051 79.3853 92.5421 79.4441 92.5726L81.477 93.6185C80.9846 93.3676 80.5722 92.5917 80.6482 92.305L84.7788 78.8712C84.7919 78.8117 84.7893 78.7459 84.771 78.6764C84.7458 78.6136 84.7073 78.5496 84.657 78.4872C84.6456 78.4332 84.6735 78.4724 84.6713 78.4688Z" fill="url(#paint10_linear)"/>
<path d="M88.9622 94.8647C88.8545 94.6969 88.7098 94.5327 88.5364 94.3815C88.4485 94.3062 88.348 94.2393 88.2409 94.1847L86.2081 93.1388C86.4404 93.2819 86.6462 93.4536 86.8079 93.6392C86.9695 93.8249 87.0823 94.019 87.1365 94.2049L88.0068 96.644C88.0668 96.8091 88.079 96.9655 88.0423 97.1019C88.0265 97.1455 88.0126 97.1854 87.9904 97.2255C87.9494 97.3018 87.8808 97.3618 87.7891 97.4015C87.6975 97.4411 87.5849 97.4596 87.4589 97.4555L78.7535 96.8603C78.3148 96.8454 77.9666 96.9707 77.7802 97.2103C77.7123 97.2932 77.663 97.3874 77.6332 97.491L76.044 100.282C75.9175 100.772 76.0512 101.693 76.7496 102.266C76.8188 102.325 76.8967 102.378 76.9797 102.424L79.0125 103.47C78.072 102.992 77.9541 101.796 78.0725 101.321L79.6597 98.5334C79.708 98.331 79.8359 98.1672 80.0317 98.057C80.2275 97.9467 80.4849 97.8937 80.78 97.9027L89.4875 98.4943C89.6763 98.5038 89.8328 98.4602 89.9313 98.3706C89.9996 98.3104 90.0455 98.2349 90.0669 98.1479C90.1035 98.0115 90.0914 97.8551 90.0314 97.69L89.1589 95.2474C89.1144 95.1293 89.0506 95.0091 88.9689 94.8898C88.9689 94.8898 89.0243 94.9538 88.9622 94.8647Z" fill="url(#paint11_linear)"/>
<path d="M84.7172 120.862L80.4545 108.961C80.3051 108.544 80.4788 107.902 81.0715 107.942L93.1623 108.764C93.3748 108.76 93.7551 108.811 93.8337 108.661C93.873 108.61 93.8868 108.543 93.8739 108.469C93.8649 108.42 93.8515 108.37 93.8336 108.318L92.9592 105.879C92.8868 105.689 92.783 105.496 92.6505 105.304C92.4844 104.986 92.1824 104.674 91.8026 104.428L89.7805 103.4C90.3508 103.689 90.8048 104.464 90.9349 104.848L91.8115 107.29C91.8665 107.421 91.8636 107.543 91.8032 107.634C91.6466 107.744 91.4073 107.78 91.1318 107.736L79.039 106.911C78.6529 106.885 78.4789 107.177 78.4123 107.409C78.3826 107.521 78.375 107.643 78.3898 107.771C78.4263 107.832 78.4106 107.882 78.4305 107.943L82.7441 120.006C82.7699 120.049 82.6521 120.105 81.9106 120.021L74.0962 119.478C74.7185 119.82 75.3624 120.116 76.0135 120.36C76.0135 120.36 82.9704 120.977 83.9327 121.049C84.895 121.122 84.7172 120.862 84.7172 120.862Z" fill="url(#paint12_linear)"/>
<g style="mix-blend-mode:color-dodge" opacity="0.5">
<path d="M90.9447 104.848C90.7908 104.411 90.0857 103.366 89.5618 103.329L77.1808 102.472C76.8113 102.446 76.3103 101.838 76.192 101.53C76.0353 101.084 75.9823 100.657 76.0354 100.269L77.6205 97.4783C77.6679 97.2754 77.7955 97.1112 77.9914 97.0009C78.1873 96.8906 78.4451 96.8379 78.7408 96.8476L87.4547 97.4499C87.7042 97.4385 87.8961 97.3503 87.9961 97.2009C88.0961 97.0515 88.0977 96.8508 88.0005 96.6348L87.1324 94.2065C86.97 93.7618 86.4053 93.0897 85.8793 93.056L79.6263 92.629C79.188 92.6009 78.5645 91.5653 78.6424 91.2678L82.7729 77.834C82.799 77.7683 82.7967 77.6898 82.7661 77.6059C82.7356 77.522 82.6778 77.4357 82.5984 77.3552C82.5191 77.2747 82.4207 77.2027 82.3129 77.1462C82.2051 77.0897 82.0914 77.0506 81.9828 77.0326L75.1098 76.5627C74.8154 76.5633 74.5617 76.6261 74.3718 76.7456C74.1818 76.8651 74.0615 77.0373 74.0217 77.2469L69.5263 92.146C69.5135 92.2129 69.473 92.2668 69.4092 92.3023C69.3453 92.3377 69.2603 92.3534 69.1631 92.3476C69.0804 92.3435 68.989 92.3181 68.9018 92.275C68.8146 92.2319 68.736 92.1732 68.6772 92.1074L52.5156 75.7632C52.3159 75.5389 52.0517 75.3376 51.7572 75.1853C51.4627 75.033 51.1514 74.9368 50.8636 74.909L41.6885 74.2827C41.2503 74.2546 41.2087 74.8294 41.5212 75.1594L56.1642 89.7442C56.4808 90.0742 56.5655 91.0546 56.1398 91.0263L49.3358 90.566C48.8119 90.5287 48.5856 91.1466 48.7417 91.5878L49.6183 94.0304C49.6518 94.134 49.7123 94.2411 49.7963 94.3451C49.8803 94.4491 49.986 94.5479 50.1069 94.6355C50.2278 94.7231 50.3615 94.7977 50.4997 94.8547C50.638 94.9117 50.778 94.9499 50.9113 94.9671L60.3138 95.6073C60.5928 95.624 60.8992 95.7093 61.1927 95.8521C61.4862 95.9949 61.7532 96.1885 61.9586 96.4075L65.7294 99.3531C66.1032 99.8258 66.3806 100.31 66.5478 100.782C66.6599 101.094 66.6097 101.767 66.2444 101.741L53.0163 100.842C52.4924 100.805 52.4001 101.799 52.5583 102.237L53.4307 104.68C53.5889 105.117 54.0722 105.213 54.6147 105.246L67.5633 106.129C68.0872 106.166 69.5723 106.897 69.7284 107.338L69.8339 107.632C72.7608 107.765 75.6239 107.776 78.4123 107.667C78.4073 107.28 78.648 106.882 79.0696 106.911L84.1372 107.258C86.645 107.001 89.0738 106.642 91.4237 106.183L90.9447 104.848Z" fill="url(#paint13_radial)"/>
</g>
<path d="M81.9607 77.0268C82.0693 77.0448 82.183 77.0839 82.2908 77.1404C82.3987 77.1969 82.497 77.2689 82.5764 77.3494C82.6557 77.4299 82.7135 77.5162 82.744 77.6001C82.7746 77.684 82.7769 77.7625 82.7508 77.8282L78.6203 91.2621C78.5385 91.574 79.1701 92.595 79.6042 92.6232L85.8573 93.0503C86.3832 93.084 86.9458 93.7524 87.1104 94.2007L87.9807 96.6398C88.0778 96.8558 88.0763 97.0565 87.9763 97.2059C87.8763 97.3553 87.6843 97.4435 87.4349 97.4549L78.7295 96.8597C78.4338 96.85 78.176 96.9027 77.9801 97.013C77.7842 97.1233 77.6566 97.2875 77.6092 97.4903L76.0429 100.285C75.9898 100.673 76.0428 101.1 76.1995 101.545C76.3136 101.854 76.8146 102.462 77.1882 102.488L89.5693 103.344C90.0932 103.381 90.7982 104.426 90.9522 104.864L91.8288 107.306C91.9869 107.744 91.6709 107.786 91.1491 107.752L79.0562 106.927C78.5387 106.893 78.2852 107.507 78.4392 107.945L82.8023 120.09C82.855 120.233 74.1489 119.49 74.0693 119.47L69.7234 107.354C69.5673 106.912 68.0822 106.182 67.5583 106.144L54.5928 105.248C54.071 105.214 53.5877 105.118 53.4088 104.681L52.5363 102.238C52.3782 101.801 52.4639 100.796 52.9943 100.844L66.2225 101.742C66.5877 101.768 66.6379 101.096 66.5259 100.784C66.3586 100.312 66.0812 99.8272 65.7075 99.3545L61.9366 96.4089C61.7312 96.19 61.4643 95.9964 61.1707 95.8536C60.8772 95.7108 60.5708 95.6254 60.2918 95.6087L50.931 94.9677C50.7977 94.9506 50.6577 94.9123 50.5194 94.8554C50.3812 94.7984 50.2475 94.7238 50.1266 94.6362C50.0057 94.5486 49.9 94.4498 49.816 94.3458C49.7321 94.2417 49.6715 94.1347 49.6381 94.031L48.7614 91.5885C48.6053 91.1473 48.8316 90.5294 49.3555 90.5667L56.1428 91.0273C56.5811 91.0554 56.4839 90.0752 56.1672 89.7452L41.5242 75.1604C41.2118 74.8304 41.27 74.2553 41.6916 74.2836L50.8666 74.9099C51.1545 74.9377 51.4657 75.034 51.7602 75.1863C52.0547 75.3386 52.3189 75.5399 52.5187 75.7642L68.6802 92.1083C68.7391 92.1742 68.8177 92.2329 68.9049 92.276C68.9921 92.3191 69.0835 92.3445 69.1662 92.3486C69.2634 92.3544 69.3483 92.3387 69.4122 92.3033C69.4761 92.2678 69.5165 92.2138 69.5293 92.147L74.0038 77.241C74.0436 77.0315 74.1639 76.8592 74.3538 76.7397C74.5438 76.6203 74.7975 76.5574 75.0919 76.5568L81.9607 77.0268Z" fill="url(#paint14_linear)"/>
<defs>
<linearGradient id="paint0_linear" x1="30.1912" y1="42.5454" x2="133.941" y2="121.44" gradientUnits="userSpaceOnUse">
<stop stop-color="#FFBB96"/>
<stop offset="0.2273" stop-color="#FFFBC9"/>
<stop offset="0.5404" stop-color="#F9B673"/>
<stop offset="0.6391" stop-color="#F9B876"/>
<stop offset="0.7249" stop-color="#FABE81"/>
<stop offset="0.8057" stop-color="#FCC993"/>
<stop offset="0.8586" stop-color="#FED2A3"/>
<stop offset="0.9697" stop-color="#FFC28C"/>
</linearGradient>
<linearGradient id="paint1_linear" x1="53.0432" y1="112.318" x2="168.882" y2="12.7314" gradientUnits="userSpaceOnUse">
<stop offset="0.0353535" stop-color="#FFBA78"/>
<stop offset="0.395" stop-color="#FFC987"/>
<stop offset="1" stop-color="#FEECA8"/>
</linearGradient>
<linearGradient id="paint2_linear" x1="110.303" y1="102.563" x2="-58.7821" y2="81.6135" gradientUnits="userSpaceOnUse">
<stop offset="0.0353535" stop-color="#FFBA78"/>
<stop offset="0.395" stop-color="#FFC987"/>
<stop offset="1" stop-color="#FEECA8"/>
</linearGradient>
<linearGradient id="paint3_linear" x1="81.6958" y1="139.789" x2="60.6493" y2="73.6167" gradientUnits="userSpaceOnUse">
<stop stop-color="#FFBB96"/>
<stop offset="0.2273" stop-color="#FFFBC9"/>
<stop offset="0.5404" stop-color="#F9B673"/>
<stop offset="0.6391" stop-color="#F9B876"/>
<stop offset="0.7249" stop-color="#FABE81"/>
<stop offset="0.8057" stop-color="#FCC993"/>
<stop offset="0.8586" stop-color="#FED2A3"/>
<stop offset="0.9697" stop-color="#FFC28C"/>
</linearGradient>
<radialGradient id="paint4_radial" cx="0" cy="0" r="1" gradientUnits="userSpaceOnUse" gradientTransform="translate(109.537 79.8352) rotate(-43.3179) scale(23.1744 40.7759)">
<stop stop-color="#F49587"/>
<stop offset="0.116" stop-color="#BD7368"/>
<stop offset="0.2362" stop-color="#8B554D"/>
<stop offset="0.3594" stop-color="#603B35"/>
<stop offset="0.4835" stop-color="#3E2622"/>
<stop offset="0.6085" stop-color="#231513"/>
<stop offset="0.7352" stop-color="#0F0908"/>
<stop offset="0.8644" stop-color="#040202"/>
<stop offset="1"/>
</radialGradient>
<linearGradient id="paint5_linear" x1="39.3674" y1="30.4682" x2="142.449" y2="108.854" gradientUnits="userSpaceOnUse">
<stop stop-color="#FFBB96"/>
<stop offset="0.2273" stop-color="#FFFBC9"/>
<stop offset="0.5404" stop-color="#F9B673"/>
<stop offset="0.6391" stop-color="#F9B876"/>
<stop offset="0.7249" stop-color="#FABE81"/>
<stop offset="0.8057" stop-color="#FCC993"/>
<stop offset="0.8586" stop-color="#FED2A3"/>
<stop offset="0.9697" stop-color="#FFC28C"/>
</linearGradient>
<radialGradient id="paint6_radial" cx="0" cy="0" r="1" gradientUnits="userSpaceOnUse" gradientTransform="translate(75.0731 71.2257) rotate(-24.0161) scale(50.1079)">
<stop stop-color="white"/>
<stop offset="1"/>
</radialGradient>
<linearGradient id="paint7_linear" x1="62.2078" y1="90.1116" x2="66.4116" y2="84.7041" gradientUnits="userSpaceOnUse">
<stop stop-color="#FFBB96"/>
<stop offset="0.2273" stop-color="#FFFBC9"/>
<stop offset="0.5404" stop-color="#F9B673"/>
<stop offset="0.6391" stop-color="#F9B876"/>
<stop offset="0.7249" stop-color="#FABE81"/>
<stop offset="0.8057" stop-color="#FCC993"/>
<stop offset="0.8586" stop-color="#FED2A3"/>
<stop offset="0.9697" stop-color="#FFC28C"/>
</linearGradient>
<linearGradient id="paint8_linear" x1="53.6647" y1="96.6598" x2="53.8692" y2="94.7606" gradientUnits="userSpaceOnUse">
<stop stop-color="#FFBB96"/>
<stop offset="0.2273" stop-color="#FFFBC9"/>
<stop offset="0.5404" stop-color="#F9B673"/>
<stop offset="0.6391" stop-color="#F9B876"/>
<stop offset="0.7249" stop-color="#FABE81"/>
<stop offset="0.8057" stop-color="#FCC993"/>
<stop offset="0.8586" stop-color="#FED2A3"/>
<stop offset="0.9697" stop-color="#FFC28C"/>
</linearGradient>
<linearGradient id="paint9_linear" x1="57.9596" y1="107.289" x2="58.1811" y2="104.988" gradientUnits="userSpaceOnUse">
<stop stop-color="#FFBB96"/>
<stop offset="0.2273" stop-color="#FFFBC9"/>
<stop offset="0.5404" stop-color="#F9B673"/>
<stop offset="0.6391" stop-color="#F9B876"/>
<stop offset="0.7249" stop-color="#FABE81"/>
<stop offset="0.8057" stop-color="#FCC993"/>
<stop offset="0.8586" stop-color="#FED2A3"/>
<stop offset="0.9697" stop-color="#FFC28C"/>
</linearGradient>
<linearGradient id="paint10_linear" x1="80.6238" y1="90.6491" x2="84.7181" y2="82.8362" gradientUnits="userSpaceOnUse">
<stop stop-color="#FFBB96"/>
<stop offset="0.2273" stop-color="#FFFBC9"/>
<stop offset="0.5404" stop-color="#F9B673"/>
<stop offset="0.6391" stop-color="#F9B876"/>
<stop offset="0.7249" stop-color="#FABE81"/>
<stop offset="0.8057" stop-color="#FCC993"/>
<stop offset="0.8586" stop-color="#FED2A3"/>
<stop offset="0.9697" stop-color="#FFC28C"/>
</linearGradient>
<linearGradient id="paint11_linear" x1="79.3221" y1="101.618" x2="81.4001" y2="94.9595" gradientUnits="userSpaceOnUse">
<stop stop-color="#FFBB96"/>
<stop offset="0.2273" stop-color="#FFFBC9"/>
<stop offset="0.5404" stop-color="#F9B673"/>
<stop offset="0.6391" stop-color="#F9B876"/>
<stop offset="0.7249" stop-color="#FABE81"/>
<stop offset="0.8057" stop-color="#FCC993"/>
<stop offset="0.8586" stop-color="#FED2A3"/>
<stop offset="0.9697" stop-color="#FFC28C"/>
</linearGradient>
<linearGradient id="paint12_linear" x1="78.1935" y1="117.995" x2="81.8868" y2="106.797" gradientUnits="userSpaceOnUse">
<stop stop-color="#FFBB96"/>
<stop offset="0.2273" stop-color="#FFFBC9"/>
<stop offset="0.5404" stop-color="#F9B673"/>
<stop offset="0.6391" stop-color="#F9B876"/>
<stop offset="0.7249" stop-color="#FABE81"/>
<stop offset="0.8057" stop-color="#FCC993"/>
<stop offset="0.8586" stop-color="#FED2A3"/>
<stop offset="0.9697" stop-color="#FFC28C"/>
</linearGradient>
<radialGradient id="paint13_radial" cx="0" cy="0" r="1" gradientUnits="userSpaceOnUse" gradientTransform="translate(157.861 91.635) rotate(-1.04882) scale(94.8947 21.9855)">
<stop stop-color="white"/>
<stop offset="1"/>
</radialGradient>
<linearGradient id="paint14_linear" x1="62.7912" y1="167.136" x2="95.7581" y2="84.4412" gradientUnits="userSpaceOnUse">
<stop offset="0.0353535" stop-color="#FFBA78"/>
<stop offset="0.395" stop-color="#FFC987"/>
<stop offset="1" stop-color="#FEECA8"/>
</linearGradient>
</defs>
</svg>
