<svg width="103" height="115" viewBox="0 0 103 115" fill="none" xmlns="http://www.w3.org/2000/svg">
<path d="M84.0488 85.4448C81.1103 95.4519 75.5142 101.553 68.8567 103.403C68.6949 103.491 57.4619 106.579 57.3368 106.542C50.5026 108.068 56.4224 101.79 49.0471 94.0533C34.2082 78.4184 27.0443 49.14 33.0682 28.6255C36.0435 18.4934 26.6986 15.6134 33.4444 13.9257C33.6062 13.8374 46.0018 10.9553 46.1636 10.8669C52.961 9.4661 60.8197 12.3173 68.0699 20.0171C82.9455 35.5269 90.0728 64.9304 84.0488 85.4448Z" fill="url(#paint0_linear)"/>
<path d="M71.5418 88.7025C65.5179 109.217 48.5467 113.337 33.7078 97.7021C18.8689 82.0672 11.7049 52.7888 17.7289 32.2743C23.7528 11.7599 40.724 7.63982 55.5629 23.2747C70.4385 38.7845 77.6025 68.0629 71.5418 88.7025Z" fill="url(#paint1_linear)"/>
<path d="M64.5943 81.363C60.1131 96.6237 47.5557 99.5941 36.5737 87.9451C25.555 76.4212 20.2337 54.7493 24.7149 39.4886C29.1961 24.2278 41.7535 21.2574 52.7355 32.9064C63.7542 44.4303 69.0756 66.1022 64.5943 81.363Z" fill="url(#paint2_linear)"/>
<path d="M39.4495 86.4797C28.4308 74.9558 23.1094 53.2838 27.5906 38.0231C29.2068 32.5192 31.8316 28.6703 35.0531 26.4912C30.4924 28.1412 26.7716 32.4835 24.7146 39.4884C20.2334 54.7492 25.5547 76.4211 36.5734 87.945C43.6469 95.3212 51.3726 96.7745 57.1683 92.7697C51.7101 94.6997 45.3674 92.7012 39.4495 86.4797Z" fill="url(#paint3_linear)"/>
<path d="M68.5866 20.5751C68.3732 20.3765 68.1597 20.178 67.983 19.8543C67.7696 19.6558 67.6812 19.494 67.4678 19.2954L54.8737 22.3909C55.0871 22.5895 55.3005 22.788 55.6391 23.0233C55.8525 23.2219 55.9409 23.3837 56.0292 23.5455L68.5866 20.5751Z" fill="#FDD65B"/>
<path d="M58.149 12.6187L45.4297 15.6775C46.0184 15.9862 46.7322 16.3317 47.321 16.6405L60.0402 13.5817C59.4515 13.2729 58.8628 12.9642 58.149 12.6187Z" fill="#FDD65B"/>
<path d="M73.6066 27.0769L61.0125 30.1724C61.3143 30.5328 61.5794 31.0182 61.8444 31.5037L74.4386 28.4082C74.1735 27.9227 73.9084 27.4373 73.6066 27.0769Z" fill="#FDD65B"/>
<path d="M81.6186 43.288L69.0612 46.2585C69.2012 46.7072 69.3412 47.1559 69.4811 47.6046L82.0386 44.6342C81.8986 44.1855 81.7586 43.7368 81.6186 43.288Z" fill="#FDD65B"/>
<path d="M78.1869 35.0793L65.6295 38.0497C65.7695 38.4984 66.0346 38.9839 66.2113 39.3076L78.7687 36.3371C78.6287 35.8884 78.4887 35.4397 78.1869 35.0793Z" fill="#FDD65B"/>
<path d="M84.1529 51.7769L71.7206 54.7841C71.8605 55.2328 71.8754 55.6448 71.9787 56.2186L84.411 53.2115C84.271 52.7627 84.1678 52.1889 84.1529 51.7769Z" fill="#FDD65B"/>
<path d="M78.8682 96.151L66.5609 99.1949C66.0904 99.8719 65.6566 100.424 65.0976 100.939L77.3681 98.0204C77.9271 97.5052 78.3976 96.8281 78.8682 96.151Z" fill="#FDD65B"/>
<path d="M71.3235 89.4515C71.1766 89.9518 70.993 90.5773 70.721 91.0409L83.1533 88.0337C83.3002 87.5334 83.4471 87.033 83.7559 86.4443L71.3235 89.4515Z" fill="#FDD65B"/>
<path d="M85.4215 78.9177C85.4434 78.3806 85.5903 77.8802 85.7372 77.3799L73.3049 80.387C73.2831 80.9241 73.1361 81.4245 73.1143 81.9616L85.4215 78.9177Z" fill="#FDD65B"/>
<path d="M73.6924 71.6684C73.6706 72.2055 73.6855 72.6175 73.6636 73.1546L86.096 70.1474C86.1178 69.6104 86.1029 69.1984 86.1248 68.6613L73.6924 71.6684Z" fill="#FDD65B"/>
<path d="M85.7108 61.7456C85.6959 61.3336 85.5927 60.7598 85.5778 60.3478L73.1455 63.355C73.1604 63.767 73.2636 64.3408 73.2785 64.7528L85.7108 61.7456Z" fill="#FDD65B"/>
<g style="mix-blend-mode:color-dodge">
<path d="M79.9261 29.6131C86.9808 44.4568 85.8838 59.7602 77.5278 63.6926C69.135 67.75 56.521 58.8828 49.4296 44.1642C42.3749 29.3204 43.4718 14.017 51.8279 10.0846C60.3457 6.06392 72.8715 14.7694 79.9261 29.6131Z" fill="url(#paint4_radial)"/>
</g>
<path d="M68.0702 20.018C60.82 12.3182 52.9613 9.46707 46.1638 10.8679C46.1638 10.8679 45.4282 11.0595 44.4424 11.1777C50.8944 10.4906 58.0542 13.4083 64.7891 20.5492C79.628 36.1841 86.7919 65.4625 80.768 85.977C77.8295 95.984 72.2333 102.086 65.5759 103.935C65.4141 104.023 68.57 103.456 68.7319 103.367C75.3893 101.518 80.9487 95.5412 83.924 85.4091C90.073 64.9314 82.9458 35.5278 68.0702 20.018Z" fill="url(#paint5_linear)"/>
<g style="mix-blend-mode:color-dodge">
<path d="M57.2334 22.678C50.0716 15.14 42.5881 12.399 35.9892 13.5864C41.8088 13.6648 48.233 16.7741 54.2392 23.1575C69.0781 38.7924 76.242 68.0709 70.2181 88.5853C67.0592 99.3429 60.8892 105.548 53.7166 106.838C62.2583 106.901 69.6126 100.364 73.2123 88.1058C79.3613 67.6281 72.1974 38.3496 57.2334 22.678Z" fill="url(#paint6_radial)"/>
</g>
<path d="M53.7629 46.2899C55.1194 47.0265 55.6727 47.4303 55.5587 47.6975L54.855 49.2537L55.3361 49.5493C57.9913 51.2844 59.9242 53.0845 60.8462 54.7791C61.7682 56.4736 61.8042 58.1308 61.0446 59.8129C60.9581 60.0099 60.7812 60.2462 60.5847 60.5799C60.4955 60.5703 58.7794 60.3887 56.1399 58.9536C54.602 58.1395 53.1495 57.0798 51.8798 55.8454L52.1898 55.1664C52.7033 54.0222 53.0534 53.3283 52.975 52.8112C52.8848 52.2131 52.5421 51.7464 51.6708 51.2766C51.3522 51.0936 51.0188 50.9693 50.6971 50.9134C50.3753 50.8576 50.0739 50.8717 49.8168 50.9548C49.3215 51.1084 48.9327 51.4992 48.6421 52.1445C48.1731 53.1812 48.1802 54.1171 48.6559 54.9226C49.0761 55.6463 50.4062 57.287 52.7289 59.9412C54.646 62.1191 55.9321 63.6997 56.5475 64.6322C57.1901 65.6584 57.5873 66.7212 57.7033 67.724C57.8778 68.8796 57.6373 70.0977 57.0537 71.3848C56.1276 73.4355 54.5986 74.6301 52.5689 74.9678C50.5393 75.3055 47.7942 74.7362 44.5908 73.341L44.08 73.11L43.0728 75.3411C42.4351 75.261 41.7644 75.0314 41.122 74.6732C40.4502 74.3049 39.8199 73.8287 39.2747 73.2778L40.3206 70.9602L40.2189 70.8741C38.1074 69.5806 36.2754 67.7954 35.0214 65.8094C33.7391 63.8527 33.6093 61.5203 34.7698 58.9524L35.1616 58.0884C35.2591 58.1018 38.156 58.2416 40.9497 59.7631C43.7435 61.2846 43.92 62.8165 43.9854 62.891L43.4605 64.0536C42.4502 66.2856 42.2304 66.9465 42.2442 67.2809C42.255 67.7391 42.398 68.3563 43.548 68.9829C43.8777 69.1754 44.2227 69.3117 44.5593 69.3825C44.8958 69.4532 45.216 69.4568 45.4976 69.3928C46.0822 69.2063 46.5035 68.8139 46.7004 68.2726C47.3325 66.8704 47.6363 65.8037 47.598 65.0049C47.5633 64.1605 46.823 62.9141 45.3452 61.2019C43.0567 58.5325 41.4982 56.6279 40.7419 55.5561C39.9523 54.3874 39.4248 53.1643 39.2037 51.989C38.9171 50.5841 39.035 49.2818 39.5457 48.2102C40.3223 46.491 41.5632 45.5343 43.4887 45.3738C45.4142 45.2133 47.854 45.7718 51.001 47.1935L51.944 45.3111C51.9691 45.2988 52.4149 45.5548 53.7629 46.2899Z" fill="url(#paint7_linear)"/>
<path d="M52.476 44.7608C53.7755 45.4668 54.0115 46.0671 54.0218 46.0977L53.2016 47.9177L53.661 48.2011C56.2123 49.8655 58.0703 51.5963 58.9553 53.2222C59.8404 54.8481 59.8763 56.4439 59.1436 58.0602C59.0627 58.2385 58.8916 58.4751 58.7015 58.8046C58.6151 58.7962 56.9735 58.6248 54.4289 57.242C52.9507 56.4603 51.5549 55.4414 50.3357 54.2542L50.6307 53.599C51.1287 52.5022 51.4658 51.8378 51.387 51.3441C51.2995 50.7685 50.9716 50.3203 50.136 49.8667C49.8303 49.6904 49.5102 49.5706 49.2011 49.5169C48.8921 49.4631 48.6028 49.4769 48.3563 49.5572C47.8797 49.7028 47.5078 50.0775 47.2265 50.6987C46.7778 51.6951 46.7844 52.593 47.2414 53.3664C47.6421 54.0624 48.9226 55.6406 51.1551 58.1901C52.9967 60.2819 54.2305 61.7988 54.8216 62.6967C55.4402 63.6824 55.8224 64.7036 55.9333 65.667C56.1025 66.7777 55.8689 67.947 55.3097 69.1861C54.4201 71.1446 52.949 72.3017 50.9999 72.6286C49.0507 72.9555 46.4112 72.4034 43.3317 71.0619L42.843 70.8407L41.8743 72.9854C41.2644 72.9056 40.6243 72.6865 40.0099 72.3472C39.3652 71.995 38.7606 71.5376 38.2394 71.0078L39.2457 68.7833L39.1464 68.7006C37.114 67.4613 35.3488 65.7469 34.1394 63.8378C32.9076 61.9582 32.785 59.7188 33.907 57.2563L34.2825 56.4251C34.3742 56.4382 36.1508 56.6873 38.8363 58.148C41.5218 59.6087 42.6967 60.9643 42.7593 61.0375L42.2557 62.1531C41.2839 64.2988 41.0751 64.9244 41.0879 65.2654C41.0954 65.7056 41.233 66.2992 42.337 66.9002C42.6536 67.0858 42.9852 67.2172 43.3087 67.2853C43.6321 67.3534 43.9397 67.3564 44.2099 67.2943C44.7727 67.1167 45.1778 66.7397 45.3654 66.2188C45.9749 64.8725 46.2556 63.845 46.2273 63.079C46.1964 62.2693 45.484 61.0734 44.0643 59.4252C41.8659 56.8627 40.367 55.0322 39.64 53.9997C38.867 52.8652 38.3531 51.6755 38.143 50.5339C37.8667 49.1843 37.9792 47.9333 38.4696 46.904C39.2163 45.2515 40.4105 44.3351 42.2593 44.18C44.108 44.0248 46.4547 44.5602 49.4751 45.9269L50.3814 44.1176C50.4282 44.1175 51.1793 44.056 52.476 44.7608Z" fill="url(#paint8_linear)"/>
<g style="mix-blend-mode:color-dodge" opacity="0.5">
<path d="M55.1948 69.1204C55.7568 67.8825 55.9877 66.712 55.8184 65.6012C55.7076 64.6379 55.3254 63.6166 54.7068 62.6309C54.1156 61.733 52.8819 60.2162 51.0402 58.1244C48.8078 55.5748 47.5355 54.0004 47.1265 53.3006C46.6696 52.5272 46.6629 51.6294 47.1144 50.6342C47.3929 50.0118 47.7648 49.637 48.2415 49.4915C48.4885 49.4114 48.7783 49.3978 49.0878 49.4518C49.3972 49.5057 49.7178 49.6257 50.0239 49.8022C50.8595 50.2558 51.1901 50.7053 51.2749 51.2796C51.3491 51.7854 51.016 52.4422 50.5213 53.5358L50.2236 54.1897C51.4431 55.3766 52.8388 56.3954 54.3168 57.1775C56.8553 58.5622 58.503 58.7317 58.5894 58.7401C58.7783 58.4195 58.9587 58.1989 59.0315 57.9957C59.7642 56.3794 59.7082 54.7603 58.8432 53.1577C57.9783 51.5551 56.107 49.7946 53.5489 48.1366L53.0867 47.8519L53.9097 46.0332C53.8967 46.0014 53.6606 45.4011 52.3639 44.6963C51.0672 43.9915 50.3161 44.053 50.2748 44.0556L49.3712 45.8661C46.3508 44.4994 44.0161 43.9624 42.1527 44.118C40.2893 44.2735 39.1097 45.1894 38.363 46.842C37.8726 47.8713 37.76 49.1223 38.0364 50.4719C38.2472 51.6069 38.7579 52.7891 39.5247 53.9172C40.2537 54.9554 41.7477 56.7789 43.9489 59.3427C45.3686 60.9908 46.077 62.1944 46.1119 62.9965C46.1345 63.6796 45.9107 64.5747 45.432 65.7204C48.614 67.1912 51.8243 68.444 55.0288 69.4655C55.0856 69.3542 55.1417 69.2474 55.1948 69.1204Z" fill="url(#paint9_radial)"/>
</g>
<defs>
<linearGradient id="paint0_linear" x1="48.4448" y1="10.9355" x2="68.807" y2="103.789" gradientUnits="userSpaceOnUse">
<stop stop-color="#FFBB96"/>
<stop offset="0.2273" stop-color="#FFFBC9"/>
<stop offset="0.5404" stop-color="#F9B673"/>
<stop offset="0.6391" stop-color="#F9B876"/>
<stop offset="0.7249" stop-color="#FABE81"/>
<stop offset="0.8057" stop-color="#FCC993"/>
<stop offset="0.8586" stop-color="#FED2A3"/>
<stop offset="0.9697" stop-color="#FFC28C"/>
</linearGradient>
<linearGradient id="paint1_linear" x1="28.1719" y1="60.4971" x2="139.584" y2="59.9042" gradientUnits="userSpaceOnUse">
<stop offset="0.0353535" stop-color="#FFBA78"/>
<stop offset="0.395" stop-color="#FFC987"/>
<stop offset="1" stop-color="#FEECA8"/>
</linearGradient>
<linearGradient id="paint2_linear" x1="64.5929" y1="82.1333" x2="-19.4473" y2="-9.39916" gradientUnits="userSpaceOnUse">
<stop offset="0.0353535" stop-color="#FFBA78"/>
<stop offset="0.395" stop-color="#FFC987"/>
<stop offset="1" stop-color="#FEECA8"/>
</linearGradient>
<linearGradient id="paint3_linear" x1="31.11" y1="89.2977" x2="50.6837" y2="42.5899" gradientUnits="userSpaceOnUse">
<stop stop-color="#FFBB96"/>
<stop offset="0.2273" stop-color="#FFFBC9"/>
<stop offset="0.5404" stop-color="#F9B673"/>
<stop offset="0.6391" stop-color="#F9B876"/>
<stop offset="0.7249" stop-color="#FABE81"/>
<stop offset="0.8057" stop-color="#FCC993"/>
<stop offset="0.8586" stop-color="#FED2A3"/>
<stop offset="0.9697" stop-color="#FFC28C"/>
</linearGradient>
<radialGradient id="paint4_radial" cx="0" cy="0" r="1" gradientUnits="userSpaceOnUse" gradientTransform="translate(64.7231 36.8831) rotate(-25.4872) scale(16.9018 29.7391)">
<stop stop-color="#F49587"/>
<stop offset="0.116" stop-color="#BD7368"/>
<stop offset="0.2362" stop-color="#8B554D"/>
<stop offset="0.3594" stop-color="#603B35"/>
<stop offset="0.4835" stop-color="#3E2622"/>
<stop offset="0.6085" stop-color="#231513"/>
<stop offset="0.7352" stop-color="#0F0908"/>
<stop offset="0.8644" stop-color="#040202"/>
<stop offset="1"/>
</radialGradient>
<linearGradient id="paint5_linear" x1="59.2503" y1="8.56275" x2="79.4817" y2="100.818" gradientUnits="userSpaceOnUse">
<stop stop-color="#FFBB96"/>
<stop offset="0.2273" stop-color="#FFFBC9"/>
<stop offset="0.5404" stop-color="#F9B673"/>
<stop offset="0.6391" stop-color="#F9B876"/>
<stop offset="0.7249" stop-color="#FABE81"/>
<stop offset="0.8057" stop-color="#FCC993"/>
<stop offset="0.8586" stop-color="#FED2A3"/>
<stop offset="0.9697" stop-color="#FFC28C"/>
</linearGradient>
<radialGradient id="paint6_radial" cx="0" cy="0" r="1" gradientUnits="userSpaceOnUse" gradientTransform="translate(59.8283 48.0769) rotate(16.3646) scale(36.5452)">
<stop stop-color="white"/>
<stop offset="1"/>
</radialGradient>
<linearGradient id="paint7_linear" x1="38.1971" y1="67.1678" x2="54.3291" y2="56.2827" gradientUnits="userSpaceOnUse">
<stop stop-color="#FFBB96"/>
<stop offset="0.2273" stop-color="#FFFBC9"/>
<stop offset="0.5404" stop-color="#F9B673"/>
<stop offset="0.6391" stop-color="#F9B876"/>
<stop offset="0.7249" stop-color="#FABE81"/>
<stop offset="0.8057" stop-color="#FCC993"/>
<stop offset="0.8586" stop-color="#FED2A3"/>
<stop offset="0.9697" stop-color="#FFC28C"/>
</linearGradient>
<linearGradient id="paint8_linear" x1="30.9282" y1="69.5235" x2="40.4288" y2="60.2069" gradientUnits="userSpaceOnUse">
<stop offset="0.0353535" stop-color="#FFBA78"/>
<stop offset="0.395" stop-color="#FFC987"/>
<stop offset="1" stop-color="#FEECA8"/>
</linearGradient>
<radialGradient id="paint9_radial" cx="0" cy="0" r="1" gradientUnits="userSpaceOnUse" gradientTransform="translate(89.9238 75.4954) rotate(24.3462) scale(49.1993 14.2177)">
<stop stop-color="white"/>
<stop offset="1"/>
</radialGradient>
</defs>
</svg>
