<svg width="104" height="106" viewBox="0 0 104 106" fill="none" xmlns="http://www.w3.org/2000/svg">
<path d="M67.7942 85.5409C62.1499 92.3387 55.7491 95.2067 49.9497 94.411C49.7942 94.4254 40.0202 93.0571 39.9352 92.9865C34.1071 91.8798 40.819 88.983 37.6786 80.4897C31.3834 63.3477 35.6374 38.1688 47.2082 24.2332C52.9231 17.3504 46.6207 11.9739 52.4344 12.9251C52.59 12.9107 63.1993 14.829 63.3548 14.8146C69.1124 16.0063 74.2684 20.8617 77.3238 29.2844C83.6896 46.3414 79.3651 71.6053 67.7942 85.5409Z" fill="url(#paint0_linear)"/>
<path d="M56.9738 83.8775C45.4029 97.8131 30.8189 95.3221 24.5238 78.18C18.2286 61.038 22.4825 35.8592 34.0534 21.9236C45.6243 7.98796 60.2083 10.479 66.5034 27.621C72.8692 44.6781 68.6152 69.857 56.9738 83.8775Z" fill="url(#paint1_linear)"/>
<path d="M54.0323 75.8357C45.4247 86.2024 34.6599 84.2984 30.0271 71.5514C25.3237 58.8893 28.458 40.2456 37.0656 29.8789C45.6732 19.5121 56.4381 21.4161 61.0709 34.1632C65.7742 46.8253 62.6399 65.469 54.0323 75.8357Z" fill="url(#paint2_linear)"/>
<path d="M32.7552 71.3766C28.0519 58.7145 31.1862 40.0708 39.7938 29.7041C42.8981 25.9653 46.2317 23.8523 49.4689 23.2384C45.3675 22.9912 41.0159 25.1202 37.0648 29.8787C28.4572 40.2454 25.3229 58.8891 30.0263 71.5512C33.0528 79.6628 38.5745 83.3862 44.4269 82.2162C39.5335 81.8855 35.2704 78.2023 32.7552 71.3766Z" fill="url(#paint3_linear)"/>
<path d="M77.5364 29.8916C77.437 29.6655 77.3376 29.4394 77.3088 29.1283C77.2094 28.9023 77.195 28.7467 77.0956 28.5207L66.2602 26.7017C66.3596 26.9278 66.459 27.1538 66.6433 27.4505C66.7427 27.6765 66.7571 27.8321 66.7716 27.9876L77.5364 29.8916Z" fill="#FDD65B"/>
<path d="M72.0887 20.2011L61.1683 18.3115C61.5226 18.7493 61.9619 19.2576 62.3162 19.6953L73.2366 21.5849C72.8823 21.1471 72.528 20.7094 72.0887 20.2011Z" fill="#FDD65B"/>
<path d="M79.2597 36.6336L68.4243 34.8146C68.5381 35.1962 68.5813 35.6628 68.6246 36.1293L79.46 37.9483C79.4167 37.4818 79.3735 37.0152 79.2597 36.6336Z" fill="#FDD65B"/>
<path d="M80.0507 51.9342L69.2858 50.0303C69.2441 50.4263 69.2024 50.8223 69.1607 51.2183L79.9256 53.1223C79.9673 52.7263 80.009 52.3302 80.0507 51.9342Z" fill="#FDD65B"/>
<path d="M80.1366 44.396L69.3718 42.4921C69.3301 42.8881 69.3734 43.3547 69.4022 43.6657L80.167 45.5697C80.2087 45.1736 80.2505 44.7776 80.1366 44.396Z" fill="#FDD65B"/>
<path d="M79.1738 59.3878L68.4939 57.5544C68.4522 57.9504 68.3255 58.2759 68.2132 58.7569L78.8931 60.5903C78.9348 60.1943 79.0471 59.7133 79.1738 59.3878Z" fill="#FDD65B"/>
<path d="M60.1719 92.1305L49.577 90.3676C48.9837 90.7364 48.461 91.0201 47.8533 91.2333L58.3777 93.0812C58.9853 92.868 59.5786 92.4992 60.1719 92.1305Z" fill="#FDD65B"/>
<path d="M56.5506 84.3868C56.2684 84.7267 55.9156 85.1516 55.5485 85.4209L66.2283 87.2543C66.5105 86.9144 66.7927 86.5745 67.2305 86.2202L56.5506 84.3868Z" fill="#FDD65B"/>
<path d="M71.0528 80.9251C71.25 80.5146 71.5322 80.1747 71.8144 79.8348L61.1346 78.0014C60.9373 78.4119 60.6551 78.7518 60.4579 79.1622L71.0528 80.9251Z" fill="#FDD65B"/>
<path d="M64.3601 71.3493C64.1629 71.7598 64.0362 72.0853 63.839 72.4957L74.5188 74.3291C74.7161 73.9187 74.8428 73.5932 75.04 73.1828L64.3601 71.3493Z" fill="#FDD65B"/>
<path d="M77.0386 67.6642C77.1653 67.3387 77.2776 66.8577 77.4043 66.5322L66.7244 64.6988C66.5977 65.0243 66.4854 65.5053 66.3587 65.8308L77.0386 67.6642Z" fill="#FDD65B"/>
<g style="mix-blend-mode:color-dodge">
<path d="M83.3258 40.7279C83.8314 54.6419 77.842 66.1776 70.0224 66.432C62.1322 66.7713 55.2963 55.6403 54.7201 41.8113C54.2144 27.8972 60.2038 16.3615 68.0234 16.1071C75.9986 15.8383 82.8201 26.8138 83.3258 40.7279Z" fill="url(#paint4_radial)"/>
</g>
<path d="M77.3243 29.284C74.2689 20.8613 69.1128 16.006 63.3552 14.8143C63.3552 14.8143 62.7187 14.7164 61.9122 14.4775C67.1615 16.1085 71.7516 20.781 74.5938 28.596C80.889 45.738 76.635 70.9169 65.0642 84.8525C59.4198 91.6504 53.019 94.5183 47.2197 93.7226C47.0642 93.7371 49.7097 94.3545 49.8652 94.3401C55.6645 95.1358 61.9948 92.3528 67.7097 85.47C79.3655 71.605 83.69 46.3411 77.3243 29.284Z" fill="url(#paint5_linear)"/>
<g style="mix-blend-mode:color-dodge">
<path d="M68.0009 27.7174C64.9599 19.4502 60.0588 14.8065 54.5273 13.5154C59.0278 15.5296 62.9813 20.1043 65.5109 27.0855C71.8061 44.2275 67.5521 69.4064 55.9813 83.342C49.9136 90.6497 43.0318 93.4054 37.0193 92.002C43.6426 94.9174 51.5569 92.3013 58.4712 83.9739C70.1271 70.1089 74.381 44.9299 68.0009 27.7174Z" fill="url(#paint6_radial)"/>
</g>
<path d="M43.9451 47.9489L44.4597 49.9363C44.5009 50.0494 44.5138 50.1926 44.4967 50.3468L44.9319 47.961C44.9492 47.8066 44.9369 47.663 44.8966 47.5485L44.3861 46.2696C44.3741 46.2371 44.1976 46.3939 44.2105 46.3401L43.9445 47.8204C43.935 47.8671 43.9352 47.9123 43.9451 47.9489Z" fill="url(#paint7_linear)"/>
<path d="M51.0049 47.5298C50.6752 47.8682 50.3538 48.229 50.036 48.6059C49.7182 48.9828 49.3253 49.3593 49.1004 49.8797C49.0599 49.9666 48.9555 50.1218 48.941 50.2156L48.5723 52.5594C48.6859 51.9411 49.232 51.4271 49.5465 51.0541C49.9511 50.5716 50.3657 50.1182 50.7885 49.696C51.605 48.8799 52.5607 48.1485 53.4154 47.9999C53.7731 47.9283 54.1115 47.9751 54.4095 48.1374C54.7075 48.2998 54.9587 48.5741 55.1476 48.9434C55.3326 49.2941 55.4554 49.7277 55.5088 50.2183C55.5621 50.7089 55.545 51.2466 55.4582 51.7991L55.8179 49.8302C56.0107 48.9424 56.0294 48.0729 55.8712 47.3486C55.7129 46.6244 55.3861 46.0832 54.9385 45.8041C53.8092 45.109 52.2564 46.2543 51.003 47.5438C50.9758 47.559 51.0679 47.4657 51.0049 47.5298Z" fill="url(#paint8_linear)"/>
<path d="M45.354 53.0114C44.5979 53.645 43.8249 54.1513 43.0514 54.5195C42.5179 54.7349 41.9931 54.83 41.4935 54.8017C41.2178 54.7873 40.9481 54.7511 40.6843 54.693C40.4795 54.6462 40.2833 54.5595 40.0729 54.5486C40.0631 54.549 40.053 54.5514 40.0427 54.5556C40.0373 54.5595 40.0322 54.5656 40.0281 54.5732C40.025 54.5802 40.023 54.5877 40.0221 54.5951C39.9458 55.01 39.8703 55.4249 39.7956 55.8399L39.6811 56.4622C39.6608 56.5659 39.643 56.6697 39.6251 56.7734C39.6198 56.7974 39.5552 57.022 39.5954 56.9531C39.601 56.9434 39.6077 56.9354 39.6148 56.9296C39.6251 56.9254 39.6352 56.923 39.6451 56.9226C39.8732 56.9508 40.0956 57.0016 40.3109 57.0748C40.567 57.1333 40.8395 57.1663 41.1124 57.1752C41.5947 57.2032 42.1024 57.1074 42.6181 56.8913C43.1219 56.6729 43.6273 56.3704 44.1249 55.9893C44.3932 55.7954 44.66 55.5914 44.9262 55.3794C45.0525 55.2772 45.1772 55.1769 45.3028 55.0726C45.4152 54.9537 45.5337 54.8606 45.6534 54.7971C45.7772 54.739 45.804 55.0649 45.8312 55.1702L46.7702 58.7868C46.7933 58.8363 46.8244 58.8743 46.8615 58.8986C46.8987 58.9228 46.9412 58.933 46.9867 58.9283C47.1301 58.936 47.2828 58.8967 47.4362 58.8126C47.4669 58.7943 47.4975 58.7732 47.5277 58.7494L49.4831 57.0634C49.5234 57.0319 49.5596 56.981 49.5849 56.9202C49.5895 56.9065 49.593 56.8924 49.5953 56.8784L49.8568 55.1893C49.8605 55.1994 49.8602 55.2556 49.8544 55.2715C49.8309 55.3349 49.8559 55.0729 49.8189 55.1058L47.9629 56.3696C47.8371 56.4625 47.7087 56.5172 47.586 56.5298C47.4629 56.5519 47.247 56.583 47.2006 56.4069L46.2616 52.7902C46.2422 52.681 46.216 52.578 46.183 52.4826C46.1738 52.4602 46.1609 52.4427 46.1452 52.4312C46.1375 52.4257 46.1291 52.4221 46.1201 52.4204C46.0856 52.4155 46.0468 52.432 46.0107 52.467C45.7944 52.6512 45.5771 52.8307 45.3588 53.0056L45.354 53.0114Z" fill="url(#paint9_linear)"/>
<path d="M56.4457 56.9504C56.5921 56.7427 56.7232 56.5084 56.8339 56.2567C56.9837 55.9646 57.1282 55.6643 57.2641 55.3597C57.5078 54.8148 57.7237 54.2499 57.9087 53.6731C58.3448 52.3167 58.5332 50.9242 58.7777 49.5696C58.6041 50.5034 58.3313 51.4355 57.9719 52.3226C57.7915 52.7738 57.595 53.2145 57.3837 53.6419C57.2204 53.9736 57.0136 54.4987 56.7678 54.6773C56.7045 54.723 56.6399 54.7475 56.5791 54.749C56.5183 54.7505 56.4628 54.7289 56.417 54.6859L54.645 53.0327C54.5698 52.9559 54.3817 53.4174 54.4145 53.2398L54.1202 54.8657C54.1094 54.9533 54.1126 55.0364 54.1298 55.1071C54.1469 55.1779 54.1774 55.234 54.2183 55.2702L55.9833 57.0757C56.0374 57.1274 56.1057 57.147 56.18 57.1323C56.2696 57.1121 56.3623 57.0486 56.4457 56.9504C56.4318 56.97 56.4457 56.9504 56.4457 56.9504Z" fill="url(#paint10_linear)"/>
<path d="M44.2444 70.6231C44.2824 70.5743 44.3161 70.5167 44.3435 70.4538C44.3611 70.4106 44.3761 70.366 44.3881 70.3208C44.4741 69.942 44.5446 69.5628 44.5991 69.1858L44.8459 67.8374C44.7421 68.3999 44.3758 68.43 44.1107 68.5057C43.6831 68.634 43.2602 68.7167 42.8448 68.7533C42.0278 68.8359 41.257 68.683 40.5677 68.3016C39.9475 67.9691 39.4301 67.39 39.0515 66.6046C38.6769 65.6946 38.3679 64.7042 38.1279 63.6446L34.6548 50.2729C34.6026 50.0685 34.2696 50.6135 34.3203 50.3322C34.2128 50.9227 34.2603 50.7216 34.1521 51.31C34.0887 51.5762 34.0678 51.8414 34.0917 52.0786C34.1289 52.2805 34.1703 52.4684 34.2195 52.6587L37.6927 66.0304C37.929 67.0683 38.2301 68.0414 38.5927 68.9395C38.9691 69.7423 39.4891 70.3343 40.1153 70.6728C40.7577 71.0278 41.4713 71.184 42.2276 71.1351C42.6087 71.1157 42.9969 71.056 43.39 70.9564C43.5889 70.9047 43.7887 70.849 43.9904 70.7793C44.0756 70.7639 44.1648 70.7049 44.2446 70.611L44.2444 70.6231Z" fill="url(#paint11_linear)"/>
<path d="M58.4412 45.3683C59.2496 48.4797 58.7002 51.7655 56.7929 55.2256C56.7141 55.3629 56.614 55.4641 56.512 55.5093C56.41 55.5546 56.3134 55.5407 56.2411 55.4704L54.4769 53.667C54.4347 53.6236 54.4024 53.5623 54.3823 53.4873C54.3616 53.4272 54.3585 53.3495 54.3734 53.2681C54.3884 53.1866 54.4205 53.1066 54.4639 53.0425C55.6691 51.2678 56.058 49.5808 55.6379 47.9758C55.5264 47.5162 55.3423 47.1354 55.0977 46.8589C54.8531 46.5824 54.5537 46.4165 54.2196 46.3722C53.5347 46.2576 52.6398 46.6778 51.5872 47.5846C50.76 48.3281 49.9604 49.1996 49.2045 50.1817C48.9855 50.4454 48.7568 50.9236 48.8341 51.2151L49.7731 54.8317L49.8204 55.0038C49.8659 55.1839 49.8879 55.3512 49.7309 55.4845L47.7755 57.1705C47.5733 57.3465 47.078 57.4527 47.0148 57.2058L46.075 53.5872C46.0495 53.5181 46.0409 53.4315 46.021 53.3586C45.9872 53.2291 45.9459 53.1555 45.8196 53.2577C44.3278 54.5174 43.3487 55.1476 42.5612 55.4209C41.7737 55.6941 40.9646 55.6236 39.9285 55.3389C39.8064 55.3068 39.8083 55.4132 39.8488 55.567L40.966 59.8557C41.6059 62.3148 42.1427 63.8233 42.8435 64.1713C43.4309 64.5118 44.155 64.4421 44.8809 63.975C44.9417 63.9393 45.0019 63.9329 45.0528 63.9566C45.1036 63.9802 45.1426 64.0328 45.1641 64.1066C45.1764 64.1561 45.1794 64.2141 45.1726 64.2755L44.6732 68.5354C44.6686 68.6041 44.6551 68.6753 44.6335 68.7448C44.6118 68.8143 44.5825 68.8806 44.5472 68.9398C44.512 68.999 44.4716 69.0498 44.4283 69.0892C44.3851 69.1286 44.34 69.1559 44.2957 69.1693C43.2983 69.5304 42.3247 69.6336 41.4147 69.4745C40.5912 69.3254 39.8635 68.8608 39.2846 68.1146C38.7348 67.4204 38.3768 66.1164 37.9421 64.4466L34.4706 51.0729C34.4382 50.9475 34.3571 50.7662 34.3129 50.6022C34.2687 50.4382 34.2643 50.2996 34.3625 50.2165L37.0911 47.8635C37.2891 47.6954 37.5446 47.9044 37.6068 48.1232C37.9813 49.3956 38.3893 50.4545 38.7571 50.9481C39.1659 51.4892 39.759 51.7554 40.5801 51.706C41.3392 51.689 42.1521 51.3299 42.9319 50.6671C43.2773 50.3713 43.791 49.8583 44.6047 49.022C44.8107 48.812 44.7885 48.5745 44.7223 48.3195L44.2077 46.3321C44.1444 46.0913 44.527 45.5599 44.7308 45.382L46.6862 43.696C46.8432 43.5627 46.8851 43.6443 46.9256 43.7982L46.9652 43.956L47.3814 45.5629C47.4469 45.8098 47.7926 45.6987 47.9892 45.4884C48.7056 44.7091 49.4379 43.9858 50.1821 43.3226C52.0156 41.7423 53.7077 41.1341 55.2583 41.4978C56.0104 41.662 56.6801 42.0895 57.227 42.7546C57.774 43.4197 58.187 44.3088 58.4412 45.3683Z" fill="url(#paint12_linear)"/>
<g opacity="0.5">
<g style="mix-blend-mode:color-dodge" opacity="0.5">
<path d="M40.5834 51.7148C40.413 51.7233 40.254 51.7181 40.1087 51.6993C40.2906 52.6136 40.4981 53.5127 40.7312 54.3966C40.8342 54.7892 40.9397 55.176 41.0501 55.5568C41.538 55.6323 42.0552 55.585 42.5854 55.4163C43.3722 55.141 44.3577 54.503 45.8437 53.2532C45.9669 53.1489 46.0113 53.2246 46.0452 53.3541C46.0669 53.413 46.0755 53.4996 46.0992 53.5826L47.039 57.2013C47.1007 57.4441 47.5959 57.3379 47.7996 57.166L49.755 55.48C49.912 55.3467 49.8819 55.1891 49.8445 54.9993L49.7973 54.8272L48.8582 51.2105C48.7839 50.9272 49.0157 50.4571 49.2286 50.1771C49.9846 49.1951 50.7842 48.3236 51.6114 47.58C52.664 46.6733 53.5589 46.253 54.2437 46.3677C54.5752 46.4146 54.872 46.5818 55.1145 46.8582C55.3569 47.1345 55.5395 47.5138 55.6502 47.9709C56.0671 49.5798 55.6782 51.2668 54.4762 53.0376C54.4328 53.1017 54.4007 53.1816 54.3857 53.2631C54.3708 53.3446 54.3739 53.4223 54.3946 53.4824C54.4147 53.5574 54.447 53.6187 54.4891 53.6621L56.2534 55.4655C56.3257 55.5358 56.4223 55.5497 56.5243 55.5044C56.6263 55.4592 56.7264 55.358 56.8052 55.2207C58.7084 51.7537 59.2578 48.468 58.4535 45.3634C58.1982 44.3044 57.784 43.4163 57.2359 42.7525C56.6879 42.0887 56.0171 41.6629 55.2641 41.5007C53.7135 41.137 52.0214 41.7452 50.1879 43.3255C49.4427 43.9953 48.7098 44.7252 47.993 45.5113C47.7965 45.7216 47.4507 45.8327 47.3852 45.5858L46.969 43.9789L46.9294 43.8211C46.8889 43.6672 46.8438 43.5895 46.69 43.7189L44.7346 45.4049C44.5308 45.5828 44.1475 46.1121 44.2115 46.355L44.7262 48.3424C44.7923 48.5974 44.8115 48.8268 44.6085 49.0449C43.7948 49.8812 43.2812 50.3942 42.9357 50.69C42.1549 51.3488 41.3418 51.7031 40.5834 51.7148Z" fill="url(#paint13_radial)"/>
</g>
</g>
<defs>
<linearGradient id="paint0_linear" x1="65.1062" y1="15.6336" x2="49.7814" y2="94.695" gradientUnits="userSpaceOnUse">
<stop stop-color="#FFBB96"/>
<stop offset="0.2273" stop-color="#FFFBC9"/>
<stop offset="0.5404" stop-color="#F9B673"/>
<stop offset="0.6391" stop-color="#F9B876"/>
<stop offset="0.7249" stop-color="#FABE81"/>
<stop offset="0.8057" stop-color="#FCC993"/>
<stop offset="0.8586" stop-color="#FED2A3"/>
<stop offset="0.9697" stop-color="#FFC28C"/>
</linearGradient>
<linearGradient id="paint1_linear" x1="32.7044" y1="47.3818" x2="119.567" y2="84.313" gradientUnits="userSpaceOnUse">
<stop offset="0.0353535" stop-color="#FFBA78"/>
<stop offset="0.395" stop-color="#FFC987"/>
<stop offset="1" stop-color="#FEECA8"/>
</linearGradient>
<linearGradient id="paint2_linear" x1="53.7726" y1="76.4344" x2="19.1214" y2="-22.9707" gradientUnits="userSpaceOnUse">
<stop offset="0.0353535" stop-color="#FFBA78"/>
<stop offset="0.395" stop-color="#FFC987"/>
<stop offset="1" stop-color="#FEECA8"/>
</linearGradient>
<linearGradient id="paint3_linear" x1="25.3225" y1="70.7698" x2="56.2242" y2="41.007" gradientUnits="userSpaceOnUse">
<stop stop-color="#FFBB96"/>
<stop offset="0.2273" stop-color="#FFFBC9"/>
<stop offset="0.5404" stop-color="#F9B673"/>
<stop offset="0.6391" stop-color="#F9B876"/>
<stop offset="0.7249" stop-color="#FABE81"/>
<stop offset="0.8057" stop-color="#FCC993"/>
<stop offset="0.8586" stop-color="#FED2A3"/>
<stop offset="0.9697" stop-color="#FFC28C"/>
</linearGradient>
<radialGradient id="paint4_radial" cx="0" cy="0" r="1" gradientUnits="userSpaceOnUse" gradientTransform="translate(69.06 41.2805) rotate(-2.14854) scale(14.3188 25.1942)">
<stop stop-color="#F49587"/>
<stop offset="0.116" stop-color="#BD7368"/>
<stop offset="0.2362" stop-color="#8B554D"/>
<stop offset="0.3594" stop-color="#603B35"/>
<stop offset="0.4835" stop-color="#3E2622"/>
<stop offset="0.6085" stop-color="#231513"/>
<stop offset="0.7352" stop-color="#0F0908"/>
<stop offset="0.8644" stop-color="#040202"/>
<stop offset="1"/>
</radialGradient>
<linearGradient id="paint5_linear" x1="74.3083" y1="17.4133" x2="59.0827" y2="95.965" gradientUnits="userSpaceOnUse">
<stop stop-color="#FFBB96"/>
<stop offset="0.2273" stop-color="#FFFBC9"/>
<stop offset="0.5404" stop-color="#F9B673"/>
<stop offset="0.6391" stop-color="#F9B876"/>
<stop offset="0.7249" stop-color="#FABE81"/>
<stop offset="0.8057" stop-color="#FCC993"/>
<stop offset="0.8586" stop-color="#FED2A3"/>
<stop offset="0.9697" stop-color="#FFC28C"/>
</linearGradient>
<radialGradient id="paint6_radial" cx="0" cy="0" r="1" gradientUnits="userSpaceOnUse" gradientTransform="translate(61.495 48.3451) rotate(39.7032) scale(30.9602)">
<stop stop-color="white"/>
<stop offset="1"/>
</radialGradient>
<linearGradient id="paint7_linear" x1="43.7681" y1="47.6746" x2="44.765" y2="47.5574" gradientUnits="userSpaceOnUse">
<stop stop-color="#FFBB96"/>
<stop offset="0.2273" stop-color="#FFFBC9"/>
<stop offset="0.5404" stop-color="#F9B673"/>
<stop offset="0.6391" stop-color="#F9B876"/>
<stop offset="0.7249" stop-color="#FABE81"/>
<stop offset="0.8057" stop-color="#FCC993"/>
<stop offset="0.8586" stop-color="#FED2A3"/>
<stop offset="0.9697" stop-color="#FFC28C"/>
</linearGradient>
<linearGradient id="paint8_linear" x1="49.6253" y1="50.8727" x2="54.1963" y2="51.5637" gradientUnits="userSpaceOnUse">
<stop stop-color="#FFBB96"/>
<stop offset="0.2273" stop-color="#FFFBC9"/>
<stop offset="0.5404" stop-color="#F9B673"/>
<stop offset="0.6391" stop-color="#F9B876"/>
<stop offset="0.7249" stop-color="#FABE81"/>
<stop offset="0.8057" stop-color="#FCC993"/>
<stop offset="0.8586" stop-color="#FED2A3"/>
<stop offset="0.9697" stop-color="#FFC28C"/>
</linearGradient>
<linearGradient id="paint9_linear" x1="41.1316" y1="55.8003" x2="47.0397" y2="56.3705" gradientUnits="userSpaceOnUse">
<stop stop-color="#FFBB96"/>
<stop offset="0.2273" stop-color="#FFFBC9"/>
<stop offset="0.5404" stop-color="#F9B673"/>
<stop offset="0.6391" stop-color="#F9B876"/>
<stop offset="0.7249" stop-color="#FABE81"/>
<stop offset="0.8057" stop-color="#FCC993"/>
<stop offset="0.8586" stop-color="#FED2A3"/>
<stop offset="0.9697" stop-color="#FFC28C"/>
</linearGradient>
<linearGradient id="paint10_linear" x1="54.8666" y1="53.8296" x2="57.9355" y2="54.4167" gradientUnits="userSpaceOnUse">
<stop stop-color="#FFBB96"/>
<stop offset="0.2273" stop-color="#FFFBC9"/>
<stop offset="0.5404" stop-color="#F9B673"/>
<stop offset="0.6391" stop-color="#F9B876"/>
<stop offset="0.7249" stop-color="#FABE81"/>
<stop offset="0.8057" stop-color="#FCC993"/>
<stop offset="0.8586" stop-color="#FED2A3"/>
<stop offset="0.9697" stop-color="#FFC28C"/>
</linearGradient>
<linearGradient id="paint11_linear" x1="34.8643" y1="55.616" x2="39.7686" y2="54.6442" gradientUnits="userSpaceOnUse">
<stop stop-color="#FFBB96"/>
<stop offset="0.2273" stop-color="#FFFBC9"/>
<stop offset="0.5404" stop-color="#F9B673"/>
<stop offset="0.6391" stop-color="#F9B876"/>
<stop offset="0.7249" stop-color="#FABE81"/>
<stop offset="0.8057" stop-color="#FCC993"/>
<stop offset="0.8586" stop-color="#FED2A3"/>
<stop offset="0.9697" stop-color="#FFC28C"/>
</linearGradient>
<linearGradient id="paint12_linear" x1="20.728" y1="53.061" x2="57.4419" y2="56.9904" gradientUnits="userSpaceOnUse">
<stop offset="0.0353535" stop-color="#FFBA78"/>
<stop offset="0.395" stop-color="#FFC987"/>
<stop offset="1" stop-color="#FEECA8"/>
</linearGradient>
<radialGradient id="paint13_radial" cx="0" cy="0" r="1" gradientUnits="userSpaceOnUse" gradientTransform="translate(42.8865 66.6428) rotate(69.7032) scale(13.3863 13.4671)">
<stop stop-color="white"/>
<stop offset="1"/>
</radialGradient>
</defs>
</svg>
