<svg width="360" height="328" viewBox="0 0 360 328" fill="none" xmlns="http://www.w3.org/2000/svg">
<g filter="url(#filter0_d)">
<path d="M185.696 36.6618C119.371 35.6404 64.6001 89.4858 64.5363 155.843C64.5044 175.792 69.3878 194.591 78.0375 211.125L70.7922 252.171C69.0686 261.97 77.5907 270.492 87.3894 268.768L128.244 261.555C145.32 270.556 164.822 275.567 185.537 275.279C251 274.386 303.218 221.434 303.218 155.971C303.186 90.6667 250.745 37.6512 185.696 36.6618Z" fill="#FFA62B"/>
<g filter="url(#filter1_i)">
<path d="M217.078 125.986C213.103 128.833 208.487 130.718 203.63 131.52C201.984 131.801 200.298 131.921 198.612 131.921C194.357 131.921 190.142 131.039 186.248 129.395L184.562 128.673L182.916 129.354C179.022 131.039 174.807 131.881 170.552 131.881C168.465 131.881 166.417 131.68 164.37 131.279C159.473 130.317 154.897 128.191 150.963 125.144L139 116L144.178 130.798C148.313 142.629 159.794 154.58 170.632 159.432C174.486 164.646 176.453 173.909 181.953 176.917L183.96 178L185.967 176.917C191.386 173.99 193.594 164.766 197.408 159.673C208.126 155.021 219.366 143.351 223.661 131.841L229 117.564L217.078 125.986ZM194.758 144.514C192.149 144.995 189.821 145.035 187.974 144.875C187.773 148.123 187.452 151.612 186.971 155.261C186.288 160.234 185.405 164.846 184.401 168.977C183.398 164.846 182.515 160.274 181.832 155.261C181.351 151.612 181.029 148.163 180.829 144.875C178.982 145.035 176.654 144.995 174.045 144.514C168.023 143.351 163.888 140.303 161.801 138.498C164.812 139.019 168.224 139.461 171.957 139.621C176.774 139.862 181.11 139.621 184.803 139.22C188.295 139.621 192.35 139.821 196.886 139.621C200.659 139.461 204.071 139.019 207.042 138.498C204.914 140.303 200.74 143.391 194.758 144.514Z" fill="#F8F1F1"/>
</g>
<path d="M183.845 303.91V294.367C220.806 294.367 255.565 279.972 281.705 253.831C307.846 227.69 322.241 192.932 322.241 155.971C322.241 119.01 307.846 84.2517 281.705 58.111C255.565 31.9703 220.806 17.5753 183.845 17.5753C146.884 17.5753 112.126 31.9703 85.9851 58.111C59.8445 84.2517 45.4495 119.01 45.4495 155.971C45.4495 163.823 46.0879 171.643 47.3965 179.303C47.7795 181.537 47.2688 183.899 47.7795 186.101L39.3851 188.017C37.087 177.579 35.938 166.791 35.938 155.971C35.938 116.457 51.3224 79.3044 79.2824 51.3444C107.179 23.3844 144.331 8 183.845 8C223.359 8 260.512 23.3844 288.472 51.3444C316.432 79.3044 331.816 116.457 331.816 155.971C331.816 195.485 316.432 232.638 288.472 260.598C260.544 288.526 223.359 303.91 183.845 303.91Z" fill="#5EAAA8"/>
<path d="M352.691 155.973C352.691 180.199 343.945 199.86 333.189 199.86C328.784 199.86 324.731 196.572 321.443 191.019C316.719 183.007 324.061 170.272 324.061 155.973C324.061 141.674 316.688 129.002 321.379 120.991C324.667 115.405 328.721 112.086 333.157 112.086C343.977 112.086 352.691 131.715 352.691 155.973Z" fill="#5EAAA8"/>
<path d="M15 155.973C15 180.199 23.7455 199.86 34.5018 199.86C38.9064 199.86 42.96 196.572 46.2476 191.019C50.9714 183.007 43.6303 170.272 43.6303 155.973C43.6303 141.674 51.0033 129.002 46.3114 120.991C43.0238 115.405 38.9703 112.086 34.5337 112.086C23.7455 112.086 15 131.715 15 155.973Z" fill="#5EAAA8"/>
<path d="M183.845 313.135C197.436 313.135 208.454 306.719 208.454 298.804C208.454 290.889 197.436 284.473 183.845 284.473C170.254 284.473 159.237 290.889 159.237 298.804C159.237 306.719 170.254 313.135 183.845 313.135Z" fill="#5EAAA8"/>
</g>
<defs>
<filter id="filter0_d" x="0" y="0" width="359.691" height="327.135" filterUnits="userSpaceOnUse" color-interpolation-filters="sRGB">
<feFlood flood-opacity="0" result="BackgroundImageFix"/>
<feColorMatrix in="SourceAlpha" type="matrix" values="0 0 0 0 0 0 0 0 0 0 0 0 0 0 0 0 0 0 127 0" result="hardAlpha"/>
<feOffset dx="-4" dy="3"/>
<feGaussianBlur stdDeviation="5.5"/>
<feColorMatrix type="matrix" values="0 0 0 0 0 0 0 0 0 0 0 0 0 0 0 0 0 0 0.26 0"/>
<feBlend mode="normal" in2="BackgroundImageFix" result="effect1_dropShadow"/>
<feBlend mode="normal" in="SourceGraphic" in2="effect1_dropShadow" result="shape"/>
</filter>
<filter id="filter1_i" x="139" y="115" width="91" height="63" filterUnits="userSpaceOnUse" color-interpolation-filters="sRGB">
<feFlood flood-opacity="0" result="BackgroundImageFix"/>
<feBlend mode="normal" in="SourceGraphic" in2="BackgroundImageFix" result="shape"/>
<feColorMatrix in="SourceAlpha" type="matrix" values="0 0 0 0 0 0 0 0 0 0 0 0 0 0 0 0 0 0 127 0" result="hardAlpha"/>
<feOffset dx="1" dy="-1"/>
<feGaussianBlur stdDeviation="2.5"/>
<feComposite in2="hardAlpha" operator="arithmetic" k2="-1" k3="1"/>
<feColorMatrix type="matrix" values="0 0 0 0 0 0 0 0 0 0 0 0 0 0 0 0 0 0 0.12 0"/>
<feBlend mode="normal" in2="shape" result="effect1_innerShadow"/>
</filter>
</defs>
</svg>
