<svg width="70" height="70" viewBox="0 0 70 70" fill="none" xmlns="http://www.w3.org/2000/svg">
<path d="M5.62891 30.3375V18.766C5.62891 11.2644 10.5766 8.47119 17.0407 8.47119C23.425 8.47119 28.3728 11.2644 28.3728 18.766V30.3375C28.3728 37.839 23.4251 40.6323 17.0407 40.6323C10.5766 40.6323 5.62891 37.839 5.62891 30.3375ZM21.5896 18.7661C21.5896 15.8132 19.834 14.4566 17.0407 14.4566C14.2475 14.4566 12.5717 15.8134 12.5717 18.7661V30.3377C12.5717 33.2905 14.2475 34.647 17.0407 34.647C19.834 34.647 21.5896 33.2904 21.5896 30.3377V18.7661ZM41.6205 56.7528V45.1811C41.6205 37.6796 46.5682 34.8863 53.0322 34.8863C59.4168 34.8863 64.3645 37.6796 64.3645 45.1811V56.7528C64.3645 64.3342 59.4168 67.0474 53.0322 67.0474C46.5682 67.0473 41.6205 64.3341 41.6205 56.7528ZM57.5812 45.1809C57.5812 42.2281 55.8254 40.8716 53.0324 40.8716C50.2392 40.8716 48.5633 42.2282 48.5633 45.1809V56.7526C48.5633 59.7052 50.2393 61.062 53.0324 61.062C55.8255 61.062 57.5812 59.7052 57.5812 56.7526V45.1809Z" fill="#FFA62B"/>
<path d="M54.6885 1.63236C54.6381 0.288285 53.1161 -0.463256 52.0183 0.313715L39.1276 9.43639L43.9323 11.809L17.6004 65.132C17.4407 65.5308 17.2812 66.0097 17.2812 66.4886C17.2812 68.1644 18.7973 69.9998 21.032 69.9998C22.3888 69.9998 23.6655 69.3613 24.1444 68.2442L50.5167 15.0603L55.2815 17.4132L54.6885 1.63236Z" fill="#529696"/>
</svg>
