<svg width="70" height="70" viewBox="0 0 70 70" fill="none" xmlns="http://www.w3.org/2000/svg">
<g clip-path="url(#clip0)">
<path fill-rule="evenodd" clip-rule="evenodd" d="M69.9978 64.8124V58.6116C69.9978 55.3138 67.8579 54.636 65.1311 53.0011H47.8316C45.1048 54.636 42.9648 55.3138 42.9648 58.6116V64.8124C42.9648 65.574 43.3162 65.4783 43.899 65.4783H45.6996H54.3193H56.4792H58.6312H67.2629H69.0635C69.6465 65.4782 69.9978 65.5739 69.9978 64.8124Z" fill="#529696"/>
<path fill-rule="evenodd" clip-rule="evenodd" d="M60.3087 62.5394L58.0929 57.7423L56.4799 56.8331L54.863 57.7423L52.6472 62.5394C52.6272 62.5872 52.6112 62.5872 52.6432 62.6271L54.32 65.4783H56.4799H58.6319L60.3127 62.6271C60.3406 62.5872 60.3246 62.5872 60.3087 62.5394Z" fill="#464646"/>
<path fill-rule="evenodd" clip-rule="evenodd" d="M58.0949 57.7422L58.7816 55.0426L59.133 53.7067L56.482 52.6102L55.2364 53.1924L53.855 53.8344L54.1783 55.0505L54.8651 57.7422H56.4781H58.0949Z" fill="#161616"/>
<path fill-rule="evenodd" clip-rule="evenodd" d="M54.1798 55.0508L56.4835 52.6104L54.8986 51.0791L51.7924 50.6324L47.8359 53.0011L51.9602 55.6688C52.7268 56.1154 52.9025 56.5301 53.4734 55.7963L54.1798 55.0508Z" fill="#A3D2CA"/>
<path fill-rule="evenodd" clip-rule="evenodd" d="M61.0117 55.6688L65.1359 53.0011L61.1794 50.6324L58.784 50.792L56.4844 52.6104L58.784 55.0427L59.4947 55.7963C60.0694 56.5301 60.2451 56.1154 61.0117 55.6688Z" fill="#A3D2CA"/>
<path fill-rule="evenodd" clip-rule="evenodd" d="M61.1769 50.6325C62.8457 49.2448 64.0994 47.3307 64.5107 45.5244C64.6065 45.1097 64.6583 44.699 64.6583 44.3002V39.4832V38.8851H63.1532C59.9712 38.8851 59.3084 34.9693 55.4157 34.9693H53.5233C50.5448 34.9693 52.8126 39.4832 49.3871 39.4832H48.3091V44.3002C48.3091 44.699 48.361 45.1097 48.4567 45.5244C48.868 47.3307 50.1216 49.2448 51.7905 50.6325C52.593 51.2984 53.4913 51.8448 54.4375 52.1956C55.1802 52.4748 55.8309 52.6103 56.4816 52.6103C57.1363 52.6103 57.7871 52.4746 58.5298 52.1956C59.4761 51.8448 60.3745 51.2984 61.1769 50.6325Z" fill="#FFE5C1"/>
<path fill-rule="evenodd" clip-rule="evenodd" d="M64.6586 37.3138C64.6586 33.4977 60.738 30.9017 57.1088 30.5309H55.3879C53.9905 30.6863 52.7569 31.2366 51.9704 32.2575C48.0218 32.6044 48.3093 37.8561 48.3093 38.5459V39.8818V41.7879H49.3874C52.8128 41.7879 50.5452 37.274 53.5235 37.274H55.416C59.3086 37.274 59.9714 41.1898 63.1534 41.1898H64.6586V40.0055V37.3138Z" fill="#161616"/>
<path fill-rule="evenodd" clip-rule="evenodd" d="M27.029 64.8122V58.6115C27.029 55.3137 24.8931 54.6359 22.1662 53.001L13.5145 52.6102L4.86281 53.001C2.13596 54.6359 0 55.3137 0 58.6115V64.8122C0 65.5739 0.347402 65.4782 0.934199 65.4782H2.73479H11.3545H13.5144H15.6663H24.2941H26.0947C26.6816 65.4781 27.029 65.5738 27.029 64.8122Z" fill="#529696"/>
<path fill-rule="evenodd" clip-rule="evenodd" d="M17.3406 62.5394L15.1248 57.7423L13.5159 56.8331L11.899 57.7423L9.68317 62.5394C9.66321 62.5872 9.64721 62.5872 9.67524 62.6271L11.3561 65.4783H13.5159H15.6679L17.3487 62.6271C17.3765 62.5872 17.3606 62.5872 17.3406 62.5394Z" fill="#464646"/>
<path fill-rule="evenodd" clip-rule="evenodd" d="M15.1227 57.7422L15.8134 55.0426L16.1647 53.7067L13.5138 52.6102L12.2681 53.1924L10.8867 53.8344L11.2101 55.0505L11.8968 57.7422H13.5098H15.1227Z" fill="#161616"/>
<path fill-rule="evenodd" clip-rule="evenodd" d="M11.2111 55.0508L13.5148 52.6104L11.9299 51.0791L8.81978 50.6324L4.86328 53.0011L8.9915 55.6688C9.75808 56.1154 9.92967 56.5301 10.5047 55.7963L11.2111 55.0508Z" fill="#A3D2CA"/>
<path fill-rule="evenodd" clip-rule="evenodd" d="M18.039 55.6688L22.1672 53.0011L18.2107 50.6324L15.8152 50.792L13.5156 52.6104L15.8152 55.0427L16.5259 55.7963C17.1007 56.5301 17.2763 56.1154 18.039 55.6688Z" fill="#A3D2CA"/>
<path fill-rule="evenodd" clip-rule="evenodd" d="M18.2116 50.6325C19.8804 49.2448 21.1341 47.3308 21.5453 45.5245C21.6412 45.1098 21.689 44.6991 21.689 44.3003V39.4833V38.8851H20.1878C17.0059 38.8851 16.3391 34.9694 12.4504 34.9694H10.5579C7.57951 34.9694 9.84726 39.4833 6.41768 39.4833H5.34375V44.3003C5.34375 44.6991 5.3916 45.1098 5.48744 45.5245C5.89869 47.3308 7.15227 49.2448 8.82119 50.6325C9.62373 51.2985 10.522 51.8448 11.4682 52.1956C12.2148 52.4748 12.8656 52.6103 13.5164 52.6103C14.1672 52.6103 14.8179 52.4747 15.5646 52.1956C16.5108 51.8448 17.409 51.2985 18.2116 50.6325Z" fill="#FFE5C1"/>
<path fill-rule="evenodd" clip-rule="evenodd" d="M21.6899 37.3138C21.6899 33.4977 17.7694 30.9017 14.1402 30.5309H12.4193C11.0219 30.6863 9.7883 31.2366 9.00176 32.2575C5.05318 32.6044 5.34467 37.8561 5.34467 38.5459V39.8818V41.7879H6.41859C9.84818 41.7879 7.58043 37.274 10.5588 37.274H12.4513C16.34 37.274 17.0068 41.1898 20.1888 41.1898H21.6899V40.0055V37.3138Z" fill="#161616"/>
<path fill-rule="evenodd" clip-rule="evenodd" d="M25.0965 5.24557C30.1828 0.165376 38.4273 0.165376 43.5137 5.24557C48.5961 10.3258 48.5961 18.5601 43.5137 23.6363C38.4273 28.7165 30.1828 28.7165 25.0965 23.6363C20.0141 18.5602 20.0141 10.3258 25.0965 5.24557Z" fill="#FFA62B"/>
<path d="M32.3134 19.1055C32.0643 19.1055 31.8221 19.0175 31.6307 18.8555L28.0495 15.825C27.6042 15.4483 27.549 14.7822 27.9261 14.3373C28.3031 13.8926 28.9698 13.8372 29.4148 14.214L32.1858 16.5589L38.2433 9.33697C38.618 8.89017 39.2845 8.83138 39.7313 9.20599C40.1785 9.58046 40.2372 10.2461 39.8624 10.6929L33.123 18.7279C32.9424 18.9432 32.6835 19.0776 32.4033 19.1016C32.3734 19.1043 32.3432 19.1055 32.3134 19.1055Z" fill="#F8F1F1"/>
<path fill-rule="evenodd" clip-rule="evenodd" d="M48.5175 67.8907V61.6899C48.5175 58.3962 46.3776 57.7183 43.6507 56.0834L39.5265 58.751C38.7599 59.1936 38.5842 59.6124 38.0093 58.8746L37.2986 58.125L34.999 55.6925L32.6953 58.129L31.9886 58.8746C31.4137 59.6124 31.242 59.1936 30.4754 58.751L26.3512 56.0834C23.6203 57.7183 21.4844 58.3962 21.4844 61.6899V67.8907C21.4844 68.6563 21.8357 68.5606 22.4186 68.5606H24.2192H32.8389H34.9987H37.1507H45.7785H47.5791C48.1661 68.5606 48.5175 68.6563 48.5175 67.8907ZM33.382 60.8207L31.1662 65.6177L33.382 60.8207Z" fill="#FFA62B"/>
<path fill-rule="evenodd" clip-rule="evenodd" d="M38.8243 65.6177L36.6125 60.8207L34.9995 59.9115L33.3825 60.8207L31.1667 65.6177C31.1467 65.6656 31.1307 65.6695 31.1627 65.7095L32.8396 68.5606H34.9995H37.1514L38.8322 65.7095C38.8603 65.6695 38.8443 65.6656 38.8243 65.6177Z" fill="#A3D2CA"/>
<path fill-rule="evenodd" clip-rule="evenodd" d="M36.6111 60.8206L37.2979 58.1251L37.6493 56.7892L34.9981 55.6926L33.7525 56.2708L32.3711 56.9128L32.6946 58.129L33.3813 60.8206H34.9942H36.6111Z" fill="#529696"/>
<path fill-rule="evenodd" clip-rule="evenodd" d="M32.695 58.1291L34.9987 55.6926L33.4137 54.1614L30.3036 53.7108L26.3511 56.0834L30.4753 58.751C31.2419 59.1936 31.4135 59.6124 31.9885 58.8746L32.695 58.1291Z" fill="#E2962E"/>
<path fill-rule="evenodd" clip-rule="evenodd" d="M39.5234 58.7511L43.6477 56.0834L39.6912 53.7108L37.2957 53.8704L34.9961 55.6927L37.2957 58.1252L38.0064 58.8748C38.5811 59.6124 38.7568 59.1937 39.5234 58.7511Z" fill="#E2962E"/>
<path fill-rule="evenodd" clip-rule="evenodd" d="M39.6959 53.7107C41.3647 52.323 42.6184 50.4089 43.0297 48.6065C43.1255 48.1878 43.1734 47.7771 43.1734 47.3784V42.5614V41.9632H41.6722C38.4902 41.9632 37.8274 38.0475 33.9348 38.0475H32.0423C29.0639 38.0475 31.3316 42.5614 27.9062 42.5614H26.8281V47.3784C26.8281 47.7772 26.8801 48.1879 26.9718 48.6065C27.387 50.4089 28.6406 52.323 30.3056 53.7107C31.1081 54.3766 32.0063 54.9229 32.9526 55.2777C33.6992 55.5528 34.35 55.6924 35.0008 55.6924C35.6515 55.6924 36.3063 55.5528 37.0489 55.2777C37.9952 54.9229 38.8934 54.3766 39.6959 53.7107Z" fill="#FFE5C1"/>
<path fill-rule="evenodd" clip-rule="evenodd" d="M43.1703 40.3921C43.1703 36.576 39.2497 33.98 35.6245 33.6093H33.9037C32.5063 33.7647 31.2688 34.3191 30.4862 35.3359C26.5336 35.6827 26.8251 40.9345 26.8251 41.6242V42.9641V44.8702H27.9032C31.3286 44.8702 29.061 40.3563 32.0393 40.3563H33.9318C37.8244 40.3563 38.4872 44.2721 41.6692 44.2721H43.1704V43.0837V40.3921H43.1703Z" fill="#161616"/>
</g>
<defs>
<clipPath id="clip0">
<rect width="70" height="70" fill="white"/>
</clipPath>
</defs>
</svg>
