<svg width="70" height="70" viewBox="0 0 70 70" fill="none" xmlns="http://www.w3.org/2000/svg">
<g clip-path="url(#clip0)">
<path d="M48.6644 36.5795H46.441L46.3042 36.7259V38.0355C46.3042 39.2057 45.6141 39.8719 44.5738 40.4081C43.146 41.1442 42.717 45.3214 45.4015 46.6839L46.1642 46.7992L51.5038 44.7323V41.7049L48.6644 36.5795Z" fill="#161616"/>
<path d="M48.2692 40.4081C49.0631 39.9988 49.6519 39.513 49.8868 38.7861L48.6644 36.5795H46.441L46.3042 36.7259V38.0355C46.3042 39.2057 45.6141 39.8719 44.5738 40.4081C43.146 41.1442 42.717 45.3214 45.4015 46.6839L46.1642 46.7992L48.1952 46.0131C46.544 44.2806 47.0294 41.0474 48.2692 40.4081Z" fill="#161616"/>
<path d="M64.5531 40.4083C63.5101 39.8706 62.823 39.2041 62.823 38.036V36.7053L62.605 36.4991H60.2727L57.5942 41.9139V44.6542L63.1061 46.7994L63.6187 46.6441C66.2476 45.2449 65.967 41.1373 64.5531 40.4083Z" fill="#161616"/>
<path d="M66.8352 47.8888C66.5488 47.7779 62.703 46.2885 60.2746 45.348L59.6892 45.6075H49.5634L48.84 45.3514C46.4217 46.2891 42.3621 47.8628 42.2951 47.8888C40.8865 48.4685 39.0005 50.2925 39.0005 52.9989V60.1189H64.4902V56.1986H70.1297C70.1297 53.2438 70.1297 53.463 70.1297 52.9988C70.1297 50.668 68.6374 48.6305 66.8352 47.8888Z" fill="#A3D2CA"/>
<path d="M62.8141 32.8879L62.6302 32.7028H60.4341V36.5508L60.5554 36.8013H62.2129C63.319 36.8013 64.2157 35.9046 64.2157 34.7985C64.2157 33.9019 63.6265 33.1433 62.8141 32.8879Z" fill="#FFEBD4"/>
<path d="M46.3047 32.8692L46.305 32.8711C45.4606 33.1065 44.8403 33.8793 44.8403 34.7986C44.8403 35.9046 45.7371 36.8013 46.8431 36.8013H48.5737L48.7639 36.5796V32.691H46.4464L46.3047 32.8692Z" fill="#FFEBD4"/>
<path d="M62.3959 32.7028H60.4341V36.5508L60.5554 36.8013H62.2129C62.2747 36.8013 62.3356 36.7975 62.396 36.792V32.7028H62.3959Z" fill="#FFEBD4"/>
<path d="M46.8021 34.7987C46.8021 33.8792 47.4224 33.1065 48.2668 32.8712L48.2665 32.8693L48.4084 32.6913H46.4466L46.3047 32.8693L46.305 32.8712C45.4606 33.1066 44.8403 33.8794 44.8403 34.7987C44.8403 35.9047 45.7371 36.8015 46.8431 36.8015H48.5737L48.5846 36.7887C47.5822 36.679 46.8021 35.8302 46.8021 34.7987Z" fill="#FFEBD4"/>
<path d="M64.4888 56.0734V60.1187H69.0304C69.6368 60.1187 70.1283 59.6272 70.1283 59.0209C70.1283 58.5024 70.1283 59.9491 70.1283 56.0734H64.4888Z" fill="#FFEBD4"/>
<path d="M58.3231 44.5922C58.0898 44.5019 57.9346 44.2773 57.9339 44.0256L57.9323 41.9848L57.6644 41.705H51.5054L51.1933 41.9968V44.0219C51.1933 44.4881 50.7775 44.6004 50.6002 44.6692C50.5608 44.6845 49.8408 44.9635 48.8403 45.3515C49.5585 47.6715 51.6901 49.5002 54.6268 49.5101C57.2619 49.519 59.5092 47.7486 60.2748 45.3481C59.2278 44.9426 58.4439 44.6389 58.3231 44.5922Z" fill="#F6DCB8"/>
<path d="M54.5656 41.705H51.5054L51.1933 41.9968V44.0219C51.1933 44.4881 50.7775 44.6004 50.6002 44.6692C50.5608 44.6845 49.8408 44.9635 48.8403 45.3515C49.5535 47.6552 51.6607 49.4737 54.5656 49.5087V41.705Z" fill="#F6DCB8"/>
<path d="M65.4303 60.1188V53.5817C65.4303 53.0629 65.0097 52.6422 64.4908 52.6422C63.972 52.6422 63.5513 53.0629 63.5513 53.5817V60.1188H65.4303Z" fill="#A3D2CA"/>
<path d="M59.9396 32.2893H57.309L55.2421 29.7213H54.0102L52.0942 31.797V37.0922C52.0942 39.5934 53.6318 41.9243 56.1192 42.8143C58.6636 42.1445 60.5554 39.7875 60.5554 37.0418V32.796L59.9396 32.2893Z" fill="#FFEBD4"/>
<path d="M52.2351 37.0997V31.6447L51.5051 32.4354H48.8401L48.5747 32.7958V37.0997C48.5747 40.1782 50.9812 42.9924 54.6266 43.0047C55.2475 43.0068 55.8468 42.9096 56.4103 42.7291C53.8388 41.9485 52.2351 39.6125 52.2351 37.0997Z" fill="#FFEBD4"/>
<path d="M54.4559 22.0006C49.9166 22.059 46.3052 25.8428 46.3052 30.3825V32.8709C46.4768 32.8231 46.6568 32.7956 46.8437 32.7956H48.5743H50.1405C50.3448 32.7956 51.4938 32.7021 51.4094 32.7085C52.8633 32.5972 54.1207 31.4988 54.467 30.0716C54.4781 30.0261 54.518 29.9936 54.5649 29.9936C54.6118 29.9936 54.6519 30.0261 54.6628 30.0716C55.009 31.4956 56.2547 32.5811 57.6872 32.7026C58.7276 32.7908 58.7417 32.7956 58.9294 32.7956H60.5551H62.2127C62.4262 32.7956 62.6316 32.8298 62.8246 32.8916V30.2596C62.8246 25.6616 59.0679 21.9412 54.4559 22.0006Z" fill="#161616"/>
<path d="M50.0005 30.3825C50.0005 26.4387 52.7267 23.067 56.4184 22.211C55.7884 22.0665 55.1317 21.9918 54.4559 22.0006C49.9166 22.0589 46.3052 25.8428 46.3052 30.3825V32.8709C46.4768 32.8231 46.6568 32.7956 46.8437 32.7956H48.5743H50.0005V30.3825Z" fill="#161616"/>
<path d="M23.2496 32.4743H22.7728L22.5579 32.2684H21.2896V36.4973L21.6596 36.6914H23.2496C24.3557 36.6914 25.2523 35.7474 25.2523 34.5828C25.2523 33.4184 24.3557 32.4743 23.2496 32.4743Z" fill="#FFEBD4"/>
<path d="M7.87877 32.4744C6.77422 32.4763 5.87939 33.4194 5.87939 34.5827C5.87939 35.7473 6.77613 36.6913 7.88219 36.6913H9.47223L9.73076 36.2142V32.2682H8.24777L7.87877 32.4744Z" fill="#FFEBD4"/>
<path d="M23.3801 32.4813C23.3368 32.4783 23.2937 32.4743 23.2496 32.4743H22.7728L22.5579 32.2684H21.2896V36.4973L21.6596 36.6914H23.2496C23.2936 36.6914 23.3368 36.6875 23.3801 36.6844V32.4813Z" fill="#FFEBD4"/>
<path d="M7.96996 34.5827C7.96996 33.5045 8.739 32.6171 9.73076 32.491V32.2682H8.24777L7.87877 32.4744C6.77422 32.4763 5.87939 33.4194 5.87939 34.5827C5.87939 35.7473 6.77613 36.6913 7.88219 36.6913H9.47223L9.5049 36.631C8.62484 36.4089 7.96996 35.5773 7.96996 34.5827Z" fill="#FFEBD4"/>
<path d="M27.8352 47.8888C27.5521 47.7791 23.7886 46.3216 21.3566 45.3797L20.8564 45.6195H10.2191L9.76795 45.3607L3.29514 47.8888C1.88652 48.4685 0.000488281 50.2924 0.000488281 52.9989V55.8641H5.64V60.1188H31.1297C31.1297 57.1639 31.1297 53.4631 31.1297 52.9991C31.1297 50.668 29.6374 48.6305 27.8352 47.8888Z" fill="#A3D2CA"/>
<path d="M8.68912 50.787C8.68912 48.8786 9.14221 47.5586 10.2072 46.6981L7.15842 47.8888C5.7498 48.4685 3.86377 50.2925 3.86377 52.9989V55.8642H8.68898C8.68912 52.4231 8.68912 52.3538 8.68912 50.787Z" fill="#A3D2CA"/>
<path d="M5.63986 55.7389H0.000488281V59.021C0.000488281 59.6273 0.492129 60.1188 1.09834 60.1188H5.64V55.7389H5.63986Z" fill="#FFEBD4"/>
<path d="M19.325 44.5922C19.0915 44.502 18.9365 44.2774 18.9358 44.0257L18.9341 42.0234L18.5203 41.6007H12.57L12.1951 42.0146V44.0221C12.1951 44.273 12.0746 44.4209 11.9356 44.5151L9.77002 45.3609C10.5283 47.6876 12.6905 49.5072 15.6541 49.5072C18.3102 49.5072 20.5675 47.774 21.3587 45.3799C20.2707 44.9585 19.4489 44.6402 19.325 44.5922Z" fill="#F6DCB8"/>
<path d="M15.5644 41.6007H12.57L12.1951 42.0146V44.0221C12.1951 44.273 12.0746 44.4209 11.9356 44.5151L9.77002 45.3609C10.5205 47.6639 12.6471 49.4689 15.5644 49.5055V41.6007Z" fill="#F6DCB8"/>
<path d="M6.57876 60.1188V53.5817C6.57876 53.0629 6.15808 52.6422 5.63924 52.6422C5.12039 52.6422 4.69971 53.0629 4.69971 53.5817V60.1188H6.57876Z" fill="#A3D2CA"/>
<path d="M21.3562 31.9553L20.856 31.6213L20.4801 29.9928H19.7494L16.7012 32.2059H14.0013L13.7739 32.573V36.9804C13.7739 39.4317 15.2408 41.7199 17.6275 42.6665C19.9721 41.8473 21.6592 39.6148 21.6592 36.9943V32.6382L21.3562 31.9553Z" fill="#FFEBD4"/>
<path d="M13.867 36.9941V32.6857L14.1644 32.2057H9.77051L9.47314 32.6857V36.9941C9.47314 40.1339 11.9333 43.0017 15.6546 43.0017C16.4041 43.0017 17.1213 42.8625 17.7835 42.6107C15.3619 41.7232 13.867 39.4415 13.867 36.9941Z" fill="#FFEBD4"/>
<path d="M21.2703 24.7776C20.6963 24.8218 20.1696 24.4608 20.0591 23.8958C19.873 22.9442 19.4019 21.9999 17.5616 21.9999H11.1769C8.83365 21.9999 6.93408 23.8994 6.93408 26.2427V30.899C6.93408 31.8857 7.73389 32.6855 8.72059 32.6855H15.967C17.5878 32.6855 18.9954 31.7762 19.7096 30.4403C19.765 30.3368 19.9222 30.3772 19.9222 30.4946C19.9222 31.6997 20.9081 32.6855 22.1131 32.6855C22.7448 32.6855 23.2616 32.1687 23.2616 31.5371V26.678C23.2617 25.5334 22.263 24.7013 21.2703 24.7776Z" fill="#161616"/>
<path d="M10.5316 30.8994V26.2429C10.5316 23.8997 12.4312 22.0001 14.7744 22.0001H11.173C8.82975 22.0001 6.93018 23.8997 6.93018 26.2429V30.8994C6.93018 31.886 7.72998 32.6859 8.71668 32.6859H12.3181C11.3314 32.6858 10.5316 31.886 10.5316 30.8994Z" fill="#161616"/>
<path d="M50.2991 4.83098C48.3986 6.20534 46.1973 7.12158 43.8867 7.49641C43.0937 7.62135 42.287 7.69076 41.4803 7.69076C39.4568 7.69076 37.4469 7.27429 35.5738 6.4691L34.7808 6.12204L33.9878 6.45522C32.1146 7.2604 30.1048 7.67688 28.0813 7.67688C27.0968 7.67688 26.0987 7.5797 25.128 7.38535C22.8037 6.91334 20.6024 5.89993 18.7293 4.4145L13.0005 -0.00012207L15.4752 7.16323C17.444 12.8828 22.9404 18.6718 28.1086 21.0179C29.9544 23.5307 30.8841 28.0286 33.5229 29.4723L34.48 29.9999L35.4371 29.4723C38.0348 28.0563 39.0876 23.6001 40.8924 21.129C46.0059 18.88 51.3929 13.2437 53.4437 7.663L56.0005 0.763413L50.2991 4.83098ZM39.6208 13.7852C38.3766 14.0212 37.2555 14.035 36.3668 13.9656C36.2711 15.5344 36.1207 17.2141 35.8882 18.9772C35.5601 21.3927 35.1363 23.6001 34.6577 25.5991C34.1792 23.6001 33.7417 21.3789 33.4272 18.9772C33.1948 17.2141 33.0444 15.5344 32.9487 13.9656C32.0599 14.035 30.9525 14.035 29.6946 13.7852C26.8234 13.2299 24.8409 11.7444 23.8428 10.8698C25.2784 11.1197 26.9054 11.328 28.6965 11.4113C31.0072 11.5223 33.0717 11.4113 34.8355 11.2169C36.4898 11.4113 38.4313 11.5084 40.6053 11.4113C42.41 11.328 44.0371 11.1197 45.459 10.8698C44.4746 11.7583 42.4921 13.2299 39.6208 13.7852Z" fill="#F6A433"/>
<path d="M42.6831 42.6899H42.2064L41.9915 42.484H40.7231V46.7129L41.0932 46.907H42.6831C43.7893 46.907 44.6859 45.963 44.6859 44.7984C44.6859 43.634 43.7892 42.6899 42.6831 42.6899Z" fill="#FFEBD4"/>
<path d="M27.3114 42.6902C26.2068 42.6921 25.312 43.6352 25.312 44.7985C25.312 45.9631 26.2088 46.9071 27.3148 46.9071H28.9048L29.1634 46.43V42.484H27.6804L27.3114 42.6902Z" fill="#FFEBD4"/>
<path d="M42.8137 42.6969C42.7704 42.6939 42.7273 42.6899 42.6831 42.6899H42.2064L41.9915 42.484H40.7231V46.7129L41.0932 46.907H42.6831C42.7272 46.907 42.7704 46.903 42.8137 46.9V42.6969Z" fill="#FFEBD4"/>
<path d="M27.4036 44.7985C27.4036 43.7204 28.1726 42.8329 29.1644 42.7069V42.484H27.6814L27.3124 42.6902C26.2078 42.6921 25.313 43.6352 25.313 44.7985C25.313 45.9631 26.2097 46.9071 27.3158 46.9071H28.9058L28.9385 46.8468C28.0584 46.6247 27.4036 45.7931 27.4036 44.7985Z" fill="#FFEBD4"/>
<path d="M47.2688 58.1047C46.9857 57.9951 43.2222 56.5375 40.7902 55.5957L40.29 55.8355H29.6527L29.2015 55.5767L22.7287 58.1047C21.3201 58.6844 19.4341 60.5084 19.4341 63.2149V66.0801H25.0736V70.0001H44.9238V66.0799H50.5633C50.5633 63.125 50.5633 63.6789 50.5633 63.2147C50.5633 60.8839 49.071 58.8464 47.2688 58.1047Z" fill="#FFA62B"/>
<path d="M24.2594 61.0027C24.2594 59.0944 24.7125 57.7744 25.7776 56.9139L22.7287 58.1046C21.3201 58.6843 19.4341 60.5082 19.4341 63.2147V66.0799H24.2593C24.2594 62.6388 24.2594 62.5695 24.2594 61.0027Z" fill="#FFA62B"/>
<path d="M25.0736 65.9546H19.4341V68.9021C19.4341 69.5085 19.9257 70 20.5319 70H25.0736V65.9546Z" fill="#FFEBD4"/>
<path d="M44.9263 65.9546V70H49.4679C50.0743 70 50.5658 69.5085 50.5658 68.9021C50.5658 68.3837 50.5658 69.8303 50.5658 65.9546H44.9263Z" fill="#FFEBD4"/>
<path d="M38.7548 54.808C38.5213 54.7177 38.3663 54.4931 38.3656 54.2414L38.364 52.2391L37.95 51.8164H31.9997L31.6248 52.2303V54.2378C31.6248 54.4887 31.5042 54.6366 31.3653 54.7308L29.1997 55.5766C29.9579 57.9033 32.1202 59.7229 35.0838 59.7229C37.7398 59.7229 39.9972 57.9897 40.7884 55.5956C39.7005 55.1742 38.8787 54.8559 38.7548 54.808Z" fill="#F6DCB8"/>
<path d="M34.998 51.8164H32.0036L31.6287 52.2303V54.2378C31.6287 54.4887 31.5081 54.6366 31.3692 54.7308L29.2036 55.5766C29.9541 57.8796 32.0807 59.6846 34.998 59.7212V51.8164Z" fill="#F6DCB8"/>
<path d="M26.0114 70V63.7975C26.0114 63.2787 25.5907 62.858 25.0719 62.858C24.553 62.858 24.1323 63.2787 24.1323 63.7975V70H26.0114Z" fill="#FFA62B"/>
<path d="M45.8639 70V63.7975C45.8639 63.2787 45.4432 62.858 44.9244 62.858C44.4055 62.858 43.9849 63.2787 43.9849 63.7975V70H45.8639Z" fill="#FFA62B"/>
<path d="M40.7898 42.1708L40.2896 41.8368L39.9137 40.2084H39.1829L36.1348 42.4214H33.4349L33.2075 42.7885V47.1959C33.2075 49.6473 34.6744 51.9354 37.0611 52.8821C39.4057 52.0628 41.0928 49.8304 41.0928 47.2099V42.8537L40.7898 42.1708Z" fill="#FFEBD4"/>
<path d="M33.3006 47.2098V42.9014L33.598 42.4214H29.2041L28.9067 42.9014V47.2098C28.9067 50.3496 31.3669 53.2174 35.0882 53.2174C35.8377 53.2174 36.5549 53.0782 37.2171 52.8264C34.7956 51.9389 33.3006 49.6572 33.3006 47.2098Z" fill="#FFEBD4"/>
<path d="M40.7039 34.9933C40.1299 35.0375 39.6031 34.6765 39.4927 34.1115C39.3066 33.1599 38.8355 32.2156 36.9952 32.2156H30.6105C28.2672 32.2156 26.3677 34.1151 26.3677 36.4584V41.1147C26.3677 42.1014 27.1675 42.9012 28.1542 42.9012H35.4005C37.0213 42.9012 38.429 41.9919 39.1432 40.656C39.1986 40.5525 39.3558 40.5929 39.3558 40.7103C39.3558 41.9154 40.3417 42.9012 41.5467 42.9012C42.1784 42.9012 42.6952 42.3844 42.6952 41.7528V36.8937C42.6953 35.7491 41.6966 34.917 40.7039 34.9933Z" fill="#161616"/>
<path d="M29.9652 41.1151V36.4587C29.9652 34.1155 31.8648 32.2159 34.208 32.2159H30.6066C28.2633 32.2159 26.3638 34.1155 26.3638 36.4587V41.1151C26.3638 42.1016 27.1636 42.9016 28.1503 42.9016H31.7517C30.765 42.9015 29.9652 42.1016 29.9652 41.1151Z" fill="#161616"/>
</g>
<defs>
<clipPath id="clip0">
<rect width="70" height="70" fill="white"/>
</clipPath>
</defs>
</svg>
