<svg width="70" height="70" viewBox="0 0 70 70" fill="none" xmlns="http://www.w3.org/2000/svg">
<path d="M44 23C44 22.4477 44.4477 22 45 22C45.5523 22 46 22.4477 46 23V66C46 66.5523 45.5523 67 45 67C44.4477 67 44 66.5523 44 66V23Z" fill="#529696"/>
<path d="M39 30C39 28.8954 39.8954 28 41 28H49C50.1046 28 51 28.8954 51 30V59C51 60.1046 50.1046 61 49 61H41C39.8954 61 39 60.1046 39 59V30Z" fill="#529696"/>
<path d="M6 35C6 34.4477 6.44772 34 7 34C7.55228 34 8 34.4477 8 35V68C8 68.5523 7.55228 69 7 69C6.44772 69 6 68.5523 6 68V35Z" fill="#FFA62B"/>
<path d="M1 42C1 40.8954 1.89543 40 3 40H11C12.1046 40 13 40.8954 13 42V61C13 62.1046 12.1046 63 11 63H3C1.89543 63 1 62.1046 1 61V42Z" fill="#FFA62B"/>
<path d="M25 4C25 3.44771 25.4477 3 26 3C26.5523 3 27 3.44772 27 4V56C27 56.5523 26.5523 57 26 57C25.4477 57 25 56.5523 25 56V4Z" fill="#FFA62B"/>
<path d="M20 11C20 9.89543 20.8954 9 22 9H30C31.1046 9 32 9.89543 32 11V49C32 50.1046 31.1046 51 30 51H22C20.8954 51 20 50.1046 20 49V11Z" fill="#FFA62B"/>
<path d="M63 1C63 0.447715 63.4477 0 64 0C64.5523 0 65 0.447715 65 1V64C65 64.5523 64.5523 65 64 65C63.4477 65 63 64.5523 63 64V1Z" fill="#FFA62B"/>
<path d="M58 7C58 5.89543 58.8954 5 60 5H68C69.1046 5 70 5.89543 70 7V57C70 58.1046 69.1046 59 68 59H60C58.8954 59 58 58.1046 58 57V7Z" fill="#FFA62B"/>
<path d="M6.17578 52.0001L24.8424 33.334L26.4922 34.9837L7.82609 53.6504L6.17578 52.0001Z" fill="#A3D2CA"/>
<path d="M25.1445 35.2013L26.1882 33.114L44.8554 42.4479L43.8118 44.5346L25.1445 35.2013Z" fill="#A3D2CA"/>
<path d="M43.5078 42.6666L63.5 22.5001L65.1497 24.1504L45.1581 44.3164L43.5078 42.6666Z" fill="#A3D2CA"/>
<path d="M7.0013 54.6667C5.71273 54.6667 4.66797 53.6219 4.66797 52.3333C4.66797 51.0448 5.71273 50 7.0013 50C8.28988 50 9.33464 51.0448 9.33464 52.3333C9.33464 53.6219 8.28988 54.6667 7.0013 54.6667Z" fill="#161616"/>
<path d="M44.3333 45.3334C43.0448 45.3334 42 44.2887 42 43.0001C42 41.7115 43.0448 40.6667 44.3333 40.6667C45.6219 40.6667 46.6667 41.7115 46.6667 43.0001C46.6667 44.2887 45.6219 45.3334 44.3333 45.3334Z" fill="#161616"/>
<path d="M25.6693 35.9999C24.3807 35.9999 23.3359 34.9552 23.3359 33.6666C23.3359 32.378 24.3807 31.3333 25.6693 31.3333C26.9578 31.3333 28.0026 32.378 28.0026 33.6666C28.0026 34.9552 26.9578 35.9999 25.6693 35.9999Z" fill="#161616"/>
<path d="M64.3333 25.6667C63.0448 25.6667 62 24.6219 62 23.3333C62 22.0448 63.0448 21 64.3333 21C65.6219 21 66.6667 22.0448 66.6667 23.3333C66.6667 24.6219 65.6219 25.6667 64.3333 25.6667Z" fill="#161616"/>
</svg>
