<svg width="75" height="58" viewBox="0 0 75 58" fill="none" xmlns="http://www.w3.org/2000/svg">
<path d="M14.4277 56.8888V53.094C14.45 52.7749 14.4039 52.4546 14.2927 52.1547C14.1814 51.8547 14.0074 51.5819 13.7824 51.3545C13.5574 51.1271 13.2864 50.9502 12.9877 50.8358C12.6889 50.7213 12.3692 50.6719 12.0498 50.6908C11.6318 50.6636 11.2141 50.7489 10.8404 50.938C10.4666 51.1271 10.1504 51.413 9.92477 51.7659C9.7191 51.4236 9.42493 51.143 9.07321 50.9538C8.72149 50.7646 8.32526 50.6737 7.92624 50.6908C7.57842 50.6733 7.23206 50.747 6.92146 50.9045C6.61086 51.062 6.34679 51.2979 6.15539 51.5889V50.8426H4.83984V56.8888H6.16797V53.5367C6.13926 53.3299 6.15671 53.1193 6.21907 52.92C6.28143 52.7207 6.38715 52.5377 6.52864 52.3841C6.67013 52.2305 6.84387 52.1102 7.0374 52.0317C7.23092 51.9533 7.43943 51.9187 7.64792 51.9304C8.52069 51.9304 8.96347 52.4996 8.96347 53.5241V56.8888H10.2916V53.5367C10.265 53.3303 10.284 53.1205 10.3472 52.9222C10.4103 52.7238 10.5161 52.5417 10.6572 52.3886C10.7982 52.2355 10.9711 52.1152 11.1636 52.036C11.3561 51.9569 11.5636 51.9208 11.7715 51.9304C12.6695 51.9304 13.0996 52.4996 13.0996 53.5241V56.8888H14.4277ZM34.0842 50.8426H31.9339V49.0085H30.6058V50.8426H29.3788V52.0442H30.6058V54.8017C30.6058 56.2056 31.1497 57.0406 32.7054 57.0406C33.2867 57.0423 33.8566 56.8801 34.3498 56.5725L33.9704 55.4467C33.6176 55.6572 33.2172 55.7747 32.8067 55.7883C32.1489 55.7883 31.9339 55.3834 31.9339 54.7764V52.0442H34.0842V50.8426ZM45.3038 50.6908C44.9831 50.6813 44.6657 50.7586 44.3852 50.9144C44.1047 51.0703 43.8715 51.2989 43.7101 51.5762V50.8426H42.4072V56.8888H43.7226V53.4988C43.7226 52.4996 44.1527 51.943 45.0129 51.943C45.2943 51.9392 45.5736 51.9907 45.8351 52.0948L46.2398 50.8552C45.9394 50.7477 45.6229 50.6921 45.3038 50.6908ZM28.3416 51.3232C27.597 50.8805 26.7408 50.6609 25.875 50.6908C24.3445 50.6908 23.3579 51.4244 23.3579 52.626C23.3579 53.6127 24.0915 54.2199 25.4449 54.4096L26.0647 54.4981C26.7857 54.5991 27.1273 54.789 27.1273 55.1305C27.1273 55.5985 26.6465 55.8642 25.7485 55.8642C25.0262 55.885 24.3178 55.6622 23.7373 55.2317L23.1176 56.2562C23.8838 56.7914 24.8016 57.0663 25.7359 57.0406C27.4814 57.0406 28.4933 56.2183 28.4933 55.0673C28.4933 54.0048 27.6965 53.4482 26.381 53.2584L25.7613 53.1699C25.192 53.094 24.7367 52.9803 24.7367 52.5755C24.7367 52.1328 25.1666 51.8671 25.8877 51.8671C26.5498 51.8771 27.1984 52.0556 27.7724 52.3857L28.3416 51.3232ZM63.5815 50.6908C63.2607 50.6813 62.9434 50.7586 62.6629 50.9144C62.3824 51.0703 62.1491 51.2989 61.9877 51.5762V50.8426H60.6849V56.8888H62.0003V53.4988C62.0003 52.4996 62.4304 51.943 63.2905 51.943C63.5719 51.9391 63.8513 51.9907 64.1128 52.0948L64.5175 50.8552C64.2171 50.7477 63.9006 50.6921 63.5815 50.6908ZM46.6319 53.8655C46.6144 54.2915 46.6863 54.7164 46.8429 55.1129C46.9995 55.5094 47.2373 55.8687 47.5411 56.1678C47.8449 56.4668 48.208 56.699 48.6069 56.8493C49.0059 56.9996 49.4318 57.0648 49.8575 57.0406C50.6472 57.0802 51.4233 56.823 52.033 56.3195L51.4006 55.257C50.9458 55.6037 50.3913 55.7944 49.8194 55.8009C49.3265 55.771 48.8635 55.5541 48.525 55.1944C48.1866 54.8348 47.9981 54.3595 47.9981 53.8656C47.9981 53.3718 48.1866 52.8965 48.525 52.5368C48.8635 52.1772 49.3265 51.9603 49.8194 51.9304C50.3913 51.9368 50.9458 52.1276 51.4006 52.4743L52.033 51.4118C51.4232 50.9083 50.6472 50.6511 49.8575 50.6908C49.4319 50.6666 49.0059 50.7317 48.607 50.882C48.2081 51.0323 47.845 51.2645 47.5412 51.5635C47.2374 51.8625 46.9995 52.2218 46.8429 52.6183C46.6863 53.0147 46.6144 53.4396 46.6319 53.8655ZM58.952 53.8655V50.8426H57.6365V51.5762C57.4119 51.2869 57.1214 51.0555 56.7891 50.9014C56.4568 50.7474 56.0924 50.6752 55.7265 50.6908C54.9113 50.7308 54.1428 51.0827 53.5801 51.6737C53.0173 52.2648 52.7034 53.0496 52.7034 53.8657C52.7034 54.6818 53.0173 55.4666 53.5801 56.0577C54.1428 56.6487 54.9113 57.0006 55.7265 57.0406C56.0924 57.0562 56.4568 56.9839 56.7891 56.8299C57.1214 56.6758 57.4119 56.4444 57.6365 56.155V56.8888H58.952V53.8655ZM54.0568 53.8655C54.0772 53.5087 54.2016 53.1657 54.4146 52.8788C54.6276 52.5919 54.92 52.3736 55.2556 52.2508C55.5912 52.128 55.9554 52.1061 56.3033 52.1879C56.6512 52.2696 56.9676 52.4514 57.2134 52.7107C57.4592 52.9701 57.6238 53.2958 57.6867 53.6476C57.7497 53.9994 57.7083 54.3619 57.5677 54.6904C57.4271 55.0189 57.1934 55.2992 56.8955 55.4965C56.5975 55.6938 56.2484 55.7996 55.891 55.8009C55.6405 55.8043 55.392 55.7557 55.1612 55.6583C54.9304 55.5609 54.7223 55.4168 54.55 55.2349C54.3777 55.0531 54.2449 54.8376 54.16 54.6019C54.0751 54.3662 54.04 54.1155 54.0568 53.8655ZM38.1825 50.6908C37.3621 50.734 36.5904 51.0932 36.0291 51.6931C35.4679 52.293 35.1608 53.0869 35.1723 53.9083C35.1837 54.7297 35.5128 55.5148 36.0906 56.0988C36.6683 56.6827 37.4498 57.0203 38.271 57.0406C39.1735 57.0723 40.056 56.7705 40.7502 56.193L40.1051 55.2191C39.6056 55.6194 38.9869 55.8419 38.3469 55.8515C37.9122 55.8881 37.4804 55.754 37.1427 55.4778C36.8051 55.2016 36.5883 54.8048 36.5381 54.3715H41.0285C41.0411 54.2072 41.0537 54.0427 41.0537 53.8655C41.0412 51.981 39.8774 50.6908 38.1825 50.6908ZM38.1571 51.8671C38.5545 51.8594 38.9387 52.0095 39.2256 52.2845C39.5125 52.5595 39.6786 52.9371 39.6877 53.3344H36.5507C36.5738 52.9285 36.7548 52.5477 37.055 52.2735C37.3552 51.9993 37.7508 51.8535 38.1571 51.8671ZM71.1582 53.8655V48.4141H69.8427V51.5762C69.6181 51.2869 69.3275 51.0555 68.9953 50.9014C68.663 50.7474 68.2986 50.6752 67.9327 50.6908C67.1176 50.7307 66.349 51.0827 65.7862 51.6737C65.2234 52.2647 64.9095 53.0496 64.9095 53.8657C64.9095 54.6818 65.2234 55.4667 65.7862 56.0577C66.349 56.6487 67.1176 57.0006 67.9327 57.0406C68.2986 57.0562 68.663 56.9839 68.9953 56.8299C69.3276 56.6758 69.6181 56.4444 69.8427 56.155V56.8888H71.1582V53.8655ZM73.351 56.0125C73.4327 56.012 73.5137 56.028 73.589 56.0597C73.6614 56.0899 73.7274 56.1337 73.7835 56.1886C73.8391 56.2434 73.8835 56.3084 73.9144 56.38C73.9461 56.4537 73.9624 56.533 73.9624 56.6131C73.9624 56.6933 73.9461 56.7726 73.9144 56.8463C73.8833 56.9176 73.8389 56.9824 73.7835 57.037C73.7273 57.0919 73.6613 57.1358 73.589 57.1665C73.5138 57.1987 73.4328 57.215 73.351 57.2145C73.2307 57.2157 73.1127 57.1814 73.0117 57.1159C72.9107 57.0504 72.8313 56.9566 72.7833 56.8463C72.7517 56.7726 72.7355 56.6933 72.7355 56.6131C72.7355 56.533 72.7517 56.4537 72.7833 56.38C72.8141 56.3085 72.8584 56.2435 72.9137 56.1886C72.9697 56.1332 73.036 56.0895 73.1089 56.0597C73.1856 56.0279 73.268 56.0119 73.351 56.0125ZM73.351 57.0819C73.4134 57.0824 73.4751 57.0698 73.5323 57.0451C73.5872 57.0212 73.6372 56.9872 73.6795 56.9449C73.7669 56.8567 73.8159 56.7376 73.8159 56.6134C73.8159 56.4893 73.7669 56.3702 73.6795 56.282C73.6373 56.2398 73.5873 56.2061 73.5323 56.1827C73.475 56.1583 73.4133 56.146 73.351 56.1466C73.2876 56.1461 73.2248 56.1584 73.1662 56.1827C73.1104 56.2057 73.0596 56.2394 73.0168 56.282C72.9294 56.3702 72.8803 56.4893 72.8803 56.6134C72.8803 56.7376 72.9294 56.8567 73.0168 56.9449C73.0597 56.9876 73.1104 57.0216 73.1662 57.0451C73.2247 57.0698 73.2876 57.0823 73.351 57.0819ZM73.3864 56.3321C73.4456 56.3282 73.5042 56.3452 73.5522 56.38C73.5713 56.3958 73.5865 56.4158 73.5966 56.4384C73.6067 56.461 73.6114 56.4856 73.6103 56.5104C73.611 56.5316 73.6072 56.5527 73.5992 56.5723C73.5912 56.592 73.5792 56.6097 73.5639 56.6244C73.5273 56.657 73.4809 56.6764 73.4321 56.6797L73.6147 56.8904H73.4719L73.3025 56.6812H73.248V56.8904H73.1287V56.3321H73.3864ZM73.248 56.4368V56.5855H73.385C73.4113 56.5868 73.4375 56.5804 73.4602 56.567C73.4694 56.5609 73.4768 56.5524 73.4817 56.5425C73.4866 56.5325 73.4888 56.5214 73.4881 56.5104C73.4887 56.4995 73.4864 56.4887 73.4815 56.479C73.4766 56.4693 73.4693 56.461 73.4602 56.4551C73.4374 56.4418 73.4113 56.4355 73.385 56.4368H73.248ZM66.2631 53.8655C66.2835 53.5088 66.4079 53.1658 66.6209 52.8789C66.834 52.592 67.1263 52.3737 67.4619 52.2509C67.7975 52.1282 68.1617 52.1063 68.5096 52.1881C68.8575 52.2698 69.1738 52.4516 69.4196 52.711C69.6654 52.9703 69.8299 53.296 69.8929 53.6478C69.9558 53.9995 69.9144 54.362 69.7738 54.6905C69.6332 55.0191 69.3995 55.2992 69.1016 55.4965C68.8036 55.6939 68.4545 55.7996 68.0971 55.8009C67.8466 55.8043 67.5982 55.7557 67.3674 55.6583C67.1366 55.5609 66.9285 55.4167 66.7562 55.2349C66.5839 55.0531 66.4511 54.8375 66.3662 54.6019C66.2814 54.3662 66.2462 54.1155 66.2631 53.8655ZM21.84 53.8655V50.8426H20.5245V51.5762C20.3 51.2869 20.0094 51.0555 19.6771 50.9014C19.3448 50.7474 18.9804 50.6752 18.6145 50.6908C17.7994 50.7308 17.0309 51.0827 16.4681 51.6737C15.9054 52.2648 15.5915 53.0496 15.5915 53.8657C15.5915 54.6818 15.9054 55.4666 16.4681 56.0577C17.0309 56.6487 17.7994 57.0006 18.6145 57.0406C18.9805 57.0562 19.3448 56.9839 19.6771 56.8299C20.0094 56.6758 20.3 56.4444 20.5245 56.155V56.8888H21.84V53.8655ZM16.9449 53.8655C16.9654 53.5088 17.0898 53.1658 17.3028 52.8789C17.5158 52.592 17.8082 52.3737 18.1438 52.2509C18.4794 52.1282 18.8436 52.1063 19.1915 52.1881C19.5393 52.2698 19.8557 52.4516 20.1015 52.711C20.3473 52.9703 20.5118 53.296 20.5747 53.6478C20.6377 53.9995 20.5963 54.362 20.4557 54.6905C20.3151 55.0191 20.0814 55.2993 19.7834 55.4966C19.4855 55.6939 19.1363 55.7996 18.779 55.8009C18.5285 55.8043 18.28 55.7557 18.0493 55.6583C17.8185 55.5609 17.6104 55.4167 17.4381 55.2349C17.2658 55.0531 17.133 54.8375 17.0481 54.6019C16.9633 54.3662 16.9281 54.1155 16.9449 53.8655Z" fill="#231F20"/>
<path d="M47.8154 4.87109H27.8906V40.6765H47.8154V4.87109Z" fill="#FF5F00"/>
<path d="M29.1146 22.7717C29.1115 19.3234 29.8929 15.9195 31.3997 12.8179C32.9065 9.71618 35.0992 6.99795 37.8119 4.86898C34.4527 2.22855 30.4183 0.586515 26.17 0.130539C21.9217 -0.325437 17.6308 0.423052 13.7878 2.29045C9.94472 4.15785 6.70459 7.06881 4.43774 10.6906C2.17088 14.3124 0.96875 18.499 0.96875 22.7717C0.96875 27.0444 2.17088 31.2309 4.43774 34.8528C6.70459 38.4746 9.94472 41.3855 13.7878 43.2529C17.6308 45.1203 21.9217 45.8688 26.17 45.4128C30.4183 44.9569 34.4527 43.3148 37.8119 40.6744C35.0992 38.5454 32.9065 35.8272 31.3997 32.7255C29.8929 29.6238 29.1115 26.22 29.1146 22.7717Z" fill="#EB001B"/>
<path d="M74.7053 22.7712C74.7054 27.0439 73.5034 31.2304 71.2367 34.8522C68.97 38.474 65.73 41.385 61.887 43.2524C58.044 45.1198 53.7532 45.8683 49.5049 45.4124C45.2567 44.9564 41.2224 43.3143 37.8633 40.6739C40.5735 38.5428 42.7645 35.8241 44.2711 32.7229C45.7777 29.6217 46.5605 26.219 46.5605 22.7712C46.5605 19.3234 45.7777 15.9207 44.2711 12.8195C42.7645 9.71828 40.5735 6.99961 37.8633 4.86849C41.2224 2.22806 45.2567 0.586017 49.5049 0.130047C53.7532 -0.325924 58.044 0.422579 61.887 2.29C65.73 4.15742 68.97 7.0684 71.2367 10.6902C73.5034 14.312 74.7054 18.4985 74.7053 22.7712Z" fill="#F79E1B"/>
<path d="M72.5353 36.8843V36.1513H72.8309V36.002H72.0781V36.1513H72.3738V36.8843H72.5353ZM73.9968 36.8843V36.0005H73.766L73.5006 36.6084L73.2352 36.0005H73.0043V36.8843H73.1672V36.2176L73.4161 36.7924H73.5851L73.834 36.2162V36.8843H73.9968Z" fill="#F79E1B"/>
</svg>
