<svg width="170" height="32" viewBox="0 0 170 32" fill="none" xmlns="http://www.w3.org/2000/svg">
<path d="M131.6 10.6323C130.715 13.04 129.125 14.5295 126.1 14.5295H126.088L124.523 14.5269L127.198 7.24089H128.72C131.505 7.2428 132.545 8.06452 131.6 10.6323ZM139.628 3.97663C138.268 1.99789 135.499 1.02615 131.162 1.02197H121.12L110.259 31.1499H119.485L123.433 20.5447C123.626 20.9797 125.956 31.1499 125.956 31.1499H135.653C135.653 31.1499 133.889 23.6766 132.592 20.658C132.258 19.8832 131.911 19.0125 131.447 18.2871C134.186 17.2585 138.155 15.0521 139.798 10.578C140.808 7.82807 140.75 5.60822 139.628 3.97663ZM46.9304 1.00439H29.8274C27.1303 1.00439 24.5123 1.00439 22.1647 2.20636C19.8174 3.41013 17.7466 5.81777 16.1511 10.6318C15.8054 11.668 15.622 12.5593 15.599 13.3324C15.5752 14.1109 15.7082 14.7701 15.9988 15.3441C16.3577 16.0427 16.9395 16.7027 17.6669 17.2582C18.3949 17.812 19.267 18.2653 20.2061 18.554C20.2429 18.5637 20.7362 18.7064 21.3337 18.8776C21.9127 19.0466 22.4908 19.2183 23.0681 19.3929C23.3259 19.4727 23.611 19.5764 23.8687 19.7323C24.1261 19.8865 24.3563 20.0935 24.5023 20.3824C24.5977 20.5764 24.6497 20.7889 24.6546 21.005C24.6606 21.2292 24.6234 21.471 24.5354 21.725C24.317 22.3806 23.985 22.7998 23.3532 23.0593C22.7229 23.3151 21.7924 23.3991 20.383 23.4108H2.78288L0 31.1299H18.8399C20.6115 31.1299 23.8528 31.1299 26.967 29.7933C30.0814 28.4568 33.0686 25.7854 34.3327 20.4407C34.8091 18.431 34.6625 16.7959 33.882 15.5103C33.1017 14.2237 31.6868 13.2934 29.6301 12.6963C29.6301 12.6963 29.1696 12.5612 28.6277 12.4034C28.0868 12.2473 27.4641 12.0675 27.1443 11.9744C26.6176 11.8221 26.2135 11.5137 25.974 11.1216C25.7354 10.7311 25.6632 10.2552 25.7997 9.76903C25.9402 9.26601 26.2818 8.86209 26.7753 8.58488C27.2713 8.30826 27.9225 8.15585 28.6818 8.15585H39.6324C39.7086 8.04193 39.7786 7.92143 39.8565 7.80811C41.8574 4.95016 44.2785 2.63766 46.9304 1.00439Z" fill="#EE7F00"/>
<path d="M54.962 15.9286C52.4064 22.9945 50.5504 24.7738 47.7581 24.7738H47.7527C45.0319 24.7696 44.0782 23.0315 46.6246 15.9994C48.5248 10.7486 50.9878 7.38988 53.9653 7.38988H53.9672C56.8006 7.39419 57.45 9.05196 54.962 15.9286ZM63.7331 3.82677C62.2421 1.67315 59.692 0.577805 56.1429 0.574219C53.8203 0.574219 51.5672 1.11274 49.4535 2.11986C46.4331 3.56366 43.6937 5.9737 41.4573 9.17138C40.0058 11.2477 38.7631 13.6516 37.7874 16.3426C35.9509 21.4216 35.9726 25.5429 37.8498 28.2587C38.9154 29.7928 41.1256 31.6272 45.6233 31.6307H45.6408C53.8344 31.6307 59.9533 26.2064 63.8267 15.5075C64.8492 12.6744 66.1998 7.3924 63.7331 3.82677ZM96.4774 1.00432H79.047C74.1742 1.00432 70.5472 3.49421 68.8335 8.15577L60.5546 31.1297H69.624L73.8778 19.3184L81.8934 19.3249L84.1728 13.0002L76.1839 12.9947L77.4696 9.33204C77.7393 8.67661 78.3792 8.15386 79.3177 8.15386C79.8391 8.15386 85.7218 8.15565 88.7682 8.15757C88.8461 8.04424 88.9164 7.92124 88.9944 7.80791C90.9939 4.95008 93.8254 2.63759 96.4774 1.00432ZM104.405 15.9286C101.851 22.9945 99.9952 24.7738 97.203 24.7738H97.1971C94.475 24.7696 93.5249 23.0315 96.0695 15.9994C97.9678 10.7486 100.432 7.38988 103.41 7.38988H103.414C106.245 7.39419 106.895 9.05196 104.405 15.9286ZM113.178 3.82677C111.685 1.67315 109.137 0.577805 105.585 0.574219C103.265 0.574219 101.012 1.11274 98.9002 2.11986C95.878 3.56366 93.1403 5.9737 90.9022 9.17138C89.4486 11.2477 88.2073 13.6516 87.2323 16.3426C85.3956 21.4216 85.4175 25.5429 87.2966 28.2587C88.3593 29.7928 90.5706 31.6272 95.0719 31.6307H95.0839C103.281 31.6307 109.4 26.2064 113.27 15.5075C114.296 12.6744 115.645 7.3924 113.178 3.82677Z" fill="#EE7F00"/>
<path d="M140.039 1.02344C140.622 1.49 141.126 2.02183 141.546 2.63112C142.617 4.19255 143.028 6.04948 142.785 8.1768H148.277L139.996 31.157H148.27L156.553 8.1768H167.18L169.758 1.02356H140.039V1.02344Z" fill="#EE7F00"/>
</svg>
