<svg width="123" height="53" viewBox="0 0 123 53" fill="none" xmlns="http://www.w3.org/2000/svg">
<path fill-rule="evenodd" clip-rule="evenodd" d="M0 9.41337C0 4.21488 4.23616 0 9.459 0H112.546C117.771 0 122.005 4.21488 122.005 9.41337V43.0534C122.005 48.2489 117.771 52.4645 112.546 52.4645H9.459C4.23616 52.4645 0 48.2489 0 43.0534V9.41337Z" fill="#000268"/>
<path fill-rule="evenodd" clip-rule="evenodd" d="M3.88281 9.73372V42.7326C3.88281 45.9805 6.53066 48.6148 9.79684 48.6148H63.8051V3.85156H9.79684C6.53066 3.85156 3.88281 6.48575 3.88281 9.73372ZM77.7598 26.0683C77.7598 28.1693 76.7207 29.6133 75.0003 29.6133C73.4804 29.6133 72.2134 28.1693 72.2134 26.2453C72.2134 24.2704 73.3277 22.8022 75.0003 22.8022C76.7739 22.8022 77.7598 24.3213 77.7598 26.0683ZM67.6582 38.1182H72.2134V30.9531H72.2643C73.1271 32.5232 74.8498 33.105 76.4442 33.105C80.3674 33.105 82.4684 29.8654 82.4684 25.9665C82.4684 22.7779 80.4692 19.3074 76.8225 19.3074C74.7481 19.3074 72.8241 20.1437 71.9103 21.9924H71.8594V19.6135H67.6582V38.1182ZM88.69 28.6243C88.69 27.3596 89.9038 26.8803 91.4503 26.8803C92.1332 26.8803 92.7925 26.9282 93.3743 26.9555C93.3743 28.499 92.2858 30.069 90.5631 30.069C89.4997 30.069 88.69 29.5381 88.69 28.6243ZM97.8786 32.802C97.6773 31.7652 97.6264 30.7253 97.6264 29.6885V24.777C97.6264 20.7521 94.7165 19.3074 91.3485 19.3074C89.4002 19.3074 87.7041 19.5861 86.0831 20.2454L86.1606 23.3354C87.4223 22.6252 88.8936 22.3464 90.3618 22.3464C92.0048 22.3464 93.347 22.8288 93.3743 24.6267C92.7925 24.5249 91.9805 24.4474 91.2467 24.4474C88.8184 24.4474 84.4379 24.9297 84.4379 28.954C84.4379 31.8161 86.766 33.105 89.3736 33.105C91.2467 33.105 92.5137 32.3736 93.5513 30.7253H93.6022C93.6022 31.4112 93.6766 32.0917 93.704 32.802H97.8786ZM99.9286 38.1182C100.866 38.3218 101.802 38.4243 102.763 38.4243C106.941 38.4243 107.927 35.2083 109.218 31.8912L114.055 19.6135H109.497L106.788 28.2202H106.737L103.902 19.6135H98.9928L104.333 33.105C104.004 34.2702 103.144 34.9295 102.029 34.9295C101.394 34.9295 100.839 34.852 100.231 34.6508L99.9286 38.1182Z" fill="white"/>
<path fill-rule="evenodd" clip-rule="evenodd" d="M15.0125 26.0968C15.0125 24.2989 15.8997 22.804 17.5958 22.804C19.6459 22.804 20.5058 24.4492 20.5058 25.9175C20.5058 27.9433 19.2145 29.3097 17.5958 29.3097C16.2294 29.3097 15.0125 28.1468 15.0125 26.0968ZM24.9113 19.6153H20.7845V21.9943H20.7367C19.772 20.3734 18.2012 19.3092 16.2537 19.3092C12.1535 19.3092 10.3047 22.2487 10.3047 26.1719C10.3047 30.0708 12.5583 32.8038 16.1754 32.8038C18.0007 32.8038 19.5198 32.0936 20.6075 30.5501H20.6584V31.2603C20.6584 33.8414 19.2411 35.0818 16.6099 35.0818C14.7102 35.0818 13.5443 34.6769 12.1535 33.9941L11.9256 37.5898C12.9867 37.9704 14.7847 38.4262 16.9639 38.4262C22.2801 38.4262 24.9113 36.6784 24.9113 31.2603V19.6153ZM32.6126 14.1221H28.0552V17.4634H32.6126V14.1221ZM28.0574 32.8038H32.6126V19.6153H28.0574V32.8038ZM45.3005 19.4619C44.8448 19.3874 44.2872 19.3092 43.7571 19.3092C41.7822 19.3092 40.6436 20.3734 39.8582 22.0452H39.8073V19.6153H35.6562V32.8038H40.2121V27.2361C40.2121 24.6528 41.4039 23.1094 43.5292 23.1094C44.0624 23.1094 44.566 23.1094 45.0727 23.259L45.3005 19.4619ZM53.1462 29.9182C51.0453 29.9182 50.1854 28.1712 50.1854 26.2228C50.1854 24.248 51.0453 22.5009 53.1462 22.5009C55.2495 22.5009 56.1101 24.248 56.1101 26.2228C56.1101 28.1712 55.2495 29.9182 53.1462 29.9182ZM53.1462 33.1068C57.5008 33.1068 60.8179 30.5775 60.8179 26.2228C60.8179 21.8416 57.5008 19.3092 53.1462 19.3092C48.7924 19.3092 45.4776 21.8416 45.4776 26.2228C45.4776 30.5775 48.7924 33.1068 53.1462 33.1068Z" fill="#FF0007"/>
</svg>
