<svg width="123" height="41" viewBox="0 0 123 41" fill="none" xmlns="http://www.w3.org/2000/svg">
<path d="M53.255 39.8421H43.231L49.4959 1.34032H59.5209L53.255 39.8421ZM34.7982 1.34032L25.2418 27.8221L24.111 22.1196L24.112 22.1216L20.7391 4.80696C20.7391 4.80696 20.3312 1.34032 15.984 1.34032H0.185382L0 1.99224C0 1.99224 4.83126 2.99742 10.4854 6.393L19.1942 39.8431H29.6384L45.5864 1.34032H34.7982ZM113.642 39.8421H122.846L114.821 1.33929H106.763C103.042 1.33929 102.136 4.20858 102.136 4.20858L87.1861 39.8421H97.6354L99.7251 34.123H112.468L113.642 39.8421ZM102.612 26.2227L107.879 11.8144L110.842 26.2227H102.612ZM87.9698 10.5991L89.4004 2.33108C89.4004 2.33108 84.9862 0.652344 80.3846 0.652344C75.4102 0.652344 63.5973 2.82646 63.5973 13.3984C63.5973 23.3451 77.4618 23.4687 77.4618 28.6934C77.4618 33.9181 65.0258 32.9819 60.9216 29.6873L59.4313 38.3322C59.4313 38.3322 63.9073 40.5063 70.7458 40.5063C77.5864 40.5063 87.906 36.9645 87.906 27.3247C87.906 17.314 73.9169 16.382 73.9169 12.0296C73.9179 7.67626 83.6803 8.23549 87.9698 10.5991Z" fill="#2566AF"/>
<path d="M24.112 22.1207L20.7391 4.80599C20.7391 4.80599 20.3312 1.33936 15.984 1.33936H0.185382L0 1.99128C0 1.99128 7.59344 3.56496 14.8769 9.46114C21.8411 15.0967 24.112 22.1207 24.112 22.1207Z" fill="#E6A540"/>
</svg>
