<svg width="124" height="36" viewBox="0 0 124 36" fill="none" xmlns="http://www.w3.org/2000/svg">
<path fill-rule="evenodd" clip-rule="evenodd" d="M75.9979 21.3486C75.9979 22.6635 76.006 23.9791 75.9934 25.2948C75.9889 25.832 75.8673 26.356 75.6322 26.8518C75.1384 27.8947 74.2654 28.4427 73.0347 28.514C72.9482 28.5189 72.8617 28.5181 72.7752 28.5181C70.7562 28.5181 68.7381 28.5248 66.7191 28.514C66.3317 28.5115 65.9361 28.4816 65.5595 28.4037C64.2811 28.1401 63.5153 27.3799 63.2171 26.2242C63.118 25.8395 63.0603 25.4374 63.0585 25.042C63.045 22.5466 63.0495 20.0512 63.0567 17.5558C63.0567 17.3518 63.0927 17.1412 63.1585 16.9464C63.2973 16.5302 63.5973 16.3396 64.0694 16.3363C64.6235 16.3329 65.1784 16.3354 65.7325 16.3354C66.2785 16.3354 66.8245 16.3263 67.3705 16.3404C67.5741 16.3454 67.7876 16.3769 67.9777 16.4424C68.4255 16.5966 68.6525 16.9257 68.6534 17.3676C68.6534 19.2495 68.6516 21.1314 68.6561 23.0125C68.657 23.2181 68.6696 23.4287 68.7183 23.6285C68.8174 24.0388 69.1039 24.2552 69.5309 24.2793C70.0228 24.3066 70.3868 24.1151 70.5319 23.7155C70.5986 23.5306 70.6292 23.3259 70.6292 23.1302C70.6364 21.2566 70.6319 19.383 70.6355 17.5093C70.6364 17.3037 70.6499 17.0948 70.6859 16.8917C70.7409 16.5808 70.9535 16.4001 71.295 16.3586C71.4067 16.3445 71.5193 16.3371 71.631 16.3363C72.6626 16.3346 73.6933 16.3338 74.724 16.3371C74.8799 16.3379 75.0366 16.3495 75.1889 16.3736C75.6529 16.4465 75.9412 16.7317 75.9934 17.1636C76.0078 17.2739 76.0078 17.3858 76.0078 17.4977C76.0088 18.7811 76.0088 20.0653 76.0088 21.3486C76.0051 21.3486 76.0015 21.3486 75.9979 21.3486Z" fill="#020303"/>
<path fill-rule="evenodd" clip-rule="evenodd" d="M43.1924 11.9657C45.4016 11.9657 47.6107 11.9641 49.8198 11.9674C50.0261 11.9682 50.236 11.979 50.4379 12.0171C50.7595 12.0777 50.8919 12.2327 50.9036 12.5361C50.9136 12.8072 50.9073 13.0783 50.9073 13.3494C50.9073 14.0267 50.9082 14.7041 50.9064 15.3822C50.9054 15.8191 50.7883 15.9435 50.3144 15.9534C49.673 15.9667 49.0324 15.9592 48.3909 15.96C47.8449 15.9609 47.299 15.96 46.7539 15.96C46.7106 15.96 46.6674 15.96 46.6232 15.9609C46.1737 15.9717 46.0827 16.0579 46.0818 16.4757C46.0818 20.1591 46.0818 23.8417 46.0809 27.5243C46.0809 27.6594 46.0719 27.7954 46.0547 27.9297C46.0259 28.1676 45.8827 28.3309 45.634 28.3956C45.461 28.4404 45.279 28.4744 45.0997 28.4777C44.433 28.4893 43.7663 28.4868 43.0987 28.4868C42.3708 28.4868 41.6437 28.4868 40.9157 28.4785C40.7527 28.4769 40.5869 28.4536 40.4292 28.4163C40.2301 28.3691 40.0977 28.2422 40.0661 28.0499C40.0445 27.9164 40.0319 27.7805 40.0319 27.6462C40.0301 23.971 40.031 20.2959 40.0301 16.6208C40.0301 16.5097 40.0319 16.3978 40.0202 16.2867C39.9995 16.096 39.9202 16.0156 39.7184 15.9833C39.6075 15.9667 39.494 15.9617 39.3823 15.9617C38.3507 15.96 37.32 15.9617 36.2894 15.9592C36.1425 15.9592 35.9938 15.9567 35.8497 15.9343C35.6109 15.8979 35.5064 15.7868 35.4803 15.5654C35.4695 15.4709 35.4659 15.3747 35.4659 15.2794C35.465 14.4263 35.4641 13.5733 35.4659 12.7202C35.4668 12.1705 35.6497 11.9972 36.2533 11.9707C36.374 11.9657 36.4957 11.9657 36.6173 11.9657C38.8084 11.9657 41.0004 11.9657 43.1924 11.9657Z" fill="#020303"/>
<path fill-rule="evenodd" clip-rule="evenodd" d="M116.122 21.7607C116.403 21.1182 116.684 20.4766 116.965 19.8341C117.334 18.9909 117.701 18.1486 118.067 17.3063C118.199 17.0045 118.386 16.7409 118.67 16.5411C118.862 16.406 119.076 16.3347 119.32 16.3355C120.316 16.3363 121.312 16.3322 122.308 16.3388C122.488 16.3405 122.673 16.3645 122.845 16.4093C123.1 16.4764 123.19 16.6331 123.132 16.8686C123.104 16.9764 123.059 17.0816 123.012 17.1836C120.73 22.1239 118.445 27.0633 116.163 32.0035C116.042 32.2638 115.891 32.5009 115.667 32.6982C115.432 32.9063 115.159 33.0149 114.827 33.0124C113.96 33.0058 113.093 33.0116 112.226 33.0083C112.071 33.0075 111.915 32.995 111.762 32.9726C111.371 32.9171 111.241 32.7272 111.353 32.3832C111.386 32.2845 111.432 32.1892 111.475 32.0939C112.04 30.8611 112.602 29.6266 113.172 28.3963C113.238 28.2521 113.237 28.1327 113.174 27.9893C111.605 24.4236 110.039 20.8571 108.473 17.2906C108.428 17.1869 108.379 17.0833 108.35 16.9764C108.262 16.6522 108.401 16.4441 108.755 16.3778C108.906 16.3496 109.064 16.338 109.219 16.3372C110.492 16.3347 111.766 16.3397 113.04 16.333C113.392 16.3314 113.678 16.4491 113.924 16.6713C114.132 16.8595 114.268 17.0874 114.363 17.3395C114.897 18.7372 115.435 20.1333 115.971 21.5303C116.001 21.6098 116.037 21.6886 116.069 21.7682C116.087 21.7657 116.105 21.7632 116.122 21.7607Z" fill="#020303"/>
<path fill-rule="evenodd" clip-rule="evenodd" d="M83.7959 28.8201C81.9373 28.7761 80.3975 28.641 78.8866 28.2895C78.7191 28.2505 78.5569 28.1925 78.3902 28.1527C78.2272 28.1129 78.1497 28.02 78.1163 27.8708C78.0064 27.3676 77.9722 26.8594 77.9821 26.3495C77.9884 26.056 78.0362 25.7626 78.0686 25.4699C78.0758 25.4069 78.0965 25.3447 78.1163 25.2842C78.2317 24.9252 78.3227 24.8747 78.7173 24.9717C79.9498 25.2767 81.2066 25.3572 82.476 25.3124C82.6995 25.3049 82.9229 25.2651 83.1409 25.2171C83.2635 25.1905 83.3878 25.1333 83.4869 25.0612C83.7103 24.9012 83.7247 24.6326 83.5121 24.4618C83.3707 24.3491 83.204 24.2545 83.0346 24.1783C82.7247 24.0373 82.4012 23.9229 82.0886 23.7861C81.5571 23.554 81.021 23.3302 80.5057 23.0715C79.9615 22.8004 79.4741 22.4481 79.0984 21.9913C78.2136 20.9152 78.0226 19.7338 78.538 18.4728C78.7785 17.8809 79.2488 17.4423 79.8056 17.0825C80.5552 16.5984 81.3994 16.324 82.2832 16.1383C83.3382 15.9161 84.4086 15.8746 85.4852 15.8954C86.2906 15.9103 87.0952 15.9418 87.888 16.0894C88.0736 16.1233 88.2538 16.1847 88.4385 16.2253C88.6268 16.2668 88.725 16.3795 88.7295 16.547C88.7376 16.8405 88.7493 17.1364 88.7214 17.4282C88.6809 17.8494 88.5782 18.2614 88.4178 18.6594C88.3935 18.7191 88.3673 18.7779 88.3376 18.8351C88.134 19.2364 88.0232 19.2861 87.5502 19.2314C86.8285 19.1493 86.1068 19.0706 85.3834 19.0026C85.1609 18.9819 84.9329 18.9951 84.7095 19.0084C84.5725 19.0167 84.4347 19.0449 84.3031 19.0805C84.1176 19.1311 83.9815 19.2356 83.9482 19.4237C83.9166 19.6061 84.0464 19.7073 84.1869 19.7885C84.4131 19.9187 84.6464 20.043 84.8852 20.1541C85.4185 20.4012 85.9636 20.6258 86.4916 20.882C87.1294 21.1921 87.7177 21.5709 88.2268 22.0468C89.1439 22.9024 89.5674 23.9287 89.4692 25.1259C89.4413 25.4732 89.3881 25.8256 89.2845 26.1597C89.0151 27.031 88.416 27.6685 87.5547 28.1021C86.8763 28.4428 86.142 28.6269 85.3816 28.7081C84.7554 28.7753 84.1221 28.7977 83.7959 28.8201Z" fill="#020303"/>
<path fill-rule="evenodd" clip-rule="evenodd" d="M92.0659 19.6367C91.8515 19.6367 91.6632 19.6375 91.474 19.6367C91.3443 19.635 91.2127 19.6383 91.0848 19.6243C90.8586 19.6002 90.6956 19.4858 90.6235 19.2877C90.5794 19.1683 90.5496 19.039 90.5478 18.9138C90.5406 18.3086 90.5433 17.7025 90.5442 17.0965C90.5442 17.065 90.5469 17.0327 90.5505 17.0012C90.592 16.6016 90.8163 16.3952 91.2524 16.3736C91.5118 16.3612 91.7722 16.3686 92.0326 16.367C92.1263 16.3661 92.2209 16.367 92.3398 16.367C92.3452 16.2725 92.3542 16.1954 92.3542 16.1183C92.3551 15.6954 92.3623 15.2735 92.3515 14.8507C92.3434 14.4826 92.5236 14.2206 92.8642 14.0564C93.0543 13.9652 93.2606 13.8857 93.4696 13.8517C94.4922 13.6875 95.5183 13.5375 96.5445 13.3899C96.6788 13.3708 96.8202 13.3808 96.9563 13.3957C97.1644 13.4181 97.2806 13.5433 97.3067 13.7281C97.3301 13.8931 97.3428 14.0614 97.3437 14.228C97.3482 14.8739 97.3455 15.5197 97.3455 16.1647C97.3455 16.2202 97.3536 16.2749 97.359 16.352C97.4383 16.357 97.5121 16.3661 97.5869 16.3661C98.0113 16.3678 98.4365 16.3645 98.8609 16.3678C99.2275 16.3703 99.4501 16.5054 99.5609 16.8287C99.6222 17.0078 99.6546 17.2018 99.6591 17.3908C99.6717 17.9322 99.6636 18.4744 99.6636 19.0166C99.6636 19.0647 99.66 19.1119 99.6573 19.16C99.6294 19.5588 99.4744 19.7014 99.0401 19.7088C98.6068 19.7154 98.1734 19.7096 97.741 19.7105C97.6734 19.7105 97.6067 19.7188 97.5247 19.7246C97.5202 19.8149 97.513 19.892 97.513 19.97C97.5121 21.4763 97.5121 22.9827 97.513 24.4899C97.513 24.9434 97.6797 25.1274 98.1689 25.1904C98.3302 25.2111 98.496 25.2078 98.6599 25.2037C98.8473 25.1995 98.8906 25.2037 98.95 25.3687C99.0302 25.595 99.0978 25.8263 99.1483 26.0601C99.2771 26.6711 99.351 27.2879 99.3519 27.9121C99.3519 27.9917 99.342 28.0713 99.3447 28.1509C99.351 28.3109 99.2771 28.4038 99.1032 28.4369C98.6545 28.5231 98.2104 28.6359 97.7581 28.6972C96.9869 28.8034 96.2094 28.8564 95.4282 28.7636C94.5489 28.6591 93.7435 28.4013 93.0966 27.8168C92.5101 27.2862 92.1938 26.6321 92.1137 25.8876C92.0695 25.4764 92.0695 25.0594 92.0686 24.6457C92.0668 23.0357 92.0722 21.4257 92.0749 19.8158C92.0749 19.7693 92.0695 19.7221 92.0659 19.6367Z" fill="#020303"/>
<path fill-rule="evenodd" clip-rule="evenodd" d="M101.625 20.1345C101.625 17.615 101.625 15.0956 101.626 12.5762C101.626 12.4808 101.622 12.3846 101.631 12.2893C101.662 11.971 101.882 11.7629 102.227 11.7239C102.321 11.714 102.417 11.7123 102.512 11.7123C103.612 11.7115 104.713 11.709 105.814 11.714C106.038 11.7148 106.265 11.7264 106.484 11.767C106.842 11.8342 106.966 11.9776 106.997 12.3059C107.006 12.3938 107.006 12.4816 107.006 12.5687C107.006 17.5603 107.006 22.5511 107.005 27.5428C107.005 27.6696 107.001 27.7981 106.986 27.9241C106.946 28.2541 106.765 28.4249 106.408 28.4705C106.296 28.4846 106.183 28.4854 106.07 28.4854C104.892 28.4862 103.713 28.487 102.535 28.4846C102.363 28.4846 102.188 28.4746 102.018 28.4514C101.818 28.424 101.691 28.3113 101.662 28.1214C101.647 28.0186 101.631 27.915 101.631 27.813C101.628 26.3058 101.626 24.7987 101.625 23.2923C101.625 22.2394 101.625 21.1874 101.625 20.1345Z" fill="#020303"/>
<path fill-rule="evenodd" clip-rule="evenodd" d="M51.7811 23.0245C51.7811 21.7254 51.7757 20.4263 51.7838 19.1272C51.7865 18.8337 51.8117 18.5369 51.8667 18.2476C52.0072 17.5197 52.4613 17.0082 53.1938 16.7039C53.674 16.5049 54.1803 16.4021 54.7019 16.3773C55.3065 16.3474 55.9128 16.3367 56.5192 16.3333C57.9481 16.3259 59.377 16.3267 60.8068 16.3242C60.841 16.3242 60.8761 16.3242 60.9104 16.325C61.3194 16.3309 61.4338 16.4361 61.4347 16.8117C61.4356 17.625 61.4347 18.4374 61.4347 19.2507C61.4347 19.3063 61.4365 19.3626 61.4293 19.4182C61.3987 19.6511 61.2545 19.8004 61.0005 19.8302C60.8041 19.8526 60.6032 19.8427 60.404 19.8559C59.9644 19.8858 59.5247 19.9156 59.086 19.9579C58.7184 19.9935 58.3877 20.1336 58.0679 20.2961C57.503 20.5838 57.2183 21.029 57.1768 21.6135C57.1678 21.7486 57.1678 21.8846 57.1678 22.0197C57.1669 23.8212 57.1678 25.6227 57.1651 27.4234C57.1651 27.59 57.1525 27.7591 57.1201 27.9225C57.0516 28.2698 56.8264 28.4497 56.448 28.4804C56.3876 28.4862 56.3273 28.4879 56.2669 28.4879C55.1668 28.4887 54.0668 28.4903 52.9667 28.4862C52.8126 28.4854 52.655 28.4663 52.5045 28.4323C52.1108 28.3419 51.8847 28.0974 51.8189 27.7334C51.7901 27.5767 51.782 27.4159 51.782 27.2576C51.7793 25.8465 51.7811 24.4355 51.7811 23.0245Z" fill="#020303"/>
<path fill-rule="evenodd" clip-rule="evenodd" d="M15.9945 15.4425C15.9945 15.4433 15.9945 15.4433 15.9945 15.4433C14.799 15.4433 13.6025 15.4408 12.4069 15.4441C12.0078 15.4458 11.8799 15.5677 11.8763 15.9358C11.8736 16.3188 11.8754 16.701 11.8763 17.084C11.8763 17.5524 11.952 17.6237 12.461 17.6262C12.9196 17.6287 13.3791 17.627 13.8376 17.627C14.271 17.6278 14.2719 17.6278 14.2719 18.0216C14.2719 19.848 14.2719 21.6735 14.2728 23.4991C14.2728 23.611 14.2728 23.7229 14.289 23.8332C14.3287 24.096 14.417 24.1847 14.7107 24.1913C15.4368 24.2071 16.1648 24.2079 16.8919 24.2112C16.9874 24.212 17.0829 24.2004 17.1766 24.1872C17.3874 24.1557 17.5018 24.0603 17.5405 23.8663C17.5631 23.7577 17.5649 23.645 17.5649 23.5339C17.5658 21.676 17.5649 19.8181 17.5658 17.9603C17.5658 17.6353 17.5748 17.6278 17.9343 17.627C18.4631 17.6262 18.992 17.6295 19.5199 17.6253C19.6406 17.6245 19.7614 17.6063 19.8803 17.5889C19.9956 17.5714 20.0623 17.4993 20.0839 17.3965C20.0992 17.3269 20.1064 17.2548 20.1073 17.1835C20.1091 16.7689 20.1109 16.3544 20.1073 15.9399C20.1046 15.566 19.9803 15.4516 19.5821 15.4433C19.5127 15.4417 19.4433 15.4425 19.374 15.4425C18.2469 15.4425 17.1207 15.4425 15.9945 15.4425ZM16.0089 11.992C17.8883 11.992 19.7677 11.992 21.6462 11.992C21.7245 11.992 21.8029 11.9945 21.8804 11.9904C22.048 11.9812 22.0732 11.9597 22.0885 11.808C22.0948 11.7441 22.0921 11.6803 22.0921 11.6165C22.0921 10.8753 22.1029 10.1342 22.0876 9.39382C22.0804 9.02076 22.0561 8.64437 21.9876 8.27794C21.7336 6.93822 21.0308 5.82482 19.892 4.96262C18.5505 3.94622 17.0072 3.53253 15.2738 3.71741C14.38 3.81275 13.5511 4.07472 12.8034 4.52323C10.9537 5.63082 10.005 7.21346 9.94825 9.24045C9.92572 10.0446 9.94284 10.8496 9.94194 11.6546C9.94194 11.9912 9.94374 11.992 10.3203 11.992C12.2168 11.992 14.1124 11.992 16.0089 11.992ZM25.3292 11.9746C25.4851 11.9821 25.5959 11.9912 25.7058 11.9912C27.014 11.9929 28.3231 11.9887 29.6313 11.9953C30.1025 11.9978 30.5601 12.0832 30.9863 12.2797C31.7935 12.6519 32.0782 13.2596 31.9017 14.0447C31.617 15.3148 31.2944 16.5783 30.9872 17.8442C30.434 20.1282 29.8817 22.4122 29.3277 24.6962C29.1718 25.3412 29.0168 25.9862 28.8556 26.6295C28.6907 27.2861 28.3411 27.8266 27.6825 28.1649C27.287 28.3672 26.8527 28.4335 26.4095 28.4526C26.15 28.4642 25.8896 28.455 25.6293 28.455C18.9929 28.455 12.3556 28.4559 5.71919 28.4542C5.16421 28.4542 4.63445 28.3531 4.16686 28.0588C3.66413 27.7421 3.36051 27.2952 3.22176 26.7572C3.00734 25.929 2.80823 25.0974 2.60551 24.2659C1.86133 21.2059 1.11715 18.1451 0.374764 15.0852C0.290976 14.7428 0.191872 14.4029 0.139617 14.0572C0.101777 13.8084 0.0891634 13.5448 0.134211 13.2986C0.211693 12.875 0.499095 12.5674 0.900918 12.3527C1.37031 12.1023 1.88385 11.9978 2.41812 11.9953C3.71818 11.9879 5.01735 11.992 6.31742 11.992C6.70573 11.992 6.70663 11.9912 6.70663 11.638C6.70663 10.9209 6.70933 10.203 6.70663 9.48585C6.69492 5.51642 9.67976 2.07094 13.88 1.14905C14.917 0.921892 15.9675 0.88127 17.0261 0.980754C18.8253 1.14988 20.4272 1.76502 21.8309 2.80215C23.5472 4.06975 24.6454 5.70129 25.122 7.68103C25.2608 8.25721 25.331 8.84251 25.331 9.43362C25.331 10.1756 25.3301 10.9168 25.3292 11.6579C25.3292 11.7524 25.3292 11.8469 25.3292 11.9746Z" fill="#6EBE44"/>
<path fill-rule="evenodd" clip-rule="evenodd" d="M18.6497 32.5229C18.6145 30.7612 20.2669 29.1678 22.3454 29.1877C24.3121 29.2068 25.9771 30.7164 25.9627 32.5801C25.9474 34.4438 24.2563 35.9767 22.1922 35.9286C20.3281 35.8846 18.5956 34.428 18.6497 32.5229Z" fill="#6EBE44"/>
<path fill-rule="evenodd" clip-rule="evenodd" d="M13.3842 32.5567C13.4221 34.3848 11.7418 35.9326 9.7273 35.9293C7.70827 35.9276 6.06134 34.3715 6.07035 32.5484C6.07936 30.6781 7.77134 29.1801 9.74892 29.1875C11.7094 29.195 13.4167 30.6947 13.3842 32.5567Z" fill="#6EBE44"/>
</svg>
