<svg width="124" height="43" viewBox="0 0 124 43" fill="none" xmlns="http://www.w3.org/2000/svg">
<path fill-rule="evenodd" clip-rule="evenodd" d="M89.1628 10.7722C91.9477 10.7722 94.2051 8.51597 94.2051 5.73371C94.2051 2.94983 91.9477 0.691406 89.1628 0.691406C86.3811 0.691406 84.1248 2.94983 84.1248 5.73371C84.1248 8.51597 86.3811 10.7722 89.1628 10.7722ZM50.5454 13.4933C50.3178 14.0648 48.6802 18.6905 44.7197 23.4847V2.98558L34.1671 5.07119V42.2281H44.7197V30.7426C47.7761 35.3267 49.2853 42.2281 49.2853 42.2281H61.9252C60.6749 37.0304 55.2058 27.4463 55.2058 27.4463C60.1143 21.223 62.2703 14.5919 62.6132 13.4933H50.5454ZM78.2878 13.1054C68.8359 13.4088 64.0379 17.6493 64.0379 26.079V42.2281H74.3495V29.059C74.3495 24.0113 75.0104 21.8476 81.0002 21.6412V13.2533C79.992 13.0393 78.2878 13.1054 78.2878 13.1054ZM16.4692 17.5849C15.1766 17.4998 12.1842 17.3064 12.1842 14.6125C12.1842 11.3616 16.4925 11.3616 18.1084 11.3616C20.9497 11.3616 24.6296 12.2013 27.2575 12.9873C27.2575 12.9873 28.7234 13.5041 29.9709 14.0334L30.0869 14.0648V5.16166L29.9276 5.11453C26.8263 4.02947 23.22 2.98558 16.5342 2.98558C5.00642 2.98558 0.921875 9.70125 0.921875 15.4543C0.921875 18.7707 2.34334 26.5757 15.5455 27.4761C16.6647 27.5449 19.635 27.7161 19.635 30.4999C19.635 32.7985 17.2032 34.1538 13.1132 34.1538C8.63105 34.1538 4.28323 33.0108 1.64236 31.9268V41.0965C5.59581 42.1328 10.0525 42.6507 15.2758 42.6507C26.5473 42.6507 31.5955 36.2969 31.5955 29.9994C31.5955 22.859 25.9465 18.2198 16.4692 17.5849ZM84.0511 42.2281H94.2793V13.5258H84.0511V42.2281ZM113.538 4.8155V42.2281H123.768V2.98558L113.538 4.8155ZM98.6119 4.8155L108.832 2.98558V42.2281H98.6119V4.8155Z" fill="url(#paint0_linear)"/>
<defs>
<linearGradient id="paint0_linear" x1="34.1444" y1="0.691407" x2="43.3752" y2="52.4458" gradientUnits="userSpaceOnUse">
<stop stop-color="#6B195F"/>
<stop offset="1" stop-color="#4C255B"/>
</linearGradient>
</defs>
</svg>
