<svg width="80" height="80" viewBox="0 0 80 80" fill="none" xmlns="http://www.w3.org/2000/svg">
<g clip-path="url(#clip0)">
<path d="M52.5201 80.0001H1.62598C0.728149 80.0001 0 79.272 0 78.3741V71.5449C0 70.6471 0.728149 69.9189 1.62598 69.9189H52.5201V80.0001Z" fill="#FFA62B"/>
<path d="M72.3577 55.7721C72.3577 52.0007 69.2998 48.9429 65.5284 48.9429C61.7565 48.9429 58.6992 52.0007 58.6992 55.7721V59.0247C58.6992 62.796 61.7565 65.8539 65.5284 65.8539C69.2998 65.8539 72.3577 62.796 72.3577 59.0247V55.7721Z" fill="#FFA62B"/>
<path d="M80.0005 78.3741V75.2327C80.0005 71.078 77.3693 67.3793 73.4447 66.0164L69.9626 64.8079C68.8573 64.424 67.6958 64.228 66.5258 64.228H64.5323C63.3623 64.228 62.2002 64.424 61.0955 64.8079L57.6134 66.0164C53.6888 67.3793 51.0576 71.078 51.0576 75.2327V80.0001H78.3745C79.2723 80.0001 80.0005 79.272 80.0005 78.3741Z" fill="#161616"/>
<path d="M35.2328 55.9348L32.8457 55.106V55.1218L27.3171 64.7153L21.7886 55.1218L21.7867 55.1066L19.4015 55.9348C15.4769 57.2977 12.8457 60.9965 12.8457 65.1511V69.9186H41.7886V65.1511C41.7886 60.9965 39.158 57.2977 35.2328 55.9348Z" fill="#161616"/>
<path d="M21.788 55.1219L27.3165 64.7155L32.8451 55.1219V55.1061L30.0808 54.146H24.5522L21.7861 55.1067L21.788 55.1219Z" fill="#F8F1F1"/>
<path d="M34.1458 45.691C34.1458 41.9197 31.0885 38.8618 27.3165 38.8618C23.5452 38.8618 20.4873 41.9197 20.4873 45.691V48.943C20.4873 52.715 23.5452 55.7722 27.3165 55.7722C31.0885 55.7722 34.1458 52.715 34.1458 48.943V45.691Z" fill="#FFA62B"/>
<path d="M41.3007 0H6.50391C2.91199 0 0 2.91199 0 6.50391V23.4149C0 27.0068 2.91199 29.9188 6.50391 29.9188H10.0812L15.9906 35.8283C16.8103 36.648 18.2117 36.0675 18.2117 34.9085V29.9188H41.3007C44.8926 29.9188 47.8046 27.0068 47.8046 23.4149V6.50391C47.8046 2.91199 44.8932 0 41.3007 0Z" fill="#529696"/>
<path d="M41.3007 0H6.50391C2.91199 0 0 2.91199 0 6.50391V23.4149C0 27.0068 2.91199 29.9188 6.50391 29.9188H10.0812L15.9906 35.8283C16.8103 36.648 18.2117 36.0675 18.2117 34.9085V29.9188H41.3007C44.8926 29.9188 47.8046 27.0068 47.8046 23.4149V6.50391C47.8046 2.91199 44.8932 0 41.3007 0Z" fill="#529696"/>
<path d="M38.6992 8.78027H73.496C77.0879 8.78027 79.9999 11.6923 79.9999 15.2842V32.1952C79.9999 35.7871 77.0879 38.6991 73.496 38.6991H56.7479V43.6887C56.7479 44.8478 55.3466 45.4276 54.5275 44.6085L48.618 38.6991H38.6992C35.1073 38.6991 32.1953 35.7871 32.1953 32.1952V15.2842C32.1953 11.6923 35.1067 8.78027 38.6992 8.78027Z" fill="#A3D2CA"/>
</g>
<defs>
<clipPath id="clip0">
<rect width="80" height="80" fill="white"/>
</clipPath>
</defs>
</svg>
