<svg width="75" height="75" viewBox="0 0 75 75" fill="none" xmlns="http://www.w3.org/2000/svg">
<path d="M37.5 75C58.2107 75 75 58.2107 75 37.5C75 16.7893 58.2107 0 37.5 0C16.7893 0 0 16.7893 0 37.5C0 58.2107 16.7893 75 37.5 75Z" fill="#FFA62B"/>
<path d="M37.5 66.7218C53.6388 66.7218 66.7218 53.6388 66.7218 37.5C66.7218 21.3613 53.6388 8.27832 37.5 8.27832C21.3613 8.27832 8.27832 21.3613 8.27832 37.5C8.27832 53.6388 21.3613 66.7218 37.5 66.7218Z" fill="#F8F1F1"/>
<path d="M37.5009 17.2723C36.8758 17.2723 36.3691 16.7656 36.3691 16.1405V14.4794C36.3691 13.8543 36.8758 13.3477 37.5009 13.3477C38.1259 13.3477 38.6328 13.8543 38.6328 14.4794V16.1405C38.6328 16.7656 38.1259 17.2723 37.5009 17.2723Z" fill="#529696"/>
<path d="M52.542 23.5539C52.2522 23.5539 51.9626 23.4433 51.7416 23.2224C51.2997 22.7803 51.2997 22.0638 51.7417 21.6217L52.9164 20.4472C53.3583 20.0051 54.075 20.0053 54.517 20.4472C54.959 20.8893 54.959 21.6058 54.5169 22.0479L53.3422 23.2225C53.1212 23.4433 52.8316 23.5539 52.542 23.5539Z" fill="#529696"/>
<path d="M60.3974 38.6321H58.7362C58.111 38.6321 57.6045 38.1254 57.6045 37.5004C57.6045 36.8753 58.1112 36.3687 58.7362 36.3687H60.3974C61.0226 36.3687 61.5291 36.8753 61.5291 37.5004C61.5291 38.1254 61.0224 38.6321 60.3974 38.6321Z" fill="#529696"/>
<path d="M53.6296 54.8488C53.34 54.8488 53.0503 54.7382 52.8292 54.5173L51.6547 53.3428C51.2128 52.9007 51.2128 52.1842 51.6547 51.742C52.0968 51.3002 52.8132 51.3002 53.2555 51.742L54.43 52.9165C54.8719 53.3586 54.8719 54.0751 54.43 54.5173C54.2089 54.7382 53.9192 54.8488 53.6296 54.8488Z" fill="#529696"/>
<path d="M37.3769 61.5296C36.7518 61.5296 36.2451 61.0229 36.2451 60.3978V58.7367C36.2451 58.1115 36.7518 57.605 37.3769 57.605C38.0019 57.605 38.5086 58.1117 38.5086 58.7367V60.3978C38.5086 61.0229 38.0019 61.5296 37.3769 61.5296Z" fill="#529696"/>
<path d="M21.1601 54.7614C20.8705 54.7614 20.5807 54.6508 20.3598 54.4298C19.9177 53.9878 19.9179 53.2712 20.3598 52.8291L21.5345 51.6546C21.9766 51.2128 22.693 51.2127 23.1351 51.6548C23.5771 52.0967 23.5771 52.8133 23.135 53.2554L21.9603 54.4299C21.7394 54.651 21.4497 54.7614 21.1601 54.7614Z" fill="#529696"/>
<path d="M16.1405 38.5086H14.4794C13.8543 38.5086 13.3477 38.0019 13.3477 37.3769C13.3477 36.7518 13.8543 36.2451 14.4794 36.2451H16.1405C16.7656 36.2451 17.2723 36.7518 17.2723 37.3769C17.2724 38.0019 16.7656 38.5086 16.1405 38.5086Z" fill="#529696"/>
<path d="M22.4226 23.467C22.133 23.467 21.8434 23.3565 21.6224 23.1355L20.4477 21.961C20.0058 21.5189 20.0057 20.8024 20.4476 20.3603C20.8897 19.9184 21.6061 19.9183 22.0482 20.3602L23.2229 21.5349C23.6648 21.9768 23.665 22.6934 23.223 23.1355C23.0018 23.3564 22.7122 23.467 22.4226 23.467Z" fill="#529696"/>
<path d="M37.4999 38.6317H27.8876C27.2625 38.6317 26.7559 38.1249 26.7559 37.4999C26.7559 36.8748 27.2625 36.3681 27.8876 36.3681H36.368V21.9691C36.368 21.3441 36.8747 20.8374 37.4998 20.8374C38.1248 20.8374 38.6315 21.3441 38.6315 21.9691V37.4999C38.6317 38.1249 38.125 38.6317 37.4999 38.6317Z" fill="#529696"/>
<path d="M49.1114 44.603C48.9371 44.603 48.7604 44.5626 48.5947 44.4775L36.9826 38.5062C36.4267 38.2204 36.2079 37.5381 36.4937 36.9822C36.7794 36.4263 37.4618 36.2073 38.0178 36.4932L49.6299 42.4644C50.1858 42.7503 50.4048 43.4326 50.1189 43.9884C49.9181 44.3788 49.522 44.603 49.1114 44.603Z" fill="#FFA62B"/>
<path d="M37.4993 40.5211C39.1677 40.5211 40.5201 39.1686 40.5201 37.5003C40.5201 35.8319 39.1677 34.4795 37.4993 34.4795C35.831 34.4795 34.4785 35.8319 34.4785 37.5003C34.4785 39.1686 35.831 40.5211 37.4993 40.5211Z" fill="#A3D2CA"/>
</svg>
