<svg width="80" height="80" viewBox="0 0 80 80" fill="none" xmlns="http://www.w3.org/2000/svg">
<path d="M58.0078 6.33462C58.0078 2.84382 60.8376 0.0141602 64.3282 0.0141602H15.1318C12.3559 0.0141602 10.1055 2.26455 10.1055 5.04047V62.2776H58.0076V15.8747V12.6552V6.33462H58.0078Z" fill="#FFA62B"/>
<path d="M50.3696 10.9151H18.7034C18.0366 10.9151 17.4961 10.3747 17.4961 9.70778C17.4961 9.04086 18.0365 8.50049 18.7034 8.50049H50.3696C51.0364 8.50049 51.5769 9.04086 51.5769 9.70778C51.5769 10.3747 51.0364 10.9151 50.3696 10.9151Z" fill="#F8F1F1"/>
<path d="M50.3696 22.9532H18.7034C18.0366 22.9532 17.4961 22.4128 17.4961 21.7459C17.4961 21.0789 18.0365 20.5386 18.7034 20.5386H50.3696C51.0364 20.5386 51.5769 21.0789 51.5769 21.7459C51.5769 22.4128 51.0364 22.9532 50.3696 22.9532Z" fill="#F8F1F1"/>
<path d="M50.3696 34.9917H18.7034C18.0366 34.9917 17.4961 34.4513 17.4961 33.7844C17.4961 33.1177 18.0365 32.5771 18.7034 32.5771H50.3696C51.0364 32.5771 51.5769 33.1175 51.5769 33.7844C51.5769 34.4513 51.0364 34.9917 50.3696 34.9917Z" fill="#F8F1F1"/>
<path d="M50.3696 47.0303H18.7034C18.0366 47.0303 17.4961 46.4899 17.4961 45.823C17.4961 45.1561 18.0365 44.6157 18.7034 44.6157H50.3696C51.0364 44.6157 51.5769 45.1561 51.5769 45.823C51.5769 46.4899 51.0364 47.0303 50.3696 47.0303Z" fill="#F8F1F1"/>
<path d="M52.2334 67.1063H8.9361C4.00087 67.1063 0 63.1054 0 58.17V56.5874C0 56.1692 0.33916 55.8301 0.757368 55.8301H52.2334V67.1063Z" fill="#CD7E11"/>
<path d="M58.5797 79.9861C70.4094 79.9861 79.9993 70.3962 79.9993 58.5665C79.9993 46.7368 70.4094 37.147 58.5797 37.147C46.75 37.147 37.1602 46.7368 37.1602 58.5665C37.1602 70.3962 46.75 79.9861 58.5797 79.9861Z" fill="#529696"/>
<path d="M58.5811 74.543C67.4047 74.543 74.5577 67.3901 74.5577 58.5664C74.5577 49.7428 67.4047 42.5898 58.5811 42.5898C49.7575 42.5898 42.6045 49.7428 42.6045 58.5664C42.6045 67.3901 49.7575 74.543 58.5811 74.543Z" fill="#F8F1F1"/>
<path d="M58.5803 48.7142C57.9136 48.7142 57.373 48.1738 57.373 47.5069V46.9539C57.373 46.2871 57.9134 45.7466 58.5803 45.7466C59.2471 45.7466 59.7876 46.287 59.7876 46.9539V47.5069C59.7876 48.1738 59.2473 48.7142 58.5803 48.7142Z" fill="#A3D2CA"/>
<path d="M66.4006 51.9537C66.0916 51.9537 65.7826 51.8358 65.5467 51.5999C65.0754 51.1284 65.0756 50.364 65.5472 49.8927L65.9382 49.5018C66.4097 49.0306 67.1741 49.0305 67.6454 49.5023C68.1167 49.9738 68.1166 50.7382 67.645 51.2095L67.2539 51.6004C67.0185 51.8359 66.7097 51.9537 66.4006 51.9537Z" fill="#A3D2CA"/>
<path d="M70.1939 59.7735H69.6409C68.9741 59.7735 68.4336 59.2331 68.4336 58.5662C68.4336 57.8993 68.974 57.3589 69.6409 57.3589H70.1939C70.8607 57.3589 71.4012 57.8993 71.4012 58.5662C71.4012 59.2331 70.8607 59.7735 70.1939 59.7735Z" fill="#A3D2CA"/>
<path d="M47.5211 59.7735H46.968C46.3013 59.7735 45.7607 59.2331 45.7607 58.5662C45.7607 57.8993 46.3011 57.3589 46.968 57.3589H47.5211C48.1878 57.3589 48.7283 57.8993 48.7283 58.5662C48.7283 59.2331 48.188 59.7735 47.5211 59.7735Z" fill="#A3D2CA"/>
<path d="M66.7926 67.9852C66.4838 67.9852 66.1749 67.8674 65.9392 67.6318L65.5482 67.241C65.0765 66.7695 65.0764 66.0051 65.5477 65.5338C66.019 65.0618 66.7834 65.0617 67.2549 65.5333L67.6459 65.9242C68.1176 66.3956 68.1177 67.16 67.6464 67.6314C67.4107 67.8673 67.1017 67.9852 66.7926 67.9852Z" fill="#A3D2CA"/>
<path d="M58.5803 71.3866C57.9136 71.3866 57.373 70.8462 57.373 70.1793V69.6262C57.373 68.9595 57.9134 68.4189 58.5803 68.4189C59.2471 68.4189 59.7876 68.9593 59.7876 69.6262V70.1793C59.7876 70.8462 59.2473 71.3866 58.5803 71.3866Z" fill="#A3D2CA"/>
<path d="M50.3685 67.9854C50.0596 67.9854 49.7506 67.8675 49.5147 67.6319C49.0433 67.1603 49.0433 66.396 49.5147 65.9245L49.9056 65.5337C50.3772 65.0623 51.1415 65.0623 51.613 65.5337C52.0844 66.0053 52.0844 66.7695 51.613 67.241L51.2221 67.6319C50.9864 67.8675 50.6773 67.9854 50.3685 67.9854Z" fill="#A3D2CA"/>
<path d="M50.7594 51.9532C50.4505 51.9532 50.1415 51.8352 49.9056 51.5997L49.5147 51.2088C49.0433 50.7372 49.0433 49.9729 49.5147 49.5014C49.9864 49.0301 50.7506 49.0301 51.2221 49.5014L51.613 49.8923C52.0844 50.3639 52.0844 51.1282 51.613 51.5997C51.3774 51.8354 51.0682 51.9532 50.7594 51.9532Z" fill="#A3D2CA"/>
<path d="M61.8718 59.7736H58.5813C57.9146 59.7736 57.374 59.2332 57.374 58.5663V52.1946C57.374 51.5278 57.9144 50.9873 58.5813 50.9873C59.2481 50.9873 59.7886 51.5277 59.7886 52.1946V57.359H61.8718C62.5386 57.359 63.0791 57.8994 63.0791 58.5663C63.0791 59.2332 62.5388 59.7736 61.8718 59.7736Z" fill="#529696"/>
<path d="M69.5238 15.8745H58.0078V6.33462C58.0078 2.84382 60.8376 0.0141602 64.3283 0.0141602C67.8191 0.0141602 70.6487 2.84398 70.6487 6.33462V14.7494C70.649 15.3709 70.1452 15.8745 69.5238 15.8745Z" fill="#CD7E11"/>
</svg>
