<svg width="80" height="80" viewBox="0 0 80 80" fill="none" xmlns="http://www.w3.org/2000/svg">
<path d="M47.5 75V67.5C49.0852 65.9148 50.3426 64.0329 51.2005 61.9617C52.0584 59.8905 52.5 57.6707 52.5 55.4289V41.25C52.5 40.2554 52.1049 39.3016 51.4016 38.5983C50.6984 37.8951 49.7446 37.5 48.75 37.5H47.5V16.25C47.5 15.2554 47.1049 14.3016 46.4016 13.5983C45.6984 12.8951 44.7446 12.5 43.75 12.5C42.7554 12.5 41.8016 12.8951 41.0984 13.5983C40.3951 14.3016 40 15.2554 40 16.25V31.25C40 30.2554 39.6049 29.3016 38.9017 28.5983C38.1984 27.8951 37.2446 27.5 36.25 27.5C35.2554 27.5 34.3016 27.8951 33.5983 28.5983C32.8951 29.3016 32.5 30.2554 32.5 31.25V33.75C32.5 32.7554 32.1049 31.8016 31.4017 31.0983C30.6984 30.3951 29.7446 30 28.75 30C27.7554 30 26.8016 30.3951 26.0983 31.0983C25.3951 31.8016 25 32.7554 25 33.75V36.25C25 35.2554 24.6049 34.3016 23.9017 33.5983C23.1984 32.8951 22.2446 32.5 21.25 32.5C20.2554 32.5 19.3016 32.8951 18.5983 33.5983C17.8951 34.3016 17.5 35.2554 17.5 36.25V55.4289C17.5 57.6707 17.9416 59.8905 18.7995 61.9617C19.6574 64.0329 20.9148 65.9148 22.5 67.5V75H47.5Z" fill="#FFA62B"/>
<path d="M43.75 3.75C43.4185 3.75 43.1005 3.8817 42.8661 4.11612C42.6317 4.35054 42.5 4.66848 42.5 5V7.5C42.5 7.83152 42.6317 8.14946 42.8661 8.38388C43.1005 8.6183 43.4185 8.75 43.75 8.75C44.0815 8.75 44.3995 8.6183 44.6339 8.38388C44.8683 8.14946 45 7.83152 45 7.5V5C45 4.66848 44.8683 4.35054 44.6339 4.11612C44.3995 3.8817 44.0815 3.75 43.75 3.75Z" fill="#529696"/>
<path d="M52.9544 7.04458C52.8383 6.92844 52.7005 6.8363 52.5488 6.77344C52.3971 6.71058 52.2345 6.67822 52.0702 6.67822C51.906 6.67822 51.7434 6.71058 51.5917 6.77344C51.44 6.8363 51.3022 6.92844 51.1861 7.04458L49.4186 8.81346C49.1842 9.04801 49.0526 9.36606 49.0527 9.69765C49.0529 10.0292 49.1847 10.3472 49.4192 10.5816C49.6538 10.816 49.9718 10.9476 50.3034 10.9475C50.635 10.9473 50.953 10.8155 51.1874 10.581L52.955 8.81246C53.071 8.69634 53.1631 8.5585 53.2259 8.40681C53.2886 8.25512 53.3209 8.09255 53.3209 7.92839C53.3208 7.76422 53.2884 7.60168 53.2255 7.45003C53.1626 7.29839 53.0705 7.16062 52.9544 7.04458Z" fill="#529696"/>
<path d="M55 13.75H52.5C52.1685 13.75 51.8505 13.8817 51.6161 14.1161C51.3817 14.3505 51.25 14.6685 51.25 15C51.25 15.3315 51.3817 15.6495 51.6161 15.8839C51.8505 16.1183 52.1685 16.25 52.5 16.25H55C55.3315 16.25 55.6495 16.1183 55.8839 15.8839C56.1183 15.6495 56.25 15.3315 56.25 15C56.25 14.6685 56.1183 14.3505 55.8839 14.1161C55.6495 13.8817 55.3315 13.75 55 13.75Z" fill="#529696"/>
<path d="M35 13.75H32.5C32.1685 13.75 31.8505 13.8817 31.6161 14.1161C31.3817 14.3505 31.25 14.6685 31.25 15C31.25 15.3315 31.3817 15.6495 31.6161 15.8839C31.8505 16.1183 32.1685 16.25 32.5 16.25H35C35.3315 16.25 35.6495 16.1183 35.8839 15.8839C36.1183 15.6495 36.25 15.3315 36.25 15C36.25 14.6685 36.1183 14.3505 35.8839 14.1161C35.6495 13.8817 35.3315 13.75 35 13.75Z" fill="#529696"/>
<path d="M37.5636 7.04472C37.3291 6.81015 37.0111 6.67832 36.6795 6.67822C36.3479 6.67813 36.0298 6.80978 35.7952 7.04422C35.5606 7.27865 35.4288 7.59666 35.4287 7.9283C35.4286 8.25993 35.5603 8.57802 35.7947 8.81259L37.5626 10.5811C37.797 10.8156 38.1149 10.9475 38.4465 10.9476C38.7781 10.9477 39.0961 10.8161 39.3307 10.5817C39.5652 10.3473 39.6971 10.0294 39.6972 9.69778C39.6973 9.36619 39.5657 9.04814 39.3313 8.81359L37.5636 7.04472Z" fill="#529696"/>
</svg>
