<svg width="80" height="34" viewBox="0 0 80 34" fill="none" xmlns="http://www.w3.org/2000/svg">
<path d="M10.9509 33.6382C8.48656 33.6382 6.37647 33.2069 4.62063 32.3444C3.60054 31.8344 2.69355 31.152 1.89967 30.2972C0.862392 29.1804 0.999965 27.4834 1.90253 26.2552L4.40375 22.8514C4.66365 22.4978 5.13878 22.493 5.35993 22.8721C5.60637 23.2418 5.94521 23.6268 6.37647 24.0273C6.83854 24.4277 7.42382 24.7974 8.13231 25.1362C8.84081 25.4443 9.71873 25.5983 10.7661 25.5983C11.2897 25.5983 11.798 25.5521 12.2909 25.4597C12.7837 25.3673 13.215 25.2132 13.5847 24.9976C13.9851 24.782 14.2932 24.5048 14.5088 24.1659C14.7552 23.8271 14.8784 23.4112 14.8784 22.9183C14.8784 21.717 14.1391 20.9007 12.6605 20.4694C11.2127 20.0073 9.11805 19.7763 6.37647 19.7763C5.53434 19.7763 4.85166 19.0936 4.85166 18.2515V14.0005C4.85166 13.1839 5.51366 12.5219 6.33027 12.5219C7.3468 12.5219 8.31714 12.4757 9.24126 12.3833C10.1654 12.2601 10.9817 12.0753 11.6902 11.8288C12.4295 11.5824 12.9994 11.2743 13.3998 10.9047C13.8311 10.5042 14.0467 10.0114 14.0467 9.42609C14.0467 9.12116 13.9928 8.87014 13.885 8.67301C13.7982 8.51423 13.6737 8.37809 13.5449 8.25102C13.396 8.10419 13.2244 7.98761 13.0302 7.90128C12.7529 7.77806 12.4757 7.71645 12.1985 7.71645C11.9212 7.68565 11.721 7.67025 11.5978 7.67025C10.7353 7.67025 9.96516 7.77806 9.28747 7.9937C8.64058 8.20932 8.0707 8.47116 7.57784 8.7792C7.08497 9.08724 6.66911 9.41069 6.33027 9.74953C5.90924 10.2127 5.16415 10.2264 4.75849 9.7498L1.88267 6.37071C0.806171 5.10582 0.831201 3.1965 2.26411 2.35652C3.15743 1.83285 4.11236 1.40159 5.1289 1.06274C6.17624 0.723899 7.23899 0.462063 8.31714 0.277237C9.42609 0.092412 10.5042 0 11.5516 0C13.2458 0 14.8168 0.231031 16.2646 0.693094C17.7432 1.15516 19.0062 1.78665 20.0535 2.58755C21.1317 3.38846 21.9634 4.3434 22.5487 5.45235C23.1648 6.53049 23.4728 7.70105 23.4728 8.96403C23.4728 10.7507 22.9183 12.2293 21.8094 13.3998C21.3455 13.8895 20.8251 14.3063 20.2481 14.6504C19.7609 14.9409 19.7637 16.3701 20.2384 16.6805C21.0393 17.2042 21.717 17.851 22.2714 18.6211C22.8259 19.3604 23.2572 20.2076 23.5652 21.1625C23.8733 22.1174 24.0273 23.1032 24.0273 24.1197C24.0273 25.8447 23.6268 27.3079 22.8259 28.5093C22.0558 29.7107 21.0393 30.6964 19.7763 31.4665C18.5441 32.2366 17.1425 32.7911 15.5715 33.1299C14.0313 33.4688 12.4911 33.6382 10.9509 33.6382Z" fill="#FFA62B"/>
<path d="M42.3683 33.6844C39.904 33.6844 37.7477 33.1761 35.8994 32.1596C34.0512 31.1123 32.4956 29.7877 31.2326 28.1859C30.0004 26.5532 29.0609 24.7512 28.414 22.7797C27.7979 20.8082 27.4899 18.8984 27.4899 17.0501C27.4899 15.0787 27.8287 13.1072 28.5064 11.1357C29.2149 9.13345 30.2006 7.3468 31.4636 5.77579C32.7574 4.17397 34.313 2.88019 36.1305 1.89446C37.9787 0.908725 40.058 0.415857 42.3683 0.415857C44.8018 0.415857 46.9427 0.954931 48.791 2.03308C50.67 3.08042 52.2257 4.4204 53.4578 6.05303C54.7208 7.68565 55.6603 9.4877 56.2764 11.4592C56.9233 13.3998 57.2467 15.2635 57.2467 17.0501C57.2467 19.0524 56.8925 21.0547 56.184 23.057C55.5063 25.0284 54.5206 26.7997 53.2268 28.3707C51.9638 29.9417 50.4082 31.2201 48.56 32.2058C46.7425 33.1915 44.6786 33.6844 42.3683 33.6844ZM36.6387 17.0501C36.6387 18.0667 36.7465 19.0832 36.9622 20.0997C37.1778 21.1163 37.5166 22.0404 37.9787 22.8721C38.4408 23.7038 39.0261 24.3815 39.7345 24.9052C40.4738 25.4289 41.3518 25.6907 42.3683 25.6907C43.4157 25.6907 44.309 25.4135 45.0483 24.859C45.7876 24.3045 46.3729 23.596 46.8041 22.7335C47.2662 21.871 47.5896 20.9469 47.7744 19.9611C47.9901 18.9446 48.0979 17.9743 48.0979 17.0501C48.0979 16.0336 47.9901 15.0171 47.7744 14.0005C47.5588 12.984 47.22 12.0598 46.7579 11.2281C46.2958 10.3964 45.6952 9.71873 44.9559 9.19506C44.2474 8.67139 43.3848 8.40955 42.3683 8.40955C41.2902 8.40955 40.3814 8.68679 39.6421 9.24126C38.9336 9.79574 38.3484 10.5042 37.8863 11.3668C37.455 12.2293 37.1316 13.1688 36.916 14.1853C36.7311 15.1711 36.6387 16.126 36.6387 17.0501Z" fill="#FFA62B"/>
<path d="M79.1495 13.3545C79.6189 13.3545 79.9994 13.735 79.9994 14.2044V19.4356C79.9994 19.905 79.6189 20.2855 79.1495 20.2855H75.9504C75.4811 20.2855 75.1006 20.666 75.1006 21.1354V24.7965C75.1006 25.2658 74.7201 25.6464 74.2507 25.6464H68.0954C67.626 25.6464 67.2455 25.2659 67.2455 24.7965V21.1354C67.2455 20.666 66.865 20.2855 66.3956 20.2855H63.1966C62.7272 20.2855 62.3467 19.905 62.3467 19.4356V14.2044C62.3467 13.735 62.7272 13.3545 63.1966 13.3545H66.3956C66.865 13.3545 67.2455 12.974 67.2455 12.5047V8.84353C67.2455 8.37416 67.626 7.99365 68.0954 7.99365H74.2507C74.7201 7.99365 75.1006 8.37416 75.1006 8.84353V12.5046C75.1006 12.974 75.4811 13.3545 75.9504 13.3545H79.1495Z" fill="#529696"/>
</svg>
