<svg width="70" height="55" viewBox="0 0 70 55" fill="none" xmlns="http://www.w3.org/2000/svg">
	<defs xmlns="http://www.w3.org/2000/svg">
        <style>
            g {
                display: none;
            }
            g:target, g:target * {
                display: inline;
            }
        </style>
    </defs>

<g id="colored">
	<path fill-rule="evenodd" clip-rule="evenodd" d="M16.5 4C16.1642 4 15.8919 4.27982 15.8919 4.625V9.75H13.9459C12.8712 9.75 12 10.6454 12 11.75V36.25C12 37.3546 12.8712 38.25 13.9459 38.25H15.8919V43.375C15.8919 43.7202 16.1642 44 16.5 44C16.8358 44 17.1081 43.7202 17.1081 43.375V38.25H19.0541C20.1288 38.25 21 37.3546 21 36.25V11.75C21 10.6454 20.1288 9.75 19.0541 9.75H17.1081V4.625C17.1081 4.27982 16.8358 4 16.5 4Z" fill="#FFA62B"/>
	<path fill-rule="evenodd" clip-rule="evenodd" d="M65.5 3C65.1642 3 64.8919 3.27982 64.8919 3.625V8.75H62.9459C61.8712 8.75 61 9.64543 61 10.75V35.25C61 36.3546 61.8712 37.25 62.9459 37.25H64.8919V42.375C64.8919 42.7202 65.1642 43 65.5 43C65.8358 43 66.1081 42.7202 66.1081 42.375V37.25H68.0541C69.1288 37.25 70 36.3546 70 35.25V10.75C70 9.64543 69.1288 8.75 68.0541 8.75H66.1081V3.625C66.1081 3.27982 65.8358 3 65.5 3Z" fill="#FFA62B"/>
	<path fill-rule="evenodd" clip-rule="evenodd" d="M4.5 19C4.16415 19 3.89189 19.286 3.89189 19.6387V24.8759H1.94595C0.87123 24.8759 0 25.791 0 26.9197V46.0803C0 47.209 0.87123 48.1241 1.94595 48.1241H3.89189V53.3613C3.89189 53.7141 4.16415 54 4.5 54C4.83585 54 5.10811 53.7141 5.10811 53.3613V48.1241H7.05405C8.12877 48.1241 9 47.209 9 46.0803V26.9197C9 25.791 8.12877 24.8759 7.05405 24.8759H5.10811V19.6387C5.10811 19.2859 4.83585 19 4.5 19Z" fill="#529696"/>
	<path fill-rule="evenodd" clip-rule="evenodd" d="M53.5 21C53.1642 21 52.8919 21.2778 52.8919 21.6204V26.708H50.9459C49.8712 26.708 49 27.5969 49 28.6934V47.3066C49 48.4031 49.8712 49.292 50.9459 49.292H52.8919V54.3796C52.8919 54.7222 53.1642 55 53.5 55C53.8358 55 54.1081 54.7222 54.1081 54.3796V49.292H56.0541C57.1288 49.292 58 48.4031 58 47.3066V28.6934C58 27.5969 57.1288 26.708 56.0541 26.708H54.1081V21.6204C54.1081 21.2778 53.8358 21 53.5 21Z" fill="#529696"/>
	<path fill-rule="evenodd" clip-rule="evenodd" d="M29 0C28.6268 0 28.3243 0.284731 28.3243 0.635964V5.85088H26.1622C24.968 5.85088 24 6.76202 24 7.88597V21.114C24 22.238 24.968 23.1491 26.1622 23.1491H28.3243V28.364C28.3243 28.7153 28.6268 29 29 29C29.3732 29 29.6757 28.7153 29.6757 28.364V23.1491H31.8378C33.032 23.1491 34 22.238 34 21.114V7.88597C34 6.76202 33.032 5.85088 31.8378 5.85088H29.6757V0.635965C29.6757 0.284731 29.3732 0 29 0Z" fill="#FFA62B"/>
	<path fill-rule="evenodd" clip-rule="evenodd" d="M41 11C40.6268 11 40.3243 11.2847 40.3243 11.636V16.8509H38.1622C36.968 16.8509 36 17.762 36 18.886V32.114C36 33.238 36.968 34.1491 38.1622 34.1491H40.3243V39.364C40.3243 39.7153 40.6268 40 41 40C41.3732 40 41.6757 39.7153 41.6757 39.364V34.1491H43.8378C45.032 34.1491 46 33.238 46 32.114V18.886C46 17.762 45.032 16.8509 43.8378 16.8509H41.6757V11.636C41.6757 11.2847 41.3732 11 41 11Z" fill="#529696"/>
</g>

<g id="outline">
	<path d="M15.8919 10.25H16.3919V9.75V4.625C16.3919 4.54296 16.4531 4.5 16.5 4.5C16.5469 4.5 16.6081 4.54296 16.6081 4.625V9.75V10.25H17.1081H19.0541C19.8398 10.25 20.5 10.9086 20.5 11.75V36.25C20.5 37.0914 19.8398 37.75 19.0541 37.75H17.1081H16.6081V38.25V43.375C16.6081 43.457 16.5469 43.5 16.5 43.5C16.4531 43.5 16.3919 43.457 16.3919 43.375V38.25V37.75H15.8919H13.9459C13.1602 37.75 12.5 37.0914 12.5 36.25V11.75C12.5 10.9086 13.1602 10.25 13.9459 10.25H15.8919Z" stroke="#529696"/>
	<path d="M64.8919 9.25H65.3919V8.75V3.625C65.3919 3.54296 65.4531 3.5 65.5 3.5C65.5469 3.5 65.6081 3.54296 65.6081 3.625V8.75V9.25H66.1081H68.0541C68.8398 9.25 69.5 9.90857 69.5 10.75V35.25C69.5 36.0914 68.8398 36.75 68.0541 36.75H66.1081H65.6081V37.25V42.375C65.6081 42.457 65.5469 42.5 65.5 42.5C65.4531 42.5 65.3919 42.457 65.3919 42.375V37.25V36.75H64.8919H62.9459C62.1602 36.75 61.5 36.0914 61.5 35.25V10.75C61.5 9.90857 62.1602 9.25 62.9459 9.25H64.8919Z" stroke="#529696"/>
	<path d="M3.89189 25.3759H4.39189V24.8759V19.6387C4.39189 19.5387 4.46313 19.5 4.5 19.5C4.53687 19.5 4.60811 19.5387 4.60811 19.6387V24.8759V25.3759H5.10811H7.05405C7.8298 25.3759 8.5 26.0437 8.5 26.9197V46.0803C8.5 46.9563 7.8298 47.6241 7.05405 47.6241H5.10811H4.60811V48.1241V53.3613C4.60811 53.4613 4.53687 53.5 4.5 53.5C4.46313 53.5 4.39189 53.4613 4.39189 53.3613V48.1241V47.6241H3.89189H1.94595C1.1702 47.6241 0.5 46.9563 0.5 46.0803V26.9197C0.5 26.0437 1.1702 25.3759 1.94595 25.3759H3.89189Z" stroke="#529696"/>
	<path d="M52.8919 27.208H53.3919V26.708V21.6204C53.3919 21.5444 53.4497 21.5 53.5 21.5C53.5503 21.5 53.6081 21.5444 53.6081 21.6204V26.708V27.208H54.1081H56.0541C56.8432 27.208 57.5 27.8636 57.5 28.6934V47.3066C57.5 48.1364 56.8432 48.792 56.0541 48.792H54.1081H53.6081V49.292V54.3796C53.6081 54.4556 53.5503 54.5 53.5 54.5C53.4497 54.5 53.3919 54.4556 53.3919 54.3796V49.292V48.792H52.8919H50.9459C50.1568 48.792 49.5 48.1364 49.5 47.3066V28.6934C49.5 27.8636 50.1568 27.208 50.9459 27.208H52.8919Z" stroke="#529696"/>
	<path d="M28.3243 6.35088H28.8243V5.85088V0.635964C28.8243 0.588973 28.874 0.5 29 0.5C29.126 0.5 29.1757 0.588973 29.1757 0.635965V5.85088V6.35088H29.6757H31.8378C32.7848 6.35088 33.5 7.06626 33.5 7.88597V21.114C33.5 21.9337 32.7848 22.6491 31.8378 22.6491H29.6757H29.1757V23.1491V28.364C29.1757 28.411 29.126 28.5 29 28.5C28.874 28.5 28.8243 28.411 28.8243 28.364V23.1491V22.6491H28.3243H26.1622C25.2152 22.6491 24.5 21.9337 24.5 21.114V7.88597C24.5 7.06626 25.2152 6.35088 26.1622 6.35088H28.3243Z" stroke="#529696"/>
	<path d="M40.3243 17.3509H40.8243V16.8509V11.636C40.8243 11.589 40.874 11.5 41 11.5C41.126 11.5 41.1757 11.589 41.1757 11.636V16.8509V17.3509H41.6757H43.8378C44.7848 17.3509 45.5 18.0663 45.5 18.886V32.114C45.5 32.9337 44.7848 33.6491 43.8378 33.6491H41.6757H41.1757V34.1491V39.364C41.1757 39.411 41.126 39.5 41 39.5C40.874 39.5 40.8243 39.411 40.8243 39.364V34.1491V33.6491H40.3243H38.1622C37.2152 33.6491 36.5 32.9337 36.5 32.114V18.886C36.5 18.0663 37.2152 17.3509 38.1622 17.3509H40.3243Z" stroke="#529696"/>
</g>
</svg>
