<svg width="70" height="55" viewBox="0 0 70 55" fill="none" xmlns="http://www.w3.org/2000/svg">

	<defs xmlns="http://www.w3.org/2000/svg">
        <style>
            g {
                display: none;
            }
            g:target, g:target * {
                display: inline;
            }
        </style>
    </defs>

<g id="colored">
<path d="M37.9553 0.00129298C37.6728 0.0151513 37.4132 0.160973 37.2517 0.393343L16.1664 30.6417C15.7425 31.2494 16.1774 32.083 16.9184 32.083H31.5064L29.7554 54.0133C29.6869 54.9403 30.8826 55.3689 31.4187 54.6095L52.5039 24.3629C52.9274 23.7558 52.4939 22.9231 51.7538 22.9216H37.164L38.9168 0.98956C38.9607 0.437304 38.5086 -0.0277749 37.9553 0.00129298Z" fill="#FFA62B"/>
<path d="M10.1783 29.5035C10.0473 29.51 9.92694 29.5776 9.85207 29.6853L0.0771624 43.7081C-0.119372 43.9899 0.0822376 44.3763 0.425762 44.3763H7.1886L6.37686 54.5429C6.34511 54.9727 6.89943 55.1714 7.14793 54.8193L16.9228 40.7973C17.1192 40.5159 16.9182 40.1298 16.5751 40.1292H9.81141L10.624 29.9617C10.6444 29.7057 10.4347 29.4901 10.1783 29.5035Z" fill="#529696"/>
<path d="M63.1783 0.00059941C63.0473 0.007024 62.9269 0.0746255 62.8521 0.18235L53.0772 14.2052C52.8806 14.4869 53.0822 14.8734 53.4258 14.8734H60.1886L59.3769 25.04C59.3451 25.4698 59.8994 25.6685 60.1479 25.3164L69.9228 11.2944C70.1192 11.0129 69.9182 10.6269 69.5751 10.6262H62.8114L63.624 0.45875C63.6444 0.20273 63.4347 -0.0128762 63.1783 0.00059941Z" fill="#529696"/>
</g>

<g id="outline">
<path d="M37.9789 0.500695L37.9806 0.500604C38.2315 0.487419 38.4373 0.698464 38.4174 0.949727C38.4174 0.949777 38.4174 0.949827 38.4174 0.949877L36.6646 22.8818L36.6215 23.4216H37.163H51.7518C52.0883 23.4223 52.2853 23.8009 52.0929 24.0768L52.0928 24.0769L31.0092 54.3212C31.009 54.3215 31.0087 54.3218 31.0085 54.3222C30.7647 54.6657 30.2231 54.4716 30.253 54.0514C30.253 54.051 30.253 54.0506 30.2531 54.0501L32.0038 32.1228L32.0469 31.583H31.5054H16.9174C16.5806 31.583 16.3828 31.2041 16.5756 30.9277L16.5756 30.9276L37.6609 0.679268L37.6613 0.678681C37.7356 0.571847 37.8535 0.506841 37.9789 0.500695Z" stroke="#529696"/>
<path d="M7.68604 44.4161L7.72914 43.8763H7.18763H0.56844L10.1024 30.1991L9.31202 40.0893L9.26888 40.6292H9.81043H16.4296L6.89654 54.3042L7.68604 44.4161ZM16.5117 40.5114C16.5117 40.5113 16.5117 40.5113 16.5118 40.5112L16.5117 40.5114L16.5117 40.5114Z" stroke="#529696"/>
<path d="M60.686 14.9131L60.7291 14.3734H60.1876H53.5684L63.1024 0.696151L62.312 10.5864L62.2689 11.1262H62.8104H69.4296L59.8965 24.8013L60.686 14.9131ZM69.5117 11.0085C69.5117 11.0084 69.5117 11.0084 69.5118 11.0083L69.5117 11.0084L69.5117 11.0085Z" stroke="#529696"/>
</g>

</svg>
