<svg width="55" height="56" viewBox="0 0 55 56" fill="none" xmlns="http://www.w3.org/2000/svg">
	<defs xmlns="http://www.w3.org/2000/svg">
        <style>
            g {
                display: none;
            }
            g:target, g:target * {
                display: inline;
            }
        </style>
    </defs>

<g id="colored">
	<path d="M11.8986 0H2.74609V2.74576H13.2715L11.8986 0Z" fill="#FFA62B"/>
<path d="M40.2695 21.0508H42.1V22.8813H40.2695V21.0508Z" fill="#FFA62B"/>
<path d="M40.2695 13.7285H42.1V15.559H40.2695V13.7285Z" fill="#FFA62B"/>
<path d="M40.2695 17.3896H42.1V19.2202H40.2695V17.3896Z" fill="#FFA62B"/>
<path d="M40.2695 24.7119H42.1V26.5424H40.2695V24.7119Z" fill="#FFA62B"/>
<path d="M36.6104 21.0508H38.4409V22.8813H36.6104V21.0508Z" fill="#FFA62B"/>
<path d="M36.6104 17.3896H38.4409V19.2202H36.6104V17.3896Z" fill="#FFA62B"/>
<path d="M38.4401 12.6953C37.9477 13.6353 37.48 14.5871 37.0508 15.5591H38.4401V12.6953Z" fill="#FFA62B"/>
<path d="M40.2695 28.373H42.1V30.2036H40.2695V28.373Z" fill="#FFA62B"/>
<path d="M43.9336 12.6953V15.5591H45.323C44.8937 14.5871 44.426 13.6344 43.9336 12.6953Z" fill="#FFA62B"/>
<path d="M47.5928 21.8887V26.5427H48.6709C48.3909 24.9749 48.0275 23.4226 47.5928 21.8887Z" fill="#FFA62B"/>
<path d="M42.1 10.2844C41.8145 10.1553 41.5079 10.0684 41.1848 10.0684C40.8617 10.0684 40.5551 10.1553 40.2695 10.2844V11.8989H42.1V10.2844Z" fill="#FFA62B"/>
<path d="M48.9693 28.373H47.5928V30.2036H49.1743C49.1139 29.5922 49.0535 28.9817 48.9693 28.373Z" fill="#FFA62B"/>
<path d="M14.6436 33.8647C14.6436 34.8742 15.4645 35.6952 16.4741 35.6952H51.2537C52.2632 35.6952 53.0842 34.8742 53.0842 33.8647C53.0842 32.8552 52.2632 32.0342 51.2537 32.0342H16.4741C15.4645 32.0342 14.6436 32.8552 14.6436 33.8647Z" fill="#529696"/>
<path d="M36.6104 24.7119H38.4409V26.5424H36.6104V24.7119Z" fill="#FFA62B"/>
<path d="M43.9336 17.3896H45.7641V19.2202H43.9336V17.3896Z" fill="#FFA62B"/>
<path d="M43.9336 28.373H45.7641V30.2036H43.9336V28.373Z" fill="#FFA62B"/>
<path d="M43.9336 24.7119H45.7641V26.5424H43.9336V24.7119Z" fill="#FFA62B"/>
<path d="M43.9336 21.0508H45.7641V22.8813H43.9336V21.0508Z" fill="#FFA62B"/>
<path d="M0 4.57617H29.2881V6.40668H0V4.57617Z" fill="#FFA62B"/>
<path d="M16.3849 24.7119L0 24.7119V26.5424L16.0417 26.5424C16.0985 25.9136 16.2174 25.3023 16.3849 24.7119Z" fill="#FFA62B"/>
<path d="M0 46.6782L12.5776 46.6782C12.6096 46.5638 12.6252 46.4466 12.6627 46.334L13.1578 44.8477L0 44.8477V46.6782Z" fill="#FFA62B"/>
<path d="M12.8151 33.8646C12.8151 31.8455 14.457 30.2036 16.4761 30.2036H16.866C16.6967 29.6059 16.5777 28.9954 16.5219 28.373H1.83203V43.0171H14.2914L16.1338 37.4908C14.2767 37.3151 12.8151 35.7656 12.8151 33.8646Z" fill="#FFA62B"/>
<path d="M18.0502 37.5254H49.6814L52.8097 46.9132C52.9928 47.4623 53.0861 48.0353 53.0861 48.6155C53.0861 51.5846 50.6708 54 47.7017 54H20.0299C17.0608 54 14.6454 51.5846 14.6445 48.6155C14.6445 48.0353 14.7379 47.4632 14.9209 46.9132L18.0502 37.5254Z" fill="#529696"/>
<path d="M34.7774 21.8887C34.3426 23.4226 33.9793 24.9749 33.6992 26.5427H34.7774V21.8887Z" fill="#FFA62B"/>
<path d="M26.5439 17.3898C26.8523 17.3898 27.1562 17.4146 27.4591 17.442V8.2373H1.83203V22.8814H17.5872C19.2576 19.6267 22.6413 17.3898 26.5439 17.3898Z" fill="#FFA62B"/>
<path d="M36.6104 28.373H38.4409V30.2036H36.6104V28.373Z" fill="#FFA62B"/>
<path d="M34.7778 28.373H33.4012C33.317 28.9817 33.2566 29.5922 33.1953 30.2036H34.7778V28.373Z" fill="#FFA62B"/>
<path d="M18.7834 30.2037C18.4722 29.3251 18.3057 28.4053 18.3057 27.458C18.3057 22.9165 22.0005 19.2207 26.543 19.2207C28.9867 19.2207 31.2428 20.2842 32.8124 22.1358C32.1059 24.7827 31.618 27.4836 31.3581 30.2037H18.7834Z" fill="#529696"/>
</g>


<g id="outline">
<path d="M12.8986 1H3.74603V3.74576H14.2715L12.8986 1Z" stroke="#529696"/>
<path d="M41.7695 22.5508H42.6V23.3813H41.7695V22.5508Z" stroke="#529696"/>
<path d="M41.7695 15.2285H42.6V16.059H41.7695V15.2285Z" stroke="#529696"/>
<path d="M41.7695 18.8896H42.6V19.7202H41.7695V18.8896Z" stroke="#529696"/>
<path d="M41.7695 26.2119H42.6V27.0424H41.7695V26.2119Z" stroke="#529696"/>
<path d="M38.1101 22.5508H38.9406V23.3813H38.1101V22.5508Z" stroke="#529696"/>
<path d="M38.1101 18.8896H38.9406V19.7202H38.1101V18.8896Z" stroke="#529696"/>
<path d="M38.9392 16.0591H38.8254C38.863 15.9781 38.901 15.8971 38.9392 15.8162V16.0591Z" stroke="#529696"/>
<path d="M41.7695 29.873H42.6V30.7036H41.7695V29.873Z" stroke="#529696"/>
<path d="M45.5464 16.0591H45.4326V15.816C45.4708 15.8969 45.5087 15.978 45.5464 16.0591Z" stroke="#529696"/>
<mask id="path-11-inside-1" fill="white">
<path d="M48.5918 22.8887V27.5427H49.67C49.3899 25.9749 49.0265 24.4226 48.5918 22.8887Z"/>
</mask>
<path d="M48.5918 22.8887L49.5539 22.616L47.5918 22.8887H48.5918ZM48.5918 27.5427H47.5918V28.5427H48.5918V27.5427ZM49.67 27.5427V28.5427H50.8644L50.6544 27.3669L49.67 27.5427ZM47.5918 22.8887V27.5427H49.5918V22.8887H47.5918ZM48.5918 28.5427H49.67V26.5427H48.5918V28.5427ZM50.6544 27.3669C50.3681 25.7642 49.997 24.1796 49.5539 22.616L47.6297 23.1613C48.056 24.6657 48.4117 26.1856 48.6856 27.7186L50.6544 27.3669Z" fill="#529696" mask="url(#path-11-inside-1)"/>
<path d="M42.1848 11.5674C42.322 11.5674 42.4602 11.5892 42.6 11.6294V12.3979H41.7695V11.6294C41.9094 11.5892 42.0476 11.5674 42.1848 11.5674Z" stroke="#529696"/>
<path d="M49.0918 30.7036V29.873H49.529C49.5625 30.1484 49.5923 30.425 49.6208 30.7036H49.0918Z" stroke="#529696"/>
<path d="M15.6426 34.8647C15.6426 35.8742 16.4636 36.6952 17.4731 36.6952H52.2527C53.2623 36.6952 54.0833 35.8742 54.0833 34.8647C54.0833 33.8552 53.2623 33.0342 52.2527 33.0342H17.4731C16.4636 33.0342 15.6426 33.8552 15.6426 34.8647Z" stroke="#529696"/>
<path d="M38.1101 26.2119H38.9406V27.0424H38.1101V26.2119Z" stroke="#529696"/>
<path d="M45.4326 18.8896H46.2631V19.7202H45.4326V18.8896Z" stroke="#529696"/>
<path d="M45.4326 29.873H46.2631V30.7036H45.4326V29.873Z" stroke="#529696"/>
<path d="M45.4326 26.2119H46.2631V27.0424H45.4326V26.2119Z" stroke="#529696"/>
<path d="M45.4326 22.5508H46.2631V23.3813H45.4326V22.5508Z" stroke="#529696"/>
<path d="M1 5.07617H0.5V5.57617V7.40668V7.90668H1H30.2881H30.7881V7.40668V5.57617V5.07617H30.2881H1Z" stroke="#529696"/>
<path d="M17.866 25.8484L18.0465 25.2119L17.3849 25.2119L1 25.2119L0.5 25.2119V25.7119V27.5424V28.0424H1L17.0417 28.0424H17.4986L17.5397 27.5874C17.5934 26.9921 17.7062 26.4113 17.866 25.8484Z" stroke="#529696"/>
<path d="M0.5 47.6782V48.1782L1 48.1782L13.5776 48.1782H13.9568L14.059 47.813C14.0772 47.7483 14.0914 47.6823 14.1018 47.634C14.1035 47.6262 14.1051 47.6188 14.1066 47.612C14.1188 47.5558 14.1274 47.521 14.137 47.4921L14.1371 47.4921L14.6322 46.0057L14.8514 45.3477L14.1578 45.3477L1 45.3477L0.5 45.3477V45.8477V47.6782Z" stroke="#529696"/>
<path d="M13.8122 34.8646C13.8122 32.8455 15.4541 31.2036 17.4732 31.2036H17.8631C17.6937 30.6059 17.5748 29.9954 17.5189 29.373H2.8291V44.0171H15.2885L17.1309 38.4908C15.2738 38.3151 13.8122 36.7656 13.8122 34.8646V34.8646Z" stroke="#529696"/>
<path d="M19.0473 38.5254H50.6784L53.8068 47.9132C53.9898 48.4623 54.0832 49.0353 54.0832 49.6155C54.0832 52.5846 51.6678 55 48.6988 55H21.027C18.0579 55 15.6425 52.5846 15.6416 49.6155C15.6416 49.0353 15.735 48.4632 15.918 47.9132L19.0473 38.5254Z" stroke="#529696"/>
<mask id="path-26-inside-2" fill="white">
<path d="M35.7793 22.8887C35.3445 24.4226 34.9812 25.9749 34.7011 27.5427H35.7793V22.8887Z"/>
</mask>
<path d="M35.7793 22.8887H36.7793L34.8172 22.616L35.7793 22.8887ZM34.7011 27.5427L33.7167 27.3669L33.5066 28.5427H34.7011V27.5427ZM35.7793 27.5427V28.5427H36.7793V27.5427H35.7793ZM34.8172 22.616C34.374 24.1796 34.003 25.7642 33.7167 27.3669L35.6855 27.7186C35.9594 26.1856 36.315 24.6657 36.7414 23.1613L34.8172 22.616ZM34.7011 28.5427H35.7793V26.5427H34.7011V28.5427ZM36.7793 27.5427V22.8887H34.7793V27.5427H36.7793Z" fill="#529696" mask="url(#path-26-inside-2)"/>
<path d="M27.541 18.3898C27.8494 18.3898 28.1533 18.4146 28.4562 18.442V9.2373H2.8291V23.8814H18.5843C20.2546 20.6267 23.6383 18.3898 27.541 18.3898Z" stroke="#529696"/>
<path d="M38.1101 29.873H38.9406V30.7036H38.1101V29.873Z" stroke="#529696"/>
<path d="M34.7484 30.7036C34.7772 30.4249 34.8071 30.1484 34.8406 29.873H35.2778V30.7036H34.7484Z" stroke="#529696"/>
<path d="M19.7833 31.2037C19.4721 30.3251 19.3055 29.4053 19.3055 28.458C19.3055 23.9165 23.0004 20.2207 27.5428 20.2207C29.9866 20.2207 32.2427 21.2842 33.8123 23.1358C33.1057 25.7827 32.6179 28.4836 32.358 31.2037H19.7833Z" stroke="#529696"/>
</g>

</svg>
