<svg width="70" height="55" viewBox="0 0 70 55" fill="none" xmlns="http://www.w3.org/2000/svg">

	<defs xmlns="http://www.w3.org/2000/svg">
        <style>
            g {
                display: none;
            }
            g:target, g:target * {
                display: inline;
            }
        </style>
    </defs>

<g id="colored">
	<path d="M45.2162 1.63453C44.9011 0.646532 44.1383 0 43.2912 0H26.708C25.8609 0 25.0981 0.646532 24.783 1.63453L18.1496 22.4344C17.6058 24.1394 18.6081 26 20.0742 26H49.925C51.3891 26 52.3941 24.1417 51.8496 22.4344L45.2162 1.63453Z" fill="#529696"/>
<path d="M26.9262 31.5717C26.6145 30.6217 25.8598 30 25.0217 30H8.61548C7.77739 30 7.0227 30.6217 6.71098 31.5717L0.148341 51.5715C-0.389647 53.211 0.602111 55 2.05242 55H31.5848C33.0333 55 34.0275 53.2132 33.4889 51.5715L26.9262 31.5717Z" fill="#FFA62B"/>
<path d="M63.2885 31.5717C62.9768 30.6217 62.2221 30 61.3841 30H44.9778C44.1397 30 43.385 30.6217 43.0733 31.5717L36.5107 51.5715C35.9727 53.211 36.9643 55 38.4147 55H67.9471C69.3956 55 70.3899 53.2132 69.8512 51.5715L63.2885 31.5717Z" fill="#FFA62B"/>
</g>

<g id="outline">
	<path d="M25.2595 1.78645L25.2595 1.78645C25.5276 0.945819 26.1356 0.5 26.7081 0.5H43.2913C43.8638 0.5 44.4719 0.945819 44.74 1.78645L51.3733 22.5863C51.6034 23.3076 51.5038 24.0586 51.2007 24.6198C50.8964 25.1833 50.4255 25.5 49.9251 25.5H20.0743C19.5731 25.5 19.1024 25.1829 18.7984 24.6192C18.4955 24.0577 18.3963 23.3066 18.6261 22.5863L25.2595 1.78645Z" stroke="#529696"/>
<path d="M7.18606 31.7276L7.18606 31.7276C7.44722 30.9316 8.04291 30.5 8.61548 30.5H25.0217C25.5943 30.5 26.19 30.9316 26.4512 31.7276L26.9262 31.5717L26.4512 31.7276L33.0138 51.7274C33.2385 52.4122 33.1414 53.1251 32.845 53.6585C32.548 54.193 32.0847 54.5 31.5848 54.5H2.05242C1.55178 54.5 1.08874 54.1927 0.791947 53.6579C0.495688 53.1241 0.399028 52.4112 0.623418 51.7274L0.148341 51.5715L0.623419 51.7274L7.18606 31.7276Z" stroke="#529696"/>
<path d="M43.5484 31.7276L43.5484 31.7276C43.8095 30.9316 44.4052 30.5 44.9778 30.5H61.3841C61.9566 30.5 62.5523 30.9316 62.8135 31.7276L63.2885 31.5717L62.8135 31.7276L69.3761 51.7274C69.6008 52.4122 69.5037 53.1251 69.2073 53.6585C68.9103 54.193 68.447 54.5 67.9471 54.5H38.4147C37.914 54.5 37.451 54.1926 37.1542 53.6579C36.858 53.1242 36.7613 52.4112 36.9857 51.7274L36.5112 51.5717L36.9857 51.7274L43.5484 31.7276Z" stroke="#529696"/>
</g>


</svg>
