<svg width="20" height="23" viewBox="0 0 20 23" fill="none" xmlns="http://www.w3.org/2000/svg">
<path d="M6.90918 6.13576H7.15918V5.88576V3.65748C7.15918 3.64919 7.16221 3.64336 7.1658 3.63967C7.16927 3.63611 7.17181 3.63574 7.17357 3.63574C7.17533 3.63574 7.17788 3.63611 7.18135 3.63967C7.18493 3.64336 7.18797 3.64919 7.18797 3.65748V5.88576V6.13576H7.43797H8.28404C8.60682 6.13576 8.88011 6.40665 8.88011 6.75533V17.4076C8.88011 17.7562 8.60682 18.0271 8.28404 18.0271H7.43797H7.18797V18.2771V20.5054C7.18797 20.5137 7.18493 20.5195 7.18135 20.5232C7.17788 20.5268 7.17533 20.5271 7.17357 20.5271C7.17181 20.5271 7.16927 20.5268 7.1658 20.5232C7.16221 20.5195 7.15918 20.5137 7.15918 20.5054V18.2771V18.0271H6.90918H6.06311C5.74032 18.0271 5.46704 17.7562 5.46704 17.4076V6.75533C5.46704 6.40665 5.74032 6.13576 6.06311 6.13576H6.90918Z" stroke="#161616" stroke-width="0.5"/>
<path d="M1.69214 9.71217H1.94214V9.46217V7.1851C1.94214 7.17346 1.94645 7.16553 1.95063 7.16113C1.95271 7.15896 1.95438 7.15803 1.95511 7.1577C1.95563 7.15747 1.9559 7.15741 1.95653 7.15741C1.95717 7.15741 1.95744 7.15747 1.95795 7.1577C1.95868 7.15803 1.96036 7.15896 1.96243 7.16113C1.96662 7.16553 1.97093 7.17346 1.97093 7.1851V9.46217V9.71217H2.22093H3.067C3.38478 9.71217 3.66306 9.98638 3.66306 10.3508V18.6815C3.66306 19.0459 3.38478 19.3201 3.067 19.3201H2.22093H1.97093V19.5701V21.8472C1.97093 21.8588 1.96662 21.8668 1.96243 21.8712C1.96036 21.8733 1.95868 21.8743 1.95795 21.8746C1.9578 21.8747 1.95768 21.8747 1.95756 21.8747C1.95725 21.8748 1.95699 21.8749 1.95653 21.8749C1.9559 21.8749 1.95563 21.8748 1.95511 21.8746C1.95438 21.8743 1.95271 21.8733 1.95063 21.8712C1.94645 21.8668 1.94214 21.8588 1.94214 21.8472V19.5701V19.3201H1.69214H0.846068C0.528285 19.3201 0.25 19.0459 0.25 18.6815V10.3508C0.25 9.98638 0.528285 9.71217 0.846068 9.71217H1.69214Z" stroke="#161616" stroke-width="0.5"/>
<path d="M12.315 3.44042H12.565V3.19042V0.923053C12.565 0.920805 12.5655 0.916042 12.5724 0.909578C12.5795 0.902868 12.5918 0.896545 12.6087 0.896545C12.6257 0.896545 12.638 0.902868 12.6451 0.909578C12.652 0.916042 12.6525 0.920805 12.6525 0.923053V3.19042V3.44042H12.9025H13.8426C14.2382 3.44042 14.5327 3.73869 14.5327 4.07524V9.82661C14.5327 10.1632 14.2382 10.4614 13.8426 10.4614H12.9025H12.6525V10.7114V12.9788C12.6525 12.981 12.652 12.9858 12.6451 12.9923C12.638 12.999 12.6257 13.0053 12.6087 13.0053C12.5918 13.0053 12.5795 12.999 12.5724 12.9923C12.5655 12.9858 12.565 12.981 12.565 12.9788V10.7114V10.4614H12.315H11.3749C10.9793 10.4614 10.6848 10.1632 10.6848 9.82661V4.07524C10.6848 3.73869 10.9793 3.44042 11.3749 3.44042H12.315Z" stroke="#161616" stroke-width="0.5"/>
<path d="M17.5325 9.22307H17.7825V8.97307V6.70571C17.7825 6.70346 17.783 6.6987 17.7899 6.69223C17.797 6.68552 17.8093 6.6792 17.8263 6.6792C17.8432 6.6792 17.8555 6.68552 17.8627 6.69223C17.8695 6.6987 17.87 6.70346 17.87 6.70571V8.97307V9.22307H18.12H19.0601C19.4557 9.22307 19.7502 9.52134 19.7502 9.8579V15.6093C19.7502 15.9458 19.4557 16.2441 19.0601 16.2441H18.12H17.87V16.4941V18.7615C17.87 18.7637 17.8695 18.7685 17.8627 18.7749C17.8555 18.7816 17.8432 18.788 17.8263 18.788C17.8093 18.788 17.797 18.7816 17.7899 18.7749C17.783 18.7685 17.7825 18.7637 17.7825 18.7615V16.4941V16.2441H17.5325H16.5924C16.1968 16.2441 15.9023 15.9458 15.9023 15.6093V9.8579C15.9023 9.52134 16.1968 9.22307 16.5924 9.22307H17.5325Z" stroke="#161616" stroke-width="0.5"/>
</svg>
