<svg width="22" height="17" viewBox="0 0 22 17" fill="none" xmlns="http://www.w3.org/2000/svg">
<path d="M9.73088 10.0237H5.8337C5.41992 10.0237 5.17711 9.55831 5.41375 9.21895C5.41377 9.21893 5.41379 9.21891 5.4138 9.21889L11.4378 0.576951C11.4379 0.576935 11.4379 0.576919 11.4379 0.576903L11.4381 0.576659L11.6431 0.719621C11.6893 0.653231 11.7635 0.611568 11.8442 0.607608L9.73088 10.0237ZM9.73088 10.0237L9.25215 16.0195L9.25204 16.021C9.2138 16.5387 9.88149 16.778 10.1808 16.354L10.1817 16.3528L16.2059 7.71101C16.4424 7.37197 16.2003 6.907 15.787 6.90621H15.7865H11.8889L12.3681 0.909883L12.3681 0.909808C12.3926 0.601703 12.1405 0.341949 11.8315 0.35793L9.73088 10.0237Z" stroke="#161616" stroke-width="0.5"/>
<path d="M2.78311 13.5359H1.12166C1.12165 13.5359 1.12165 13.5359 1.12165 13.5359C0.821443 13.5359 0.645283 13.1983 0.816956 12.9521C0.816972 12.952 0.816987 12.952 0.817002 12.952L3.60956 8.94587L2.78311 13.5359ZM2.78311 13.5359L2.57274 16.1708L2.57273 16.1708L2.57262 16.1722C2.54488 16.5478 3.02931 16.7215 3.24649 16.4138L3.24733 16.4126L6.04009 12.4064C6.04011 12.4064 6.04012 12.4064 6.04013 12.4063C6.21166 12.1603 6.03598 11.823 5.73617 11.8225H5.73569H4.07401L4.2846 9.18742L4.2846 9.18735C4.3024 8.96374 4.11933 8.77516 3.89493 8.78695L3.90805 9.03661M2.78311 13.5359L3.82321 11.8225L4.03539 9.16751C4.04121 9.09436 3.98132 9.03276 3.90805 9.03661M3.90805 9.03661C3.87063 9.03844 3.83624 9.05776 3.81485 9.08854L3.60976 8.94558C3.67478 8.8522 3.77992 8.79259 3.8958 8.78691L3.90805 9.03661ZM5.73569 12.0725H4.05403L3.04225 16.2696L5.83505 12.2634C5.89114 12.183 5.83372 12.0727 5.73569 12.0725Z" stroke="#161616" stroke-width="0.5"/>
<path d="M17.9262 5.10672H16.2647C16.2647 5.10672 16.2647 5.10672 16.2647 5.10672C15.9645 5.10673 15.7883 4.76907 15.96 4.52285C15.96 4.52283 15.9601 4.52281 15.9601 4.52279L18.7526 0.516668L17.9262 5.10672ZM17.9262 5.10672L17.7158 7.74155L17.7158 7.74155L17.7157 7.74303C17.6879 8.11862 18.1724 8.29228 18.3896 7.98459L18.3904 7.98339L21.1832 3.97719C21.1832 3.97717 21.1832 3.97716 21.1832 3.97714C21.3547 3.73115 21.179 3.39385 20.8792 3.39327H20.8788H19.2171L19.4277 0.758225L19.4277 0.75815C19.4455 0.534538 19.2624 0.345964 19.038 0.357754L19.0511 0.60741M17.9262 5.10672L18.9663 3.39327L19.1785 0.738309C19.1843 0.665161 19.1244 0.60356 19.0511 0.60741M19.0511 0.60741C19.0137 0.609246 18.9793 0.62856 18.9579 0.659338L18.7528 0.516376C18.8179 0.422999 18.923 0.363395 19.0389 0.35771L19.0511 0.60741ZM20.8788 3.64327H19.1971L18.1853 7.84042L20.9781 3.83417C21.0342 3.75376 20.9768 3.64346 20.8788 3.64327Z" stroke="#161616" stroke-width="0.5"/>
</svg>
