<svg width="20" height="24" viewBox="0 0 20 24" fill="none" xmlns="http://www.w3.org/2000/svg">
<path d="M13.3333 6.20605H14.2856V7.15841H13.3333V6.20605Z" fill="#161616"/>
<path d="M13.3333 2.39667H14.2856V3.34903H13.3333V2.39667Z" fill="#161616"/>
<path d="M13.3333 4.30121H14.2856V5.25357H13.3333V4.30121Z" fill="#161616"/>
<path d="M13.3333 8.11078H14.2856V9.06314H13.3333V8.11078Z" fill="#161616"/>
<path d="M11.428 6.20605H12.3803V7.15841H11.428V6.20605Z" fill="#161616"/>
<path d="M11.428 4.30121H12.3803V5.25357H11.428V4.30121Z" fill="#161616"/>
<path d="M12.3806 1.85913C12.1244 2.34817 11.881 2.84339 11.6577 3.3491H12.3806V1.85913Z" fill="#161616"/>
<path d="M13.3333 10.0155H14.2856V10.9679H13.3333V10.0155Z" fill="#161616"/>
<path d="M15.2378 1.85913V3.3491H15.9606C15.7373 2.84339 15.494 2.34769 15.2378 1.85913Z" fill="#161616"/>
<path d="M17.1426 6.64178V9.06316H17.7035C17.5578 8.24746 17.3688 7.43986 17.1426 6.64178Z" fill="#161616"/>
<path d="M14.2856 0.604322C14.137 0.53718 13.9775 0.491943 13.8094 0.491943C13.6413 0.491943 13.4818 0.53718 13.3333 0.604322V1.4443H14.2856V0.604322Z" fill="#161616"/>
<path d="M17.8588 10.0155H17.1426V10.9679H17.9654C17.934 10.6498 17.9026 10.3322 17.8588 10.0155Z" fill="#161616"/>
<path d="M0.595215 12.8777C0.595215 13.3331 0.983186 13.7034 1.46026 13.7034H17.896C18.3731 13.7034 18.7611 13.3331 18.7611 12.8777C18.7611 12.4223 18.3731 12.052 17.896 12.052H1.46026C0.983186 12.052 0.595215 12.4223 0.595215 12.8777Z" stroke="#161616" stroke-width="0.5"/>
<path d="M11.428 8.11078H12.3803V9.06314H11.428V8.11078Z" fill="#161616"/>
<path d="M15.2378 4.30121H16.1902V5.25357H15.2378V4.30121Z" fill="#161616"/>
<path d="M15.2378 10.0155H16.1902V10.9679H15.2378V10.0155Z" fill="#161616"/>
<path d="M15.2378 8.11078H16.1902V9.06314H15.2378V8.11078Z" fill="#161616"/>
<path d="M15.2378 6.20605H16.1902V7.15841H15.2378V6.20605Z" fill="#161616"/>
<path d="M19.619 19.7404L19.619 19.7404L18.0484 15.0272H1.95205L0.381016 19.7403C0.381003 19.7403 0.38099 19.7403 0.380977 19.7404C0.294189 20.0012 0.250008 20.2721 0.25 20.5469L19.619 19.7404ZM19.619 19.7404C19.7058 20.0007 19.75 20.2721 19.75 20.547M19.619 19.7404L19.75 20.547M19.75 20.547C19.75 21.9537 18.6053 23.0984 17.1986 23.0984M19.75 20.547L17.1986 23.0984M17.1986 23.0984H2.80184M17.1986 23.0984H2.80184M2.80184 23.0984C1.39522 23.0984 0.250476 21.9537 0.25 20.547L2.80184 23.0984Z" stroke="#161616" stroke-width="0.5"/>
<path d="M10.476 6.64178C10.2498 7.43986 10.0607 8.24746 9.91504 9.06316H10.476V6.64178Z" fill="#161616"/>
<path d="M11.428 10.0155H12.3803V10.9679H11.428V10.0155Z" fill="#161616"/>
<path d="M10.4754 10.0155H9.75924C9.71543 10.3322 9.684 10.6498 9.6521 10.9679H10.4754V10.0155Z" fill="#161616"/>
<path d="M8.46909 10.7179H2.33363C2.21643 10.3374 2.15454 9.94322 2.15454 9.53934C2.15454 7.31459 3.96497 5.50372 6.19015 5.50372C7.34372 5.50372 8.41136 5.98695 9.17635 6.8349C8.84278 8.11046 8.60579 9.40945 8.46909 10.7179Z" stroke="#161616" stroke-width="0.5"/>
</svg>
