<svg width="22" height="17" viewBox="0 0 22 17" fill="none" xmlns="http://www.w3.org/2000/svg">
<path d="M17.7741 4.9592C18.0742 5.13412 18.4206 5.23462 18.7897 5.23462C19.9274 5.23462 20.853 4.28479 20.853 3.11733C20.853 1.94983 19.9274 1 18.7897 1C17.6521 1 16.7265 1.94983 16.7265 3.11733C16.7265 3.44251 16.7985 3.75072 16.9267 4.02631L14.6996 5.7572C14.3704 5.52901 13.9739 5.39565 13.5476 5.39565C13.1315 5.39565 12.7442 5.52309 12.4197 5.74132L10.2362 3.90786C10.3216 3.67582 10.3686 3.42469 10.3686 3.16236C10.3686 1.9949 9.44304 1.04507 8.3054 1.04507C7.16776 1.04507 6.24219 1.9949 6.24219 3.16236C6.24219 3.45827 6.30188 3.74011 6.40919 3.99615L3.55672 7.0756C3.39848 7.03559 3.23329 7.01392 3.0632 7.01392C1.92556 7.01392 1 7.96375 1 9.13121C1 10.2987 1.92556 11.2485 3.0632 11.2485C4.20084 11.2485 5.12641 10.2987 5.12641 9.13121C5.12641 8.60719 4.93953 8.1274 4.63109 7.75727L7.22024 4.96211C7.53572 5.16319 7.90747 5.27969 8.3054 5.27969C8.73864 5.27969 9.1409 5.14164 9.47321 4.9066L11.6345 6.72135C11.538 6.96606 11.4843 7.23312 11.4843 7.51294C11.4843 8.6804 12.4099 9.63022 13.5475 9.63022C14.6852 9.63022 15.6108 8.6804 15.6108 7.51294C15.6108 7.2436 15.561 6.98613 15.4712 6.74898L17.7741 4.9592Z" stroke="#161616" stroke-width="0.5"/>
<path d="M12.7146 12.1774C12.7146 11.485 13.267 10.9291 13.9362 10.9291C14.6053 10.9291 15.1577 11.485 15.1577 12.1773V16.4125H12.7146V12.1774Z" stroke="#161616" stroke-width="0.5"/>
<path d="M7.12183 9.61522C7.12183 8.92291 7.67426 8.367 8.34341 8.367C9.01258 8.367 9.565 8.92293 9.565 9.61522V16.3782H7.12183V9.61522Z" stroke="#161616" stroke-width="0.5"/>
<path d="M1.52954 13.6007C1.52954 12.9084 2.08197 12.3525 2.75113 12.3525C3.42025 12.3525 3.97268 12.9084 3.97268 13.6007V16.4603H1.52954V13.6007Z" stroke="#161616" stroke-width="0.5"/>
<path d="M18.3069 8.47652C18.3069 7.78426 18.8593 7.22833 19.5284 7.22833C20.1976 7.22833 20.75 7.78427 20.75 8.47652V16.4643H18.3069V8.47652Z" stroke="#161616" stroke-width="0.5"/>
</svg>
