<svg width="70" height="55" viewBox="0 0 70 55" fill="none" xmlns="http://www.w3.org/2000/svg">

	<defs xmlns="http://www.w3.org/2000/svg">
        <style>
            g {
                display: none;
            }
            g:target, g:target * {
                display: inline;
            }
        </style>
    </defs>

<g id="colored">
	
<path d="M58.7096 13.8572C59.7599 14.4695 60.9724 14.8212 62.2643 14.8212C66.2462 14.8212 69.4857 11.4968 69.4857 7.41068C69.4857 3.32441 66.2462 0 62.2643 0C58.2826 0 55.0431 3.32441 55.0431 7.41068C55.0431 8.54883 55.2951 9.62754 55.7437 10.5921L47.9486 16.6503C46.7965 15.8516 45.4087 15.3848 43.9167 15.3848C42.4606 15.3848 41.1047 15.8309 39.9692 16.5947L32.3267 10.1775C32.6255 9.36541 32.7902 8.48644 32.7902 7.56829C32.7902 3.48216 29.5507 0.157756 25.569 0.157756C21.5872 0.157756 18.3477 3.48216 18.3477 7.56829C18.3477 8.60398 18.5566 9.59043 18.9322 10.4866L8.94854 21.2647C8.39472 21.1247 7.81655 21.0488 7.22124 21.0488C3.23949 21.0488 0 24.3732 0 28.4593C0 32.5455 3.23949 35.8699 7.22124 35.8699C11.203 35.8699 14.4425 32.5455 14.4425 28.4593C14.4425 26.6253 13.7884 24.946 12.7089 23.6505L21.7709 13.8674C22.8751 14.5712 24.1762 14.979 25.569 14.979C27.0854 14.979 28.4932 14.4958 29.6563 13.6732L37.2209 20.0248C36.8832 20.8813 36.6953 21.816 36.6953 22.7954C36.6953 26.8815 39.9348 30.2059 43.9166 30.2059C47.8983 30.2059 51.1378 26.8815 51.1378 22.7954C51.1378 21.8527 50.9636 20.9515 50.6494 20.1215L58.7096 13.8572Z" fill="#529696"/>
<path fill-rule="evenodd" clip-rule="evenodd" d="M45.2764 33.877C42.4365 33.877 40.126 36.2292 40.126 39.1207V54.8189H50.427V39.1206C50.427 36.2292 48.1164 33.877 45.2764 33.877Z" fill="#FFA62B"/>
<path d="M25.7023 24.9092C22.8623 24.9092 20.5518 27.2615 20.5518 30.153V54.6986H30.8529V30.153C30.8529 27.2616 28.5424 24.9092 25.7023 24.9092Z" fill="#FFA62B"/>
<path d="M6.12908 38.8594C3.28908 38.8594 0.978516 41.2117 0.978516 44.1031V54.9865H11.2795V44.1031C11.2795 41.2117 8.96898 38.8594 6.12908 38.8594Z" fill="#FFA62B"/>
<path d="M64.8497 20.9238C62.0098 20.9238 59.6992 23.2762 59.6992 26.1675V54.9997H70.0002V26.1675C70.0002 23.2762 67.6897 20.9238 64.8497 20.9238Z" fill="#FFA62B"/>
</g>

<g id="outline">
<path d="M58.9614 13.4253L58.6695 13.2551L58.4028 13.4624L50.3426 19.7267L50.0511 19.9532L50.1818 20.2985C50.4752 21.0735 50.6378 21.9147 50.6378 22.7954C50.6378 26.6176 47.6101 29.7059 43.9166 29.7059C40.2231 29.7059 37.1953 26.6176 37.1953 22.7954C37.1953 21.8804 37.3708 21.0078 37.6861 20.2082L37.8181 19.8733L37.5424 19.6419L29.9779 13.2902L29.6825 13.0422L29.3676 13.2649C28.2849 14.0307 26.9771 14.479 25.569 14.479C24.2755 14.479 23.067 14.1006 22.0397 13.4458L21.6877 13.2215L21.4041 13.5277L12.342 23.3107L12.0435 23.6331L12.3247 23.9706C13.3318 25.1791 13.9425 26.7459 13.9425 28.4593C13.9425 32.2816 10.9147 35.3699 7.22124 35.3699C3.52775 35.3699 0.5 32.2816 0.5 28.4593C0.5 24.6371 3.52775 21.5488 7.22124 21.5488C7.77387 21.5488 8.31089 21.6192 8.82598 21.7494L9.11369 21.8222L9.31535 21.6044L19.2991 10.8263L19.5178 10.5902L19.3934 10.2933C19.0429 9.45709 18.8477 8.53625 18.8477 7.56829C18.8477 3.74603 21.8755 0.657756 25.569 0.657756C29.2625 0.657756 32.2902 3.74603 32.2902 7.56829C32.2902 8.42625 32.1364 9.24684 31.8575 10.0049L31.7362 10.3346L32.0052 10.5605L39.6477 16.9776L39.936 17.2196L40.2483 17.0095C41.3051 16.2987 42.5645 15.8848 43.9167 15.8848C45.3026 15.8848 46.5916 16.318 47.6637 17.0612L47.9655 17.2704L48.2554 17.0451L56.0505 10.9869L56.3651 10.7425L56.1971 10.3812C55.7785 9.48129 55.5431 8.47441 55.5431 7.41068C55.5431 3.58827 58.5708 0.5 62.2643 0.5C65.9579 0.5 68.9857 3.58827 68.9857 7.41068C68.9857 11.2329 65.9579 14.3212 62.2643 14.3212C61.0646 14.3212 59.9385 13.9949 58.9614 13.4253Z" stroke="#529696"/>
<path d="M40.626 39.1207C40.626 36.4969 42.7211 34.377 45.2764 34.377C47.8319 34.377 49.927 36.4969 49.927 39.1206V54.3189H40.626V39.1207Z" stroke="#529696"/>
<path d="M21.0518 30.153C21.0518 27.5291 23.1469 25.4092 25.7023 25.4092C28.2579 25.4092 30.3529 27.5292 30.3529 30.153V54.1986H21.0518V30.153Z" stroke="#529696"/>
<path d="M1.47852 44.1031C1.47852 41.4793 3.57363 39.3594 6.12908 39.3594C8.68442 39.3594 10.7795 41.4793 10.7795 44.1031V54.4865H1.47852V44.1031Z" stroke="#529696"/>
<path d="M60.1992 26.1675C60.1992 23.5439 62.2943 21.4238 64.8497 21.4238C67.4051 21.4238 69.5002 23.5439 69.5002 26.1675V54.4997H60.1992V26.1675Z" stroke="#529696"/>
</g>

</svg>
