<svg width="20" height="16" viewBox="0 0 20 16" fill="none" xmlns="http://www.w3.org/2000/svg">
<path d="M7.31911 0.542971L7.31911 0.542969C7.38564 0.334368 7.5262 0.25 7.63094 0.25H12.369C12.4738 0.25 12.6143 0.334368 12.6808 0.542969L12.919 0.467012L12.6808 0.542971L14.5761 6.48581C14.6328 6.66356 14.6077 6.84803 14.5346 6.98335C14.4609 7.11981 14.3577 7.17861 14.2644 7.17861H5.73556C5.64205 7.17861 5.53893 7.11975 5.4653 6.98323C5.39225 6.8478 5.36725 6.66327 5.42385 6.48581L5.18567 6.40985L5.42385 6.48581L7.31911 0.542971Z" stroke="#161616" stroke-width="0.5"/>
<path d="M2.15497 9.09847L2.15497 9.09846C2.21876 8.90407 2.35488 8.82147 2.46158 8.82147H7.14911C7.2558 8.82147 7.39193 8.90407 7.45571 9.09846L9.33076 14.8127C9.3854 14.9793 9.36127 15.152 9.29068 15.279C9.21979 15.4066 9.11904 15.4644 9.02427 15.4644H0.58641C0.491477 15.4644 0.39078 15.4065 0.319952 15.2789C0.249389 15.1518 0.225368 14.979 0.279922 14.8127L0.0427466 14.7349L0.279922 14.8127L2.15497 9.09847Z" stroke="#161616" stroke-width="0.5"/>
<path d="M12.5444 9.09847L12.5444 9.09846C12.6082 8.90407 12.7443 8.82147 12.851 8.82147H17.5385C17.6452 8.82147 17.7813 8.90407 17.8451 9.09846L19.7202 14.8127C19.7748 14.9793 19.7507 15.152 19.6801 15.279C19.6092 15.4066 19.5084 15.4644 19.4137 15.4644H10.9758C10.8809 15.4644 10.7802 15.4065 10.7093 15.2789C10.6388 15.1518 10.6148 14.979 10.6693 14.8127L10.432 14.7349L10.6693 14.8127L12.5444 9.09847Z" stroke="#161616" stroke-width="0.5"/>
</svg>
