<svg width="19" height="24" viewBox="0 0 19 24" fill="none" xmlns="http://www.w3.org/2000/svg">
<path d="M9.78203 5.53846C10.8359 5.53846 12.157 4.8061 12.9437 3.82962C13.6562 2.94469 14.1758 1.70884 14.1758 0.472982C14.1758 0.30515 14.1609 0.137317 14.1313 0C12.9586 0.0457724 11.5484 0.808646 10.7023 1.8309C10.0344 2.60903 9.42578 3.82962 9.42578 5.08074C9.42578 5.26383 9.45547 5.44692 9.47031 5.50795C9.54453 5.5232 9.66328 5.53846 9.78203 5.53846ZM6.07109 24C7.51094 24 8.14922 23.0083 9.94531 23.0083C11.7711 23.0083 12.1719 23.9695 13.775 23.9695C15.3484 23.9695 16.4023 22.4743 17.3969 21.0095C18.5102 19.3312 18.9703 17.6834 19 17.6071C18.8961 17.5766 15.8828 16.3102 15.8828 12.7552C15.8828 9.67324 18.2578 8.28481 18.3914 8.178C16.818 5.85887 14.4281 5.79784 13.775 5.79784C12.0086 5.79784 10.5688 6.89638 9.66328 6.89638C8.68359 6.89638 7.39219 5.85887 5.86328 5.85887C2.95391 5.85887 0 8.33058 0 12.9994C0 15.8983 1.09844 18.965 2.44922 20.9485C3.60703 22.6268 4.61641 24 6.07109 24Z" fill="black"/>
</svg>
