<svg width="60" height="74" viewBox="0 0 60 74" fill="none" xmlns="http://www.w3.org/2000/svg">
<g clip-path="url(#clip0)">
<path d="M30.0013 67.8134C29.5086 67.8134 29.1094 67.414 29.1094 66.9214V61.5922C29.1094 61.0996 29.5087 60.7002 30.0013 60.7002C30.4938 60.7002 30.8933 61.0996 30.8933 61.5922V66.9213C30.8933 67.414 30.4939 67.8134 30.0013 67.8134Z" fill="#4A80AA"/>
<path d="M57.1316 21.7089V59.3345C57.1316 61.6441 55.2597 63.5161 52.9513 63.5161H7.04945C4.74098 63.5161 2.86914 61.6442 2.86914 59.3345V21.7089L32.7203 18.7131L57.1316 21.7089Z" fill="white"/>
<path d="M57.1316 21.7089V24.7559H2.86914V21.7089L32.7203 18.7131L57.1316 21.7089Z" fill="#DDDAEC"/>
<path d="M57.1324 21.7093H2.86988C1.53195 21.7093 0.447266 20.6246 0.447266 19.2867V16.4226C0.447266 15.0847 1.53195 14 2.86988 14H57.1324C58.4703 14 59.555 15.0847 59.555 16.4226V19.2867C59.555 20.6246 58.4703 21.7093 57.1324 21.7093Z" fill="#4A80AA"/>
<path d="M8.84012 21.7089H2.86988C1.53195 21.7089 0.447266 20.6244 0.447266 19.2864V16.4226C0.447266 15.0847 1.53195 14 2.86988 14H8.84012C7.50219 14 6.4175 15.0847 6.4175 16.4226V19.2864C6.4175 20.6244 7.50219 21.7089 8.84012 21.7089Z" fill="#407093"/>
<path d="M7.60903 28.7217H2.86914V24.7554H7.60903C8.70426 24.7554 9.59219 25.6433 9.59219 26.7385C9.59219 27.8339 8.70426 28.7217 7.60903 28.7217Z" fill="#DDDAEC"/>
<path d="M7.60903 36.3067H2.86914V32.3403H7.60903C8.70426 32.3403 9.59219 33.2283 9.59219 34.3235C9.59219 35.4188 8.70426 36.3067 7.60903 36.3067Z" fill="#DDDAEC"/>
<path d="M7.60903 43.8919H2.86914V39.9255H7.60903C8.70426 39.9255 9.59219 40.8135 9.59219 41.9087C9.59219 43.0041 8.70426 43.8919 7.60903 43.8919Z" fill="#DDDAEC"/>
<path d="M7.60903 51.4771H2.86914V47.5107H7.60903C8.70426 47.5107 9.59219 48.3987 9.59219 49.4939C9.59219 50.5893 8.70426 51.4771 7.60903 51.4771Z" fill="#DDDAEC"/>
<path d="M15.027 58.7756V63.5155H11.0605V58.7756C11.0605 57.6804 11.9485 56.7925 13.0437 56.7925C14.1391 56.7925 15.027 57.6804 15.027 58.7756Z" fill="#DDDAEC"/>
<path d="M22.6128 58.7756V63.5155H18.6465V58.7756C18.6465 57.6804 19.5344 56.7925 20.6296 56.7925C21.7249 56.7925 22.6128 57.6804 22.6128 58.7756Z" fill="#DDDAEC"/>
<path d="M30.1968 58.7756V63.5155H26.2305V58.7756C26.2305 57.6804 27.1184 56.7925 28.2136 56.7925C29.3089 56.7925 30.1968 57.6804 30.1968 58.7756Z" fill="#DDDAEC"/>
<path d="M37.7827 58.7756V63.5155H33.8164V58.7756C33.8164 57.6804 34.7043 56.7925 35.7996 56.7925C36.8948 56.7925 37.7827 57.6804 37.7827 58.7756Z" fill="#DDDAEC"/>
<path d="M45.3667 58.7756V63.5155H41.4004V58.7756C41.4004 57.6804 42.2883 56.7925 43.3836 56.7925C44.4788 56.7925 45.3667 57.6804 45.3667 58.7756Z" fill="#DDDAEC"/>
<path d="M52.9527 58.7756V63.5155H48.9863V58.7756C48.9863 57.6804 49.8743 56.7925 50.9695 56.7925C52.0647 56.7925 52.9527 57.6804 52.9527 58.7756Z" fill="#DDDAEC"/>
<path d="M47.953 52.0475L37.7178 48.6242C36.1214 48.0902 35.7017 46.0284 36.9624 44.9128L38.7048 43.3711L34.8352 38.9979L25.4139 44.8698C24.0465 45.7222 22.2533 45.3723 21.3063 44.0689L14.0046 34.0195C13.0079 32.6479 13.312 30.7279 14.6837 29.7312C15.2286 29.3352 15.86 29.1445 16.4858 29.1445C17.4351 29.1445 18.3713 29.5835 18.972 30.4103L24.5929 38.1464L33.7904 32.4139C35.0622 31.6212 36.7205 31.8627 37.7136 32.9849L43.3033 39.3021L45.0462 37.7599C46.3069 36.6444 48.3025 37.312 48.638 38.9617L50.7895 49.5377C51.1249 51.1873 49.5492 52.5814 47.953 52.0475Z" fill="#FFA62B"/>
<path d="M36.9631 44.913L38.7055 43.3713L34.8359 38.9981L37.0007 37.7214L40.8703 42.0946L39.1279 43.6364C37.8672 44.7519 38.287 46.8138 39.8833 47.3478L50.1185 50.7711C50.2934 50.8296 50.468 50.8637 50.6401 50.8781C50.2007 51.8378 49.0828 52.4254 47.9537 52.0477L37.7185 48.6244C36.1221 48.0903 35.7024 46.0285 36.9631 44.913Z" fill="#EC8900"/>
<path d="M16.1692 32.743L23.471 42.7925C24.2948 43.9264 25.7593 44.3382 27.0267 43.8647L25.4139 44.87C24.0464 45.7224 22.2533 45.3725 21.3063 44.0691L14.0046 34.0197C13.0079 32.648 13.312 30.728 14.6837 29.7313C15.1301 29.4069 15.6348 29.2226 16.1465 29.1658C15.4076 30.2104 15.3754 31.6504 16.1692 32.743Z" fill="#EC8900"/>
<path d="M30.0009 74.0002C27.8034 74.0002 26.0156 72.2124 26.0156 70.0149C26.0156 67.8174 27.8034 66.0295 30.0009 66.0295C32.1984 66.0295 33.9862 67.8174 33.9862 70.0149C33.9862 72.2124 32.1984 74.0002 30.0009 74.0002ZM30.0009 67.8135C28.7871 67.8135 27.7996 68.801 27.7996 70.0149C27.7996 71.2287 28.7871 72.2162 30.0009 72.2162C31.2148 72.2162 32.2023 71.2287 32.2023 70.0149C32.2023 68.801 31.2148 67.8135 30.0009 67.8135Z" fill="#FFA62B"/>
</g>
<g clip-path="url(#clip1)">
<path d="M35.5021 0H24.4996C24.4161 0 24.3344 0.0247266 24.265 0.0710156L18.9305 3.6273C18.8129 3.7057 18.7422 3.83777 18.7422 3.97916V14.5434C18.7422 21.5464 23.2234 27.7637 29.867 29.9783C29.9538 30.0072 30.0477 30.0072 30.1345 29.9783C36.7781 27.7637 41.2593 21.5464 41.2593 14.5434V3.97916C41.2593 3.83777 41.1886 3.70576 41.071 3.6273L35.7366 0.0710156C35.6672 0.0247266 35.5855 0 35.5021 0V0Z" fill="white"/>
<path d="M21.6719 14.5434V3.97916C21.6719 3.83777 21.7426 3.70576 21.8603 3.6273L27.1947 0.0710156C27.2641 0.0247266 27.3457 0 27.4292 0H24.4996C24.4161 0 24.3344 0.0247266 24.265 0.0710156L18.9305 3.6273C18.8129 3.7057 18.7422 3.83777 18.7422 3.97916V14.5434C18.7422 21.5464 23.2234 27.7637 29.867 29.9783C29.9538 30.0072 30.0477 30.0072 30.1345 29.9783C30.5887 29.8269 31.0323 29.6561 31.4656 29.4683C25.5617 26.9094 21.6719 21.0677 21.6719 14.5434Z" fill="#D7E4F7"/>
<path d="M30.1551 27.9553C30.056 27.9944 29.9452 27.9944 29.8461 27.9553C24.3031 25.7664 20.6328 20.4174 20.6328 14.4023V4.99094C20.6328 4.84955 20.7035 4.71754 20.8211 4.63908L24.8373 1.96164C24.9068 1.91535 24.9884 1.89062 25.0719 1.89062H34.9294C35.0129 1.89062 35.0945 1.91535 35.1639 1.96164L39.1801 4.63908C39.2978 4.71748 39.3685 4.84955 39.3685 4.99094V14.4023C39.3684 20.4174 35.6981 25.7664 30.1551 27.9553Z" fill="#5EAAA8"/>
<path d="M21.6717 14.5434V4.07227L20.8211 4.63934C20.7035 4.71779 20.6328 4.8498 20.6328 4.99119V14.4025C20.6328 19.0753 22.8481 23.3457 26.4354 26.0453C23.4537 23.0612 21.6717 18.9588 21.6717 14.5434Z" fill="#529696"/>
<path d="M29.0074 17.7512C28.7575 17.7512 28.5168 17.6522 28.3389 17.4743L24.6421 13.7775C24.2729 13.4083 24.2729 12.8097 24.6421 12.4405C25.0113 12.0713 25.6099 12.0713 25.9791 12.4405L28.9144 15.3759L33.9433 8.83597C34.2616 8.42207 34.855 8.34449 35.269 8.66283C35.683 8.98111 35.7605 9.57466 35.4422 9.98857L29.7569 17.3822C29.5911 17.5978 29.3403 17.7316 29.0688 17.7492C29.0483 17.7505 29.0278 17.7512 29.0074 17.7512Z" fill="white"/>
</g>
<defs>
<clipPath id="clip0">
<rect width="60" height="60" fill="white" transform="translate(0 14)"/>
</clipPath>
<clipPath id="clip1">
<rect width="30" height="30" fill="white" transform="translate(15)"/>
</clipPath>
</defs>
</svg>
