<svg width="60" height="60" viewBox="0 0 60 60" fill="none" xmlns="http://www.w3.org/2000/svg">
<path d="M58.1939 58.1937C55.7865 60.6009 51.8846 60.6009 49.4773 58.1937L43.3925 52.1089L37.3935 46.1099L32.1152 40.8316L40.833 32.115L52.1092 43.391L58.1939 49.477C60.6013 51.8844 60.6013 55.7863 58.1939 58.1937Z" fill="#4A80AA"/>
<path d="M59.6232 55.9524C59.3275 56.7724 58.8503 57.5386 58.195 58.194C55.787 60.602 51.8851 60.602 49.4771 58.194L32.1152 40.8322L35.7868 37.1606L53.1486 54.5224C54.8997 56.2733 57.442 56.7523 59.6232 55.9524Z" fill="#407093"/>
<path d="M24.1819 48.3638C37.5372 48.3638 48.3638 37.5372 48.3638 24.1819C48.3638 10.8266 37.5372 0 24.1819 0C10.8266 0 0 10.8266 0 24.1819C0 37.5372 10.8266 48.3638 24.1819 48.3638Z" fill="#FFA62B"/>
<path d="M26.6729 48.2362C25.8554 48.3218 25.0238 48.3645 24.1825 48.3645C10.827 48.3645 0 37.5376 0 24.1821C0 10.8289 10.827 0.00195312 24.1825 0.00195312C25.0238 0.00195312 25.8554 0.0447265 26.6729 0.130273C14.4867 1.37551 4.97859 11.6701 4.97859 24.182C4.97859 36.6963 14.4867 46.991 26.6729 48.2362Z" fill="#F6A433"/>
<path d="M42.7892 24.1815C42.7892 30.365 39.7728 35.8446 35.1309 39.2279C32.6805 41.0141 29.7779 42.2158 26.6264 42.6297C24.1387 42.9599 21.5227 42.7742 19.1145 42.0908C16.9728 41.4849 14.9874 40.5065 13.2339 39.2294C11.5598 38.0092 10.097 36.5163 8.91066 34.816C8.1132 33.6731 7.99062 30.3557 7.46316 29.0451C6.83527 27.4852 5.86285 27.9015 5.67875 26.1656C5.60961 25.5137 5.57422 24.8517 5.57422 24.1815C5.57422 13.905 13.9052 5.57397 24.1817 5.57397C34.4582 5.57397 42.7892 13.905 42.7892 24.1815Z" fill="#F9F6F6"/>
<path d="M26.8441 42.5984C25.9754 42.725 25.0843 42.7896 24.179 42.7896C17.8571 42.7896 12.2717 39.6364 8.90961 34.8164C8.09891 33.6541 8.75094 29.3386 8.21961 28.0033C7.60648 26.4625 5.85992 27.877 5.67863 26.1657C5.60961 25.5139 5.57422 24.8521 5.57422 24.182C5.57422 13.9068 13.9039 5.57715 24.179 5.57715C25.0842 5.57715 25.9754 5.64184 26.8441 5.76828C17.8284 7.05863 10.9014 14.8121 10.9014 24.182C10.9014 33.5547 17.8284 41.3081 26.8441 42.5984Z" fill="#DDDAEC"/>
<path d="M37.3848 46.114L46.1007 37.3981L52.0988 43.3962L43.3829 52.1121L37.3848 46.114Z" fill="#407093"/>
<path d="M46.3275 34.0724L34.0724 46.3275C32.416 47.984 32.416 50.6697 34.0724 52.3262C35.7289 53.9827 38.4146 53.9827 40.0711 52.3262L52.3261 40.0711C53.9826 38.4147 53.9826 35.729 52.3261 34.0724C50.6697 32.416 47.984 32.416 46.3275 34.0724Z" fill="#4A80AA"/>
<path d="M43.2746 47.3658C44.3601 47.3658 45.4456 46.9525 46.2741 46.1239L40.0718 52.3262C39.2434 53.1546 38.1579 53.568 37.0723 53.568C35.9868 53.568 34.9013 53.1547 34.0728 52.3262C32.4158 50.6693 32.4158 47.9841 34.0728 46.3273L40.275 40.125C38.6181 41.7819 38.6181 44.4671 40.275 46.1239C41.1034 46.9525 42.1889 47.3658 43.2746 47.3658Z" fill="#407093"/>
<path d="M47.9438 12.0245L45.2455 25.2866C44.8254 27.3547 42.3227 28.1925 40.7424 26.7932L38.556 24.8592L31.5477 32.7814C30.3018 34.1879 28.2229 34.4909 26.6281 33.4973L15.0948 26.3091L8.91355 34.817C7.16664 32.3142 6.01973 29.3612 5.68164 26.1668L10.9744 18.8819C12.1612 17.2484 14.4104 16.809 16.1247 17.8787L27.938 25.2407L32.7902 19.7572L30.6061 17.8243C29.0246 16.4251 29.551 13.8403 31.5527 13.1702L44.3874 8.87832C46.3888 8.20824 48.3639 9.95644 47.9438 12.0245Z" fill="#B3E59F"/>
<path d="M30.603 17.8234L32.7877 19.7565L27.9355 25.2402L30.6501 26.8411L35.5022 21.3574L33.3175 19.4243C31.7366 18.0255 32.2629 15.4401 34.2647 14.7705L47.099 10.4779C47.3185 10.4045 47.5374 10.3617 47.753 10.3437C47.2021 9.1403 45.8003 8.40354 44.3844 8.87698L31.5502 13.1696C29.5485 13.8392 29.0222 16.4247 30.603 17.8234Z" fill="#95D6A4"/>
<path d="M18.1449 19.1382C16.5561 18.5442 14.7199 19.0609 13.6864 20.4818L6.58754 30.2513C6.13719 28.9498 5.82934 27.5807 5.67969 26.1658L10.9725 18.881C12.1592 17.2475 14.4084 16.808 16.1227 17.8777L18.1449 19.1382Z" fill="#95D6A4"/>
</svg>
