<svg width="60" height="60" viewBox="0 0 60 60" fill="none" xmlns="http://www.w3.org/2000/svg">
<path d="M21.1989 39.2065H17.4676C15.9603 39.2065 14.7383 40.4285 14.7383 41.9359V54.1401H23.9282V41.936C23.9282 40.4285 22.7062 39.2065 21.1989 39.2065Z" fill="#FFA62B"/>
<path d="M35.7651 32.198H32.034C30.5267 32.198 29.3047 33.42 29.3047 34.9273V54.1403H38.4946V34.9273C38.4945 33.42 37.2725 32.198 35.7651 32.198Z" fill="#FFA62B"/>
<path d="M50.3317 17.9783H46.6004C45.0931 17.9783 43.8711 19.2002 43.8711 20.7076V54.1402H53.061V20.7077C53.061 19.2002 51.839 17.9783 50.3317 17.9783Z" fill="#FFA62B"/>
<path d="M20.7866 39.2063C19.2799 39.2063 18.057 40.428 18.057 41.9359V54.1399H14.7383V41.9359C14.7383 40.428 15.9612 39.2063 17.4679 39.2063H20.7866Z" fill="#EE8B01"/>
<path d="M35.353 32.1982C33.8463 32.1982 32.6234 33.42 32.6234 34.9266V54.1399H29.3047V34.9267C29.3047 33.4201 30.5276 32.1984 32.0343 32.1984H35.353V32.1982Z" fill="#EE8B01"/>
<path d="M49.9194 17.978C48.4115 17.978 47.1898 19.1998 47.1898 20.7076V54.1398H43.8711V20.7076C43.8711 19.1998 45.094 17.978 46.6007 17.978H49.9194Z" fill="#EE8B01"/>
<path d="M20.3593 29.4204C20.0121 29.4204 19.6807 29.2195 19.531 28.8815C19.3284 28.4243 19.5348 27.8895 19.992 27.6869L32.5038 22.144C32.9609 21.9415 33.4958 22.1478 33.6985 22.605C33.901 23.0622 33.6946 23.597 33.2374 23.7996L20.7257 29.3425C20.6063 29.3954 20.4818 29.4204 20.3593 29.4204Z" fill="white"/>
<path d="M34.6452 22.5339C34.4394 22.5339 34.2326 22.4641 34.0627 22.3213C33.6802 21.9993 33.6309 21.4282 33.9529 21.0456L47.0251 5.50811C47.3471 5.12554 47.9181 5.07616 48.3008 5.39813C48.6834 5.72011 48.7327 6.29125 48.4107 6.67383L35.3385 22.2113C35.1594 22.4241 34.9032 22.5339 34.6452 22.5339Z" fill="white"/>
<path d="M57.0598 50.4977H9.50233V2.94024C9.50233 1.31638 8.18583 0 6.56197 0C4.93811 0 3.62173 1.31638 3.62173 2.94024V50.4977H2.94024C1.31638 50.4977 0 51.8142 0 53.438C0 55.0619 1.31638 56.3783 2.94024 56.3783H3.62173V57.0598C3.62173 58.6836 4.93811 60 6.56197 60C8.18583 60 9.50221 58.6836 9.50221 57.0598V56.3783H57.0596C58.6836 56.3783 60 55.0619 60 53.438C60 51.8142 58.6836 50.4977 57.0598 50.4977Z" fill="#4A80AA"/>
<path d="M5.91923 57.0598V56.3783H5.23775C3.61388 56.3783 2.2975 55.0619 2.2975 53.438C2.2975 51.8142 3.61388 50.4978 5.23775 50.4978H5.91923V2.94024C5.91923 1.72394 6.65771 0.680282 7.71078 0.232998C7.35779 0.0830583 6.96966 0 6.56197 0C4.93811 0 3.62173 1.31638 3.62173 2.94024V50.4977H2.94024C1.31638 50.4977 0 51.8142 0 53.438C0 55.0619 1.31638 56.3783 2.94024 56.3783H3.62173V57.0598C3.62173 58.6836 4.93811 60 6.56197 60C6.96954 60 7.35779 59.9169 7.71066 59.767C6.65771 59.3196 5.91923 58.2759 5.91923 57.0598Z" fill="#407093"/>
<path d="M19.3329 32.1981C21.1154 32.1981 22.5604 30.7531 22.5604 28.9706C22.5604 27.1881 21.1154 25.7432 19.3329 25.7432C17.5504 25.7432 16.1055 27.1881 16.1055 28.9706C16.1055 30.7531 17.5504 32.1981 19.3329 32.1981Z" fill="#FFA62B"/>
<path d="M20.4354 32.0056C20.0913 32.13 19.7207 32.1976 19.3344 32.1976C17.5525 32.1976 16.1074 30.7525 16.1074 28.9706C16.1074 27.1875 17.5525 25.7424 19.3344 25.7424C19.7207 25.7424 20.0913 25.81 20.4354 25.9344C19.1931 26.3847 18.307 27.5738 18.307 28.9706C18.307 30.3662 19.1931 31.5553 20.4354 32.0056Z" fill="#F08B00"/>
<path d="M33.8993 25.7432C35.6818 25.7432 37.1268 24.2982 37.1268 22.5158C37.1268 20.7333 35.6818 19.2883 33.8993 19.2883C32.1169 19.2883 30.6719 20.7333 30.6719 22.5158C30.6719 24.2982 32.1169 25.7432 33.8993 25.7432Z" fill="#FFA62B"/>
<path d="M34.9998 25.5508C34.6558 25.6751 34.2852 25.7427 33.8988 25.7427C32.1169 25.7427 30.6719 24.2977 30.6719 22.5158C30.6719 20.7327 32.1169 19.2876 33.8988 19.2876C34.2852 19.2876 34.6558 19.3552 34.9998 19.4795C33.7576 19.9299 32.8715 21.119 32.8715 22.5158C32.8715 23.9112 33.7576 25.1003 34.9998 25.5508Z" fill="#F08B00"/>
<path d="M48.4657 8.43121C50.2482 8.43121 51.6932 6.98623 51.6932 5.20376C51.6932 3.4213 50.2482 1.97632 48.4657 1.97632C46.6833 1.97632 45.2383 3.4213 45.2383 5.20376C45.2383 6.98623 46.6833 8.43121 48.4657 8.43121Z" fill="#FFA62B"/>
<path d="M49.5682 8.23876C49.2241 8.36311 48.8535 8.43071 48.4672 8.43071C46.6853 8.43071 45.2402 6.98564 45.2402 5.20375C45.2402 3.42066 46.6853 1.97559 48.4672 1.97559C48.8535 1.97559 49.2241 2.04319 49.5682 2.16754C48.3259 2.61784 47.4398 3.80697 47.4398 5.20375C47.4398 6.59933 48.3259 7.78846 49.5682 8.23876Z" fill="#F08B00"/>
</svg>
