<svg width="60" height="60" viewBox="0 0 60 60" fill="none" xmlns="http://www.w3.org/2000/svg">
<path d="M56.0948 53.1312C55.5947 53.1312 55.1895 52.7258 55.1895 52.2258V5.00109C55.1895 4.50105 55.5948 4.0957 56.0948 4.0957C56.5949 4.0957 57.0002 4.50105 57.0002 5.00109V52.2258C57.0002 52.7258 56.595 53.1312 56.0948 53.1312Z" fill="#529696"/>
<path d="M17.548 54.0503C17.0478 54.0503 16.6426 53.6449 16.6426 53.1449V40.9718C16.6426 40.4718 17.0479 40.0664 17.548 40.0664C18.0481 40.0664 18.4534 40.4718 18.4534 40.9718V53.1449C18.4535 53.6449 18.0481 54.0503 17.548 54.0503Z" fill="#529696"/>
<path d="M30.3976 54.0501C29.8974 54.0501 29.4922 53.6448 29.4922 53.1448V26.9266C29.4922 26.4266 29.8975 26.0212 30.3976 26.0212C30.8976 26.0212 31.303 26.4266 31.303 26.9266V53.1448C31.3031 53.6448 30.8977 54.0501 30.3976 54.0501Z" fill="#529696"/>
<path d="M43.2472 54.0501C42.747 54.0501 42.3418 53.6447 42.3418 53.1447V32.3248C42.3418 31.8248 42.7471 31.4194 43.2472 31.4194C43.7472 31.4194 44.1526 31.8248 44.1526 32.3248V53.1447C44.1527 53.6447 43.7473 54.0501 43.2472 54.0501Z" fill="#529696"/>
<path d="M17.5479 40.9715C17.109 40.9715 16.6684 40.8179 16.3133 40.505C15.5387 39.8227 15.464 38.6417 16.1462 37.8672L28.9955 23.2809C29.5945 22.6011 30.5946 22.4488 31.3686 22.9191L42.4409 29.6478L54.4052 4.20555C54.8445 3.27145 55.9582 2.87055 56.8917 3.30966C57.8258 3.74887 58.2269 4.86216 57.7877 5.79626L44.9383 33.12C44.7126 33.5998 44.2938 33.9612 43.786 34.1143C43.278 34.2672 42.7295 34.1972 42.2764 33.9218L30.7652 26.9265L18.9509 40.3379C18.5816 40.7572 18.0659 40.9715 17.5479 40.9715Z" fill="white"/>
<path d="M17.5485 43.0065C19.7046 43.0065 21.4525 41.2586 21.4525 39.1025C21.4525 36.9464 19.7046 35.1985 17.5485 35.1985C15.3924 35.1985 13.6445 36.9464 13.6445 39.1025C13.6445 41.2586 15.3924 43.0065 17.5485 43.0065Z" fill="#FFA62B"/>
<path d="M18.8798 42.7737C18.4636 42.924 18.0153 43.0058 17.5479 43.0058C15.3925 43.0058 13.6445 41.2579 13.6445 39.1024C13.6445 36.9456 15.3925 35.1975 17.5479 35.1975C18.0153 35.1975 18.4635 35.2793 18.8798 35.4297C17.3771 35.9743 16.3053 37.4128 16.3053 39.1023C16.3053 40.7906 17.3772 42.229 18.8798 42.7737Z" fill="#ED8B03"/>
<path d="M30.3981 28.4203C32.5542 28.4203 34.3021 26.6724 34.3021 24.5163C34.3021 22.3602 32.5542 20.6123 30.3981 20.6123C28.242 20.6123 26.4941 22.3602 26.4941 24.5163C26.4941 26.6724 28.242 28.4203 30.3981 28.4203Z" fill="#FFA62B"/>
<path d="M31.7294 28.1875C31.3132 28.3379 30.8649 28.4197 30.3975 28.4197C28.2421 28.4197 26.4941 26.6717 26.4941 24.5163C26.4941 22.3594 28.2421 20.6113 30.3975 20.6113C30.8649 20.6113 31.3131 20.6931 31.7294 20.8435C30.2267 21.3882 29.1549 22.8266 29.1549 24.5161C29.1549 26.2043 30.2268 27.6428 31.7294 28.1875Z" fill="#ED8B03"/>
<path d="M43.2477 36.2289C45.4038 36.2289 47.1517 34.481 47.1517 32.3249C47.1517 30.1688 45.4038 28.4209 43.2477 28.4209C41.0916 28.4209 39.3438 30.1688 39.3438 32.3249C39.3438 34.481 41.0916 36.2289 43.2477 36.2289Z" fill="#FFA62B"/>
<path d="M44.5809 35.9961C44.1648 36.1465 43.7164 36.2283 43.2491 36.2283C41.0937 36.2283 39.3457 34.4803 39.3457 32.3249C39.3457 30.168 41.0937 28.4199 43.2491 28.4199C43.7164 28.4199 44.1647 28.5017 44.5809 28.6521C43.0782 29.1968 42.0064 30.6352 42.0064 32.3247C42.0063 34.0129 43.0782 35.4514 44.5809 35.9961Z" fill="#ED8B03"/>
<path d="M56.0954 8.90489C58.2515 8.90489 59.9994 7.15702 59.9994 5.00091C59.9994 2.8448 58.2515 1.09692 56.0954 1.09692C53.9393 1.09692 52.1914 2.8448 52.1914 5.00091C52.1914 7.15702 53.9393 8.90489 56.0954 8.90489Z" fill="#FFA62B"/>
<path d="M57.4266 8.67212C57.0105 8.82247 56.5622 8.90427 56.0948 8.90427C53.9394 8.90427 52.1914 7.1563 52.1914 5.00087C52.1914 2.84403 53.9394 1.09595 56.0948 1.09595C56.5622 1.09595 57.0104 1.17774 57.4266 1.3281C55.9239 1.87278 54.8522 3.31126 54.8522 5.00075C54.852 6.68907 55.9239 8.12743 57.4266 8.67212Z" fill="#ED8B03"/>
<path d="M57.0598 50.4977H9.50227V2.94023C9.50227 1.31637 8.1859 0 6.56203 0C4.93816 0 3.6218 1.31637 3.6218 2.94023V50.4976H2.94023C1.31637 50.4976 0 51.814 0 53.4379C0 55.0617 1.31637 56.3781 2.94023 56.3781H3.62168V57.0595C3.62168 58.6834 4.93805 59.9998 6.56191 59.9998C8.18578 59.9998 9.50215 58.6834 9.50215 57.0595V56.3781H57.0598C58.6836 56.3781 60 55.0617 60 53.4379C60 51.8141 58.6836 50.4977 57.0598 50.4977Z" fill="#4A80AA"/>
<path d="M5.91926 57.0598V56.3783H5.23781C3.61395 56.3783 2.29758 55.062 2.29758 53.4381C2.29758 51.8142 3.61395 50.4979 5.23781 50.4979H5.91926V2.94023C5.91926 1.72395 6.65777 0.680273 7.71082 0.232969C7.35785 0.0830859 6.96961 0 6.56203 0C4.93816 0 3.6218 1.31637 3.6218 2.94023V50.4976H2.94023C1.31637 50.4976 0 51.814 0 53.4379C0 55.0617 1.31637 56.3781 2.94023 56.3781H3.62168V57.0595C3.62168 58.6834 4.93805 59.9998 6.56191 59.9998C6.96949 59.9998 7.35773 59.9167 7.7107 59.7668C6.65777 59.3196 5.91926 58.2759 5.91926 57.0598Z" fill="#407093"/>
</svg>
