<svg width="60" height="60" viewBox="0 0 60 60" fill="none" xmlns="http://www.w3.org/2000/svg">
<path d="M18.9113 48.1366C18.4111 48.1366 18.0059 47.7312 18.0059 47.2312V18.1739C18.0059 17.6739 18.4112 17.2686 18.9113 17.2686C19.4113 17.2686 19.8166 17.6739 19.8166 18.1739V47.2311C19.8168 47.7312 19.4114 48.1366 18.9113 48.1366Z" fill="white"/>
<path d="M30.0011 36.3307C29.5009 36.3307 29.0957 35.9254 29.0957 35.4254V12.6603C29.0957 12.1602 29.5011 11.7549 30.0011 11.7549C30.5011 11.7549 30.9065 12.1602 30.9065 12.6603V35.4252C30.9065 35.9253 30.5012 36.3307 30.0011 36.3307Z" fill="white"/>
<path d="M41.6241 38.0571C41.124 38.0571 40.7188 37.6518 40.7188 37.1517V15.4164C40.7188 14.9163 41.1241 14.511 41.6241 14.511C42.1242 14.511 42.5295 14.9163 42.5295 15.4164V37.1516C42.5295 37.6517 42.1243 38.0571 41.6241 38.0571Z" fill="white"/>
<path d="M53.0538 28.095C52.5537 28.095 52.1484 27.6896 52.1484 27.1896V0.905391C52.1484 0.405352 52.5538 0 53.0538 0C53.554 0 53.9592 0.405352 53.9592 0.905391V27.1895C53.9593 27.6896 53.554 28.095 53.0538 28.095Z" fill="white"/>
<path d="M57.0598 50.4977H9.50227V2.94023C9.50227 1.31637 8.1859 0 6.56203 0C4.93816 0 3.6218 1.31637 3.6218 2.94023V50.4976H2.94023C1.31637 50.4976 0 51.814 0 53.4379C0 55.0617 1.31637 56.3781 2.94023 56.3781H3.62168V57.0595C3.62168 58.6834 4.93805 59.9998 6.56191 59.9998C8.18578 59.9998 9.50215 58.6834 9.50215 57.0595V56.3781H57.0598C58.6836 56.3781 60 55.0617 60 53.4379C60 51.8141 58.6836 50.4977 57.0598 50.4977Z" fill="#4A80AA"/>
<path d="M5.91926 57.0598V56.3783H5.23781C3.61395 56.3783 2.29758 55.062 2.29758 53.4381C2.29758 51.8142 3.61395 50.4979 5.23781 50.4979H5.91926V2.94023C5.91926 1.72395 6.65777 0.680273 7.71082 0.232969C7.35785 0.0830859 6.96961 0 6.56203 0C4.93816 0 3.6218 1.31637 3.6218 2.94023V50.4976H2.94023C1.31637 50.4976 0 51.814 0 53.4379C0 55.0617 1.31637 56.3781 2.94023 56.3781H3.62168V57.0595C3.62168 58.6834 4.93805 59.9998 6.56191 59.9998C6.96949 59.9998 7.35773 59.9167 7.7107 59.7668C6.65777 59.3196 5.91926 58.2759 5.91926 57.0598Z" fill="#407093"/>
<path d="M20.8198 29.9373H17.0001C15.8156 29.9373 14.8555 30.8975 14.8555 32.0819V42.2204C14.8555 43.4049 15.8157 44.365 17.0001 44.365H20.8198C22.0044 44.365 22.9645 43.4048 22.9645 42.2204V32.0819C22.9646 30.8975 22.0044 29.9373 20.8198 29.9373Z" fill="#FFA62B"/>
<path d="M31.9097 24.2249H28.09C26.9054 24.2249 25.9453 25.1851 25.9453 26.3695V27.7925C25.9453 28.977 26.9055 29.9372 28.09 29.9372H31.9097C33.0942 29.9372 34.0543 28.9769 34.0543 27.7925V26.3695C34.0545 25.1851 33.0942 24.2249 31.9097 24.2249Z" fill="#FFA62B"/>
<path d="M43.5327 18.1738H39.713C38.5285 18.1738 37.5684 19.1341 37.5684 20.3185V22.08C37.5684 23.2646 38.5286 24.2247 39.713 24.2247H43.5327C44.7173 24.2247 45.6774 23.2645 45.6774 22.08V20.3185C45.6774 19.1339 44.7171 18.1738 43.5327 18.1738Z" fill="#FFA62B"/>
<path d="M54.9624 1.88672H51.1427C49.9582 1.88672 48.998 2.84695 48.998 4.03137V16.029C48.998 17.2136 49.9583 18.1737 51.1427 18.1737H54.9624C56.147 18.1737 57.1071 17.2134 57.1071 16.029V4.03148C57.1072 2.84695 56.147 1.88672 54.9624 1.88672Z" fill="#FFA62B"/>
<path d="M20.2313 44.3645H17.0007C15.8152 44.3645 14.8555 43.4048 14.8555 42.2205V32.082C14.8555 30.8965 15.8152 29.9368 17.0007 29.9368H20.2313C19.047 29.9368 18.0861 30.8965 18.0861 32.082V42.2205C18.0861 43.4048 19.047 44.3645 20.2313 44.3645Z" fill="#F38D00"/>
<path d="M31.3212 29.9368H28.0905C26.9062 29.9368 25.9453 28.977 25.9453 27.7927V26.3694C25.9453 25.1851 26.9062 24.2241 28.0905 24.2241H31.3212C30.1369 24.2241 29.1771 25.1851 29.1771 26.3694V27.7927C29.177 28.977 30.1369 29.9368 31.3212 29.9368Z" fill="#F38D00"/>
<path d="M42.9423 24.2242H39.7116C38.5273 24.2242 37.5664 23.2644 37.5664 22.0801V20.3188C37.5664 19.1333 38.5273 18.1736 39.7116 18.1736H42.9423C41.758 18.1736 40.7982 19.1333 40.7982 20.3188V22.0801C40.7982 23.2644 41.758 24.2242 42.9423 24.2242Z" fill="#F38D00"/>
<path d="M54.3739 18.1732H51.1433C49.9578 18.1732 48.998 17.2134 48.998 16.0279V4.03029C48.998 2.846 49.9578 1.88623 51.1433 1.88623H54.3739C53.1896 1.88623 52.2287 2.846 52.2287 4.03029V16.0278C52.2287 17.2134 53.1896 18.1732 54.3739 18.1732Z" fill="#F38D00"/>
</svg>
