<svg width="54" height="70" viewBox="0 0 54 70" fill="none" xmlns="http://www.w3.org/2000/svg">
<path d="M49.3465 52.955L36.3313 48.222L26.998 51.3333L17.6648 48.2222L4.64957 52.9552C2.19062 53.8493 0.553711 56.1862 0.553711 58.8026V68.4444C0.553711 69.3034 1.25011 70 2.10925 70H51.8868C52.746 70 53.4424 69.3034 53.4424 68.4444V58.8026C53.4424 56.186 51.8057 53.8491 49.3465 52.955Z" fill="#A3D2CA"/>
<path d="M25.3712 54.4442L23.8896 69.9994H30.1118L28.6303 54.4442H25.3712Z" fill="#353535"/>
<path d="M28.6326 56.5814H25.3663C24.7648 56.5814 24.2773 56.0939 24.2773 55.4925V51.3331H29.7214V55.4925C29.7216 56.0937 29.2341 56.5814 28.6326 56.5814Z" fill="#161616"/>
<path d="M51.7672 54.563C52.8176 55.6904 53.4416 57.1918 53.4416 58.8024V68.4441C53.4416 69.3033 52.7452 69.9997 51.8861 69.9997H44.1084V64.7992C44.1084 63.149 44.7639 61.5663 45.9309 60.3995L51.7672 54.563Z" fill="#529696"/>
<path d="M44.1119 16.1423V3.11108C44.1119 1.39279 42.7189 0 41.0008 0H22.3341C15.4614 0 9.88965 5.57153 9.88965 12.4445V16.1423C9.88965 17.8143 10.1592 19.4753 10.688 21.0614L11.2058 22.6148C11.3644 23.0906 11.4452 23.5889 11.4452 24.0905V24.8888H42.5561V24.0905C42.5561 23.5889 42.637 23.0906 42.7956 22.6148L43.3134 21.0614C43.8423 19.4751 44.1119 17.8141 44.1119 16.1423Z" fill="#FFA62B"/>
<path d="M36.3342 37.3337H17.667V51.3332H36.3342V37.3337Z" fill="#F7DCB8"/>
<path d="M26.998 51.3331L22.0368 56.2943C21.37 56.9611 20.2678 56.886 19.6978 56.1348L14.5537 49.3565L15.8992 46.521C16.2963 45.6843 17.3319 45.3777 18.1204 45.8636L26.998 51.3331Z" fill="#529696"/>
<path d="M27.002 51.3331L31.9632 56.2943C32.63 56.9611 33.7321 56.886 34.3021 56.1348L39.4463 49.3565L38.1007 46.521C37.7037 45.6843 36.668 45.3777 35.8795 45.8636L27.002 51.3331Z" fill="#529696"/>
<path d="M27.0038 41.9999C18.4127 41.9999 11.4482 35.0354 11.4482 26.4444V24.6219C11.4482 23.7969 11.776 23.0056 12.3594 22.422L13.648 21.1334C14.2314 20.55 14.5591 19.7587 14.5591 18.9334V15.2045C14.5591 14.4842 15.0429 13.8584 15.7438 13.6929C19.4228 12.8239 30.8712 10.7656 38.6622 16.4958C39.1682 16.8678 39.4479 17.479 39.4479 18.1071V18.9334C39.4479 19.7585 39.7757 20.5498 40.3591 21.1334L41.6477 22.422C42.2311 23.0054 42.5588 23.7967 42.5588 24.6219V26.4444C42.5594 35.0354 35.5949 41.9999 27.0038 41.9999Z" fill="#FFEBD4"/>
<path d="M2.22811 54.563C1.17777 55.6904 0.553711 57.1918 0.553711 58.8024V68.4441C0.553711 69.3033 1.25011 69.9997 2.10925 69.9997H9.88693V64.7992C9.88693 63.149 9.23141 61.5663 8.06447 60.3995L2.22811 54.563Z" fill="#529696"/>
</svg>
