<svg width="64" height="70" viewBox="0 0 64 70" fill="none" xmlns="http://www.w3.org/2000/svg">
<path d="M26.0985 14.5795H23.875L23.7383 14.7259V16.0355C23.7383 17.2057 23.0482 17.8719 22.0079 18.4081C20.5801 19.1442 20.1511 23.3214 22.8356 24.6839L23.5983 24.7992L28.9379 22.7323V19.7049L26.0985 14.5795Z" fill="#161616"/>
<path d="M25.7032 18.4081C26.4972 17.9988 27.086 17.513 27.3209 16.7861L26.0985 14.5795H23.875L23.7383 14.7259V16.0355C23.7383 17.2057 23.0482 17.8719 22.0079 18.4081C20.5801 19.1442 20.1511 23.3214 22.8356 24.6839L23.5983 24.7992L25.6293 24.0131C23.9781 22.2806 24.4635 19.0474 25.7032 18.4081Z" fill="#161616"/>
<path d="M41.9872 18.4082C40.9441 17.8705 40.2571 17.204 40.2571 16.0359V14.7052L40.0391 14.499H37.7068L35.0283 19.9138V22.654L40.5401 24.7993L41.0528 24.644C43.6817 23.2448 43.4011 19.1373 41.9872 18.4082Z" fill="#161616"/>
<path d="M44.2693 25.8888C43.9828 25.7779 40.1371 24.2885 37.7087 23.348L37.1233 23.6075H26.9975L26.2741 23.3514C23.8558 24.2891 19.7962 25.8628 19.7292 25.8888C18.3206 26.4685 16.4346 28.2925 16.4346 30.9989V40.2082H47.5636C47.5636 37.2533 47.5636 31.463 47.5636 30.9989C47.5638 28.668 46.0715 26.6305 44.2693 25.8888Z" fill="#FFA62B"/>
<path d="M40.2483 10.8878L40.0643 10.7026H37.8682V14.5507L37.9894 14.8012H39.647C40.7532 14.8012 41.6498 13.9045 41.6498 12.7984C41.6499 11.9018 41.0605 11.1431 40.2483 10.8878Z" fill="#FFEBD4"/>
<path d="M23.7388 10.8691L23.7391 10.871C22.8947 11.1064 22.2744 11.8791 22.2744 12.7984C22.2744 13.9045 23.1712 14.8012 24.2772 14.8012H26.0078L26.198 14.5795V10.6909H23.8804L23.7388 10.8691Z" fill="#FFEBD4"/>
<path d="M39.8299 10.7026H37.8682V14.5507L37.9894 14.8012H39.647C39.7088 14.8012 39.7696 14.7974 39.8301 14.7919V10.7026H39.8299Z" fill="#FFEBD4"/>
<path d="M24.2352 12.7983C24.2352 11.8789 24.8555 11.1061 25.6999 10.8708L25.6996 10.8689L25.8415 10.6909H23.8797L23.7378 10.8689L23.7381 10.8708C22.8937 11.1063 22.2734 11.879 22.2734 12.7983C22.2734 13.9044 23.1702 14.8011 24.2762 14.8011H26.0068L26.0178 14.7884C25.0153 14.6786 24.2352 13.8298 24.2352 12.7983Z" fill="#FFEBD4"/>
<path d="M35.7533 22.5921C35.5199 22.5018 35.3648 22.2772 35.3639 22.0255L35.3623 19.9847L35.0945 19.7048H28.9356L28.6234 19.9967V22.0218C28.6234 22.488 28.2077 22.6003 28.0303 22.669C27.991 22.6843 27.271 22.9634 26.2705 23.3514C26.9887 25.6714 29.1203 27.5001 32.057 27.51C34.6921 27.5189 36.9393 25.7485 37.705 23.348C36.658 22.9425 35.874 22.6388 35.7533 22.5921Z" fill="#F6DCB8"/>
<path d="M31.9957 19.7048H28.9356L28.6234 19.9967V22.0218C28.6234 22.488 28.2077 22.6003 28.0304 22.669C27.991 22.6843 27.271 22.9634 26.2705 23.3514C26.9836 25.6551 29.0909 27.4736 31.9957 27.5086V19.7048Z" fill="#F6DCB8"/>
<path d="M37.3738 10.2891H34.7432L32.6763 7.72107H31.4444L29.5283 9.79673V15.092C29.5283 17.5931 31.0659 19.924 33.5533 20.8141C36.0977 20.1443 37.9894 17.7873 37.9894 15.0415V10.7956L37.3738 10.2891Z" fill="#FFEBD4"/>
<path d="M29.6653 15.0995V9.64441L28.9353 10.4352H26.2703L26.0049 10.7956V15.0995C26.0049 18.178 28.4114 20.9922 32.0567 21.0045C32.6777 21.0066 33.277 20.9094 33.8405 20.7289C31.269 19.9482 29.6653 17.6122 29.6653 15.0995Z" fill="#FFEBD4"/>
<path d="M31.89 0.000577952C27.3507 0.0589569 23.7393 3.84278 23.7393 8.38253V10.8709C23.9108 10.8231 24.0909 10.7956 24.2778 10.7956H26.0084H27.5746C27.7789 10.7956 28.9279 10.7021 28.8435 10.7085C30.2974 10.5972 31.5548 9.49884 31.9011 8.07163C31.9122 8.02611 31.9521 7.99357 31.999 7.99357C32.0459 7.99357 32.0859 8.02611 32.0969 8.07163C32.443 9.49556 33.6888 10.5811 35.1212 10.7026C36.1616 10.7908 36.1757 10.7956 36.3634 10.7956H37.9892H39.6467C39.8603 10.7956 40.0656 10.8298 40.2587 10.8916V8.25962C40.2587 3.66163 36.5019 -0.058758 31.89 0.000577952Z" fill="#161616"/>
<path d="M27.4346 8.38264C27.4346 4.43885 30.1608 1.0671 33.8525 0.211101C33.2225 0.0665889 32.5658 -0.00805951 31.89 0.000690491C27.3507 0.0590694 23.7393 3.8429 23.7393 8.38264V10.8711C23.9108 10.8232 24.0909 10.7957 24.2778 10.7957H26.0084H27.4346V8.38264Z" fill="#161616"/>
<path d="M41.6727 30.5865H39.4493L39.3125 30.733V32.0426C39.3125 33.2128 38.6224 33.879 37.5821 34.4152C36.1543 35.1513 35.7253 39.3285 38.4098 40.691L39.1725 40.8063L44.5121 38.7394V35.712L41.6727 30.5865Z" fill="#161616"/>
<path d="M41.2775 34.4152C42.0714 34.0059 42.6602 33.5201 42.8951 32.7932L41.6727 30.5865H39.4493L39.3125 30.733V32.0426C39.3125 33.2128 38.6224 33.879 37.5821 34.4152C36.1543 35.1513 35.7253 39.3285 38.4098 40.691L39.1725 40.8063L41.2035 40.0201C39.5523 38.2876 40.0377 35.0545 41.2775 34.4152Z" fill="#161616"/>
<path d="M57.5614 34.4153C56.5184 33.8776 55.8313 33.2111 55.8313 32.043V30.7123L55.6133 30.5061H53.281L50.6025 35.9209V38.6611L56.1144 40.8064L56.6271 40.6511C59.2559 39.2519 58.9753 35.1443 57.5614 34.4153Z" fill="#161616"/>
<path d="M59.8435 41.8959C59.5571 41.785 55.7113 40.2956 53.2829 39.3551L52.6975 39.6146H42.5717L41.8483 39.3585C39.43 40.2961 35.3704 41.8699 35.3034 41.8959C33.8948 42.4756 32.0088 44.2995 32.0088 47.006V54.1259H57.4985V50.2057H63.138C63.138 47.2509 63.138 47.47 63.138 47.0059C63.138 44.6751 61.6457 42.6376 59.8435 41.8959Z" fill="#FFD064"/>
<path d="M55.8224 26.8951L55.6385 26.71H53.4424V30.558L53.5637 30.8085H55.2212C56.3273 30.8085 57.224 29.9118 57.224 28.8057C57.224 27.9091 56.6348 27.1505 55.8224 26.8951Z" fill="#FFEBD4"/>
<path d="M39.313 26.8763L39.3133 26.8782C38.4689 27.1136 37.8486 27.8863 37.8486 28.8056C37.8486 29.9117 38.7454 30.8084 39.8514 30.8084H41.582L41.7722 30.5867V26.6981H39.4547L39.313 26.8763Z" fill="#FFEBD4"/>
<path d="M55.4042 26.71H53.4424V30.558L53.5637 30.8085H55.2212C55.283 30.8085 55.3439 30.8047 55.4043 30.7992V26.71H55.4042Z" fill="#FFEBD4"/>
<path d="M39.8114 28.8056C39.8114 27.8862 40.4317 27.1135 41.2761 26.8782L41.2758 26.8762L41.4177 26.6982H39.4559L39.314 26.8762L39.3143 26.8782C38.4699 27.1136 37.8496 27.8863 37.8496 28.8056C37.8496 29.9117 38.7463 30.8084 39.8524 30.8084H41.583L41.5939 30.7957C40.5915 30.6859 39.8114 29.8372 39.8114 28.8056Z" fill="#FFEBD4"/>
<path d="M57.498 50.0804V54.1258H62.0397C62.6461 54.1258 63.1376 53.6343 63.1376 53.028C63.1376 52.5095 63.1376 53.9561 63.1376 50.0804H57.498Z" fill="#FFEBD4"/>
<path d="M51.3314 38.5993C51.0981 38.509 50.9429 38.2844 50.9422 38.0327L50.9406 35.9919L50.6727 35.712H44.5137L44.2016 36.0039V38.029C44.2016 38.4952 43.7858 38.6075 43.6085 38.6762C43.5691 38.6915 42.8491 38.9706 41.8486 39.3586C42.5668 41.6786 44.6984 43.5073 47.6351 43.5172C50.2702 43.5261 52.5175 41.7557 53.2831 39.3552C52.2361 38.9497 51.4522 38.646 51.3314 38.5993Z" fill="#F6DCB8"/>
<path d="M47.5739 35.712H44.5137L44.2016 36.0039V38.029C44.2016 38.4952 43.7858 38.6075 43.6085 38.6762C43.5691 38.6915 42.8491 38.9706 41.8486 39.3586C42.5618 41.6623 44.669 43.4808 47.5739 43.5158V35.712Z" fill="#F6DCB8"/>
<path d="M58.4386 54.126V47.5889C58.4386 47.0701 58.018 46.6494 57.4991 46.6494C56.9803 46.6494 56.5596 47.0701 56.5596 47.5889V54.126H58.4386Z" fill="#FFD064"/>
<path d="M52.9479 26.2963H50.3173L48.2504 23.7283H47.0185L45.1025 25.8039V31.0992C45.1025 33.6003 46.6401 35.9312 49.1275 36.8213C51.6719 36.1515 53.5637 33.7945 53.5637 31.0487V26.8029L52.9479 26.2963Z" fill="#FFEBD4"/>
<path d="M45.2434 31.1068V25.6517L44.5134 26.4425H41.8484L41.583 26.8029V31.1068C41.583 34.1853 43.9895 36.9995 47.6349 37.0118C48.2558 37.0139 48.8551 36.9167 49.4186 36.7362C46.8471 35.9555 45.2434 33.6196 45.2434 31.1068Z" fill="#FFEBD4"/>
<path d="M47.4633 16.0077C42.9239 16.066 39.3125 19.8499 39.3125 24.3896V26.878C39.4841 26.8302 39.6641 26.8027 39.851 26.8027H41.5816H43.1479C43.3521 26.8027 44.5011 26.7092 44.4168 26.7156C45.8706 26.6043 47.128 25.5059 47.4743 24.0787C47.4854 24.0332 47.5253 24.0006 47.5722 24.0006C47.6191 24.0006 47.6592 24.0332 47.6701 24.0787C48.0163 25.5026 49.2621 26.5882 50.6945 26.7097C51.7349 26.7979 51.749 26.8027 51.9367 26.8027H53.5624H55.22C55.4336 26.8027 55.6389 26.8369 55.832 26.8987V24.2667C55.832 19.6687 52.0752 15.9483 47.4633 16.0077Z" fill="#161616"/>
<path d="M43.0079 24.3897C43.0079 20.4459 45.734 17.0742 49.4257 16.2182C48.7957 16.0737 48.1391 15.999 47.4633 16.0078C42.9239 16.0661 39.3125 19.85 39.3125 24.3897V26.8781C39.4841 26.8303 39.6641 26.8028 39.851 26.8028H41.5816H43.0079V24.3897Z" fill="#161616"/>
<path d="M24.1133 26.4813H23.6366L23.4217 26.2754H22.1533V30.5042L22.5234 30.6984H24.1133C25.2195 30.6984 26.1161 29.7543 26.1161 28.5898C26.1161 27.4253 25.2195 26.4813 24.1133 26.4813Z" fill="#FFEBD4"/>
<path d="M8.74254 26.4816C7.63799 26.4835 6.74316 27.4266 6.74316 28.5899C6.74316 29.7545 7.6399 30.6985 8.74596 30.6985H10.336L10.5945 30.2214V26.2754H9.11154L8.74254 26.4816Z" fill="#FFEBD4"/>
<path d="M24.2439 26.4883C24.2005 26.4853 24.1575 26.4813 24.1133 26.4813H23.6366L23.4217 26.2754H22.1533V30.5042L22.5234 30.6984H24.1133C24.1573 30.6984 24.2005 30.6944 24.2439 30.6914V26.4883Z" fill="#FFEBD4"/>
<path d="M8.83373 28.5899C8.83373 27.5117 9.60277 26.6243 10.5945 26.4982V26.2754H9.11154L8.74254 26.4816C7.63799 26.4835 6.74316 27.4266 6.74316 28.5899C6.74316 29.7545 7.6399 30.6985 8.74596 30.6985H10.336L10.3687 30.6382C9.48861 30.4161 8.83373 29.5845 8.83373 28.5899Z" fill="#FFEBD4"/>
<path d="M28.699 41.8959C28.4158 41.7862 24.6524 40.3287 22.2204 39.3868L21.7202 39.6266H11.0829L10.6317 39.3678L4.15891 41.8959C2.75029 42.4756 0.864258 44.2995 0.864258 47.006V49.8712H6.50377V54.1259H31.9935C31.9935 51.171 31.9935 47.4702 31.9935 47.0061C31.9935 44.6751 30.5012 42.6376 28.699 41.8959Z" fill="#A3D2CA"/>
<path d="M5.68961 44.7939C5.68961 42.8856 6.14269 41.5656 7.20773 40.7051L4.15891 41.8958C2.75029 42.4754 0.864258 44.2994 0.864258 47.0059V49.8711H5.68947C5.68961 46.43 5.68961 46.3607 5.68961 44.7939Z" fill="#A3D2CA"/>
<path d="M6.50363 49.746H0.864258V53.028C0.864258 53.6344 1.3559 54.1259 1.96211 54.1259H6.50377V49.746H6.50363Z" fill="#FFEBD4"/>
<path d="M20.1888 38.5993C19.9553 38.5091 19.8002 38.2845 19.7996 38.0328L19.7979 36.0305L19.3841 35.6078H13.4338L13.0589 36.0216V38.0292C13.0589 38.2801 12.9383 38.428 12.7994 38.5222L10.6338 39.368C11.392 41.6946 13.5542 43.5142 16.5179 43.5142C19.1739 43.5142 21.4313 41.7811 22.2225 39.387C21.1345 38.9656 20.3127 38.6473 20.1888 38.5993Z" fill="#F6DCB8"/>
<path d="M16.4282 35.6078H13.4338L13.0589 36.0216V38.0292C13.0589 38.2801 12.9383 38.428 12.7994 38.5222L10.6338 39.368C11.3842 41.671 13.5109 43.476 16.4282 43.5126V35.6078Z" fill="#F6DCB8"/>
<path d="M7.44156 54.126V47.5889C7.44156 47.0701 7.02088 46.6494 6.50203 46.6494C5.98318 46.6494 5.5625 47.0701 5.5625 47.5889V54.126H7.44156Z" fill="#A3D2CA"/>
<path d="M22.22 25.9622L21.7197 25.6282L21.3439 23.9998H20.6131L17.565 26.2128H14.8651L14.6377 26.5799V30.9873C14.6377 33.4387 16.1046 35.7268 18.4913 36.6735C20.8358 35.8542 22.5229 33.6218 22.5229 31.0013V26.6451L22.22 25.9622Z" fill="#FFEBD4"/>
<path d="M14.7308 31.0012V26.6928L15.0281 26.2128H10.6343L10.3369 26.6928V31.0012C10.3369 34.1409 12.797 37.0088 16.5184 37.0088C17.2679 37.0088 17.9851 36.8696 18.6472 36.6177C16.2257 35.7303 14.7308 33.4486 14.7308 31.0012Z" fill="#FFEBD4"/>
<path d="M22.134 18.7847C21.5601 18.8288 21.0333 18.4679 20.9229 17.9028C20.7368 16.9513 20.2656 16.007 18.4254 16.007H12.0406C9.69742 16.007 7.79785 17.9065 7.79785 20.2498V24.9061C7.79785 25.8928 8.59766 26.6926 9.58436 26.6926H16.8307C18.4515 26.6926 19.8592 25.7833 20.5734 24.4474C20.6288 24.3439 20.786 24.3843 20.786 24.5017C20.786 25.7067 21.7719 26.6926 22.9769 26.6926C23.6086 26.6926 24.1254 26.1758 24.1254 25.5442V20.6851C24.1255 19.5405 23.1268 18.7084 22.134 18.7847Z" fill="#161616"/>
<path d="M11.3954 24.9064V20.2499C11.3954 17.9067 13.295 16.0071 15.6382 16.0071H12.0367C9.69352 16.0071 7.79395 17.9067 7.79395 20.2499V24.9064C7.79395 25.8929 8.59375 26.6929 9.58045 26.6929H13.1819C12.1952 26.6928 11.3954 25.8929 11.3954 24.9064Z" fill="#161616"/>
<path d="M39.6836 42.6899H39.2069L38.992 42.484H37.7236V46.7129L38.0937 46.907H39.6836C40.7898 46.907 41.6864 45.963 41.6864 44.7984C41.6864 43.634 40.7897 42.6899 39.6836 42.6899Z" fill="#FFEBD4"/>
<path d="M24.3119 42.6902C23.2073 42.6921 22.3125 43.6352 22.3125 44.7985C22.3125 45.9631 23.2092 46.9071 24.3153 46.9071H25.9053L26.1639 46.43V42.484H24.6809L24.3119 42.6902Z" fill="#FFEBD4"/>
<path d="M39.8142 42.6969C39.7709 42.6939 39.7278 42.6899 39.6836 42.6899H39.2069L38.992 42.484H37.7236V46.7129L38.0937 46.907H39.6836C39.7277 46.907 39.7709 46.903 39.8142 46.9V42.6969Z" fill="#FFEBD4"/>
<path d="M24.404 44.7985C24.404 43.7204 25.1731 42.8329 26.1648 42.7069V42.484H24.6819L24.3129 42.6902C23.2083 42.6921 22.3135 43.6352 22.3135 44.7985C22.3135 45.9631 23.2102 46.9071 24.3163 46.9071H25.9063L25.939 46.8468C25.0589 46.6247 24.404 45.7931 24.404 44.7985Z" fill="#FFEBD4"/>
<path d="M44.2693 58.1047C43.9861 57.9951 40.2227 56.5375 37.7907 55.5957L37.2905 55.8355H26.6532L26.202 55.5767L19.7292 58.1047C18.3206 58.6844 16.4346 60.5084 16.4346 63.2149V66.0801H22.0741V70.0001H41.9243V66.0799H47.5638C47.5638 63.125 47.5638 63.6789 47.5638 63.2147C47.5638 60.8839 46.0715 58.8464 44.2693 58.1047Z" fill="#529696"/>
<path d="M21.2599 61.0028C21.2599 59.0945 21.713 57.7744 22.778 56.9139L19.7292 58.1046C18.3206 58.6843 16.4346 60.5083 16.4346 63.2148V66.08H21.2598C21.2599 62.6389 21.2599 62.5696 21.2599 61.0028Z" fill="#529696"/>
<path d="M22.0741 65.9546H16.4346V68.9021C16.4346 69.5085 16.9262 70 17.5324 70H22.0741V65.9546Z" fill="#FFEBD4"/>
<path d="M41.9268 65.9546V70H46.4684C47.0748 70 47.5663 69.5085 47.5663 68.9021C47.5663 68.3837 47.5663 69.8303 47.5663 65.9546H41.9268Z" fill="#FFEBD4"/>
<path d="M35.7553 54.808C35.5218 54.7177 35.3668 54.4931 35.3661 54.2414L35.3645 52.2391L34.9505 51.8164H29.0002L28.6253 52.2303V54.2378C28.6253 54.4887 28.5047 54.6366 28.3658 54.7308L26.2002 55.5766C26.9584 57.9033 29.1206 59.7229 32.0843 59.7229C34.7403 59.7229 36.9977 57.9897 37.7889 55.5956C36.701 55.1742 35.8792 54.8559 35.7553 54.808Z" fill="#F6DCB8"/>
<path d="M31.9985 51.8164H29.0041L28.6292 52.2303V54.2378C28.6292 54.4887 28.5086 54.6366 28.3697 54.7308L26.2041 55.5766C26.9546 57.8796 29.0812 59.6846 31.9985 59.7212V51.8164Z" fill="#F6DCB8"/>
<path d="M23.0119 70V63.7974C23.0119 63.2786 22.5912 62.8579 22.0723 62.8579C21.5535 62.8579 21.1328 63.2786 21.1328 63.7974V70H23.0119Z" fill="#529696"/>
<path d="M42.8644 70V63.7974C42.8644 63.2786 42.4437 62.8579 41.9249 62.8579C41.406 62.8579 40.9854 63.2786 40.9854 63.7974V70H42.8644Z" fill="#529696"/>
<path d="M37.7903 42.1708L37.29 41.8368L36.9142 40.2084H36.1834L33.1353 42.4214H30.4354L30.208 42.7885V47.1959C30.208 49.6473 31.6749 51.9354 34.0616 52.8821C36.4062 52.0628 38.0933 49.8304 38.0933 47.2099V42.8537L37.7903 42.1708Z" fill="#FFEBD4"/>
<path d="M30.3011 47.2098V42.9014L30.5985 42.4214H26.2046L25.9072 42.9014V47.2098C25.9072 50.3496 28.3673 53.2174 32.0887 53.2174C32.8382 53.2174 33.5554 53.0782 34.2176 52.8264C31.7961 51.9389 30.3011 49.6572 30.3011 47.2098Z" fill="#FFEBD4"/>
<path d="M37.7043 34.9933C37.1304 35.0375 36.6036 34.6765 36.4932 34.1115C36.3071 33.1599 35.8359 32.2156 33.9957 32.2156H27.611C25.2677 32.2156 23.3682 34.1151 23.3682 36.4584V41.1147C23.3682 42.1014 24.168 42.9012 25.1547 42.9012H32.401C34.0218 42.9012 35.4295 41.9919 36.1437 40.656C36.1991 40.5525 36.3563 40.5929 36.3563 40.7103C36.3563 41.9154 37.3422 42.9012 38.5472 42.9012C39.1789 42.9012 39.6957 42.3844 39.6957 41.7528V36.8937C39.6958 35.7491 38.6971 34.917 37.7043 34.9933Z" fill="#161616"/>
<path d="M26.9657 41.1151V36.4587C26.9657 34.1155 28.8653 32.2159 31.2085 32.2159H27.607C25.2638 32.2159 23.3643 34.1155 23.3643 36.4587V41.1151C23.3643 42.1016 24.1641 42.9016 25.1508 42.9016H28.7522C27.7655 42.9015 26.9657 42.1016 26.9657 41.1151Z" fill="#161616"/>
</svg>
