<svg width="100" height="100" viewBox="0 0 100 100" fill="none" xmlns="http://www.w3.org/2000/svg">
<path d="M50 100C77.6142 100 100 77.6142 100 50C100 22.3858 77.6142 0 50 0C22.3858 0 0 22.3858 0 50C0 77.6142 22.3858 100 50 100Z" fill="#E82127"/>
<path d="M50.3736 83.761L59.5734 31.7992C68.3424 31.7992 71.1084 32.7649 71.5078 36.7066C71.5078 36.7066 77.3903 34.5038 80.3572 30.0301C68.7794 24.6422 57.1464 24.3992 57.1464 24.3992L50.3583 32.7024L50.3736 32.7013L43.5855 24.3979C43.5855 24.3979 31.9523 24.6411 20.376 30.029C23.3404 34.5028 29.2252 36.7055 29.2252 36.7055C29.6269 32.7636 32.3895 31.7979 41.0997 31.7916L50.3736 83.761Z" fill="white"/>
<path d="M50.37 22.0003C59.729 21.9284 70.4414 23.4543 81.4077 28.2544C82.8734 25.605 83.2502 24.4341 83.2502 24.4341C71.2625 19.671 60.0361 18.0409 50.3687 18C40.7019 18.0409 29.476 19.6712 17.4898 24.4341C17.4898 24.4341 18.0245 25.8764 19.331 28.2544C30.2952 23.4543 41.0094 21.9284 50.3687 22.0003H50.37Z" fill="white"/>
</svg>
