<svg width="100" height="100" viewBox="0 0 100 100" fill="none" xmlns="http://www.w3.org/2000/svg">
<path d="M50 100C77.6142 100 100 77.6142 100 50C100 22.3858 77.6142 0 50 0C22.3858 0 0 22.3858 0 50C0 77.6142 22.3858 100 50 100Z" fill="#FF9900"/>
<path d="M74.8959 72.1537C46.9252 85.3146 29.5662 74.3033 18.4542 67.6152C17.7666 67.1937 16.5979 67.7138 17.6119 68.8653C21.3139 73.3031 33.446 83.9997 49.282 83.9997C65.1288 83.9997 74.5562 75.4508 75.7356 73.9596C76.9069 72.4809 76.0795 71.6652 74.8957 72.1537H74.8959ZM82.7514 67.8646C82.0003 66.8976 78.184 66.7173 75.7823 67.009C73.3769 67.2923 69.7664 68.7457 70.0803 69.6184C70.2414 69.9453 70.5701 69.7987 72.2226 69.6518C73.8795 69.4883 78.5213 68.9092 79.4886 70.1592C80.4603 71.4179 78.0081 77.4141 77.5602 78.3811C77.1275 79.3482 77.7256 79.5975 78.5383 78.9535C79.34 78.3097 80.7912 76.6423 81.7651 74.2828C82.7323 71.9104 83.3221 68.6009 82.7512 67.8646H82.7514Z" fill="white"/>
<path fill-rule="evenodd" clip-rule="evenodd" d="M56.089 45.2998C56.089 48.7531 56.1773 51.633 54.4119 54.6997C52.9869 57.1932 50.7298 58.7266 48.2079 58.7266C44.7654 58.7266 42.7605 56.1334 42.7605 52.3062C42.7605 44.7512 49.6074 43.3799 56.089 43.3799V45.2998ZM65.13 66.905C64.5373 67.4284 63.6798 67.466 63.0116 67.1168C60.0358 64.6734 59.5061 63.539 57.8669 61.2075C52.9492 66.1694 49.4689 67.6529 43.0885 67.6529C35.5479 67.6529 29.6717 63.0526 29.6717 53.8396C29.6717 46.6464 33.6188 41.7467 39.2297 39.3533C44.0972 37.2337 50.8938 36.8597 56.089 36.274V35.1269C56.089 33.0199 56.2527 30.5266 55.0046 28.7065C53.9074 27.0733 51.8142 26.4001 49.9731 26.4001C46.556 26.4001 43.5044 28.1329 42.7605 31.7233C42.609 32.5214 42.0165 33.3069 41.2096 33.3442L32.5088 32.4218C31.7776 32.2594 30.9707 31.6737 31.1724 30.5639C33.1773 20.1419 42.6972 17 51.2213 17C55.5843 17 61.2837 18.1471 64.7263 21.4135C69.0893 25.4401 68.673 30.8133 68.673 36.6603V50.4736C68.673 54.625 70.4132 56.4451 72.0524 58.6893C72.6323 59.4871 72.7586 60.4473 72.0271 61.0454C70.1987 62.5538 66.9454 65.359 65.155 66.9299L65.1297 66.905" fill="white"/>
<path d="M74.8959 72.1537C46.9252 85.3146 29.5662 74.3033 18.4542 67.6152C17.7666 67.1937 16.5979 67.7138 17.6119 68.8653C21.3139 73.3031 33.446 83.9997 49.282 83.9997C65.1288 83.9997 74.5562 75.4508 75.7356 73.9596C76.9069 72.4809 76.0795 71.6652 74.8957 72.1537H74.8959ZM82.7514 67.8646C82.0003 66.8976 78.184 66.7173 75.7823 67.009C73.3769 67.2923 69.7664 68.7457 70.0803 69.6184C70.2414 69.9453 70.5701 69.7987 72.2226 69.6518C73.8795 69.4883 78.5213 68.9092 79.4886 70.1592C80.4603 71.4179 78.0081 77.4141 77.5602 78.3811C77.1275 79.3482 77.7256 79.5975 78.5383 78.9535C79.34 78.3097 80.7912 76.6423 81.7651 74.2828C82.7323 71.9104 83.3221 68.6009 82.7512 67.8646H82.7514Z" fill="white"/>
<path fill-rule="evenodd" clip-rule="evenodd" d="M56.089 45.2998C56.089 48.7531 56.1773 51.633 54.4119 54.6997C52.9869 57.1932 50.7298 58.7266 48.2079 58.7266C44.7654 58.7266 42.7605 56.1334 42.7605 52.3062C42.7605 44.7512 49.6074 43.3799 56.089 43.3799V45.2998ZM65.13 66.905C64.5373 67.4284 63.6798 67.466 63.0116 67.1168C60.0358 64.6734 59.5061 63.539 57.8669 61.2075C52.9492 66.1694 49.4689 67.6529 43.0885 67.6529C35.5479 67.6529 29.6717 63.0526 29.6717 53.8396C29.6717 46.6464 33.6188 41.7467 39.2297 39.3533C44.0972 37.2337 50.8938 36.8597 56.089 36.274V35.1269C56.089 33.0199 56.2527 30.5266 55.0046 28.7065C53.9074 27.0733 51.8142 26.4001 49.9731 26.4001C46.556 26.4001 43.5044 28.1329 42.7605 31.7233C42.609 32.5214 42.0165 33.3069 41.2096 33.3442L32.5088 32.4218C31.7776 32.2594 30.9707 31.6737 31.1724 30.5639C33.1773 20.1419 42.6972 17 51.2213 17C55.5843 17 61.2837 18.1471 64.7263 21.4135C69.0893 25.4401 68.673 30.8133 68.673 36.6603V50.4736C68.673 54.625 70.4132 56.4451 72.0524 58.6893C72.6323 59.4871 72.7586 60.4473 72.0271 61.0454C70.1987 62.5538 66.9454 65.359 65.155 66.9299L65.1297 66.905" fill="white"/>
</svg>
